<?xml version="1.0" standalone="no"?>
<!DOCTYPE svg PUBLIC "-//W3C//DTD SVG 1.1//EN" "http://www.w3.org/Graphics/SVG/1.1/DTD/svg11.dtd" >
<svg>
<metadata>
Created by FontForge 20090914 at Fri Feb 24 15:51:56 2012
 By root
Copyright (c) 2010 2011, Font Diner, Inc DBA Tart Workshop (diner@fontdiner.com) with Reserved Font Name "Mountains of Christmas"
</metadata>
<defs>
<font id="MountainsofChristmas-Bold" horiz-adv-x="637" >
  <font-face 
    font-family="Mountains of Christmas"
    font-weight="700"
    font-stretch="normal"
    units-per-em="1024"
    panose-1="3 0 5 0 5 6 0 10 0 4"
    ascent="819"
    descent="-205"
    x-height="463"
    cap-height="719"
    bbox="-100.143 -354.381 935 1058"
    underline-thickness="20"
    underline-position="-116"
    unicode-range="U+0020-U+FB02"
  />
<missing-glyph horiz-adv-x="317" 
 />
    <glyph glyph-name=".notdef" horiz-adv-x="317" 
 />
    <glyph glyph-name=".null" horiz-adv-x="0" 
 />
    <glyph glyph-name="nonmarkingreturn" horiz-adv-x="341" 
 />
    <glyph glyph-name="space" unicode=" " horiz-adv-x="225" 
 />
    <glyph glyph-name="exclam" unicode="!" horiz-adv-x="244" 
d="M102 695l26 6q8 -1 14.5 -4.5t12.5 -5.5q4 -8 6 -16t5 -15l4 -10q6 -13 6 -17.5t4 -13t2.5 -14t3.5 -10.5q-5 -5 -2.5 -15t-3.5 -16q5 -6 4.5 -18t4.5 -17q-3 -12 -0.5 -28t-4.5 -25q6 -35 -6 -54q-4 -6 -9 -8.5t-7 -9.5t0 -12t4 -12q-7 -10 -5 -22.5t0 -21.5t-5 -15
t-4.5 -11t-0.5 -10.5t1 -10.5q-6 -19 -6 -25t-5 -11q0 -8 0.5 -14.5t-0.5 -13.5t-3.5 -13.5t-4.5 -12.5q-7 -1 -10.5 -6.5t-11.5 -4.5q-5 9 -6.5 9.5t-3 2t-4.5 3.5t-6.5 8t-3.5 30.5t-0.5 31t2.5 10.5q-5 11 -5 27.5t-6 34.5q0 5 0.5 10.5t-0.5 12.5t-2.5 15.5t2.5 17.5
q-5 16 -4 32.5t0.5 21.5t3.5 8q0 3 -2 5t-3.5 6.5t-0.5 10.5t-3.5 19t2.5 37q-3 9 -3 11l1 14l-3 16q0 25 8.5 59.5t17.5 51.5q5 2 10 2zM97 119q2 5 10 5q12 5 40 -5q0 -11 5.5 -15t6.5 -13q19 -19 15 -41v-6q0 -4 -1 -6q-7 -5 -6.5 -6.5t-1 -3t-5.5 -3t-12.5 -10t-17 -6.5
t-16.5 2q-8 10 -24 14q-3 5 -5 11t-7 10q2 8 0.5 12.5t-3.5 11.5q-1 24 10 43q2 2 5.5 2.5t6.5 3.5z" />
    <glyph glyph-name="quotedbl" unicode="&#x22;" horiz-adv-x="295" 
d="M114 667v-30l1 -13q0 -5 -1.5 -8.5t-2.5 -12.5t-1.5 -13t2.5 -16t0 -18q-6 -9 -6 -23.5t-6 -26.5q-14 -9 -26.5 -1t-15.5 14t-8 18q2 16 2 33.5t-5 34.5q3 3 3 9v10l-1 41l2 12l-2 18q0 17 4 26t3 14q3 5 8.5 7.5t10.5 7.5q2 1 11 -6q9 -5 16 -17q4 -12 5 -12q4 0 4 -18
q-2 -15 3 -30zM248 637v-13q0 -5 -1 -8.5t-2 -12.5t-1.5 -13t2 -16t-1.5 -18q-5 -9 -5 -23.5t-6 -26.5q-13 -8 -27 0.5t-23 30.5q2 16 2 33.5t-5 34.5q3 3 3 9v10l-1 41l2 12l-2 18q0 17 4 26t3 14q3 5 8.5 7.5t10.5 7.5q2 1 11 -6q9 -5 16 -17q4 -12 5 -12q5 0 5 -18
q-2 -14 -0.5 -19t2 -11t0.5 -11.5t1 -18.5z" />
    <glyph glyph-name="numbersign" unicode="#" horiz-adv-x="609" 
d="M287 300l24 2q6 2 12.5 1t12.5 -1q5 12 5 16.5t2.5 10t6 19t13 35.5t12.5 49q5 5 6.5 12t3.5 14q-36 -6 -49 -3t-13.5 4.5t-14 0.5t-25.5 6q-10 -3 -25 -12q-7 -8 -6 -15.5t-0.5 -15.5t-5.5 -13.5t-2 -13.5q-10 -10 -11.5 -27t-5 -19.5t-6.5 -9t-4 -11.5t-3 -9.5
t-2 -20.5l18 1l17 -2l17 3q6 1 11.5 0t11.5 -1zM521 521l43 -3q18 -8 13 -31q-1 -3 -5 -7t-6 -7t-7 -7q-18 -14 -35.5 -10t-24.5 3.5t-17.5 -1.5t-19.5 3q-5 0 -11 -3q-5 -34 -25 -75q-2 -7 -4.5 -12t-4 -11t-0.5 -8.5t2 -5.5q-3 -4 -4 -8.5t-3 -9t-4 -8t-4 -7.5q9 -2 20 0
t24.5 3.5t26 2.5t23.5 8l20 -2t20 -3q2 -6 9 -10t8 -9.5t-1.5 -8.5t-4.5 -8q-9 -1 -18 -4.5t-18 -5t-16.5 1t-24 1.5t-24 -5t-13.5 -5.5t-16 -2.5q-15 0 -29 -6q-15 -49 -11 -71l-24 -51q3 -7 6 -11t2.5 -10t-4 -8.5t-8 -6.5t-7.5 -7.5t-8 -5t-11.5 1t-12.5 0.5l-17 15v17
q-2 5 -5 7t-4 7q1 5 2 11t4 8q2 8 3 14.5t3 14t4.5 14t3.5 12t0.5 10.5t2 13.5t2.5 12t1 5.5q-17 3 -25 0t-21 0t-28 6q-16 -11 -42 -9l-31 -74q4 -11 2 -11t-2 -3t1.5 -7.5t1 -11t-4 -7t-4.5 -5.5t-3.5 -6.5t-3.5 -6.5q-3 -2 -9 -1.5t-9 -2.5t-7.5 -2t-11 6t-8.5 11
q2 9 0.5 16.5t0.5 11t1 7t0.5 8t3.5 8t3 7t0 7.5t0 7.5t3 6t3.5 7.5t2 12t2.5 15q2 2 3.5 4.5t3.5 5.5q-13 -1 -17.5 0t-10.5 -0.5t-13 -5.5t-18 -4.5t-18 3.5t-14 6q-2 8 -6 13t-4 15q5 4 11 5t13.5 2.5t14 0.5t12 0t8.5 2.5t9 3t12 1t14 -0.5q10 4 19 2q2 12 1 18
q14 42 16 46q0 5 -1 8q-2 6 3.5 14t6 18.5t1.5 18.5q5 14 6 20t3 12h-18q-7 0 -16 -3.5t-18 2t-17 7.5q-7 -2 -9.5 -6.5t-16.5 -6t-26.5 7.5t-10.5 23q2 5 7.5 8t7.5 8q8 2 14.5 1.5t14.5 1.5t15 6t15 6q10 0 13 -1.5t8 -2.5h27q5 1 11.5 1.5t12.5 1.5q1 16 4.5 26t4.5 17.5
t3 13.5t3 12.5t5 11.5q-2 13 4 20t9 15t2.5 15t1.5 12q3 5 5 12t5.5 12t7.5 12q18 5 29 4q24 -26 15 -59q1 -4 -1.5 -6t-4.5 -4q4 -9 0 -20.5t1 -17.5q-2 -8 -5 -12.5t-1 -14.5q-5 -2 -6.5 -6t-3.5 -8t0 -6t1 -6.5t-2 -9.5t-3 -10q9 0 13 1l15 2q5 1 10 -0.5t11 -1.5l14 3
l41 -1l28 5v6q0 6 6 19t9.5 29t8 30t4 21t2 10t4.5 10.5t2.5 18.5t4.5 19t3.5 9.5t2.5 4.5t3.5 5.5t7 5.5t11 0.5t9.5 -0.5q14 -8 15 -21.5t0 -26t-1 -15.5l2 -11q-3 -5 -3 -13l-5 -11q2 -9 -1 -15l-6.5 -13.5t-5 -19t-3.5 -20.5t-2.5 -12.5t-2.5 -7.5z" />
    <glyph glyph-name="dollar" unicode="$" horiz-adv-x="381" 
d="M165 730q2 2 15.5 2t13.5 3q8 -1 8.5 -5.5t6.5 -6.5q3 -20 2 -33.5t1 -27.5q2 -9 26 -9q10 -5 15 -6.5t12 -4.5t9.5 -5t6.5 -4q10 -9 16 -15t9.5 -9t6 -10t7.5 -10q-3 -7 2.5 -12.5t6.5 -16t-6 -31.5t-20 -23q-30 2 -35 34q-8 8 -16 14.5t-15 14.5q-7 4 -14 5
q-17 2 -23 14q-7 10 -29 1h-9q-4 0 -6 2q-9 -5 -14.5 -7.5t-13.5 -10.5q-1 -6 -5.5 -11t-3.5 -11t-1 -12t0 -11.5t6 -10.5t7.5 -10t5.5 -14.5t5 -14t7 -7t8 -6.5q5 -11 6 -11.5t3.5 -4t10.5 -6.5t14 -6q1 -8 7.5 -14t12.5 -13.5t13 -14t13.5 -7t10.5 -9.5q5 -4 10 -9t12 -9
q10 -26 38 -45q2 -5 3 -10t8 -5q2 -6 3 -11q4 -12 12 -20t7.5 -24t0 -24.5t-2.5 -19t0 -22.5q-11 -18 -16 -19.5t-8.5 -5t-7.5 -9t-9 -10.5q-8 -1 -12 -5.5t-9.5 -8t-12.5 -5.5t-10 -8q-7 2 -13.5 -4t-12.5 -8q1 -8 0.5 -9t1 -5.5t-0.5 -8t-2 -7.5l3 -17q-1 -11 0.5 -12
t2 -6t-1 -13.5t0.5 -17.5q-4 -2 -6.5 -5.5t-14 -6.5t-21.5 7q-12 9 -10 23.5t3 25.5l-2 15q0 5 2 9t-1.5 11t-13.5 11t-18 4q-2 3 -6.5 4t-9 3t-9.5 2t-9 2.5t-5.5 6t-6.5 2.5q-2 6 -7 10.5t-4.5 6t-3 4.5t-6 6.5t-7.5 8.5q5 9 -1 14.5t-7.5 14.5t5.5 22.5t6 19.5q3 1 8 6
l11 11q19 19 30 19h17q7 -9 3 -17t-3 -21q-9 -14 -7.5 -29t3.5 -17.5t7 -6.5t7 -12l9 -7q10 -4 29 -4l23 6q9 0 15 4t15 2q5 5 10.5 8.5l11.5 7.5q2 10 8 16t6.5 15.5t-4 16t-4.5 17.5q-5 8 -14 12t-12 13q-5 1 -8.5 2.5l-8.5 3.5q-28 34 -68 51q-9 14 -18 25q-12 2 -22 6
q-1 4 -10 10q-8 8 -7 16q-11 11 -24 14q-7 12 -15 13q1 12 -4.5 16.5t-10.5 10.5q5 11 -2 20t-9 16t-2 11.5t-1 12.5q-9 44 5 68q5 8 7 17q11 20 32 46q4 2 8 3q20 4 30 14q12 4 20 6q25 4 20 15q-2 6 3 12q1 16 1.5 22t0.5 13q-5 10 -3 14.5t3 9.5z" />
    <glyph glyph-name="percent" unicode="%" horiz-adv-x="570" 
d="M334 342q-27 -14 -22 -33q-7 -11 -6.5 -13t-4 -10.5t-7 -14.5t-9.5 -10q0 -11 -9.5 -26t-9.5 -22t-14 -24v-13q-9 -8 -13.5 -20t-15.5 -19q0 -8 -3.5 -11.5t-5.5 -8.5v-11q-8 -10 -12 -24t-15 -22q-11 2 -19.5 1t-15.5 1q-5 5 -7.5 4.5t-6.5 2.5t-6.5 13t-0.5 19.5
t5.5 18l7 17t3.5 17.5q16 16 16 35t7.5 26t5.5 15q12 16 18.5 36.5t17.5 35.5l2 15q6 9 9 18.5t7.5 18.5l9 18t4.5 20q4 2 5 7t6 7q-1 6 1 10l5.5 11.5t4 9t7 13.5t6.5 27q8 5 8 13q0 16 7 23t9.5 17t5.5 17t9 15.5t9 19.5l-7 15q-19 -4 -38 -7t-29 -17q-4 -2 -8.5 -2t-7 -3
t-4.5 -6.5t-4.5 -7l-4.5 -6.5q-11 -10 9 -34q1 -3 0 -8.5t1 -10.5q-1 -10 -1 -15t-1.5 -11.5t-9.5 -19.5q-4 -10 -10 -17t-6 -9.5t-1 -4.5q-10 -9 -13.5 -15t-5 -5.5t-2.5 0.5q-1 -1 -2.5 -5.5t-2.5 -5.5q-7 -4 -10.5 -7.5t-6.5 -5t-12 0t-15 0.5l-15 -2q-6 1 -12.5 4
t-12.5 4t-10 0t-8.5 0.5t-9 7t-12.5 3.5q-2 2 -2.5 5.5t-4 8t-8.5 12.5q2 7 -1.5 17t-4 17.5t-3.5 15.5q2 8 5 16t3 20q4 5 5.5 12t3.5 15q6 8 9.5 16.5t7 13.5t6 7t2.5 5l14.5 9t8.5 13q17 -2 25 5.5l16 15.5q6 1 11.5 2.5t13.5 2.5q4 -3 7.5 0t5.5 3h18q9 2 10.5 1t3.5 -1
l23 6q13 -1 16.5 1t8.5 3t11 1t13 1l12 1q12 1 18.5 3t10 2t10 3t11.5 3.5t11 2.5t11.5 7.5t10.5 8t9 2t6 3.5q5 -4 10.5 -1.5t9.5 3.5q8 -2 9.5 -10.5t7 -20.5t5.5 -21l-1 -31q-5 -11 -6 -13t-2.5 -6t-2 -7.5t-2.5 -8t-3.5 -7.5t-3.5 -7.5t-2.5 -9.5t-4.5 -7q-3 -17 -7 -21
q5 -11 0 -21q-11 -19 -16 -28.5t-11 -12.5q-1 -5 1 -5.5t1 -5.5q-4 -2 -10.5 -11.5t-8 -11t-1 -6.5t-4.5 -8q-1 -5 1 -5.5t0 -5.5q-6 -4 -5.5 -9t-1.5 -15q-7 -11 -7 -17zM119 488l-1 -20q-1 -14 3 -22.5t5 -16.5q33 -8 46 37q3 2 5 4t5 3q1 8 3.5 14.5t3.5 13.5
q-8 16 -12 35q-11 -1 -19 4q-16 10 -32 -6q-1 -2 -2 -7t-6 -13.5t-2.5 -14.5t3.5 -11zM526 258l10 -16t3 -17t-3 -12t-2.5 -12t-2 -20.5t-10.5 -15.5q-5 -14 -16 -22q-10 -4 -12.5 -7t-5.5 -5t-6.5 -1t-4.5 -3q-9 5 -16 -0.5l-12 -9.5t-8 -1t-9 2q-5 2 -6.5 -2.5t-6.5 -3.5
q-4 3 -8 2.5t-10 1.5t-11.5 6.5t-13.5 4.5q-2 1 -3.5 4.5t-7 9.5t-7.5 11t-6 7q0 22 -9 37q-4 23 4 66q9 10 13 22q6 20 23 31q16 19 29 30h12q8 5 19 7.5t17 6t9.5 2.5t7 -3l7.5 -4.5t8 -3.5q7 -26 19 -35q2 -17 8 -28.5t8 -28.5zM488 256q-7 14 -10 28q-15 -2 -19.5 1.5
t-15 -0.5t-17 -21t-3.5 -41.5t2 -44.5q9 -13 25 -12q30 3 30 25q2 3 6 4.5t3 6.5q3 6 3 10t1.5 17t-5.5 27z" />
    <glyph glyph-name="ampersand" unicode="&#x26;" horiz-adv-x="516" 
d="M392 631q0 7 11 7h6q8 -6 7 -7.5t0 -2.5q7 -21 -5 -33l-2 -16.5t-5 -13.5v-13q0 -8 -4 -13q-18 -16 -37 -10q-2 8 -5 10v12q0 7 0.5 12t-5 10t-13.5 7.5t-11 9.5q-11 2 -21 9q-39 0 -49 -12q-3 -4 -3.5 -10.5t-5.5 -10.5q2 -10 0.5 -24t12.5 -18q5 -11 5.5 -12.5t5 -6.5
t7.5 -9t7.5 -8.5t10 -7.5t9.5 -6.5t5.5 -7t6.5 -5.5q2 -9 7.5 -13t7 -14.5t-7.5 -16.5q-8 -8 -11.5 -7.5t-17 -5t-23 0t-14.5 7.5q-11 -5 -21 -5.5t-19.5 -4t-17.5 -9t-19 -3.5q-14 -10 -24 -22.5t-10 -16.5t-1.5 -8.5t-3.5 -7t-4 -6.5q4 -14 -3.5 -27t-7.5 -22.5t2 -13.5
q6 -10 2 -22l2 -15v-23l-2 -17q1 -3 3 -6.5t4 -8l3.5 -8t3.5 -7.5t3 -8.5t5 -10t6 -9.5q9 -9 10.5 -11t5 -5t9.5 -5t8 -10q11 -2 14 -9q9 -2 17 -5t22 -6.5t26 -2t12 5.5t5 5.5l10 3t10.5 7t10.5 6.5q2 6 6 10t7.5 8.5t6.5 9t10 6.5q4 10 10 17.5t8.5 12t6.5 8.5
q4 11 9.5 20.5l10.5 18.5q-5 6 -5 19.5t-5.5 19t-9.5 13.5q-8 21 -31.5 16t-29 -4t-11.5 -1t-10.5 -7.5t-12.5 -10.5q-9 -23 -17 -29q1 -7 -2.5 -12.5t-2.5 -17t-1 -13t-2 -5.5q-6 -8 -7 -11t-7 -3t-9.5 7t-9.5 9q-5 21 -12 29q-1 10 4 15q-4 2 -1 7t1 10l11 14v14
q2 8 6.5 10.5t5.5 9.5q6 2 10.5 6t12 8.5t18 9t18.5 12.5q5 1 8 1t6.5 1t6 2.5t5.5 2.5t6.5 0.5t9 1.5t10.5 6t10.5 6t9.5 0.5t15 1.5t16 7t12.5 7t10 5t6 3.5t8.5 1t8.5 2t6.5 8l7 13.5t8.5 14.5t19.5 3.5q0 -8 5.5 -15t5 -13.5t-3 -9.5t-3.5 -8.5t-3.5 -8.5t-4.5 -8
q-14 -5 -22.5 -12t-23.5 -9l-10 -9q-2 -3 -4 -8q-3 -6 -10 -16t7 -27q1 -13 8 -24t7 -19.5t-1 -10.5t-2.5 -6.5t-1 -10.5t-1 -12t-5.5 -9.5t-2 -12.5q-5 -3 -7 -8q-9 -23 -17 -28q-6 -21 -22 -34q-4 -2 -7 -2q-4 -29 -34 -36q-5 -3 -8 -9t-15.5 -6t-30.5 -9q-11 2 -25 -4
q-11 4 -23 6l-14 -2l-13 3q-3 1 -6 1q-16 -3 -39 10q-12 3 -17 3q-12 19 -46 21q-13 13 -24 17q-14 8 -16 17.5t-7 16.5q-9 9 -8.5 12t-4 11t-4.5 12.5t-5 7.5q2 6 -1 11.5t-4 12.5q2 16 1 26.5t2.5 26t4 22.5t2.5 12.5t3 7t3 6.5t4.5 9t5 10t3.5 10t9.5 15t9.5 17
q8 4 12.5 12t9.5 15q11 6 13.5 6t4.5 2q6 9 7 8.5t3 0.5q5 6 12.5 8t14.5 9q6 3 13 5t13 7q5 0 8.5 1.5t8.5 2.5q5 6 10.5 7.5t7 9t-6.5 12.5q-9 4 -13.5 18t-7 18t-1.5 6t1 6l-6 14l2 11q0 5 -1 16t0.5 16t5.5 9t6 8.5t2 10t3.5 10.5t10.5 8l14.5 6.5t12.5 5.5t14 7.5
t18 5.5t19 3.5t17.5 2t13.5 -0.5q2 -2 7.5 -3t14.5 -10q11 -6 17 -12q23 -7 36 8q2 2 2 5z" />
    <glyph glyph-name="quotesingle" unicode="'" horiz-adv-x="162" 
d="M114 667v-30l1 -13q0 -5 -1.5 -8.5t-2.5 -12.5t-1.5 -13t2.5 -16t0 -18q-6 -9 -6 -23.5t-6 -26.5q-14 -9 -26.5 -1t-15.5 14t-8 18q2 16 2 33.5t-5 34.5q3 3 3 9v10l-1 41l2 12l-2 18q0 17 4 26t3 14q3 5 8.5 7.5t10.5 7.5q2 1 11 -6q9 -5 16 -17q4 -12 5 -12q4 0 4 -18
q-2 -15 3 -30z" />
    <glyph glyph-name="parenleft" unicode="(" horiz-adv-x="335" 
d="M34 395l3 14q2 10 1.5 17.5t4.5 15.5q2 6 2.5 19.5t2.5 21.5t5 14.5t7 21.5q10 31 18 41t8 14t1.5 7t6 6t7 7l5 8t7.5 5l4 10t3 11q9 6 12 9q5 10 7 10t5 8.5t6.5 12t10 12t20.5 19.5q9 10 11 11q5 2 12 11t13.5 13.5t8.5 9.5q12 9 15 9t6 2t7 4t7.5 5.5t10 3t15 1
t18 6.5t19.5 1q0 -5 2.5 -7t4.5 -4q1 -8 -1.5 -12.5t-4.5 -12.5q-4 -2 -17 -2q-8 -2 -12 -6.5t-12 -6.5q-2 -3 -3.5 -7t-3.5 -7q-5 -2 -7.5 -7t-8.5 -7q-8 -29 -16 -35q0 -11 -5 -17.5t-2 -14.5q-6 -7 -11 -14.5t-13 -12.5q-2 -11 -8.5 -18.5t-12.5 -15.5q2 -18 -4 -30
t-7.5 -15.5t-1.5 -7t-1.5 -8t-4.5 -17.5t-8.5 -20t-8.5 -12q-2 -11 -1 -22t-1 -17t-4 -9t-4 -6.5t-3 -6.5t-4 -5q2 -5 0.5 -20.5t4.5 -21.5l-4 -10t-3 -13t1.5 -17t0.5 -16.5t2 -8.5t3 -6q2 -10 1 -18t2 -22t12 -32.5t10.5 -22.5t1 -11.5t1.5 -13.5q7 -11 7 -12.5t1.5 -5
t5 -8.5t3.5 -11q7 -8 11.5 -19t9.5 -21q3 -12 9.5 -21t8.5 -23q3 -4 8 -5.5t6 -8.5l12 -3q10 -16 23.5 -25t26.5 -20q4 1 4 -2.5t0.5 -5t3.5 -0.5q9 -15 6.5 -20t-6.5 -9q-8 -2 -15 0t-15 0q-11 8 -26 12q-5 6 -8.5 13.5t-12.5 9.5q-1 9 -7 15q-10 2 -16.5 2t-14 4t-10 8.5
t-10 12.5t-8.5 10q-10 5 -10 7.5t-8.5 8t-13.5 19.5q-7 7 -11 14t-12 11q-2 20 -20 34q-2 12 -6.5 13.5t-6.5 7.5t-2.5 13.5t-3 15l-5.5 16t-3.5 15t-2.5 12.5q-5 7 -4.5 10t-2.5 7.5t-2 6.5t-3 9.5t-3.5 14t-5.5 11.5v36q0 3 -1 5.5t-2.5 9.5t-0.5 17t-0.5 19.5t-3.5 18
t-2 16.5z" />
    <glyph glyph-name="parenright" unicode=")" horiz-adv-x="316" 
d="M187 292l-2 23q0 8 3 17q6 15 -1.5 29t-5.5 21.5t2 12.5q0 21 -3.5 27t-4.5 9.5t0 7t-2 9.5l-5 10q-2 4 -5 7q1 5 -1.5 9t-4 8.5t-1.5 9t-2 10.5t-6 13t-6 15q-8 7 -10.5 16t-6.5 18l-7 15.5t-3 18.5q-3 5 -6.5 8.5t-4.5 10.5q-5 -1 -6 5t-4 8q-19 11 -22.5 24t-4 17
t-5.5 8q-11 5 -16 10l-10 10q0 5 -2.5 7t-0.5 7q-10 14 -20 29.5t-5 39.5q2 4 6 2t10 1t10.5 3t10 -1.5t16.5 -1t15 -4t8.5 -9t9 -8.5t5.5 -9q5 1 7 -3t5 -8q3 -2 8 -4t12.5 -11t12.5 -14q5 -1 7.5 -5.5t7.5 -6.5q3 -10 8.5 -15t7.5 -15q3 -4 6 -6t6 -5q4 -10 5 -10
t2.5 -4.5t5 -8.5t5 -9t4.5 -12.5t8.5 -15.5t10.5 -16.5t8 -18t9.5 -24.5t11.5 -35t15 -40q0 -17 4 -31.5t5 -26.5t0 -20.5t2 -16.5q-10 -26 -6 -32t3 -14t-0.5 -11t-1.5 -9t-0.5 -9.5t-1.5 -10.5t-3 -10.5t-1 -6.5t-3 -6q-6 -7 -6 -22.5t-6 -27.5q-2 -9 -3 -14t-5 -12
q-4 -4 -4.5 -7.5t-4.5 -2.5q-2 -12 -7.5 -20.5t-9 -16.5t-6 -9t-4.5 -4.5t-3 -7.5t-3.5 -10.5l-5.5 -14t-13 -10.5q1 -8 -4.5 -10t-10.5 -6q-4 -8 -7 -15.5t-10 -12.5q-12 -7 -14.5 -11t-7.5 -6q-7 -6 -14.5 -9t-13.5 -7t-9 -8t-8 -9q-14 -5 -24.5 -15t-26.5 -13
q-8 4 -13.5 14.5t-3 19.5t7 11t9.5 4.5t8.5 7t11.5 4.5q12 12 18 16t10 7.5t5 7.5t3 7q15 11 23.5 28t21.5 31l3 21l9 18q2 5 3 9.5t5 6.5q0 14 5.5 23t8 18t4 16.5t4 17.5t1.5 15q0 10 5 26z" />
    <glyph glyph-name="asterisk" unicode="*" horiz-adv-x="432" 
d="M234 605l2 -11q0 -3 -1.5 -6t-0.5 -6.5t3 -6t4 -5.5q5 1 8.5 5t10.5 9.5t17.5 15t21.5 17.5q2 4 5 6q5 3 8 7t8 4q1 2 3 4t2 6q7 2 12.5 8t16.5 14.5t26 1.5q-2 -7 -1 -11.5t-0.5 -8.5t-5.5 -6t-3 -7q-13 -3 -18 -15q-6 -2 -9 -6.5t-9 -5.5q-5 -10 -14.5 -16t-13.5 -18
q-19 -4 -20 -23q-27 -9 -38 -34q-1 -5 3 -7.5t8 -9.5t10 -10.5t8 -11.5q9 -2 13.5 -7.5t12.5 -8.5q2 -5 4 -8.5t4 -8.5q20 -9 30 -28q13 -10 22.5 -22.5t20.5 -23.5q2 -4 1.5 -9.5t-0.5 -10.5q-5 -5 -8.5 -9t-8 -5.5t-10 0.5t-12.5 3q-4 9 -10.5 14.5t-8.5 16.5
q-11 11 -21 16q-2 9 -8.5 13.5t-10 7.5t-6.5 6t-8 3q-2 5 -6.5 8t-9.5 7.5t-9.5 9.5t-10.5 3q-9 -2 -8.5 -12t0.5 -13v-16q-4 -13 -3 -16t-1.5 -11.5t-1 -14t1.5 -13t-4.5 -15.5t-0.5 -16q-6 -4 -11 -10q-16 -19 -40 9q-2 5 0 8t2 8l-2 11l8 32l-3 11q3 15 1.5 19.5t-1 8.5
t2 6t2.5 7t0.5 11.5t-0.5 13.5q-5 3 -6.5 -0.5t-5.5 -5.5q-15 0 -19 -4.5t-10 -7.5q-2 -2 -3 -4.5t-11 -8t-18 -14t-21 -13.5q-5 -9 -12 -15q-12 0 -19 7q-2 8 1.5 12t1.5 13q7 5 11 12t14 9l8 12q14 12 22.5 15.5t10.5 13.5q7 -1 9 4.5t11 4.5q14 23 24 29
q-9 10 -13.5 14.5t-12.5 4.5q-6 12 -17.5 16.5t-16.5 15.5q-5 1 -7 3.5t-7 3.5q-2 3 -3 6t-3 6q-12 8 -25 28q-7 3 -10.5 10.5t-11.5 11.5q-1 11 -2 12t-1 4.5t5 15.5l12 -4q4 -1 8 1.5t9 -1.5q8 -10 12.5 -14t6.5 -9q11 -9 20.5 -22.5t19.5 -19.5t15 -17q6 0 10.5 -5.5
t10 -5.5t8.5 2.5t8 4.5q-2 5 1 10.5t3 32t-1 35t4 16.5q-3 11 1.5 24t4 15.5t1 6t5 6t4.5 6.5q18 2 27 -3q9 -11 9 -29t-7 -30q3 -24 3 -30z" />
    <glyph glyph-name="plus" unicode="+" horiz-adv-x="516" 
d="M192 413q2 4 2 20t3 37l-3 15v13l1 22q0 18 17 28q8 0 20 1.5t12 -8t4.5 -12t6.5 -9t1 -13t0.5 -18t1 -20t2.5 -15.5q-2 -6 1 -16l-3 -16v-15l-3 -16q1 -10 5 -20.5t5 -24.5q8 -8 16 -5.5t20 4t26 1.5t26 2.5t13 1.5t4 -0.5t5.5 1.5t9.5 2.5t19.5 2.5t22.5 3t16.5 4
t12 3.5l9 2.5t7.5 0.5t5.5 -2.5t6.5 -1q1 -6 3 -11.5t0 -10.5q-4 -13 -30 -19q-10 -3 -24.5 -3t-19.5 1t-10.5 0t-9.5 -4.5t-12 -5.5l-21 -2q-7 0 -17 -4t-13.5 -3.5t-11 -2.5t-15.5 -3t-39 -18l2 -36q-3 -12 -3 -16l5 -37q0 -5 -1.5 -9t2.5 -8q-3 -9 -7 -17v-24
q0 -8 -2 -14q-5 -5 -7.5 -4t-5.5 -0.5t-10 -8t-14.5 -2.5t-8.5 10.5t-3 13.5q-4 7 -4 19.5t3 19.5t2 14l-5 17q0 4 1.5 8t-0.5 7q-1 8 -3.5 14t-3 13.5t0.5 15.5q1 28 -12 32q-4 2 -5.5 4.5t-4.5 4.5q-9 0 -19 5q-4 -1 -6.5 -3t-10 -3.5t-7.5 -2.5t-3.5 -2t-8 0t-9.5 1
l-12 -2q-4 0 -6.5 1t-9.5 -1.5t-14.5 -3t-18 1.5t-21.5 0q-8 13 -7 22q5 5 12 4q14 -1 33 7q2 0 6.5 -1.5t10.5 0t14.5 4t18.5 3.5h14q13 -1 16.5 1t10 2.5t15.5 -1.5t17 5q4 10 2 19.5t2 20.5q-5 9 -3.5 18.5t-3.5 20.5z" />
    <glyph glyph-name="comma" unicode="," horiz-adv-x="197" 
d="M151 82l4 -46q2 -28 -13 -38q0 -5 -2 -8t-1 -8q-10 -6 -14 -16l-8 -16q-3 -7 -7 -12q-4 -2 -9 -7q-23 -10 -37 2q1 8 1.5 14t2.5 12q3 2 5.5 3t5.5 3q5 12 10.5 19t5.5 9.5t1 4.5q5 8 9 16q11 19 -8 38q-38 -16 -51 2q-4 4 -1.5 7t2.5 7t-2 6.5t-4 5.5q-1 9 7 28
q23 21 52 10q5 2 15 4q6 -4 11.5 -9t11.5 -9q6 -19 13 -22z" />
    <glyph glyph-name="hyphen" unicode="-" horiz-adv-x="398" 
d="M193 244q-7 2 -11.5 0t-10.5 -4q-11 2 -23 6t-20 -4q-5 -1 -12.5 -0.5t-13.5 -1.5q-8 -4 -17.5 1t-15.5 5t-8 5q0 12 8 25q17 3 34.5 5t32.5 5q7 0 12 -3q12 8 26 5t26.5 -1t23 6.5t22.5 6.5t23 1t24 2t21.5 0.5t18.5 -0.5q7 -13 5 -31q-9 -11 -18 -16q-30 8 -50 -2
t-35 -5.5t-19.5 3.5t-22.5 -8z" />
    <glyph glyph-name="period" unicode="." horiz-adv-x="185" 
d="M76 137q7 -1 9.5 -4.5t6.5 -6.5q9 4 13 -3q13 -2 17.5 -6t11 -10.5t8.5 -12.5q5 -13 2 -25q-10 -19 -12 -32q-5 -1 -7.5 -4t-5.5 -5q-17 -6 -30 0t-14 9t-8 4t-11 3q-2 6 -7 12.5t-1 14.5q-3 6 -10 9q6 10 7.5 18t7 14.5l11 13t12.5 11.5z" />
    <glyph glyph-name="slash" unicode="/" horiz-adv-x="300" 
d="M158 553q9 10 10 27t4 20t5 8q-1 19 6.5 36t10.5 36q6 1 11.5 3.5t14.5 5t19 -7.5q3 -12 6.5 -20.5t2 -21t0.5 -21.5q-6 -8 -8 -35.5t-14 -40.5q1 -12 -2 -24t-2.5 -15t-1 -7t-4.5 -9.5t-5 -11.5q1 -8 -0.5 -9t-2.5 -3t0 -6t-0.5 -6.5t-4.5 -6t-5.5 -12t-1 -23.5
t-3 -23.5t-4 -10t0.5 -3.5q-6 -7 -5.5 -11t0 -6.5t-3 -5t-0.5 -7.5q-3 -3 -5 -7t-5 -8q-1 -5 1 -7t2 -6q-3 -5 -4.5 -11.5t-5.5 -11.5q-1 -6 1 -8.5t2 -9.5q-5 -14 -10 -23q5 -16 -7 -37q1 -22 -6.5 -38.5t-13 -31t-7.5 -19t-1.5 -9t-1 -9t-4 -8t-4.5 -8.5t-3 -8
q-2 -6 -8 -8l-11 -5q-20 -9 -27 -5.5t-12.5 12t-6.5 14t1 9t4 12t4 14.5l4 13q3 8 8 15q-2 9 1 13.5t5 9.5q5 55 14 73q-1 13 5 19q0 26 9.5 51.5t8.5 36t3.5 11.5t6.5 13.5t7.5 34.5l9 35.5t5.5 22.5t2.5 12.5t1.5 8t4 11.5t3 10.5t1.5 9t4.5 13t1 15.5z" />
    <glyph glyph-name="zero" unicode="0" horiz-adv-x="421" 
d="M168 559l39 9q9 0 16.5 -3t14.5 -4t13 -0.5t12.5 -0.5t12.5 -3.5t14 0.5q2 -4 5 -3q6 2 17 -9q8 -5 8.5 -6.5t4 -4.5t9.5 -6.5t12 -8.5q3 -11 16 -27q2 -5 4.5 -18t8 -24.5t5.5 -20t1 -13.5l2 -20l-4 -12q0 -1 0.5 -4.5t-0.5 -8t-3 -10.5t0 -13q-5 -3 -5.5 -9.5
t-5.5 -9.5q-8 -12 -9 -15t-3 -7l-5 -10q-3 -6 -11.5 -8.5t-11 -6l-4.5 -6.5q-11 -5 -16 -10t-9.5 -7t-11.5 -3.5t-13 -3.5t-16.5 -2.5t-18.5 -3t-8 -3.5t-13 -4t-23 -3l-22 5q-6 1 -12.5 -1t-12.5 0.5t-10 7t-13 4.5q-2 4 -5.5 6l-8.5 5t-12 6q-5 10 -13.5 15.5t-10.5 17.5
q-18 11 -23 30q-1 3 -0.5 6t-2 8t-6.5 11q-6 11 -2 29q0 10 1.5 11.5t2 5t-1 8.5t0 13t7.5 16t5 17q4 2 5.5 6.5t5.5 11t3.5 8.5t10.5 14.5t12 21.5q8 0 10.5 4.5t5.5 8.5q4 0 6.5 2t6.5 4t8 4.5t10.5 4t11.5 5.5q11 7 19 7zM329 421l-10 16q0 6 -2 11t-3 9q-6 9 -6 12.5
t-1.5 7l-3.5 8.5t-5.5 8.5t-7.5 7t-9 8.5q-6 -1 -10 2t-9 4.5t-10.5 1.5t-11.5 1q-8 6 -18 8l-14 4q-11 3 -47 -18q-2 -10 -5.5 -18.5t-1.5 -22.5q-7 -13 -3 -21q-5 -6 -6 -12.5t-5 -23.5t-0.5 -38.5t4.5 -34.5q4 -2 6 -7t6 -12.5t4 -12.5q8 -6 14 -14q9 -2 16.5 -5l15.5 -6
q8 4 14 3t12 1t10.5 5t9 4.5t9 1t8 1.5t5.5 4.5t7 6.5t6 3.5t4.5 2.5t7 5.5t7.5 7.5t9 9l11 9q5 20 3 35.5t0 37.5z" />
    <glyph glyph-name="one" unicode="1" horiz-adv-x="345" 
d="M277 486l-3 -18q0 -5 0.5 -8.5t-0.5 -10t-3 -15t1 -19.5q4 -4 1 -26t8 -53q-5 -14 -3 -30.5t1.5 -27.5t-4 -26.5t-1.5 -37.5t2 -43t-3 -28t-5 -13t-3 -14t-3.5 -21.5t-2.5 -27.5q-6 -10 -17 -14.5t-21 -11.5q-9 2 -14.5 1t-13.5 1q-2 2 -5 7.5t-6.5 9.5t-4.5 8.5t0 8.5
t1.5 12.5t-1.5 22.5t3 22q-3 5 -2 11.5t1 12.5l-4 17q1 8 -2 19l2 14q0 33 -7 43q2 3 2 8t3 7q1 5 -2.5 7t2.5 20q-5 30 -5 50l4 13q0 3 -1.5 6.5t2 17t3 31.5t-0.5 34l4 13l-2 14q0 16 -5 24q-7 0 -11 -5q-6 -10 -12 -10q-7 -11 -9.5 -12.5t-3.5 -3.5q-48 -5 -66 -16
q-5 3 -11.5 1.5t-12.5 -1.5q-16 5 -22.5 5t-14.5 2q-3 9 0 21q5 4 9 4.5t11.5 3.5t11 1.5t16.5 1t31.5 9t25.5 8.5q12 4 20 12q11 4 13 3q3 5 8 8.5t4 13.5q5 5 10 8t4 11q5 0 11.5 6.5t8.5 11t1 8t1 7.5q6 4 7.5 8.5t6.5 6.5q8 -2 16 0.5t15 1.5q17 -7 19.5 -11.5
t6.5 -16.5q6 -10 5.5 -14.5t0.5 -9t3 -8t3.5 -11t-0.5 -27t-1 -22.5t0 -5z" />
    <glyph glyph-name="two" unicode="2" horiz-adv-x="404" 
d="M250 171l-10 -13l-4 -6l-8 -12t-12 -13t-12 -11t-2 -11q9 -9 20 -5.5t19.5 3.5t16 -2.5t15 1t10.5 2.5q6 -2 17 4.5t16.5 6t11 -1.5t9 0.5t5.5 -3.5q6 -12 -2 -33q-5 -2 -16.5 -2.5t-15.5 4.5q-4 -2 -10.5 -6.5t-14 -4.5t-11.5 -3q-5 4 -9.5 2.5t-16 -1t-21 -3t-19.5 4.5
q-17 -8 -37.5 -10.5t-33 -8t-19 -10t-16.5 -1.5q-4 -1 -6.5 -3t-8.5 0q-8 6 -12 10q-2 5 1.5 10t5 12t6.5 12q4 8 5.5 9t4.5 7t8 11t12.5 20t9.5 15t16 28.5t16.5 34.5t10.5 17t15 38q5 12 5.5 17.5t3 14.5t7 20.5t4.5 18t2 13.5t5.5 16.5t5 18t1.5 13t1.5 8.5t2.5 7t2.5 6
t2 6t4 12.5t3.5 21.5l-2 12q5 14 5 18q0 8 3 23l1 15q2 10 0 13.5t-2 9.5t1.5 14.5t-2 16.5t-2.5 9.5t-3 8t-5 11t-3 9t-5 10.5t-5 12q-14 3 -24 10.5t-24 9.5q-9 -3 -18.5 -7.5t-17.5 -2.5q-3 -3 -6 -7t-9.5 -7.5t-11.5 -11.5t-9.5 -13t-10.5 -9t-11 -9q-7 -12 -7 -17
t-5 -7q1 -10 -1.5 -12.5t-3.5 -5.5t0 -6t-1.5 -13t1.5 -19.5t12 -12.5q-1 -5 1.5 -7t1.5 -6q8 1 12.5 0.5t11.5 2.5q7 12 5.5 24.5t3.5 26.5q8 2 20 -1.5t17 -8.5q0 -4 1.5 -6.5t2.5 -8t-2.5 -12t0.5 -17.5q-5 -7 -8.5 -14t-7 -10.5t-7 -3t-4.5 -3.5q-12 1 -12 -1v-4
q-6 3 -10 1t-12 -0.5t-16 8.5t-19 8q-3 3 -4 6.5t-5.5 11.5t-7 11.5t-4 10t1 16t-2.5 19.5q4 6 3 13t0 11.5t3.5 9.5t4.5 10.5t4.5 11t5 12t9.5 14t9 16.5q8 5 13.5 11.5t15.5 8.5q0 7 3 9t4 7q15 5 30 12.5t20 8t19 1.5l17 2q10 -5 15 -5t11.5 -1.5t17.5 -2.5t20.5 -7
t16.5 -10q11 -9 14 -9.5t7 -3.5t7 -9t9 -6q3 -17 18 -27q-2 -4 0.5 -7t4 -7t2 -8t3.5 -11l6 -14.5t2 -10t0.5 -7.5t3.5 -13q12 -33 7 -72l1 -4q-7 -5 -6 -14.5t-0.5 -19t-3 -16t1.5 -11.5q-6 -8 -7 -19t-3.5 -19t-4.5 -12t-4.5 -12t-3 -18t-10.5 -13q1 -10 -7 -18
q1 -3 -2 -14q0 -11 -4 -16t-6 -9.5t-1 -8.5t-2 -10.5t-10.5 -16l-11 -14l-7.5 -9.5q-1 -4 -2.5 -6t-1.5 -7q-6 -5 -6 -6z" />
    <glyph glyph-name="three" unicode="3" horiz-adv-x="401" 
d="M312 659l10 -5q35 -13 21 -52q-2 -8 -5.5 -14t-6.5 -16q-6 -4 -10 -9.5t-10 -8.5q-1 -5 -4 -8.5t-4 -8.5q-3 -2 -5 -4.5t-6 -2.5q-3 -11 -14.5 -25t-15.5 -27q-5 -2 -7.5 -6t-11.5 -13l-18 -18t-15 -20q4 -8 17 -11t20 -12q9 2 20 -5t18 -7q9 -8 15 -19t17 -19
q5 -26 13 -39l6 -24q4 -11 3.5 -15.5t3.5 -7.5q1 -23 2 -43t-4 -42q-13 -34 -19 -55q-22 -15 -25 -35q-7 -5 -15 -8.5t-13 -11.5q-15 -4 -24.5 -10.5t-13.5 -7t-6 -4.5l-13 1q-5 -2 -11 -4t-14.5 -8.5t-29.5 -2.5t-22 5.5t-4.5 2.5t-7 -0.5t-12.5 2.5t-12 10t-7.5 6t-11 4
t-5.5 6t-5 7t-8 8t-9 12.5t-9 15t-4.5 7.5t-4.5 5q-1 6 -3 9t-2 9v10q0 4 -1 7v13l7 32q0 5 4.5 11t4.5 8t1.5 5t5 6t4.5 8q13 8 27.5 10.5t21 4.5t12 1.5t11.5 -4.5l12 -3q10 -1 13.5 -3t9.5 -1q4 -5 5 -12t2.5 -14t1.5 -10.5t-4.5 -12t-14.5 -9t-13 5t-15 6.5
q-4 5 -6.5 9.5t-12.5 8t-35 -17.5q0 -8 -3.5 -10t-5.5 -6q1 -6 1 -15.5t-5 -13.5q0 -6 4 -9t2 -10q11 -11 14 -22q18 -8 21 -19q12 -3 25 -16q6 -2 15.5 -2.5t15.5 -3.5q7 1 10.5 5.5t11.5 4.5q9 15 12.5 18t4 6t4 10t5.5 12t4 8t-1 9q6 7 7.5 16.5t4 18t4.5 14t3 12t1 12
t2 15t5 19t4.5 15.5t0.5 10t2 13t3 17v15q0 6 0.5 13.5t-2 13.5t-12.5 9t-15 11q-9 -3 -19 -1t-24 -2.5t-23 -8t-16 -13.5q-9 -1 -18 -5.5t-17 -1.5q-21 8 -23 25q-2 25 15 42l12 12q5 5 10 12t6 7t2.5 2.5t5 5.5t7.5 7q1 4 4 6.5t4 7.5q5 0 8 4t7.5 9t13 17.5t10 13t4 4
t6.5 10.5t7 10.5l5 6t4 6.5t7 10t5.5 9t7.5 12.5t7 21.5q-11 11 -32 5.5t-32 -2.5l-18 -7q-4 2 -12 0.5t-17 7.5q-5 0 -8 -0.5t-7 2.5l-7 16q-1 4 -2.5 9.5t2.5 12.5q5 3 10 4l12 2.5t14 1t16.5 2t12.5 0.5t28 2l20 -1h22q15 -5 25.5 -1.5t14 3t11 1.5t10.5 1t7 -1t10 3z
" />
    <glyph glyph-name="four" unicode="4" horiz-adv-x="403" 
d="M84 325l1 13q9 9 9 15t2 10.5t5.5 10.5t3.5 14q7 9 8.5 9.5t4 9t5 15t4.5 14.5t4 10t7 8q1 5 1 8q0 9 4 15.5t4 10t2 8t5 10t2 12.5q13 8 17.5 19.5t7.5 14.5t6 7q4 11 5 11t2.5 3.5t12 7.5t16.5 8q0 7 2.5 7t4.5 2t10 0.5t13 -0.5q3 -1 4.5 -4.5t4.5 -5.5q22 -18 17 -29
q3 -2 1.5 -6t0.5 -9t2.5 -7.5t5 -10t-3.5 -15.5q3 -8 3 -17t1 -17l2 -14q0 -6 -1.5 -7.5t-3.5 -8.5l3 -13q1 -10 -0.5 -19t4.5 -17q-4 -10 -4 -19l4 -19q0 -5 -2.5 -13.5t-2 -15.5t-4.5 -12q8 -15 6 -29q-5 -24 3 -47q0 -5 -0.5 -8t1.5 -7.5t1 -11t1 -14.5q3 -5 3.5 -12
t3 -8.5t4.5 -3.5q11 1 23 0t22.5 2.5l17.5 6t17 -0.5q3 -6 5 -16.5t4 -17.5q-12 -10 -18 -11t-11 -5q-4 2 -7 2h-7q-4 0 -6 -1.5t-5.5 -2.5t-7.5 0.5t-7 1.5q-2 -5 -8.5 -6t-11.5 -3q-4 -9 0.5 -18t1 -15t-0.5 -7t4 -5l-10 -32q1 -12 -0.5 -15t-1.5 -5l3 -19q1 -3 0 -5.5
t-0.5 -6.5t-1 -8t2 -12t5.5 -13q1 -36 -23 -48q-8 0 -17.5 2.5t-17.5 3.5q-6 7 -15 15q-6 16 -2.5 28.5t3 24.5t-3.5 13l-6 2q4 6 7 9q1 26 1 52.5t-6 52.5q-9 -2 -16.5 -4.5t-19 -4t-16.5 -4.5t-13 2q-5 -1 -7 -3t-8.5 -3.5t-14 1t-14.5 0t-11 -4.5t-8.5 -3t-8 -0.5
t-9 -0.5t-12.5 -4t-15 -1q-19 -8 -26 -4.5t-11 4.5q-11 34 -3 66q6 9 6 11.5t6 23t15 27.5q1 8 11 25q0 13 2 14.5t4 4.5t4 11q7 30 20 51zM226 233q-5 10 -6 15q4 15 5.5 57t5.5 56q-2 5 -3 14.5t-3 14.5q-1 5 0 10.5t-1 11.5q-3 3 -9 4t-10.5 -3.5t-3.5 -12.5
q-13 -5 -19 -46q-2 -10 -1 -17q-3 -4 -7.5 -6.5t-7 -12l-3.5 -13.5t-0.5 -7t-0.5 -8.5t-4 -13t-4 -14.5q-2 -3 -5 -3.5t-3 -4.5q-3 -4 -4 -11t-6 -10.5t-6 -7.5t0 -6t1 -7q-6 -9 -5 -17q-2 -5 -7 -14.5t-5 -16.5q13 -6 17.5 -5t8 1t12.5 3q16 2 32.5 1t29.5 5q2 6 7.5 10
t6 10t-0.5 12t-3 17t2 15z" />
    <glyph glyph-name="five" unicode="5" horiz-adv-x="424" 
d="M353 323l9 -15q0 -2 1.5 -4.5t3 -6.5t4 -7.5t5 -6t4 -6.5t1.5 -7.5t1.5 -7.5t3 -6.5t2.5 -6t1.5 -7.5t2.5 -12t1.5 -16t-0.5 -19t2 -21t-1.5 -22.5l-5 -18t-2 -9.5t-2 -7.5t-3 -6.5t-0.5 -8q-12 -10 -19.5 -24.5t-16 -23.5t-14.5 -19q-5 -5 -10 -11.5t-11 -9t-14 -0.5
q-20 3 -35 -12q-17 -5 -32 -8.5t-29 2.5q-35 -8 -52 6q-5 4 -13 2q-3 1 -6 5.5t-8.5 6t-10.5 4.5l-11 6.5t-8.5 8.5t-2 11.5t-1.5 14t-5.5 14t-3.5 12.5t7 18q4 19 10.5 28.5t9.5 27.5q5 4 12.5 5t12.5 3q6 -2 12 -5t16 -1q3 -4 7.5 -5t9.5 -3q7 -15 6 -31q-2 -5 -5.5 -6
t-10.5 -5.5t-14.5 -3t-13.5 1.5q-15 0 -15 -19q-19 -11 -11 -27q1 -2 5 -4.5t2 -7.5q10 -3 19.5 -5.5t14.5 -10.5q20 0 34 -3.5t25 1t18 12.5t20 7q4 4 11.5 14t13.5 16q20 25 20 86v44q0 4 -2 7.5t-3 8.5t-0.5 10t-2.5 12.5t-9 14.5t-8 16q-5 6 -11 11t-11 10
q-10 -1 -16.5 1.5t-14 1t-12.5 -7.5t-15 -4q-4 -2 -10 -16q-3 -4 -7 -6t-5 -8l-13 -4q0 -5 -4 -6.5t-8 -4.5q-8 -12 -15 -15.5l-13.5 -6.5t-17 0.5t-20.5 -0.5q-8 6 -13 14t-11 15q6 23 2 33q-8 15 -6 25.5t-1 18t-4 15.5t2 20.5t3 25.5l-1 35v28l3 40q0 5 -1 7t1.5 8
t2.5 21t2 22l3 18q5 26 17 33q19 3 43 10q7 1 7.5 -4.5t5.5 -5.5q19 0 27 3.5t12.5 4.5t8 0t9 0.5t11 3.5t8 2t9.5 1.5t19.5 2.5t21.5 6q24 -5 64 4q9 2 17 -7t8.5 -16.5t-1.5 -9t-4 -8.5q-20 -9 -27 -9l-31 -7q-8 0 -14.5 2t-14.5 0t-18.5 -10t-24 -7t-27.5 -1
q-13 -6 -18 -8.5t-8 -8.5q0 -8 1 -17t-0.5 -18.5t-5 -18t1.5 -25.5t4.5 -31t1 -25.5t0.5 -13t1 -11t3.5 -13t5 -5.5t6.5 -6q22 11 34.5 13t17.5 7q9 -3 17.5 -1.5t14 0.5t9 -3t7.5 -3.5t8 -1t10 -3l10.5 -6t10.5 -7.5l10 -7q4 -3 10 -7l12 -8q5 -9 5 -11z" />
    <glyph glyph-name="six" unicode="6" horiz-adv-x="432" 
d="M231 -8l-15 -2l-16 4t-13 3t-9 3q-11 9 -13 10.5t-4 4t-5 3.5q-8 2 -18 22q-7 1 -10 4.5t-9 3.5q-7 24 -27 32q-3 9 -9 14t-5 18q-6 8 -10 18t-12 16q-1 31 -6 46t-4.5 18t-2.5 12t-2.5 18t0.5 20t-1 22.5t0.5 22t1.5 16.5t1 10q4 6 3 8q-1 5 6.5 12.5t11.5 46.5
q7 8 10.5 19t7.5 18t8 11t7 8.5t5 10t8 6.5q1 6 3 10.5t4 11.5q5 4 7 6t6.5 4.5t8 6.5l7 8t7 6t7.5 6.5t6.5 8.5t12.5 10t14 12q17 5 23 12h11q9 0 15.5 5t13.5 7.5t20.5 0.5t22.5 -0.5t14 4t9 3t8.5 -1t9.5 1.5q2 -3 6 -5.5t7 -5.5q12 -1 15.5 -4.5t11.5 -4.5q4 -8 9 -19.5
t-2 -22.5q-12 -5 -21.5 3.5t-19.5 15t-18 4t-12.5 -1t-12.5 0.5q-12 -5 -15 -3.5t-5 1.5q-12 -6 -16 -6h-7q-3 -2 -6 -4.5t-6.5 -5l-10 -7t-9 -9t-7.5 -6.5q-7 -32 -28 -48q1 -8 -4 -16t-4 -16q-9 -2 -11 -11.5t-8 -14.5v-11q0 -10 -5 -19t-7 -20t-1.5 -24t-1.5 -37t1 -33
t4 -13l-2 -22q0 -23 9 -52q11 -2 17.5 -2t10.5 14q7 13 21.5 26.5t18 17t17.5 7.5q12 1 16 3.5t19 2.5q35 9 52 -8q6 -6 16 -5l4 -6t7 -2q8 -15 16 -18l7.5 -19.5t8.5 -18.5q-2 -9 0 -16.5t0 -17.5q-5 -11 -3.5 -14.5t1.5 -10.5t-3 -11.5t-7 -17.5q-10 -28 -18 -30
q-4 0 -7 -2q-2 -10 -10 -13.5t-11 -12.5q-4 -2 -6.5 -4.5t-10 -7.5t-23 -10.5t-28.5 -13.5q-5 3 -11 1.5t-13.5 1.5t-12.5 3zM253 40l14 -2q5 1 18.5 7t21 13t12 8.5t6.5 3.5l7 10q4 7 5.5 7t3.5 3.5t3.5 10t6.5 11.5q1 10 1.5 19t2.5 19q-5 11 -7 13t-3.5 6.5t-3.5 6.5
q-6 3 -6.5 5t-7 4t-8 5t-3.5 3q-3 2 -9 2h-12q-19 4 -25 0.5t-15 -8t-16 -9.5q0 -8 -5 -13t-8 -11l-4 -12q-1 -2 -0.5 -5.5t-5.5 -15.5t-4 -22t3.5 -16.5t0.5 -8.5t0 -4.5t3 -5.5t3.5 -6.5t3 -9t4.5 -10.5q5 -3 11 -0.5t12 2.5z" />
    <glyph glyph-name="seven" unicode="7" horiz-adv-x="400" 
d="M285 611q19 -4 41.5 2t31.5 10.5t16 1t7 -7.5t1.5 -8t3.5 -7t2.5 -10t-6 -16t-16.5 -13q-5 -21 -15 -31q0 -10 -7.5 -24t-7.5 -23q-8 -5 -11.5 -12.5l-7.5 -15.5q4 -13 -0.5 -24.5t-6 -21.5t-10.5 -13q0 -4 -6 -19q7 0 13 1.5t11.5 0.5t10 -4t9.5 -5q15 3 25 -10
q2 -10 -2 -27q-2 -3 -5.5 -2.5t-13.5 -1t-16 1.5t-14 4l-23 -6q-6 0 -12 3q-1 -4 -1.5 -8t-2.5 -9q-9 -12 -9 -18.5t-4.5 -13.5t-2.5 -13q-2 -2 -4.5 -3t-4.5 -4q-2 -17 -10 -33l-15 -30q-5 -14 -7.5 -18t-4 -7.5t-0.5 -7.5t-1 -7q-5 -4 -4.5 -7t-4.5 -10l-8 -11.5t0 -12.5
q-4 -2 -4 -5.5t-3 -5.5q2 -5 -1 -11t-3 -11.5t-2.5 -10.5t-7.5 -11t-5 -15q-6 -5 -9.5 -12t-9.5 -13q0 -5 1.5 -8t0.5 -8q-5 -7 -16 -11q-13 -16 -23 -15t-13 3.5t-8 3.5q-4 7 -6 13q-5 0 -6.5 3.5t-3.5 5.5q2 9 2 13v16q6 6 7.5 18t3.5 14.5t4 5.5q-2 5 0.5 9.5t4.5 9.5
l-1 12q5 15 10 28q4 5 4.5 10t1.5 10q5 5 6 11.5t3.5 12t4 9.5t4 9t1.5 7q9 29 9 43q5 3 5.5 10t5.5 11.5t8 12.5t1 8.5t-1 2.5q5 4 5 6t3 8t2 9.5t-1 6.5q1 3 6 10l6 18q-20 3 -31 11q-5 1 -10 -2.5t-13 -2.5t-18.5 9.5t-8.5 19.5t8 12.5t12 9.5q8 -2 13 -1t8.5 -2.5
t10.5 -5.5t18 -3.5t22 -3.5q11 21 14 35q4 8 8.5 15.5t6.5 17.5q8 8 13 21.5t12.5 25l9.5 14.5t3.5 6.5t4.5 7.5q7 9 -8 19q-15 3 -16.5 3t-9.5 -1l-38 1l-24 -4q-2 -1 -5.5 0t-12.5 1t-23 -2.5t-28 -0.5l-13 3l-16 -2q-3 -1 -7.5 0.5t-11 2t-13 0t-15 2.5t-12.5 14t4 25
q10 3 12.5 0t11.5 -4q8 3 18.5 2.5t24.5 0.5l21 2l25 -3l37 5q3 0 5.5 -1t19.5 2t25 2t14.5 0t15 1t20 -1.5t22.5 6.5z" />
    <glyph glyph-name="eight" unicode="8" horiz-adv-x="465" 
d="M335 455q1 -11 -7 -19q4 -9 11 -14.5l15 -11.5q4 -5 6 -8t8 -10q12 -18 30 -26q1 -8 4.5 -14t6 -12t4 -12.5t4.5 -9.5t3.5 -6t3.5 -11.5t4 -17.5l-2 -18q0 -13 2 -27t0 -24.5t-6.5 -14.5t-2.5 -16q-2 -2 -4.5 -3.5t-4.5 -3.5q-6 -11 -5.5 -13t-1.5 -4.5t-5 -4.5
q-6 -6 -10 -20q-7 -2 -10 -8t-7 -12q-9 -3 -15 -9.5t-17 -8.5q-5 -5 -6.5 -10.5t-5 -8.5t-7 -4.5t-8 -4t-7.5 -6.5t-6.5 -6t-8 -2.5t-6.5 -4.5q-11 0 -19.5 -4.5t-23 -11t-29.5 4.5q-11 -2 -19.5 -4t-18.5 0q-7 6 -10 6.5t-8 4.5t-13 4q-8 11 -19 16q-5 12 -15 16q-1 3 -3 5
t-1 6q-12 5 -18 6q-3 2 -4.5 6t-4.5 6t-4.5 5.5t-6.5 3.5q0 9 -4.5 21l-6.5 17.5t-7 10.5q0 7 -2 17q1 3 -3 8t-4 18l-5 45l3 18q-1 13 0.5 16t2 6t-0.5 7t0 7.5t2.5 6.5t3 7.5t1 10t1 12t9 16.5t11.5 16t7 10l10 14t19 16t17 13q14 0 29 15q-6 18 -16 23t-13 11
q-1 15 -2 22.5t0 15.5q4 11 3 13t3 16q7 25 39 42q8 11 9 12.5t5.5 4.5t9 8t9 7t12.5 3t15 3q64 12 68 -13q8 -2 16.5 -2t14.5 -1t10 -5.5t9 -5.5q1 -6 4.5 -9t7.5 -9.5t7 -8.5q4 -11 8 -15v-11q5 -5 6.5 -13t4.5 -14q-5 -11 -4 -22q-2 -5 -5.5 -9.5t-2.5 -12.5
q-5 -3 -10 -5.5t-7 -10.5q-5 -1 -8 -3t-8 -3zM311 487q6 0 8.5 4.5t6.5 7.5q16 7 11 41q-8 5 -11 19q-4 2 -8.5 6t-13.5 6t-13 -1q-8 7 -21 5t-16.5 4.5t-7.5 12t-10 2.5q-7 -3 -15.5 -22.5t-9.5 -24.5t-3 -14t-2 -27.5t9 -41.5q13 -1 25.5 -3.5t21 -0.5t13.5 5t9 4.5t7 1
t8.5 5t6.5 7.5t5 4zM146 375l2 -11q0 -8 -5 -22t-7 -23.5t-2 -24t1 -24.5q-2 -12 -0.5 -14.5t3 -10.5t0 -16t0.5 -23t5 -28t5 -26q2 -3 4.5 -3.5t2.5 -5.5q2 -2 1.5 -5.5t1.5 -7.5q9 -9 10 -11.5t3 -4.5q6 -3 8 -9l26 -18t19.5 -6t16.5 4t11 2.5t8 1.5t10.5 8t14.5 5
q8 8 13 15t11 13.5l11 11.5t8 9.5t4.5 10t6.5 8.5q-2 8 5 18.5t0 32.5q1 4 4 5t1 6v27q-1 8 -3 16t1 17q-8 16 -8 40q-5 4 -5.5 8.5t-4.5 11t-13 13t-8 20.5q-7 3 -14 7q-1 6 -3.5 9.5t-5.5 8.5q-8 -8 -17.5 -3.5t-18.5 4.5l-17 -3q-7 0 -17.5 5t-15.5 1t-11.5 -5t-15.5 -3
l-10 -10q-4 -4 -11 -6q2 -5 -1 -8t-4 -7z" />
    <glyph glyph-name="nine" unicode="9" horiz-adv-x="424" 
d="M287 99l-12 -2q-6 -4 -9 -11q-9 -1 -16.5 -6.5t-16 -10.5t-15.5 -8t-11 -5t-8.5 -3.5t-11 -1t-13 -0.5t-12.5 -3t-14.5 -1t-18.5 8t-22 7q-4 8 -12.5 10l-16.5 4q-2 5 -4 11.5t-5 11.5q-6 20 -2 34t14 18q11 -6 13 -20.5l4 -29.5q5 1 8.5 2t8.5 0q22 -19 36 -19l17 5
q20 0 50 34q24 18 27 29q1 4 6 10t4.5 7.5t1 5t4.5 8t5 10.5q3 3 4.5 8.5t5.5 13.5t7.5 24.5t5.5 24t3 14t0.5 12t0.5 21t-4 33.5q-7 1 -9.5 -3t-8.5 -4q-3 -16 -14 -23.5t-20 -15.5q-7 2 -13.5 -1t-11.5 1q-5 0 -6 -2.5t-5 -3.5q-16 5 -26 -4q-11 5 -24.5 1t-25.5 0
t-16 4.5t-7.5 2.5t-7 5.5t-11.5 7.5t-10 4.5t-4 1.5q-5 11 -6.5 10.5t-3.5 1.5q0 7 -6 16t-5 19q-3 4 -4.5 8t-5.5 6q3 5 -5 26q-1 5 1 8.5t3 8.5l-2 19q0 5 2.5 11t-0.5 11q5 -1 5 4t4 7q1 19 8.5 29.5t9.5 26.5q5 6 10 14.5t12 15.5t8.5 11t3.5 6q10 6 16 12t18 9
q8 5 11.5 4.5t7.5 1.5t8.5 7.5t10.5 8t23 1t23 -0.5t13.5 -1t12.5 -8.5t16 -10.5q3 -13 13 -17t18 -12q11 -2 13 -8t7 -4q5 -18 14 -22q2 -18 10 -28t9 -10t3 -1q5 -14 7 -21q2 -14 9 -28t8.5 -21t4.5 -12.5t2.5 -7t2.5 -10t2.5 -16.5t-0.5 -17l4 -31q0 -4 -1.5 -8.5
t-3 -15.5t-1 -30.5t-8.5 -32.5v-16q-11 -18 -14 -33q-5 -2 -6.5 -7.5t-8.5 -6.5q-1 -10 -8.5 -19t-9.5 -12.5t-6 -3.5q-1 -5 -3 -7.5t-5 -7t-7.5 -9.5t-8 -10.5t-4.5 -8t-3 -4.5zM273 415l-4 17q0 4 0.5 8t-2.5 13t-6 21.5t-6.5 19t-3.5 14.5q-7 10 -9 10.5t-4 4t-2.5 9
t-3.5 9.5l-14 11t-8 6q-18 10 -46 0q-2 -10 -7 -20q-23 -46 -23 -69l-6 -45l4 -25q1 -8 -0.5 -15t0 -12t5 -10.5t4.5 -11.5q8 -6 13 -8.5t7.5 -4t14 -3t25.5 2.5t26 6q3 5 8.5 8.5t10.5 8.5q4 8 15.5 25t11.5 30z" />
    <glyph glyph-name="colon" unicode=":" horiz-adv-x="233" 
d="M165 406l2 -15q-5 -7 -5 -11q1 -8 -9 -10q-8 0 -12.5 -4t-7.5 -4l-11 2q-5 0 -7.5 -0.5t-9 2.5t-13 6.5t-14.5 4.5q-2 5 -6.5 7.5t-6.5 9.5t0 17t-3 17q2 14 13.5 20.5t19 6.5t15.5 -5q11 1 18.5 -1.5t17.5 -4.5q1 -5 6 -6.5t8 -5.5q5 -14 5 -26zM78 54q-7 16 -2 45
q20 20 39 24q5 2 9 -1t14 -9t14 -10t7 -7.5t5 -5.5q0 -35 -6.5 -44t-13.5 -11t-16 -0.5t-16 1.5t-12.5 5t-9.5 6t-3 5z" />
    <glyph glyph-name="semicolon" unicode=";" horiz-adv-x="255" 
d="M192 38l-1 -12q-8 -33 -25 -41q0 -3 -2 -5t-1 -7q-10 -3 -17 -20q-7 -4 -11 -10t-10 -9.5t-9 -4t-6 -2.5q-12 6 -17 7q1 5 -2 6.5t-4 6t1.5 9.5t2.5 10q5 5 10 9t7 12q21 23 27 46q2 5 -1 6t-4 5q-13 10 -20.5 5.5t-17 -4t-18 4.5t-16.5 4q4 10 -2.5 15t-7.5 9
q2 6 4.5 10.5t4.5 10.5q8 1 12.5 6t9.5 10l29 7q13 -2 16 -1q6 2 17 -4l10 -5q3 -2 5.5 -5t8 -5t10 -9t9.5 -12q-2 -11 3 -21.5t5 -21.5zM179 351q-14 -1 -26.5 -5t-24.5 -0.5t-18 10.5t-16 13q-6 32 2 44q9 11 15 12.5t8 8.5q5 -2 8 1.5t13 3t20 1.5t27 -18q10 -21 4 -39.5
t-12 -31.5z" />
    <glyph glyph-name="less" unicode="&#x3c;" horiz-adv-x="513" 
d="M163 152q-11 17 -42 17q-9 0 -15.5 4.5t-13.5 6.5t-13.5 2t-13.5 2q-2 4 -7 4.5t-4 6.5q-5 -2 -7.5 0.5t-6 3.5t-10.5 8q-3 20 6 22.5t20 6.5q3 3 4 6.5t3 7.5q5 -1 6.5 4t9 9t9 4t5 2.5t8.5 7t13 6.5q16 9 23 15.5t17.5 12.5t21.5 13q9 9 32.5 24.5t31.5 16.5t17 6
t14.5 9t9 5t6 2.5t4.5 4t7.5 4.5t19 9t17 11t8.5 2q7 10 10 9.5t5 2.5t5 3t11 3.5t12 4.5t8 3q9 8 12 7.5t6.5 1t8.5 4t12.5 3t26.5 -7.5q9 -15 3 -24l-7 -10q-1 -2 -6 -4.5t-5 -6t-2 -5.5q-16 -12 -21.5 -13t-6.5 -4t-5 -4.5t-5 -3.5t-5 -7q-7 -5 -6 -6q1 -5 -22 -17
q-1 -3 -3 -4.5t-1 -6.5q-5 0 -7 -2.5t-10 -7.5t-25 -10.5t-26 -17.5q-14 -2 -22.5 -8t-19.5 -11q-3 -4 -10 -9q-7 -2 -12 -4.5t-13 -2.5q-5 -2 -8 -5.5t-12 -1.5q-13 -11 -40 -18q-3 -7 -8 -9.5t-5 -9.5t7 -10.5t13 -9.5q14 -2 24.5 -7t22.5 -10l12 -3q3 -2 5.5 -3t6.5 -3
t10.5 -3t10.5 -5q12 -1 34.5 -11t37.5 -11q4 -5 10 -6.5t22 -9.5t27.5 -8.5t19.5 -5.5q8 -2 11 -1.5t11 1.5q5 -7 9.5 -15t2.5 -23q-33 -18 -53 -3q-6 5 -20.5 6.5t-22.5 3.5q-16 9 -32 11q-13 12 -36 16q-4 6 -7 9q-5 2 -6.5 1t-7.5 -1q-6 9 -28.5 13t-30.5 10l-21 2
q-4 2 -7.5 6t-11.5 3z" />
    <glyph glyph-name="equal" unicode="=" horiz-adv-x="561" 
d="M391 309l-14 -4q-9 5 -24 3.5t-23 3.5q-23 -6 -35 0t-12 4.5t-10 1.5t-16 7q-10 -3 -20 -11q-38 -5 -57 -1.5t-26 0.5t-13.5 3t-12.5 9q-5 -1 -7.5 -5.5t-13 -5t-19 9t-6.5 22.5q2 5 5.5 8t5.5 8q6 2 11 0.5t11.5 0t11.5 5.5t12 4.5t10.5 -3t25.5 -3.5q23 3 31 -1l13 5
q18 -4 40 -4q6 2 11 2l15 -3q2 -1 5.5 0.5t6.5 0.5l29 -4q6 0 12.5 2.5t11.5 1.5l32 -6l13 5l44 1l32 -6q13 -10 8 -31q-1 -2 -2.5 -4t-6 -9t-6 -6.5t-2.5 -0.5q-1 -4 -9.5 -8t-18.5 0t-15 4t-13 -0.5t-15 4.5zM346 187l14 -2q9 0 20.5 1.5t23.5 2.5t21.5 0.5t18.5 5.5
q8 -3 16 -5t16 -5q1 -5 6.5 -10t5.5 -10.5t-2 -8.5t-4 -8l-30 -6l-24 6q-14 0 -28.5 -3.5t-22.5 -3t-13 -0.5t-8 -2.5t-8.5 -0.5t-7 0t-3.5 -1l-15 2q-9 0 -17.5 -1t-18.5 4q-8 0 -14.5 -2.5t-17 2t-14 5.5t-8.5 3q-9 -6 -26.5 -6t-23.5 10q-8 -5 -17 -3t-23 3l-13 2
q-7 -1 -13 -5t-15 -3.5t-14 5.5t-10 8q-2 8 -5 13.5t-2 14.5q5 4 10 4.5t11 1.5l21 -2q3 0 6 1q10 5 28 1q11 3 15.5 -0.5t9.5 -4.5l25 3h32l14 -4q5 -1 8 1q4 2 15.5 -1t19.5 -2.5t10 0.5l25 -3q7 -1 13 0.5t13 2.5z" />
    <glyph glyph-name="greater" unicode="&#x3e;" horiz-adv-x="534" 
d="M264 357l14 -2q12 -9 31 -15.5t30.5 -11t28.5 -2.5q4 -2 6.5 -6.5t6.5 -7.5q2 0 7.5 -1.5t7.5 1.5l11 -7.5t16 -2.5q12 -12 53 -23q2 -5 5 -7.5t5 -7.5q14 -5 19 -14q0 -6 0.5 -13t-1.5 -12q-6 -8 -17 -9t-20.5 -3t-16 -5.5t-14.5 -1.5q-7 -3 -12.5 -6.5t-13.5 -4.5
q-5 -5 -11 -7.5t-11 -7.5q-10 1 -18 -4q-16 -9 -24.5 -8t-14.5 -5t-9 -6.5t-7 -2.5q-4 -5 -6.5 -5.5t-5 -2.5l-4.5 -3.5t-4 -3.5q-35 -5 -46 -19q-5 -2 -12.5 -2t-17.5 -1q-14 -6 -23.5 -12.5t-20.5 -11.5q-12 4 -23 0t-15 -12q-5 -2 -10 -3t-7 -4q-17 0 -33 -7
q-4 2 -8.5 2.5t-9 3.5t-2.5 8t2.5 11t2.5 10t4 9q14 1 29 4.5t19 3.5q6 0 13.5 5t12.5 5t9.5 2t10 6t13.5 4q6 3 10 7q15 3 26 6q9 6 11 6t4 1q4 5 8.5 5.5t8.5 2t7.5 1.5t11.5 4.5t12.5 4t10 3.5t12 6t10.5 9q6 -3 13.5 0.5t14.5 6t14 5.5q6 5 13.5 7t12.5 7q3 19 -12 22
q-4 1 -5.5 4t-6 5t-8.5 1.5t-12.5 3.5t-12 8t-8 6t-8.5 1t-10.5 3.5t-8 3.5t-10 5.5t-32.5 10.5q-5 5 -10.5 8.5t-11.5 8.5q-6 0 -10.5 3.5t-13.5 1.5q-7 17 -24.5 17t-25 5t-12.5 4q-6 8 -17 9q-21 28 -44 22q-5 4 -11 6.5t-11 7.5q-12 29 11 46q49 0 65 -20q4 -6 13 -8
t15 -4.5t16 -5.5t17 -8q4 1 6.5 -2t4.5 2q12 -11 28.5 -16.5t29.5 -16.5z" />
    <glyph glyph-name="question" unicode="?" horiz-adv-x="402" 
d="M347 505l-1 -25q0 -2 -2.5 -5.5t-7.5 -13t-18 -19.5q-8 -4 -8.5 -6t-4.5 -2.5t-6 -3t-4.5 -4t-7 -1.5t-7.5 -3q-2 -4 -5.5 -1t-6.5 -1q-5 1 -7 -2.5t-13 -6t-15 -7.5q-9 0 -15 -2t-13.5 -0.5t-12 5.5t-9 5t-7.5 -1t-7 0q-7 -17 -5 -54l1 -21l-5 -17l6 -46l-5 -21
q0 -8 1 -15.5t0 -12.5q-3 -15 -13 -29.5t-19 -13t-11 4t-4 9.5q-6 -3 -9.5 -1t-8.5 4l-10 32.5t0 37.5q6 12 7 16l-3 19q-2 10 -2 19.5t5 18.5q-5 9 -4 19.5t-2 21.5l8 18q-3 14 -0.5 32.5t1 46.5t13.5 49q2 2 4.5 5.5t6.5 4.5t8 -1.5t9 -1.5q10 -21 19 -28l-1 -13
q4 -16 7.5 -22.5t5.5 -16.5q11 -2 19 -1t16 -4q13 6 20.5 17.5t18.5 20.5q2 8 3 12.5t3 10.5t4 9.5t7 13t3.5 14t3.5 6.5q-3 18 -1.5 34.5t-0.5 28t-5 17t-3.5 11t0.5 9.5t-0.5 13.5t-9.5 20t-4 25.5q-3 8 -8 13t-7 13q-5 4 -8.5 9t-7.5 10q-7 1 -12 4l-10 6
q-18 3 -29.5 -2.5t-26.5 -6.5q-7 -3 -9 -11.5t-8 -12.5q-2 -12 -2 -19t-6 -16q3 -26 -1 -37q5 -9 16 -11.5t19 -7.5q6 -8 5.5 -18t-5.5 -16q-14 -19 -27 -2q-17 1 -26.5 8t-20.5 12q-2 12 -10 15q-2 10 -4.5 16.5t-6 17.5t0.5 31t8.5 28t3.5 10.5t2.5 6.5t7 7.5t6.5 8.5
q5 5 9 10.5t9.5 8t6.5 4t2.5 2.5t5.5 1q8 0 24 16q7 1 14 1t15.5 4t10.5 2.5t10 -1t16 1.5q12 2 24.5 -3.5t18.5 -5.5t12.5 -4.5t7.5 -4t3 0.5q6 -7 10 -8.5t6 -6.5q5 0 7.5 -2t7.5 -1q2 -5 5.5 -9l9.5 -11t7.5 -9t6 -7.5t8.5 -14.5l10 -19q7 -5 10 -18.5t16 -40.5
q2 -8 1 -17t0 -20l2 -22q1 -3 -0.5 -6.5t-1.5 -6.5l1 -14l-6 -25q0 -5 -3.5 -13t-5.5 -10t-4 -7.5t-4 -6.5t-2 -2zM76 4l2 15q0 10 5 15t7 12q8 1 14 5t14 6.5t11 3t13 -4.5t22 -26q8 -21 7.5 -31.5t-15.5 -22.5q-4 -2 -9 -2.5t-9.5 -2.5l-8 -3.5t-7.5 -3.5q-6 2 -11.5 6.5
t-14.5 9t-14 9.5q-3 8 -4.5 10t-1.5 5z" />
    <glyph glyph-name="at" unicode="@" horiz-adv-x="674" 
d="M153 250l8 -25q0 -10 7.5 -19t7.5 -17q3 -8 10 -13t8 -16q8 -3 11 -10.5t14 -7.5q7 -12 18 -18q11 -7 20 -18q30 -28 109 -28q21 0 36.5 7l22.5 10t13 4t11 3q12 8 16.5 7t9 -1t5.5 1q0 2 15 -13q-4 -28 -11 -33t-13.5 -4.5t-11 -1t-7.5 -3t-9.5 -4.5t-8 -2.5t-4 -0.5
t-5.5 -2.5t-6.5 -3t-7 -1t-10 -1t-12 -6t-10.5 -5.5l-20 4q-6 1 -21 -2h-28q-5 0 -7 3t-6 5h-13q-7 5 -13.5 6t-14.5 3q-10 5 -11.5 4t-8 3t-25.5 9q-5 6 -5 10q-25 4 -32 11.5l-15 15.5q-5 2 -7 6.5t-8 7.5t-6.5 5.5t-3 5.5l-8.5 10.5t-12.5 13.5t-10 10t-5.5 8t-8.5 14.5
t-11.5 23.5t-9.5 15.5t-7.5 7.5q0 12 -4 31t-5 28.5t-6 18.5q4 16 0 27q1 8 6 16q0 35 8.5 47.5t9.5 19t3 9.5t3 7.5t3 10.5t3 10t11.5 17.5t11 16.5t6 12.5t13.5 16.5l13 14q6 6 6 7.5t2.5 4.5t6 6.5t6.5 7t5.5 7t5 5.5t6.5 3.5t7 4.5t5 6.5t6.5 7t11 6.5t8.5 11
q6 1 10 4.5t9 5t12 6t11 8t11 7t8 2.5t6 0.5t8.5 3t11.5 2.5t14 4q8 1 14 1t12 4q8 -3 15 0.5t20 1.5q2 2 6.5 2.5t6.5 4.5q21 -7 29 -5.5t10.5 -2t10 -5t12 -3.5t14.5 -3.5t16 -5t10 -2.5q16 3 24 -22q14 -2 22 -16q15 -10 24 -15t14 -10.5t6 -9.5q4 -19 27 -46q0 -8 3 -15
t7.5 -16.5t11.5 -15.5q-3 -5 0.5 -8.5t5.5 -9.5t2 -14t2 -16l4 -12q1 -15 -5 -31t-1 -33q-8 -12 -13 -27t-10 -24.5t-8.5 -13t-3.5 -9.5q-19 -12 -32 -29q-5 0 -10 -3t-10 -5q-10 0 -14 -4q-8 -6 -25 -2q-11 -1 -12 2q-8 0 -12 -4q-4 2 -9.5 3t-7.5 5q-14 -3 -32 10
q-5 -1 -18.5 5t-19.5 7.5t-9.5 2.5t-9.5 0t-11 -5.5t-10.5 -6.5t-9.5 -1q-6 0 -17 -6.5t-27 0.5q-17 2 -24 2l-20 6l-6 11.5t-11 7.5q-2 8 -15 18q0 4 0.5 7t-0.5 7t-3.5 6.5t-3.5 7.5t-0.5 8.5t1 12t-1 11.5t-1.5 14.5t8 27.5t9.5 22.5t15.5 16.5q11 12 26 26q5 0 6.5 2.5
t6.5 1.5q2 5 7 7l13 5q38 17 64 14l24 -7q12 0 15 -5.5t7 -7.5l28 1q14 -19 11.5 -27t-2.5 -15l2 -12l-4 -14q0 -17 3.5 -21.5t5 -13.5t2 -21.5t5.5 -25.5t13 -21.5t10 -12t7 -5t8 0.5t12 6t22 12.5t14 10.5t5 0q3 8 9 14.5t5 18.5q11 9 14 17.5t6.5 13.5t4.5 10l-2 15
q0 7 3 14t2.5 14t-6.5 14.5t-3 18.5q-1 5 -5 7t-6 6q-5 31 -20 41q-5 2 -6.5 7t-7.5 6q-8 22 -22 34q-11 5 -12 6.5t-9.5 5t-15.5 13.5q-6 4 -12.5 5t-7.5 9q-11 0 -16.5 5t-13.5 8q-21 -1 -34 7q-20 -3 -41 -0.5t-35 -6.5q-2 2 -7.5 1.5t-10.5 0.5q-16 -10 -27 -23
q-5 -1 -8.5 -3t-9.5 -3q-7 -8 -9 -11.5t-7 -6.5t-5 -9q-5 -2 -8.5 -5.5t-9.5 -6.5q-2 -3 -3.5 -7.5t-3.5 -8.5q-12 -11 -17 -11q2 -5 -2.5 -9.5t-6 -11.5t-3.5 -11.5t-5.5 -8t-6.5 -8t-4.5 -9t-7.5 -6.5q3 -14 -3 -25t-7.5 -19.5t0 -11.5t1.5 -7l-2 -11q-6 -17 -5 -25.5
t0 -13.5t-2.5 -8.5t-2.5 -10.5t1.5 -18t-2.5 -21q-1 -5 2 -9.5t3 -8.5zM328.5 372q-1.5 0 -1.5 -11t-3.5 -25.5t-8 -20.5t-7.5 -15q5 -4 7.5 -8.5t8.5 -6.5q7 0 10 4t7 7q3 5 8.5 7t8.5 5.5t4 8.5t9.5 23.5t16.5 29.5q0 8 -1 17t1 18t6 16t4 15q-5 4 -12.5 4.5t-12.5 3.5
q-8 -6 -9.5 -10t-4.5 -6q1 -5 -3.5 -5.5t-5 -5t-5.5 -11.5q-1 -5 -1.5 -9t-2 -7t-3.5 -5.5t-5 -7.5t-4.5 -5z" />
    <glyph glyph-name="A" unicode="A" horiz-adv-x="612" 
d="M491 268l10 -21l-2 -11q6 -12 6 -16q4 -9 3.5 -11.5t1 -5.5t3 -7l4 -10.5t5.5 -13t5.5 -12.5t3 -10.5t2.5 -9t4.5 -8t5 -8.5t4 -10.5t5 -15.5t8 -17t7.5 -13q-2 -6 1 -12t5 -13.5l4.5 -17t6 -15t3 -7t1.5 -6.5l10.5 -11t12 -7.5t11 0.5t10.5 -1q21 15 33 5
q18 -7 18.5 -22t-8.5 -19q-14 -4 -17 -7q-4 0 -9 1t-10.5 -0.5t-11.5 -5l-15.5 -9t-20.5 -0.5q-8 -3 -17 -10q-5 2 -8.5 -1t-8 -4t-9 -0.5t-10.5 0.5q-13 -5 -16 -5l-25 -6q-6 1 -11 5t-10 7v21q4 1 5.5 4.5t5 5.5t7.5 2q14 0 20 9q2 8 -2 13t0 11q-5 4 -3.5 12t-3 13.5
t-6.5 11t-1.5 13t-2 14.5t-7 14t-5.5 19l-20 4.5t-19 -2.5q-5 1 -8.5 3.5t-14 4.5t-26 -0.5t-28.5 4.5q-6 -2 -11 -2l-12 4q-5 0 -11.5 -3t-14.5 -4.5t-18 -0.5q-22 4 -38 2q-22 -5 -31 -3.5t-18 -2t-13 -2.5t-8 -0.5t-8 -7t-9 -7.5q-1 -9 -7 -17q-1 -4 -0.5 -8t-2 -12
t-1.5 -11t-0.5 -6.5t-5 -7.5t-5.5 -9.5t-3 -11t-4 -10.5q2 -8 6.5 -11.5t13 -7.5t21 -4t20.5 -6q2 -5 2.5 -14t-4.5 -12q-4 -1 -6.5 -2.5t-6.5 -0.5l-11 3q-6 1 -12.5 -0.5t-12 0.5t-8.5 4.5t-6 4.5q-5 -2 -10.5 0t-11.5 0.5t-8.5 -2.5t-5.5 -2l-15 2l-72 -2q-13 9 -18 6
t-10 -2q0 5 -4 5.5t-2 6.5v19q12 3 25 2t22 0.5t12.5 3.5t8.5 0q3 5 2 10t2 12.5t1 11.5t1 10.5t4.5 13.5t1 16t5.5 16q1 4 -1 5.5t3 14t8.5 35t10.5 41.5q-1 2 0 6.5t-2 4.5q11 27 12 42q4 4 7.5 12.5t1.5 14.5q4 1 4.5 4t2.5 5q4 23 5 42.5t11 34.5v19q11 16 9 26
q-2 16 7 34q1 8 3 10.5t4 5.5q0 5 2 15q6 16 5.5 21.5t1.5 17t8 25.5t7 28q4 8 7 18.5t6.5 20t6 18.5t10.5 17q2 7 3.5 13.5t3.5 12.5q7 10 6.5 13t3.5 12.5t4 17.5q8 5 8 12.5t3 14.5q7 7 6.5 8.5t2.5 5t9 9.5t9 13l2 16q16 21 34 17q12 -4 12 -16q0 -3 2 -6q7 -6 9 -13.5
t8.5 -17t10.5 -12t7 -9.5t6.5 -13.5t6.5 -13t3 -17t10 -14.5q3 -9 4 -9t3 -5q3 -7 8 -21t-1 -20q5 -3 5.5 -9.5t1.5 -13.5q5 -8 4 -11q2 -5 13 -18v-12q5 -12 9.5 -21.5t3.5 -14.5t1 -11.5t5.5 -12.5t1.5 -13q3 -6 6 -10.5t3.5 -8t4 -10.5t3.5 -10.5t4 -9.5t3.5 -11
t2.5 -14.5t0 -18.5q7 -9 7 -12t3 -9.5t6 -8.5t3 -12zM403 366l-8 24l-5 25q0 6 -3 10.5t-2.5 8t-0.5 8l-2 9t-0.5 9t-1.5 9t-6 9.5t-5 10.5t-0.5 9t0.5 8.5q-13 15 -13 38q-6 2 -8.5 8.5t-10.5 8.5q1 8 1 11t-2 11q-12 4 -17 2q-5 -9 -8.5 -19t-6.5 -16t-3 -9.5t-1 -10.5
q-5 -5 -5 -7t-4.5 -11.5t-5.5 -24.5q-2 -3 -5 -5.5t-3.5 -10t-2 -9.5t-2.5 -6t-0.5 -10.5t-3.5 -18.5t-8.5 -22t-4.5 -22q-9 -7 -11 -33q-3 -2 0.5 -4.5t1 -6t-5.5 -6t-3 -7.5q-3 -4 -2.5 -11.5t-3 -16t-5.5 -10.5t-1 -6t0.5 -4.5t-2 -5.5t-5.5 -10.5t-4.5 -13.5t-2 -17
t-1.5 -20q-5 -5 -5.5 -11t-3.5 -14.5t-3 -11.5l-10 -30q0 -3 -1 -7q6 -10 7.5 -9.5t4.5 -3t7.5 -3.5t8 -1.5t5.5 -3.5q5 -3 14 -1t15.5 -1t10.5 -4q20 5 41 4.5t40 5.5q4 -1 5.5 -2.5t8 -3t16 0.5t20.5 2q24 -4 27 -4l19 2l16 -4q16 3 16 13q1 5 -3 8t-4.5 8.5t-3 9.5
t-4 9.5t-1.5 19t-13 32.5q3 5 0 13t0 14q-10 13 -12 48q-5 6 -7.5 13l-7.5 20.5t-5 23t-5 14.5v9z" />
    <glyph glyph-name="B" unicode="B" horiz-adv-x="514" 
d="M460 263l7 -29l-1 -11v-13q0 -28 -5 -39t-7 -21q-8 -8 -7 -14l-9 -10q-5 -4 -7 -11q-10 -4 -12.5 -10.5t-8.5 -10.5t-5.5 -7t-3.5 -8q-13 -9 -18 -13.5t-10 -8.5q-10 4 -26 -4q-2 -2 -5.5 -7t-9.5 -5.5t-9 -3.5q-12 6 -23.5 1t-16.5 -13q-5 1 -7 -0.5t-4 0.5
q-5 -6 -11.5 -6.5t-17 -3t-13 -5.5t-6.5 -7q-8 0 -12.5 -2t-11.5 -4q-18 -10 -42 -10q-4 -1 -5 -4t-7.5 -4t-14 0.5t-14.5 -2.5q-23 -6 -41 0q-3 8 -3 13.5t2 12.5q8 4 9 6q2 3 16 4.5t35 15.5q-3 5 -1.5 10t-3 21t-5.5 36t-9 33q2 10 0 19t-2 20.5t-6 26.5q-4 25 -5 44
q1 5 2.5 7t-0.5 4v26q0 20 -4 33.5t-3 19t-1.5 17.5t-0.5 27q-7 8 -7 12.5t0.5 12t-1.5 14t-1.5 22.5t-2.5 32t2 24q-4 15 0 23q-3 5 -5 33l-2 14l-4 18l-2 18q-1 5 0.5 10.5t1.5 10.5l-2 14q1 17 -0.5 25t-1.5 15l-2 12l-2 16q0 4 3 13q1 19 -2 44q-2 4 -5.5 4.5t-5.5 4.5
q-8 -2 -16 -2h-15q-8 2 -12 -0.5t-9 -1t-8 3.5t-6 3l-2 13q2 11 11 13l18 4t13.5 2t9 3l8 5.5t11 -1t11 -2.5t11.5 1q23 -2 32 10q50 10 70.5 10t24.5 -2l13 2q12 -6 19.5 -4.5t14.5 0.5t18.5 -5.5t15.5 -3.5t12 -1.5t15.5 -4.5t13.5 -4.5t12.5 -7t15.5 -7.5q1 -4 4 -5
t11 -8.5t13 -8.5q2 -3 4 -6.5t4 -6.5q8 -5 13 -10t13 -8q3 -8 9.5 -16.5t11.5 -17.5q2 -12 6 -16t6 -8.5t3 -8.5l2.5 -10.5t6 -16.5t5 -18t1.5 -14t1.5 -10l2 -16.5t0.5 -25.5t1 -21q-6 -7 -7 -18.5t-2.5 -19t-4 -9t-0.5 -6.5q-10 -6 -14.5 -18t-13.5 -20q-19 -12 -24.5 -21
t-17.5 -14t-15 -8.5t-8 -8.5t-9.5 -5t-3.5 -6q1 -5 4.5 -4t5.5 -1.5t9.5 -6.5t11 -5.5l9 -4t11 -6l13.5 -8.5q3 -7 8 -11l9 -9q11 -15 12.5 -22t6.5 -14q0 -5 -0.5 -8t1.5 -8t2 -11zM197 412l5 -16q-4 -5 -1.5 -10.5t4.5 -10.5q8 -2 14 1t14.5 5.5t13.5 2t10 1.5
q10 8 11.5 7.5t4.5 1t5 3.5t7 1q8 8 10 9t7 6.5t8 6t5 2.5q5 8 8 8q11 14 18 25t17 19q0 5 2 9q6 9 15 32t11 25q3 6 3 20v15q0 12 -1.5 25.5t-0.5 17.5t-1.5 10.5t-1.5 8t1 4.5q-6 5 -8 10.5t-4.5 11t-4 8t-3 8t-2 13.5t-3.5 13.5t-9.5 10t-10 9t-5.5 9t-9.5 14l-9 11.5
t-7.5 5.5t-10 3.5t-10 3q-5 -5 -11 -3l-14 4h-15q-5 0 -11 2q-6 3 -20 -6q-12 -5 -19 -11t-10 -7q-1 -8 -7 -13.5t-8 -13.5l4 -20q1 -2 0 -5t-1 -11.5t3 -20.5q6 -24 6 -38v-10q3 -12 3 -18v-75l2 -32v-11q3 -14 3 -22.5t3 -20t0 -27.5zM255 343q-5 0 -13 -5q-7 0 -13 -2
t-9 -2q1 -5 -3 -8.5t-3.5 -8.5t-2 -9t-1.5 -6t-4 -10.5t-1.5 -22t5.5 -31t1.5 -28.5t1 -13.5t2.5 -9.5t0 -16t0.5 -15.5t2.5 -8.5q6 -7 3.5 -20.5t1.5 -26.5q0 -4 -1 -7.5t2 -12l5 -14.5q21 5 24 8q6 2 13 2t12.5 2t10.5 4.5t11 3.5q3 6 8 9.5t10 8.5q3 0 11 -2q2 7 6 10
l8 6q2 4 6 10q6 6 5 8t2 3q19 28 16 41q-1 4 0 8l3 28q1 5 2 9t1 6l-5 33q0 4 -3 6.5t-4.5 11.5t-2.5 7.5t-1 5.5q-5 0 -9.5 5.5t-11 9t-11 8t-11 5.5t-12.5 7.5t-9.5 5t-9 0.5t-12.5 3z" />
    <glyph glyph-name="C" unicode="C" horiz-adv-x="646" 
d="M280 39l-33 8q-9 9 -25 13q-2 8 -9.5 9.5t-12.5 6.5q-5 2 -14 2t-13 5.5t-16.5 14t-18 17.5t-8.5 11.5t-6 6.5t-7 7q1 5 -1 7t0 8l-13.5 19t-9.5 22q-17 15 -19.5 24.5t-9.5 16.5t-10 15t-2.5 18.5t-2.5 23.5q-5 11 -4.5 14.5t0 7.5t-2 9t-4.5 13.5t-2 12t1 9.5t-0.5 17
t1 36t4 45t2.5 29q-1 13 5 23t6 17.5t4.5 14.5t4 10t6 11.5t6 12.5t4 10t6 9.5t7 10.5t7 10.5t5 9t6.5 8t8 8.5t7 6q8 0 14 21q2 2 6 3.5t7 3.5q4 7 10 12t11 12q6 7 24 20q9 9 10.5 8.5t7 5t12 6.5t12.5 5t9 7t10.5 7t13.5 5.5l11.5 3t8.5 1.5t7.5 1t7 3t6.5 3.5t9 1
t20.5 3t26.5 2t21 -1.5t16 -3t12 -4t12.5 -0.5t10.5 -1t8 -3.5q14 -7 19 -8.5t17.5 -10t27.5 -11.5t18.5 -3.5t5.5 -3.5t6 0q8 4 10 18q3 4 7.5 6t6.5 7q9 -1 12 3t12 2q7 -7 10 -17.5t8 -19.5q-1 -4 -1 -7t-1 -6l-2 -26q4 -12 0 -19t-5.5 -11t-1 -7.5t-1.5 -9.5t-1 -9.5
t0.5 -8t-2 -13.5t0.5 -20q-5 -8 -8 -16.5t-9 -13.5q-12 2 -14.5 0.5t-14.5 -2.5q-3 3 -3 5.5t-5 4.5q-1 7 -4 11.5t-4.5 13.5t2.5 23t2 29q-8 7 -10 15q-13 13 -20 15t-9.5 4.5t-3.5 5.5t-10 7t-19 3q-3 7 -9.5 10l-12.5 6t-8.5 3.5t-6.5 2.5q-15 -1 -25 3t-18.5 4
t-13.5 3.5t-8 1.5t-7 -2l-14 4l-14 -2q-4 -1 -6 -1q-5 2 -18 -6l-11 -5q-4 -5 -16 -13t-20 -10q-1 -8 -7 -10.5t-9.5 -6.5t-4.5 -8t-3.5 -8.5t-5.5 -10.5t-6.5 -9.5t-5.5 -7t-7 -2.5q-5 -22 -22 -39q-1 -3 -0.5 -6t-1.5 -7.5t-2 -13.5t-1.5 -16.5t-3.5 -12t-3.5 -9t0 -7.5
t-3 -21.5t-3.5 -44.5t-8 -48q8 -41 5.5 -52.5t-1.5 -19.5q6 -15 4.5 -27t6.5 -32.5t11.5 -33t7 -20t3.5 -11t2.5 -7.5t7 -9.5t8.5 -13.5t6 -8t7.5 -9t18 -21.5t20.5 -23.5q13 -6 26.5 -14.5t24 -12.5t14.5 -3.5t10 -2t17 -7.5q40 -20 55 -8q12 7 21.5 3.5t20.5 1l19 7.5
t14 5.5t11 4t10 3.5q16 11 24.5 18t10.5 18q7 1 10 5t8 8q4 8 5.5 7.5t3 1.5t4.5 8t6.5 8.5t5.5 4.5q3 6 12.5 13t16.5 2q9 -10 11.5 -24t-0.5 -22t-22 -19q-1 -6 -7.5 -12t-10 -10.5l-6.5 -8.5t-10 -10l-12 -10t-9 -8.5t-7.5 -6.5t-8.5 -2t-12.5 -3t-16.5 -9.5t-25 -6.5
l-18 -10h-9q-5 0 -7 2q-10 -8 -12 -7t-9.5 -2.5t-22 -3.5t-28 1l-20 1.5t-12.5 -3.5q-3 2 -5 3.5t-6 4t-9.5 3.5t-10 3t-7 4t-6 2.5t-10.5 0.5t-9 -1z" />
    <glyph glyph-name="D" unicode="D" horiz-adv-x="612" 
d="M173 77l-25 4q-5 0 -7.5 -5t-9.5 -5t-10 -3q-14 5 -29 -2.5t-24 -9t-19 5.5q-2 11 1 17.5t4 17.5q4 2 8 1.5t11 3t9.5 2.5t5.5 0.5t12.5 4t10.5 8.5q7 -2 9 0.5t7 2.5q3 7 0 12.5t-4 10t-0.5 8.5t-0.5 11.5t-1 22.5q-2 6 -1.5 15.5t-1 14.5t-1.5 10l3 15l-6 26
q-1 7 0 14.5t0.5 14.5t-1.5 13.5l-2 13.5l-1 13q2 10 -0.5 26t-2.5 23l-5 48l-1 11l2 17q0 13 -2 25l1 16q-5 14 -4 18t1 10.5t-2 14.5l-4 26q0 6 -1 12q2 18 -2 34l-3 14l2 14l-2 34q-2 10 -2 21.5t1.5 18.5t-3.5 15q5 8 2.5 15t0.5 18q-5 7 -6 9.5t-13 2.5l-14 1
q-4 -1 -7 -3q-14 -5 -45 1q-1 11 -1 21.5t11 15.5q12 4 20 3.5t21 2.5t28 3q13 -4 19 -1q7 0 11.5 -1.5t14 0t15.5 0t10.5 -1t9.5 2.5l8.5 3.5t13 1t14 -1t8.5 -0.5h6q1 0 43 -6l16 1q20 -2 43 -6q13 0 19.5 -3.5t13 -5t12 -1.5t13 -3t20 -12t17.5 -9.5t9.5 -2.5t8.5 -7
t9 -5q9 -19 32 -28q4 -9 9 -11q3 -6 5 -6.5t5.5 -5t8.5 -8.5l9 -10q9 -9 11.5 -15.5t9 -13.5t9 -11.5t2 -8.5t1.5 -7q8 -12 8.5 -16t2.5 -8t4 -6t3 -5l3 -15q1 -4 1 -7.5t2 -9t4 -12t1.5 -13t4 -13.5t5.5 -20.5t4 -25.5q-4 -5 -4 -9.5t1 -9.5t0.5 -8t1.5 -17t-6 -46
t-11 -37.5t-2.5 -11t-4.5 -14.5t-6 -14t-6 -10q-6 -10 -8 -11t-5.5 -9t-7.5 -11t-6 -6q-1 -6 -1 -10.5t-3 -6.5q0 -6 -5 -5q-11 2 -14 -20q-10 -8 -13 -7.5t-5 -2t-3.5 -7t-3.5 -7.5q-8 -2 -13.5 -6t-13.5 -6q-3 -3 -6 -7t-6 -6q-8 -2 -10.5 -5t-4.5 -5q-9 0 -15 -4
q-26 -16 -42 -19q-5 -6 -13 -7.5t-13 -8.5q-5 2 -7.5 1t-5.5 -1q-2 -3 -9.5 -6t-9.5 -6q-6 -7 -18.5 -8t-27.5 -11q-31 -10 -37 -15l-15 1q-5 -5 -13 -7t-14 -6zM405 250l11 11q0 1 6 6t7 9t3.5 8.5t6 8.5t7.5 12t7 13t4.5 11.5t3 11t3.5 11.5q7 36 12 39q1 13 4 32l-2 11
q3 12 3 15l-3 22l2 14q-2 8 -2.5 17t-2 14.5t0 7.5t0.5 7.5t-1 8.5v8q0 8 -5 21.5t-5 21t-1 11t-2 7.5t-3.5 12t-5 12t-5 11.5t-5 11t-1.5 8.5q-10 4 -17.5 19t-17.5 22q0 5 -1.5 8.5t-2.5 6.5q-10 5 -15 16q-6 2 -10 5t-9 5q-7 7 -20 7q-9 13 -17 16.5t-11 -0.5
q-10 4 -17 3q-12 -3 -27 2t-37 5l-14 1q-11 0 -17.5 -1t-15.5 -2q-2 -7 -8.5 -7.5t-8.5 -7.5q-3 -4 -2 -8q12 -36 3 -69q5 -5 4 -12t0 -12.5t2 -8.5t2 -10.5t1 -18.5t1.5 -19.5t3.5 -15t3 -13.5t0.5 -12.5t2 -13.5t2 -12.5t0 -9.5t1 -11t2.5 -11t3 -11t3 -11q-2 -8 -1 -15.5
t1 -9.5v-14q7 -38 7 -47t-1 -13q4 -14 7 -42l-2 -30q3 -10 2 -13t0 -10t0 -12.5t1 -18t2 -13.5l-2 -15q-1 -4 0.5 -8.5t0 -14.5t-1.5 -13l1 -12l-2 -14q0 -5 2 -12t0 -15q16 0 36.5 12t23 11.5t9 4t9 4t10 4t11.5 6t10.5 7t8.5 4.5q2 0 12 6q16 13 21.5 17t7 6t5 5t5.5 7.5
t5 8.5q9 5 9 6z" />
    <glyph glyph-name="E" unicode="E" horiz-adv-x="501" 
d="M188 676q5 -12 5 -46q3 -15 3 -17l-2 -19q0 -1 4 -33q-2 -10 -0.5 -17.5t0.5 -13.5l-2 -19q0 -7 2 -14t-3 -14q3 -12 5 -15q-5 -12 -5 -24l3 -26l-5 -26l3 -37q-5 -25 -5 -32t1.5 -17.5t0 -15.5t0.5 -10q4 -7 12 -6t17.5 -1t14 -1t9.5 0l19 -2l21 2q8 1 14.5 -1t12.5 -1
q9 8 9 23t4 29q5 5 32 2q8 -7 8.5 -25t1.5 -39l1 -19q0 -2 1 -5t0 -10.5t0 -11.5t0 -10.5t0 -8.5t0 -7t-8 -13.5t-13.5 -8.5t-8.5 1.5l-4.5 3.5t-5 4.5t-8.5 2.5q-2 14 -7 21t-3 22q-15 5 -30.5 5t-29 -1.5t-22 -0.5t-15.5 -1.5l-12.5 -4.5t-12.5 -4v-32l-5 -61l3 -24
q0 -6 -3 -13t-2 -12t3.5 -8.5t3.5 -7.5q5 -2 10 -2t9 -1t7 -2.5t6 -1.5l15 1l14 -1l26 5q7 -3 25 3l32 -4l12 2q6 0 12 -1.5t11 2.5q8 -6 20.5 -5t23.5 -1q5 1 14 13q2 7 2 11t3.5 10t7 11l7 10t11.5 6t13.5 -7.5t5.5 -14.5t0.5 -9.5t-2.5 -12.5t-2 -13.5t-2 -13t-2 -15
t0 -15t0.5 -13.5t1 -10t-2 -11t-2.5 -11q-9 -5 -14.5 -9.5t-19.5 -2.5q-5 5 -8 11t-7 11q-1 6 0 12.5t-1 9.5q-10 7 -13 8t-6.5 2.5t-9 0.5t-8.5 5q-5 -2 -12 -1.5t-12 -1.5t-6.5 1.5t-8.5 1.5q-10 -7 -15.5 -8.5t-8.5 -5.5q-5 2 -10 5t-10.5 3.5t-10 -1.5t-12.5 -0.5
t-10.5 0t-4.5 -1.5l-11 2l-20 -5l-15 1l-15 4q-22 0 -31.5 -7t-17.5 -8l-13 1q-4 -1 -6.5 -5.5t-6.5 -4.5t-14.5 5t-19.5 4.5t-20 -3t-22 -0.5l-2 12q-4 17 9 24q6 3 18.5 7t17.5 10l-3 15q-1 4 0.5 11t-3.5 17l6 13l-1 12l2 12q0 11 -3 26l-1 11l2 15q0 19 -2 41l6 52
q0 8 -4 15q-1 5 0.5 9.5t1.5 7.5t-3 15l2 30q-5 17 -3.5 29t1.5 23l-1 127v37l2 18l-2 26l2 15l-1 17l-2 20q-2 14 0 20t1 14q-3 8 -8.5 11t-13 6.5t-11 6.5t-7.5 4q1 7 -2.5 13.5t-1.5 14.5q6 6 26 6t27 7q5 1 6.5 -1.5t7 -2t11.5 -1t11 0.5q10 -2 15.5 -2t9 2t8 3t12 -1
t22.5 -1t27 -1t15 -0.5t7 2.5l17 1q15 -3 17 -3t5 1t6.5 2t7 0t5.5 4q3 -3 11 -7q7 3 14.5 1.5t18.5 -2t15.5 1.5t12 3t16 0t13.5 2q9 15 11 30t8 23q20 7 28 4q7 -10 9 -12q7 -5 9 -23.5t11 -30.5q-3 -8 -2.5 -18t-5.5 -15q1 -8 3 -15t0 -17q-5 -9 -4 -9t1 -8.5t-1 -17
l-2 -17.5q-8 -11 -24 -14q-17 -6 -26 3q-2 1 -5.5 2.5t-5.5 3.5q2 5 0.5 10.5t-2 9.5t0.5 7.5t-1 15.5t0.5 15.5t-2.5 13.5q-6 3 -13.5 3t-22 -2t-22.5 3q-2 -4 -7 -2.5t-7 -2.5q-8 6 -16 4.5t-16 0.5l-14 4h-9q-13 0 -17.5 -3.5t-17.5 -3.5l-24 -4q-5 -5 -7 -6
q-11 -2 -25 -16z" />
    <glyph glyph-name="F" unicode="F" horiz-adv-x="463" 
d="M96 454l-7 42q0 5 1 8.5t-0.5 8.5t-3.5 11t-1.5 19t-1 16.5t-1.5 7.5l1 12l-5 41q2 8 1 9t-0.5 7t1.5 12t-1 10t-9 6q-15 3 -30 3h-11q-6 1 -12.5 1t-11.5 2q-2 4 -2 15t2 16q16 10 40 8.5t29 -1.5l79 1l14 2l12 -3q16 -4 31 -0.5t15.5 2.5t2.5 -1l19 8l11 -2l34 5l36 -4
l31 -3q4 0 7 1.5t7.5 2.5t10.5 0t11 1q6 12 12 51q19 15 24 9t7.5 -10t2 -6.5t2.5 -9.5t2 -10t-1 -7l4 -35l1 -52v-28q0 -13 1 -17l-5.5 -7.5t-7.5 -5.5q-4 -5 -12 -9t-13 4q-7 1 -13 32.5t-10 35t-8.5 6.5t-8.5 8q-11 1 -20.5 3.5t-20.5 -3.5q-9 7 -20 7t-19.5 -0.5t-15 0
t-18 -1t-14.5 -3.5t-13.5 -1.5t-28 -5t-27.5 -16.5q1 -11 6 -18.5t5 -20.5t1 -20l2 -14t1 -13.5t1.5 -12t3 -9t2.5 -11.5t1 -23t2 -24.5t4 -13.5t1 -13t0.5 -11.5t1.5 -4.5l-1 -22l6 -37l1 -31q0 -28 3.5 -43t4.5 -24q10 -6 10.5 -7.5t3.5 -2.5t7 1.5t6 -2.5q4 2 8 2t8 2
q14 -5 30 -1.5t33 4.5q6 5 6.5 14t3.5 16q7 23 17 23q10 1 13.5 -9t10.5 -16q-3 -5 -1 -10t1.5 -15t2 -23t4.5 -25.5t-3 -19.5t-9 -14t-6 -8q-14 -4 -19 -4t-9.5 4.5t-3 11t-0.5 10t-2.5 9.5t-2.5 12q-17 3 -26 -1.5t-14 -5.5l-17 3q-17 0 -51 -17q3 -18 3 -29v-20
q0 -20 2 -27t0.5 -15.5t-1.5 -14t2 -13.5q-1 -17 0.5 -21.5t1.5 -11.5t-0.5 -15.5t1.5 -16.5q5 -5 18 -5q8 5 10.5 3.5t6.5 -0.5t7.5 4t11 1.5t13 -8.5t3.5 -17q-3 -8 -16 -13q-3 -2 -6 -0.5t-21.5 -1.5t-52.5 -4t-50 -2.5t-23.5 -4t-14 -2.5t-11 1.5t-12 -0.5t-13 5
t-2 13.5t6.5 7t6 2.5t7.5 4t6.5 4h18q7 22 2 56.5t-5 44.5l1 20l-4 19q1 19 -1 30q-3 16 -3 74l-10 151q0 15 -2 25q-6 13 -6 20z" />
    <glyph glyph-name="G" unicode="G" horiz-adv-x="530" 
d="M462 686l-5 -44q-5 -2 -10 -6q-12 -13 -25 -3q-5 8 -8 10t0 10q0 1 -8 5.5t-8.5 9.5t-1.5 5.5t-7.5 7t-8 6t-2.5 -0.5q-5 9 -5.5 10.5t-7 3.5t-8 5.5t-8 4.5t-10 0.5t-11.5 6.5q-10 2 -13 0.5t-8 -3.5q-3 1 -7.5 -1.5t-5.5 0.5q-10 -5 -15 -5t-17 -5t-21 -5.5t-16.5 -8.5
t-11 -10t-6 -4t-3.5 -5.5t-3 -5.5l-14 -19q-2 -2 -7 -2.5t-7 -3.5q-2 -8 -3.5 -10.5t-3 -6t-2 -10t-2.5 -11t-5 -7.5t-6 -8q0 -13 -3 -22t-1 -16t-2 -9q2 -4 -2 -11q-7 -10 0 -24q-5 -16 -2.5 -35t4.5 -39l-4 -33q2 -25 10.5 -58.5t9.5 -38.5t2.5 -10t4 -11t4 -10t5.5 -12
q4 -14 7 -17.5t8 -10.5t6.5 -9.5t5 -6t5.5 -6.5t11 -10t12 -11.5t7.5 -6.5t10.5 -3l16 -1q11 -1 22.5 0t15.5 1t8 1.5t9 4.5t10.5 7t10 4.5t10.5 3.5q6 4 9 12.5t11 12.5q2 5 5.5 8t6.5 10q5 6 8 14.5t6.5 16t5 19.5t3.5 18t3 11t3.5 8.5t3 9.5t1.5 11.5t0.5 13.5t0 15.5
t1.5 12.5t-1 11.5t-1.5 10t-4.5 3.5q7 12 -4 24t-20.5 15.5t-15 0t-10.5 -4.5q-6 2 -8 -0.5t-7 -2.5q-9 6 -15 6t-9 1q-11 8 -12.5 14t-2.5 14.5t5 12.5t15 4.5t19.5 -0.5t20 2.5t17.5 3t17 -1l17.5 -1t13 0t14.5 2.5t16 3q12 -1 26.5 2t19.5 -2q5 0 5 -4v-7q2 -11 1 -15
t-6.5 -10.5t-12 -9.5t-14.5 -2.5t-13 -6.5q4 -11 2.5 -21t-0.5 -21l3 -23q0 -18 -6 -36q3 -12 3 -17q-6 -18 -11 -38t-9 -31.5t-5 -14l-2.5 -6t-1 -8t-3.5 -13l-8 -17t-12 -11.5q-4 -15 -13.5 -23t-13.5 -22q-9 -5 -17.5 -9t-15 -8.5t-10.5 -8t-9 -6.5t-12.5 -4l-14.5 -2
t-13 -4t-14 -3.5t-13 -5.5q-9 6 -22.5 4.5t-27 5t-23.5 3.5q-4 3 -7.5 5t-7 5.5t-10.5 3.5t-12 3q-7 7 -9.5 7.5t-3.5 1.5q-5 10 -7.5 9.5t-0.5 4.5q-9 3 -14.5 10.5t-13.5 11.5l-13.5 21t-9.5 24q-5 4 -9 8t-9 8q0 8 -5 11.5t-3 13.5l-16 39q0 14 -2 30t-1 35t-4.5 35.5
t-4 29.5t1.5 18t1 12t5 20.5t3.5 21t1.5 14t4 12t4 12.5q6 11 5 13.5t1.5 8.5t2 10t2 9t7 9.5t7.5 8.5t3.5 8t3.5 10.5t2 11.5q8 8 8 10.5t5 6.5t6.5 10.5t11 16t16.5 23.5q9 5 18 14q12 12 36.5 23.5t35 15t17.5 7.5t9.5 3t8 2t11 3t10.5 1h34q33 -3 46 -6.5t15.5 -3
t7.5 -1t9.5 -8.5t15.5 -5q2 4 5 22t8 22q5 -1 9 2t9 -2q3 -1 5.5 -8t7 -12t2.5 -26q2 -10 1 -19t-1 -17z" />
    <glyph glyph-name="H" unicode="H" horiz-adv-x="619" 
d="M179 503l-1 -16q0 -5 2 -12q3 -12 -1 -30t7 -60l-1 -23l2 -11q2 -8 0 -17t-2 -20t1.5 -18.5t0.5 -11t-0.5 -6t3.5 -3t6.5 -1t6.5 -1.5t2 -3q7 -3 13 -0.5t11.5 2t10 -3t10.5 -5.5q17 -4 31 0t26.5 2t20.5 -2.5t17 -1.5t13 -0.5t11.5 -0.5t8.5 0q7 -2 13 -5t13 -3l25 3
q9 15 12.5 34.5t2.5 29.5t0 17.5t2 11t2 10.5t0 16.5t0 18.5t1 17l4 15q0 2 -1.5 6t0.5 6q2 12 1 16t-1 9l5 12q0 3 -1 5.5t0.5 11t0.5 12t-1 7.5l3 13q1 11 1.5 23t2.5 25v25l1 34l4 29v34q0 5 2 11q8 29 -2 29q-4 0 -3 5q-13 1 -19.5 -0.5t-19.5 0.5q-9 16 -3 27
q6 2 11.5 1.5t10.5 0.5l20 3l13 -3l12 2q9 -2 16.5 -0.5t17 -1.5t20.5 -1t15.5 -1t10 -3.5t10.5 1.5t10 0q10 -8 11 -10t3 -4q-3 -15 -17 -21q-15 -8 -18 -14.5t-10 -11.5q-2 -12 -1 -25.5t0.5 -21t-2.5 -11.5t3 -7q-7 -7 -5 -20.5t2 -22.5l-6 -56q-1 -5 0.5 -8t1.5 -7
l-9 -41l1 -25q0 -8 -2 -15.5t-3 -13t0 -9t0.5 -9t-3 -10.5t-3.5 -10l-1 -44q0 -6 -5 -11q5 -3 2.5 -8t-2.5 -10t1.5 -8.5t0.5 -8t-4 -14.5t-3.5 -21t-3 -19.5t-3.5 -16t-0.5 -12.5t0 -10t-1.5 -10.5t-2.5 -16t-1 -15.5t-2 -17t-2 -22t-5.5 -21q3 -27 -5 -33q-2 -15 -5 -31
t-5 -36q5 -9 14 -6t17 1q9 -1 23 -15q-1 -7 0.5 -12t-3 -10t-9 -3.5t-19.5 1.5t-30.5 3t-25 -1t-17.5 -7q-11 4 -26.5 1.5t-29.5 -3t-22.5 4.5t-3.5 25q3 2 8 2t10 1q8 5 16.5 8t16.5 7q4 9 7 32t8 31q-3 13 -1 14.5t2.5 7.5t1 19t2 22.5t3 14.5t2.5 9.5t0.5 9t0.5 21
t-7 28.5q-12 4 -35 4t-33 8q-19 -6 -35 -3t-19 2t-8.5 -0.5t-12.5 1.5q-8 1 -26 -6q-21 5 -36 1q-1 -3 -9.5 -5.5t-10 -7.5t1 -7t3.5 -9l-3 -15q0 -9 2 -16.5t1 -20.5l1 -17q-2 -20 -2 -29t-1 -17q14 -10 35 -5q4 1 6 2.5t6.5 3t12 1.5t14.5 2q15 -11 9 -35q-6 -2 -11 -4.5
t-11.5 -3.5t-12 0t-13.5 -1q-7 -5 -11 -5q-11 0 -18.5 -5.5t-11.5 -5.5q-6 1 -13.5 -4.5t-13.5 -5.5l-73 -15q-10 0 -17 5.5t-4 17t8.5 11.5t11.5 3.5t15.5 7.5t16.5 12q1 5 -1.5 15t-2.5 44q2 5 -1 6.5t-1.5 8t-2 16.5t-4 18t0.5 12t0 8.5t-3.5 9.5t-3.5 13t0.5 18.5
t-4.5 19.5q2 7 2 14t-1 13l-7 74l2 15q0 9 -2 19q-1 10 -1.5 19.5t-1.5 18.5t-1.5 15.5t-2 12t-1 9t1 10.5t-3 17t-5.5 20t-1.5 23t-6.5 21q3 9 -3.5 35.5t-2.5 49.5q-2 6 -0.5 7.5t1.5 3.5l-5 14q0 13 -3 16q-2 8 -2.5 17t-3.5 11q-11 4 -10.5 0.5t-3.5 -1.5q-8 2 -13 -0.5
t-15 -0.5q-4 20 3.5 23t16.5 3h19q9 0 14 5q5 0 11 -4q4 2 10 3.5t15.5 5t16.5 4.5t13.5 3.5t10.5 5t16 -0.5q7 4 8 5t9 2q38 4 50 -11q-1 -4 -1 -8v-8q-9 -7 -11.5 -7t-9.5 -3.5t-13 -1.5q-5 -1 -7 -5l-4 -8q-4 4 -10 2.5t-8 -5.5q-1 -6 -3 -11.5t0.5 -15t2.5 -13.5t1 -8
l2 -13q1 -5 0 -10t-1 -8.5t3 -12.5l3 -11q2 -13 3.5 -18t1.5 -12t5 -13q-4 -5 -2 -11.5t2 -11.5z" />
    <glyph glyph-name="I" unicode="I" horiz-adv-x="304" 
d="M212 249q4 -22 4 -40.5t7 -39.5l-1 -15q0 -17 3 -24t4 -13t-0.5 -15t7.5 -14l16 -5q14 5 26 0t15 -12q2 -10 -3.5 -17t-10.5 -15q-14 1 -33 0q-7 2 -6.5 -2t-4.5 -3t-9 0t-8.5 -2.5t-9 -1.5t-8.5 3q-17 -7 -26 -16l-6 3q1 -1 -8.5 -1t-11.5 -1q-10 -6 -14.5 -5.5
t-9.5 -3.5t-10 -4.5t-10.5 2t-12.5 2.5q-5 5 -6 15.5t2 16t9.5 5.5t13.5 4t8 4q7 0 23 24q2 9 0.5 14.5t-3.5 14t-2 15.5t-1 12t-2.5 8.5t-3 13t-0.5 22.5t-0.5 22.5t-3 15t-2.5 10.5q0 5 1 9.5t-4 9.5q2 15 0 22t-1 11t-1 11t-1 10t0 7t-1.5 9t-1 11.5t-3.5 14.5
q-1 10 -2.5 11.5t-2 4t0 6t-5 26.5t-3.5 29.5t1 11t-3.5 11t-4 12t-1 9t0 7.5t-2.5 7q-5 13 -5 38l-3 23q-1 8 2 18t-3 28l-2 21q-3 13 -3 22t-2.5 9t-6.5 5q-4 -1 -31 -1l-21 2q-1 5 -4 6t-5 5q2 13 7 20q10 5 11 3.5t5 -0.5t10.5 3.5t15.5 4t21.5 1.5t18.5 8
q6 -3 12.5 0.5t14 5l15 3t10.5 6.5q18 -7 22 -5.5t7.5 3t10.5 0.5q13 6 14 5v-4l29 13q6 -4 11 -5t5 -9q4 -13 5.5 -14.5t0.5 -6.5q-17 -8 -25 -12.5t-19 -6.5q-4 -6 -9.5 -8.5t-10 -7.5t-4.5 -11t-5 -11q-2 -8 0 -18.5t2 -21.5l-1 -20q1 -9 3 -17.5t3 -18t0.5 -18.5
t2.5 -18.5t2 -10.5t-1 -3l5 -21v-11q0 -7 1 -13l1 -13q0 -17 3.5 -24.5t4.5 -17t-0.5 -19t-1.5 -18.5l5 -17l1 -21q0 -4 -0.5 -9.5t4.5 -11.5q-3 -14 1 -36z" />
    <glyph glyph-name="J" unicode="J" horiz-adv-x="405" 
d="M195 530q0 4 0.5 7t-1 11.5t-4.5 22.5t-4.5 23t-3 13.5t-3 11.5t-0.5 16t-5 17q-8 4 -12.5 0.5t-10.5 -7.5q-17 2 -33.5 -2t-33.5 -5q-1 3 -4 4t-6 4q-4 8 -5 9t-2.5 5.5t0.5 9.5t3 11q8 4 15.5 4.5t19 6t15.5 5t8.5 0.5t8 2.5l8 3.5t6.5 1.5t8.5 2t16 6.5t20 6.5
l14.5 3.5q14 8 20 7q15 -1 24 8q16 -3 47 7t46 5q2 -6 4.5 -10t2 -9.5t-4 -8t-2.5 -7.5q-6 -1 -13 -6t-14.5 -8t-16.5 -4t-17 -5q-10 -8 -15 -11t-8 -8q0 -4 3 -6t5.5 -10.5t4 -9t3.5 -6t5 -42t17 -77.5q-2 -7 0 -12t4.5 -15.5t5 -24.5t5 -23.5t1.5 -15t7 -20.5q1 -4 0 -7
q-3 -9 6 -18q2 -11 2 -23t2.5 -19.5t4.5 -11t4 -6.5t2 -6l4 -12q0 -4 3 -13.5t1.5 -12t0 -10.5t6 -18.5t6.5 -20t1.5 -16.5t-0.5 -14l4 -24q1 -3 0 -6.5t-1 -7.5l1 -14q-1 -7 -3.5 -12.5t-3.5 -10.5t0 -9t1 -8q-4 -6 -2 -11.5t1.5 -15.5t0.5 -12q-2 -5 -4.5 -10.5t-9.5 -7.5
q2 -5 0 -8q-16 -24 -22 -49q-4 -2 -6.5 -4.5t-6.5 -4.5q-3 -6 -4.5 -11.5t-4.5 -9t-5.5 -5.5t-5 -6.5t-4.5 -3.5t-7.5 -4t-8 -7.5t-9.5 -2.5q-12 -12 -18 -21q-14 -2 -17 -10q-13 2 -34 -4t-26 -11t-13 -6.5t-15.5 4t-12.5 7t-8.5 1t-8.5 0.5l-18 4q-44 8 -48 33
q-3 6 -19.5 14t-20.5 19.5t-3 24t2 23t0 18t0 15t8 15.5t8 13q10 11 32 24t43 13q15 -6 24.5 -11t11.5 -16.5t-1 -15.5t-5 -14q-15 -7 -35 -7q-6 -4 -6 -11.5t-2 -15t-4 -14t-3 -16.5q-1 -33 20 -39q7 -1 14 -4q20 -12 33 -9.5t17.5 2t8 0t12.5 3.5t19 6q41 16 48 32
q2 6 6 10q1 6 0.5 13.5t5.5 9.5q-3 10 3 25q-2 12 -2 23.5t-1 22.5l1 16l3 14l1 14l-8 15q3 9 1.5 13.5t-0.5 6.5t0.5 6.5t-2.5 10t-3 12t-1 13t-1 12.5l-2 12.5t-2 10.5t-3.5 7.5t-3.5 6.5t-2 5t-2 6l1 19q0 4 -1.5 7t-3 10t-2 16.5t-3.5 24.5t-7 32q-8 27 -7.5 36t-2 16
t-3 11.5t-0.5 15t-14 73.5z" />
    <glyph glyph-name="K" unicode="K" horiz-adv-x="667" 
d="M569 719l13 -5q13 0 25.5 3.5t22.5 1.5q10 -9 0 -36q-5 -2 -8.5 -2.5t-12.5 -2.5q-4 2 -8.5 -1t-14 -6.5t-15 -3.5t-11.5 -3q-7 -5 -13 -18t-8 -13q-9 -15 -15.5 -19.5t-11.5 -9.5q-1 -13 -11.5 -20t-13.5 -18q-11 -4 -16.5 -11.5t-12 -12.5t-10.5 -13q-5 -2 -8.5 -6
t-8.5 -6q-7 -13 -15 -15q-7 -16 -23 -31t-24 -29q-8 -3 -15 -14.5t-11 -17.5l4 -10q6 -7 12 -5.5t13 -5.5l13 -13q11 -8 13.5 -12t7.5 -10t8.5 -11l7 -10.5t12 -12.5t12.5 -13t6.5 -13.5t5.5 -15.5t6 -14t2.5 -6.5t-0.5 -4t4 -6.5t6.5 -16t7.5 -19q8 -10 9 -19.5t5 -16.5
q2 -10 2.5 -21t10.5 -18q7 -24 12.5 -32t5.5 -11.5t6 -10t9 -10.5q4 -8 8.5 -10.5t8 -6.5t5.5 -6q7 -3 13.5 -4t11.5 -6q9 3 17 1q17 -5 29 11q6 5 10.5 14.5t0.5 11.5q8 3 6 10.5t0 13.5q-4 7 -11 10q-5 8 -12 10q-8 -1 -11 -6q-8 -11 -24 -14q-21 9 -24 16q-2 7 2 16t6 17
q7 2 10.5 7.5t7.5 9.5q9 0 13.5 4.5t12.5 6.5q2 -2 5.5 -0.5t5.5 -1t11 -0.5t15 -3t11 -10q5 -2 7 -6t7 -6q1 -3 1.5 -9t5.5 -12.5t4 -9t3 -7t3 -9.5t0 -9q6 -20 -4.5 -29.5t-8.5 -16.5q-8 -6 -12 -13l-6 -13q-3 -6 -6.5 -7t-16 -10t-69.5 -9q-23 0 -34 18q-10 -2 -15.5 0.5
t-15.5 0.5q-2 6 -7.5 7.5t-10.5 4.5q-8 9 -11.5 9t-5.5 1q-8 10 -12 20q-10 10 -22 16l-10 13.5t-13 8.5l-10 24q-6 8 -5.5 11.5t-2 7.5t-7 8t-7 10t-3 9.5t-3.5 9.5t-5 9.5t-1 7.5q-7 5 -8.5 8.5l-6 13.5t-4.5 13t-2.5 5.5t-4 5t-1.5 5.5t-2 6.5t-5.5 7t-2.5 8.5
q-2 4 -5 5.5t-5 3.5q-2 8 -6 20q-7 6 -7 8t-2.5 5t-4 7t-4.5 8q-9 1 -10.5 4.5t-8 3.5t-9 -1.5t-6.5 0.5q-2 -2 -7 -2l-15 -5q-5 0 -3 -8q-6 1 -10 -4.5t-10 -9t-8 -10.5t-6 -24.5t5 -35.5q-2 -11 -3 -17.5t3 -14.5q-4 -3 -4 -18l2 -24l-2 -16l3 -28l-2 -14q1 -4 2.5 -8
t3 -8.5t-0.5 -14t0.5 -17.5t2.5 -12v-10l1 -16q2 -5 6.5 -3.5t7.5 -3.5q3 -2 8 -2t8 -2q0 -5 4 -4t5 -4.5t-1 -12t-3 -13.5q-8 -8 -24 -15q-14 6 -32.5 3t-21 -3t-8 -4t-17 -3t-21.5 -1q-9 1 -11 -1t-7 -2q-4 2 -15 3t-15 4q-2 8 -1.5 12t1.5 13q21 14 36 14q12 14 6 38
q-2 7 -2 23.5t-2 28.5t-1 14t1 4l-4 15q0 20 -3 44l2 24l-3 11q-2 13 -1 26.5t1 32t-8 26.5q4 8 0.5 17t-4.5 17q1 19 -1 32.5t-2 35.5v23q2 10 -0.5 15t-0.5 8q1 10 -1 14q-6 12 -4 21.5t-2 29.5l2 19v14q0 16 -5 35.5t-1.5 30.5t-1 11t-2.5 6t0 16t-3 21q-2 3 -0.5 6.5
t0 8t-4.5 8t-6 7.5q-5 2 -11.5 4t-9.5 4l-13 2h-9l-21 -3q-20 18 -14.5 24.5t6.5 11.5q5 2 13 4q13 0 14 3t8 3l15 -2l19 6l13 -2q17 0 22.5 4.5t11.5 7t17 2.5t19 -6q7 4 11.5 3.5t13.5 2.5q9 -1 12 1t9 1t11.5 0t10.5 1h20q11 -12 9 -17t-8 -10.5t-11.5 -7.5t-15.5 -7
t-15 -11t-13 -7q1 -8 -1.5 -21.5t-1.5 -20t3 -17t2.5 -14.5t-0.5 -9.5t0 -10t3 -8t2.5 -10t0.5 -17t1 -18.5l-2 -13l3 -17l-4 -24l7 -32v-22q2 -14 9.5 -20.5t12.5 -6.5q8 6 9.5 5.5t6.5 3t11.5 11t15.5 11.5q2 6 5 9.5t5 11.5q5 1 8 8.5t11 12.5t13.5 9t10 8t10.5 6
q5 9 12 17t12 19q5 2 8.5 4t7.5 4q12 26 25 38q0 7 12.5 16.5t13.5 15.5q4 -1 5.5 1.5t4.5 3.5q7 14 16.5 25t16.5 25q-1 10 -10.5 11.5t-16.5 6.5q-9 14 -9 19t3.5 8.5t7.5 8.5q20 2 30 -8q13 0 21.5 1t16.5 -0.5t9.5 2.5t6.5 4q0 -3 8.5 -1t9.5 3q14 -5 18.5 -4t10.5 0z
" />
    <glyph glyph-name="L" unicode="L" horiz-adv-x="428" 
d="M193 232l-6 -22l2 -27q1 -11 0.5 -21.5t3.5 -21.5q-6 -9 -5 -24q0 -29 -3 -49.5t24 -24.5q18 -3 38 -2l16 3q3 0 18 -3q29 0 77 11q7 11 10 17.5t2.5 18.5t3.5 19q13 20 30 17q11 -2 14 -26l-2 -44l-8 -94q-5 -3 -7 -7.5t-9.5 -4t-10 -3t-9 -2.5t-11 6.5t-9.5 9.5
q-3 7 -4 17t-7.5 12t-13.5 -0.5t-16 -2t-19.5 6t-20 5t-18.5 -3t-16 6.5q-5 -3 -11 -2t-10.5 -0.5t-7.5 -3t-6 -2.5q-19 0 -28.5 1t-15.5 -4q-8 3 -15 -0.5t-14 -3.5l-16 4q-5 1 -9 0t-23.5 0.5t-25 6t-3.5 7t1 13t7.5 14.5t11 8t4 8t3.5 8t2 5v8l1 11l2 33q-2 18 -2 28
t1.5 15t-0.5 11q5 29 4 38.5t-1 18.5l4 33q0 12 1 29t0.5 25t1 15.5t0 12t-1.5 8.5l5 21l-1 14l2 15q1 2 0 4.5t0 13.5t-1 24l-1 52q2 17 0.5 22.5t-1.5 12.5l-1 23l3 11q-3 14 -1.5 20t1.5 18t-1.5 26.5t0 23.5t2 19.5t0.5 23.5t4 27l-4 10t-6 10q-10 2 -16.5 0t-13.5 -3
l-11 -1l-16 1q-7 10 -8.5 9.5t-1.5 0.5q-4 8 3 25q5 2 9.5 4t10 3t8.5 4t8 4q29 -9 55 1q9 -5 20 -3t25 3l14 1h8q5 0 10 3l12 -4q32 12 61 5q5 -8 4.5 -16.5t2.5 -18.5q-4 -10 -12.5 -13.5t-14.5 -7t-9.5 -6.5t-8.5 -5q-3 -3 -6 -6.5t-8 -2.5q-1 -8 -4.5 -11t-5.5 -10
t-0.5 -15t0.5 -14t-2 -8.5t0 -5t0.5 -17t-0.5 -24.5t5 -22q-4 -11 -4 -24t-4 -20q5 -12 4 -24l-2 -14q0 -5 1.5 -10t2.5 -11.5t1 -14.5q-3 -35 -6 -47q2 -5 2 -10v-14q-1 -8 0 -12.5t0 -7.5t-3.5 -6.5t-2.5 -8.5q4 -19 0.5 -55.5t-2.5 -40t-2 -11.5t-2 -12t1 -10z" />
    <glyph glyph-name="M" unicode="M" horiz-adv-x="914" 
d="M121 660l3 14q1 5 0 10q-2 10 2.5 28.5t3 39t0 31.5t2.5 11q5 0 3 10q-4 9 7 26q-2 10 0 16.5t4 15.5q43 16 59 -10q6 -9 17 -10q2 -6 6.5 -11t7.5 -10.5l5.5 -10.5t7.5 -10q6 -48 14 -78q1 -12 4.5 -17.5t6 -11t4 -12t3.5 -13t5 -12.5t5 -12q0 -10 1.5 -10.5t2.5 -4
t3 -11.5q9 -35 21 -40q1 -6 -2.5 -6.5t0.5 -12t7.5 -32.5t14.5 -35q-1 -11 6 -33t4 -33q2 -5 7.5 -11.5t8 -22.5t4.5 -23l3 -11l7 -22q3 -8 5.5 -17.5t12.5 -14.5q11 0 14 8q5 15 10 19q2 11 12 19.5t17 15.5q2 11 9.5 20t9.5 21q10 5 15 20q9 3 14 12l7 15q3 6 4 9.5t3.5 6
t4.5 9.5t5.5 13.5t16.5 11.5q0 8 4 11t3 12q3 1 5 6t4.5 10.5t4.5 10.5t5 7q2 10 16 32q15 29 22 52q18 14 29.5 39t11.5 33q7 5 9 11.5t5.5 15t7 23.5t9.5 19q-2 8 2 13.5t6 12.5l6 18q4 11 11 19q11 0 19.5 2.5t22.5 0.5q5 -4 7.5 -10.5t7.5 -11.5q0 -8 5.5 -18.5
t5.5 -17.5l13 -49l-1 -17l8 -32q0 -4 3 -13t2 -13t1.5 -11.5t1 -9t-0.5 -4.5l4 -15l-1 -13q6 -17 5.5 -29t0 -21.5t3 -16t1 -14.5t1 -13t2.5 -25q2 -14 2.5 -30.5t2.5 -26.5t3.5 -14.5t3 -10.5t0.5 -14.5t6 -14.5q-4 -13 -1 -27q6 -29 4 -40t2 -18q6 -14 6 -28v-17l-2 -19
l4 -13l1 -11q4 -12 4 -26l-2 -29q0 -6 1.5 -13t2.5 -14.5t0 -17.5t7 -17q8 2 16 3t14 3t11 6t11.5 6t6 -4t4.5 -9t6 -11.5t-3 -13.5t-15 -10t-15.5 -4.5t-10 -1.5t-13 -3.5t-11.5 -3t-7 -3t-6.5 -3t-8 -1t-8 -0.5t-6 -3t-8.5 -3.5t-15.5 -1t-17.5 -1.5t-13 -5t-9 -4.5
t-8.5 -0.5t-11 -1.5t-9.5 -1.5t-8 -1.5t-10 -7.5t-11 -5.5t-10.5 2.5t-8.5 4q-9 20 8 35q6 5 8 5t5.5 3t5 2.5t8 4t17.5 10t17 12.5q-1 6 0 11.5t0 13t-5 14.5t-5.5 13t-0.5 10q2 9 -2.5 19.5t-4.5 30t-8 30.5q5 29 -0.5 59t-7 34.5t-1.5 9.5l3 23l-14 73v22l-3 15
q-1 4 0.5 8t1.5 8l-7 22q3 10 1 17q-5 18 -2.5 54t-7.5 59q4 0 2.5 5t1.5 6q-3 10 0 15.5t-5 12.5q-3 -6 -11 -17.5t-10 -21.5q-4 -1 -5.5 -5t-7.5 -4q0 -9 -4 -13t-6 -10q-3 -3 -1 -6.5t-1 -10.5q-3 -9 -23 -39.5t-24 -46.5q-5 -4 -9 -9.5t-9.5 -10.5t-11 -17.5
t-10.5 -16.5q-1 -5 -1 -9v-9q-9 -4 -14 -12t-13 -14q-13 -21 -24 -29q-3 -6 -6 -21q-9 -5 -13.5 -14t-10.5 -17.5t-7 -11l-2.5 -6t-2 -8.5t-6.5 -6q-2 -7 0 -17q-11 -8 -20 -22q-4 -11 -6.5 -11t-4.5 -6.5t-6 -7.5q-2 -4 -2.5 -9t-2.5 -9q-22 -2 -48 -12q-9 3 -15 9.5
t-12 11.5q-4 29 -15 44q2 8 0 14.5t-3.5 13.5t-2 13.5t-2.5 13t-3.5 12.5t-3.5 12.5t-3 13t-3.5 14t-3.5 13.5l-3 15q-1 9 -8 17q3 24 -16 47q-2 3 -4 16.5t-7.5 40t-14.5 26.5t-11.5 -2.5t-1.5 -7.5l2.5 -12t-0.5 -13t-3.5 -14t-4.5 -13q2 -13 -1.5 -28t-3.5 -30l-4 -51
q0 -3 -1 -5.5t2 -5.5q-5 -5 -5 -13t-2 -17.5t-4 -14.5t0 -15q-2 -24 -5.5 -36.5t-4.5 -23t0 -14t1 -6.5l-6 -15q-1 -6 0 -13t0 -10q-1 -7 -5.5 -21t-4.5 -15q8 -6 0 -25l-2 -19q0 -12 7.5 -14.5t23.5 -6t16 -7t2.5 -12t0.5 -11.5t-3 -5q-1 -6 -10 -6.5t-11 -2.5q-2 1 -4 1
h-7l-33 -3q-4 0 -13.5 0.5t-20.5 1l-21.5 1t-17.5 -1t-18.5 0.5t-25 2t-30 -1.5t-27.5 5.5q-1 5 -3 13t3 13q2 6 9 7t12 2.5t8.5 1t9 2t11 1.5t7.5 -1q6 7 7.5 6.5t3.5 0.5q3 5 11 9q2 14 2 32.5t4 30.5q0 15 2 19q5 8 1.5 18.5t0.5 18t6 13.5t0.5 13t-0.5 16t2.5 20t1.5 23
l-1 17q1 5 5 12t4 33l5 69q0 20 3 30.5t2 14.5t2.5 11.5t4.5 14.5l-3 15q2 11 1 12q6 28 1 37q9 9 7.5 24.5t2 23t2.5 19.5t0 25z" />
    <glyph glyph-name="N" unicode="N" horiz-adv-x="602" 
d="M366 772q-1 6 -1 21.5t7 15.5q3 0 9 3t9.5 1t9 -3t12.5 0.5t15 2.5l28 -4q8 -1 16.5 -0.5t15 -1.5t10 -4.5t10.5 -3.5t21 2.5t27.5 3t22.5 0.5q2 -4 4 -15.5t6 -13.5q0 -5 -3 -7t-2 -8q-17 -7 -20 -10q-14 6 -51 -6q1 -4 -1.5 -5.5t-4 -5.5t-0.5 -11l2 -14t2.5 -5.5
t1.5 -16.5t-4 -30q4 -13 4 -35l-2 -15q1 -12 3.5 -25.5t2 -21.5t-1.5 -11.5t-2.5 -10.5t-0.5 -15t-1 -16l-2 -18q4 -20 4 -21l-2 -29l2 -43q1 -11 -0.5 -12.5t-1.5 -10.5t2 -21l-2 -35l2 -11q0 -30 -4 -60l-1 -25q-1 -11 -3 -20.5t-2 -20.5l1 -17q0 -8 -3.5 -17.5
t-4.5 -16.5t0 -11q2 -8 -3.5 -20t-2 -26.5t2 -22.5t-4.5 -13.5l-7 -13.5q-5 2 -7 -1.5t-6 -3.5t-8.5 5t-12.5 4q-1 8 -5.5 12t-3.5 14q-17 10 -17 18q0 24 -19 34q-5 16 -11 22q-2 39 -19 48q-2 11 -7 20l-9 19q-5 11 -7.5 20.5t-7 13t-4 9t-1.5 7.5q-1 4 -4.5 4.5t-5.5 3.5
q0 7 -4 10t-7 7.5t-4 10t-4.5 12t-3 9t-1.5 6t-5.5 8t-5.5 9.5q-3 5 -6 9t-5 9t-6 7.5t-6 5.5q-1 11 -5 18.5t-6 18.5q-2 3 -5 5t-5 4q0 8 -4.5 13t-7 11.5t-3.5 12.5t-6.5 13.5t-5.5 8.5t-3.5 7.5t-4 14t-6.5 12.5q-2 9 -5 16.5t-11 5.5q-16 -7 -1 -32l-2 -16l7 -32l-2 -12
l2 -12q-2 -10 -2 -21t2.5 -25t4 -29t1 -30t-0.5 -28q-2 -10 -0.5 -16.5t-3.5 -10.5l6 -21.5t1.5 -24t0.5 -17t3 -11t-1 -16.5t-1 -18l3 -22q1 -11 -1.5 -21.5t5.5 -19.5q0 -5 -3.5 -7t-2.5 -9t-0.5 -13.5t0.5 -12.5q4 -13 18 -16.5t16.5 -15.5t-1.5 -15.5t-13 -3.5t-14 -6
l-11 6q-5 -5 -15 -2.5t-16.5 0.5t-12 -5t-12 -5t-15 0.5t-25.5 -2t-34 -4.5t-29 17q0 24 40 28q10 1 17 3q4 8 4 19q2 9 -1 17t-4 14l2 17q0 8 -2 14v27l-3 24q-1 5 -0.5 11.5t0 16t-2 20.5t-2.5 21.5t0.5 19.5t1 24t0 36.5t-1 34t-2.5 17t-1.5 12t0 17.5t-0.5 21.5t-2.5 27
t-1.5 32.5l-2 33l1 13l-3 22l2 17q-1 4 -2.5 8.5t-3.5 12t-1 22.5t1 30v26q0 20 -3 36t-1.5 23t-3.5 12q2 7 2 15v16q6 2 9.5 9t10.5 9q3 2 5.5 5.5t6.5 0t7.5 -0.5t6.5 -2l10 -11q14 -13 19 -27q8 -10 8 -13t5 -11.5l9 -15.5l6 -12q3 -4 5 -9.5t5 -11t5.5 -8.5t7 -9.5
t6.5 -14t7 -16.5l8 -14.5t8 -9.5q2 -13 9 -19.5t8 -20.5q2 -2 4 -5t4 -5q0 -10 5 -18.5t7.5 -13.5t3 -8.5t2 -7t5 -7.5t5.5 -9t2 -8t5 -9t4.5 -9.5t0.5 -6.5t4.5 -4t5.5 -3q1 -14 6.5 -20.5t7 -14t5 -8t8 -14.5t17.5 -26l1 -14q8 -3 10 -12.5t10 -14.5q0 -7 3 -9.5t6 -6.5
q2 -11 8.5 -19t11.5 -17.5t9 -19.5t11 -18q8 16 6 23.5t-3 20.5t0.5 15t1.5 7t-1 10q-5 15 -2 43t1 46t-1 27l4 21q2 12 1.5 24.5t0.5 24t1 23.5t1 25l-2 13l4 35q-1 12 2.5 29t3.5 29l-1 35l-1 5l1 6l1 18q0 18 3.5 25.5t3.5 15.5q-2 7 -7 7h-13q-11 2 -15 0q-6 -4 -22 4
q-3 -5 -6.5 -1t-5.5 5z" />
    <glyph glyph-name="O" unicode="O" horiz-adv-x="630" 
d="M41 436l-1 15q1 5 4.5 11.5t5.5 12t2 11.5q0 11 7 18t7 16t4 21t16 34t15.5 30t9 14t10 8.5t15 13l32 31.5t44.5 29q5 3 3.5 5.5t0.5 7.5l18 -6q19 3 31 20q17 1 39.5 4t37.5 0t19.5 -5l9 -4t8.5 -1.5t18 -5.5t30 -8t26 -7.5t16 -11.5t12.5 -11t14 -9.5t10.5 -7.5t4 -6.5
t3.5 -6t7 -8t9.5 -10.5q0 -5 2.5 -9.5t1.5 -10.5q4 -5 9 -8.5t3 -11.5q14 -9 17.5 -26l5.5 -27t7 -18q1 -6 0.5 -12.5t3.5 -18.5t3.5 -24.5t5.5 -22.5q-6 -16 -4.5 -38t0.5 -29l-3 -21v-16q0 -3 -6 -12q-2 -6 -4 -19l-4 -17q-2 -14 -12.5 -26.5t-13.5 -21.5t-3 -15.5
t-5 -15.5t-18 -17.5t-15 -26.5q-5 -2 -9.5 -6.5t-11.5 -2.5q-2 -8 -5 -12.5t-10 -2.5q-10 -20 -38 -30l-22 7l-51 -22q-9 6 -20.5 6t-15.5 5q-5 -1 -12 -3q-29 -9 -35 12q-15 -5 -43.5 6t-34.5 15.5t-8.5 9.5t-5.5 8q-34 14 -43 22q-20 16 -18 36q-8 5 -13.5 10t-13.5 10
q-2 15 -4 22q-9 7 -13 16t-12 16q-2 5 2 13q-11 5 -13.5 21t-5 23t4.5 11q-10 22 -10 44.5t1 35.5zM534 442q-8 15 -8 32q1 19 -8.5 40.5t-7.5 32.5q-8 5 -19.5 24t-22.5 26q1 6 -3 11t-5 10q-8 7 -12.5 14.5t-7.5 11.5t-6 5.5t-1 5.5q-11 1 -12.5 0t-4.5 0q-5 5 -9 3.5
t-13 3.5q-8 -2 -17 -4t-21 4q-23 -15 -63 0q-4 -6 -8.5 -4.5t-9 -0.5t-7 -5t-6 -5t-8.5 -4.5t-8 -4.5q-4 -11 -7.5 -13t-4.5 -3q0 -10 -2 -10.5t-7 -14t-13 -19.5q1 -6 -1.5 -12t-0.5 -11q-13 -15 -17 -31t-9 -29.5t-9.5 -23.5t-7 -22.5t-3 -27.5t-5.5 -29q7 -11 5.5 -27.5
t-0.5 -26t0 -12.5t2 -10.5t2 -8.5t0.5 -4.5t4 -8t4.5 -9.5q-5 -14 0.5 -23.5t4.5 -21.5l13 -17l13 -17q11 -2 18.5 -8.5t14 -10t11.5 -2.5q9 2 14.5 -7t27.5 -9l50 -4q1 0 4.5 2t10.5 4l15 4.5t19 2.5q7 8 17 12.5t15.5 9.5t10.5 8.5t9 8.5q5 -1 5.5 5t2.5 9q8 2 13 7t11 7
q5 17 16 30t17 26.5t7.5 27.5t12.5 25q-5 11 -3.5 22t2.5 19q-3 20 5 47z" />
    <glyph glyph-name="P" unicode="P" horiz-adv-x="506" 
d="M326 749h14q2 -4 6 -4.5t6 -4.5q10 2 16 -2t12 -6.5t10 -3.5q8 -2 14 -8l8 -8q3 -2 5 -4.5t8.5 -9t8 -10.5t3.5 -6t6.5 -9t9 -17.5l7.5 -17t6.5 -15.5t3.5 -15t5 -10q2 -24 6.5 -40.5t4.5 -22t2 -18.5t0 -21t-2 -11t-1.5 -8t-7 -11t-4.5 -16q-4 -3 -6 -6.5t-6 -5.5
q-4 -20 -13 -33.5t-17 -29.5q-6 -2 -11 -6q-17 -16 -35 -14q-4 -2 -3.5 -7.5t-3.5 -7.5q-5 -5 -12 -7t-9 -10q-7 1 -9.5 -3t-6.5 -6q-21 -1 -31 -5t-15 -4.5t-12 -2t-17 -1.5t-20.5 2t-15.5 -2.5t-8.5 -12t-4.5 -11.5t-6.5 -16t-3.5 -18.5t2 -11.5l-1 -28q0 -21 5 -43
q-5 -5 -2.5 -11t2.5 -14l-2 -21q2 -16 1.5 -24t7.5 -11q1 -5 1.5 -8.5t3.5 -7.5q13 4 18 4h8q11 -2 15.5 -11t4 -15.5t-7.5 -13t-13.5 -8t-10.5 0.5t-8 2t-7 -2t-7 -3t-9.5 1.5t-10.5 -3.5q-17 5 -30 -6q-22 4 -24.5 0.5t-5.5 -5.5q-14 2 -39.5 -6t-40.5 -2q-5 9 -1.5 18.5
t9.5 14.5q11 -2 18.5 3.5t15.5 5.5q1 6 3.5 6.5t4.5 6t3.5 8.5t3 7t1 7.5t1 7t-3.5 9.5t-2 15.5t2.5 13t0.5 7.5l3 15l-3 18q-1 4 -2 9t-2 9l-4 12q3 15 1 22t-3 13t-1 11t-1 10l-3 15l2 12q-4 72 -3.5 87.5t-2.5 24.5q-1 11 0 23t0 19l-1 78v11q1 14 -0.5 19t-2 22t-4.5 48
t-4 60l-2 15q0 8 2.5 18.5t1 17t-4.5 10t-6 8.5q-11 1 -18.5 -1.5t-19 -2.5t-16.5 5t-10 15q7 19 10 22q29 0 37 9q9 -2 16.5 1.5t15.5 -2.5q7 3 15 0.5t16 -2.5l31 2l19 -4l25 2l17 -4q18 2 24.5 0t12.5 -2h9q3 0 7 -1q7 -5 8.5 -4.5t18 -3t35.5 -13.5zM264 705l-44 3
q-19 2 -23 -7.5t-1.5 -15t3.5 -12.5q-6 -9 -3.5 -37.5l4 -44.5t1.5 -30.5t-4 -25.5q5 -5 4.5 -14t-0.5 -12l3 -25q1 -19 0 -36.5t4 -30.5q-5 -4 -3.5 -10.5t0 -16.5t3.5 -21q5 -6 6.5 -10t3.5 -6q10 -5 10 -6t2 -2q18 5 28 5l31 4q8 0 11 6t6.5 8.5t7.5 4t8 3.5q3 8 9.5 10
t11.5 7q3 8 4.5 8t3 2.5t2 6t3 7.5t5.5 10t7 11q-1 14 3 23t6.5 20t3.5 24t6 25q-7 30 -2 51q-4 86 -38 106q-2 4 -4.5 1t-6.5 -1q-4 7 -32 15q-11 5 -19.5 4t-20.5 -1z" />
    <glyph glyph-name="Q" unicode="Q" horiz-adv-x="641" 
d="M713 45q1 -11 3 -11t2 -10t-1 -15t3.5 -4.5t4.5 -4.5q0 -23 -6.5 -34.5t-10.5 -24.5q-7 -3 -10 -8.5t-11 -7.5q-2 -5 -3 -9.5t-3 -9.5q-10 -5 -21 -12q-32 -19 -68 -5q-5 2 -10.5 2.5t-9.5 2.5t-6.5 4t-6.5 3.5t-7.5 1t-7 1t-6 5.5t-5.5 6q-8 2 -10 6t-5.5 4.5t-6 6
t-8 10.5t-11 11t-10.5 10t-10 9q0 10 -3 18l-7 8.5t-8 11t-12.5 14.5t-12.5 15q-3 2 -5.5 -1.5t-5 -5.5t-5 -2.5t-7 -3t-10 -6.5t-11 -4t-9 3.5t-8.5 6.5q-7 0 -7.5 -4.5t-4.5 -6t-6.5 -0.5t-7.5 -2.5t-7.5 -2t-10.5 -0.5t-14.5 -0.5l-10.5 2.5t-6.5 1.5t-7.5 2t-11.5 2.5
t-12.5 6q-16 -8 -28.5 -3.5t-23.5 8t-15 3.5q-13 2 -21 10q-9 0 -13 4q-6 9 -7.5 9t-5 4t-5 7t-5.5 3q0 16 -6 18.5t-11 5.5q-5 14 -24 33q2 8 -2.5 13t-8 10t-5.5 9t-6 6q-1 14 -15 25q1 6 -3.5 14t-4.5 15.5t-7.5 22t-7.5 56.5q-2 10 -1 13.5t2.5 11t2.5 19t3 22.5
t5.5 19.5t6 21t14.5 20.5q-2 5 1 7.5t2 8.5q8 9 12 21t9 24q7 9 6.5 11t3.5 8.5t13 14t12 20.5q22 15 29 25q9 8 12 8.5t5.5 2.5t7 6t7.5 4.5t5.5 2.5t5 3.5t9.5 6t20.5 9.5t20 7t11.5 9l17 1q6 0 6 6q-2 13 43 13l19 -5q8 2 16 6q9 -4 18 -3.5t15 -1t10 -3.5t7.5 -3.5
t7.5 -0.5t9.5 -1.5t7 -1.5t6.5 -0.5t9.5 -8t11 -9t12 -5.5t11.5 -5q3 -6 7.5 -10.5t7.5 -8.5l6.5 -8.5t11.5 -17.5t17 -13q3 -9 7 -17l7 -14q5 -9 8.5 -19.5t5.5 -11.5t3 -3.5t1 -6t3 -12.5t9 -24t9 -32t5.5 -22.5t3.5 -9.5t0 -6t-1 -6l6 -27v-12l-1 -23q0 -5 -1.5 -11.5
t-3.5 -16.5t-4.5 -26.5t-12.5 -25.5q-2 -14 -8.5 -23.5t-8.5 -22.5q-7 -2 -10.5 -7.5t-8.5 -9.5q0 -10 -5 -22q-10 -13 -14.5 -18t-10 -12.5t-21.5 -25.5q2 -10 9 -9q-1 -11 5 -15q17 -14 22 -32q5 -5 8.5 -10.5l7 -10.5t11.5 -7q-2 -6 2 -8.5t6 -7.5t6 -11l8 -12
q17 -8 20 -15q10 -1 21 -7.5t25 7.5q17 14 21.5 23.5t6.5 23.5q8 11 6.5 15.5t1.5 4.5q-2 7 -9.5 12.5t-10 10t-7.5 6.5q-6 -3 -13.5 -11.5t-7 -14t-3.5 -7.5q-7 -8 -22 -2q-11 17 -6.5 37.5t19.5 30t26 9.5q8 -4 11 -3t9.5 -2.5t9 -5.5t6.5 -4t10 -3q15 -1 20 -13zM497 370
l1 13q0 8 -4 17.5t-4.5 17t-2.5 11.5t-3.5 6t-5 14t-1.5 23q-9 9 -8 10t-1 6t-3.5 11t-7 17.5t-13 20.5t-12.5 20q-7 4 -12 10t-8.5 8t-5.5 5q-2 7 -8 7t-8 5q-5 -2 -8 -4t-10 -2q-6 5 -14 4.5t-15 2.5t-13 3h-7q-7 -3 -12.5 -4t-10 -2.5t-6.5 -3.5t-5.5 -3.5t-7.5 -1.5
t-9.5 -2.5t-11.5 -6.5t-13 -2q-5 -5 -10 -8t-10 -7.5t-8.5 -10t-9.5 -7.5q-2 -10 -8 -16.5t-10 -13t-6 -13.5l-4 -13.5t-4.5 -12.5t-3.5 -14q-5 -6 -4.5 -13t-3.5 -21t-2 -24l-7 -11q1 -11 -2.5 -23t-5 -27.5t3 -37.5t5.5 -28.5t3 -11.5t1.5 -8t2.5 -13.5t9.5 -25t8.5 -20
t1.5 -9.5t1 -7t5 -6.5t5.5 -8t4 -9.5t4 -9q6 -6 5.5 -7.5t0.5 -3.5t4 -4.5t5 -4.5q8 -18 18 -23t10 -7q9 -7 10 -6.5t8 -4t11 -7.5t6.5 -4.5t5.5 -1t7 -0.5t9 -2t10 -3q29 -3 38 3q3 1 5.5 1t7 2t8.5 4.5t14 9.5q22 13 20 24.5t-8.5 18t-14 13t-11 10t-7.5 3.5q-1 6 -6 12
t-11 15q-26 33 -29 49q2 6 0.5 8.5t-0.5 2.5q2 7 12.5 10.5t18 3t12 -4t9.5 -2.5q3 -6 7 -11l8 -10q5 -17 15 -28.5t17 -25.5q17 -12 18.5 -19.5t3.5 -9.5q17 -3 23 6t8 15t4 10t4.5 12t6.5 16q8 17 6.5 23.5t1.5 13t4 10.5q0 4 -1 7.5t2 11.5t2.5 14.5t-0.5 11.5q1 5 4 14
l-3 18q-1 15 -2.5 25t-2.5 21z" />
    <glyph glyph-name="R" unicode="R" horiz-adv-x="622" 
d="M86 568l4 27q0 3 -1.5 6.5t-0.5 14.5t3.5 27.5t1.5 33.5q-20 -2 -40.5 -1t-39.5 -2l-6 10t-4 13q5 2 7 7t9 4q4 2 7 4.5t11 3.5t14 4t16 1t23.5 0.5t16.5 3t4 4.5q4 0 5.5 -2.5t8.5 -2t13 6.5q4 -3 8.5 -1.5t9.5 2t9.5 0t12.5 2.5t14.5 1.5t10.5 3.5q5 -2 14.5 -2t14.5 4
q16 -4 20.5 -2t16.5 -0.5t37 -3t38 -3l20.5 -4t11.5 -1.5t11 -4t10.5 -8.5t8 -6.5t10 -4t11.5 -4.5t12 -8.5t16 -8q9 -11 17 -14q3 -8 16 -16q1 -7 5 -11.5t6.5 -8.5t3 -7t3.5 -9l6.5 -12.5t8 -19t11.5 -23.5q-2 -12 1 -22.5t3 -13.5t4.5 -14.5t0.5 -20t-5 -13t-0.5 -10
t-1 -13.5t-0.5 -10t0 -5q-9 -8 -9 -11t-1.5 -8t-5.5 -8.5t-4 -15.5q-4 -2 -5 -5.5t-3 -7t-3 -7t-4 -7t-8.5 -7.5t-7.5 -10q-4 1 -5.5 -3.5t-7.5 -2.5q-5 -4 -8 -8.5t-8.5 -6.5t-8.5 -3.5t-10.5 -3.5t-13.5 -6q-6 0 -9 -3.5t-7 -1.5q-5 -7 -14.5 -8.5t-14.5 -9.5
q2 -12 12 -21.5t20 -17.5q1 -8 19.5 -35.5t21 -39t4.5 -15.5t6 -14.5l8 -22l8 -22t5.5 -14t4 -8t3.5 -8l4.5 -15.5t9.5 -36t9 -31t5 -12.5l4.5 -12t5 -12t3.5 -9.5t5 -9.5t8 -12.5q4 -4 6.5 -10.5t7.5 -11.5q10 -3 10.5 -4t3.5 -2q8 -4 32.5 -1.5t28.5 7.5t13.5 8.5
t11.5 7.5l8 10q3 12 5.5 15t4 8.5t0.5 14t-1 16.5q2 4 -2.5 6.5t-5.5 7.5t-3 7q-3 2 -5.5 5t-10.5 6.5t-18 -4t-17 -19.5l-23 1q-7 5 -9 14t-7 17q0 7 6 13l9 9q3 3 5 8q14 4 16 4.5t6.5 2.5t16 8t19.5 1.5t18 -6.5q2 -2 2.5 -5.5t2.5 -5.5q7 -4 10 -7.5t9 -4.5
q7 -10 13.5 -20.5t4.5 -27.5q6 -19 5 -32t0 -16.5t-3 -10.5l-7 -15q-10 -18 -15.5 -23.5t-9.5 -11t-10.5 -12t-13 -6.5t-12.5 -4.5t-23 -4.5t-21 3q-18 -15 -41 -1q-9 5 -20 2q-25 17 -41 22q-2 2 -1.5 6.5t0.5 9.5q-8 0 -12 1q0 2 -7 12.5t-10 16t-4 6.5q-9 4 -11.5 8.5
t-4.5 6t-7 11.5l-22 44l-5 11q-3 8 -8 20q-25 60 -25 71l-8 8q-3 16 -9 19q2 8 -2 12t-2 12q-7 5 -13.5 28t-6.5 26.5t-0.5 8t-3.5 8.5t-3 12q-8 9 -17.5 17t-17.5 19q-24 3 -45 22q-4 1 -7 0.5t-7.5 0.5t-9 4t-11 1.5t-7 -3t-6.5 -9t-2 -18t3.5 -20.5t-2 -22.5t-1.5 -16.5
l4 -63q0 -5 -3 -14l1 -20q-1 -9 -1 -20v-19q-2 -7 -1 -8.5t-0.5 -9.5t-0.5 -15t0 -19.5t-4 -27.5t4 -29q16 -5 23 -4l11 3q12 -3 16.5 -2.5t12.5 -1.5q2 -3 2.5 -7t1.5 -8q4 -1 3 -6t-1 -10q-12 -9 -31 -4q-5 1 -5 -4t-4 -5q-3 3 -5.5 0.5t-8.5 -3t-13 1.5q-17 7 -28 -9
q-5 4 -15 4t-14 -6q-4 5 -8.5 3.5t-9.5 -3.5q-8 6 -16 2t-18.5 -5.5t-14 -5t-10.5 -3.5l-3 1q-6 0 -12 -3q-13 -7 -25 10q2 6 2.5 11t2.5 9q4 4 8 3q8 -1 15 6q2 1 18 5t16 5.5t8.5 2.5t12.5 9q1 8 -1.5 12.5t-4.5 11.5q2 14 -1 28.5t-2 23t2 12t1 6.5l-2 16q-1 4 0 7.5
t-1 21.5l-2 18q3 9 3 14l-2 20q-1 5 -0.5 10.5t0.5 10.5q-4 13 -3 14t0 5l-3 20q-2 14 0 29t2 26v24q0 12 -1 20l-2 16q-1 11 0.5 27.5t0.5 20.5t-1 9v21l-9 43l1 18q2 12 2 25v14q0 3 -1.5 5.5t-2.5 9t1 17.5t2 17t-3 15zM306 696l-70 -2q-18 -15 -37 -12q-2 -5 -8.5 -8
t-10 -13t3 -22t7 -20.5t3.5 -14.5l1 -29q1 -17 0 -33.5t-1 -30t1 -23.5t1.5 -19t-0.5 -18t1.5 -21.5t1.5 -18.5t0.5 -14t1.5 -18t4 -15q1 -4 -0.5 -9t3.5 -4q1 -5 5.5 -3.5t25 -1t34.5 5.5q33 -16 61 0q11 6 24 8q5 8 11.5 11.5t12.5 8.5q2 6 4.5 8.5t0.5 9.5q13 5 20 24
q1 4 4.5 4t3.5 5q2 0 0.5 4.5t3 13.5t4.5 24q9 8 8 22.5t5 27.5q-6 9 -8 22q1 4 0.5 11t0 11t-0.5 9.5t-3.5 10t-0.5 10.5q-9 12 -12 30q-8 8 -9 7.5t-5.5 5t-7.5 11t-8 7.5q-5 7 -10 9t-7.5 4.5t-5 3.5t-5.5 3q-14 16 -27 15t-21 3z" />
    <glyph glyph-name="S" unicode="S" horiz-adv-x="412" 
d="M214 793l33 8q6 -3 12.5 -5.5t12.5 -5.5q6 -13 16 -14q14 0 22 -14q7 -10 14 -17q19 -9 30 1l14 16q11 10 22 -6q6 -8 4 -19q-5 -11 -7.5 -20.5t-5 -15.5t-8.5 -14.5t-6 -14.5q-24 -18 -26 -42q-10 -12 -12 -19q-9 -1 -16 -4t-15 0q-2 8 -4 13.5t-1.5 15.5t9.5 22.5
t4.5 26t-11 16t-8.5 13.5q-15 7 -26 21q-14 -1 -21 11q-13 1 -22 -7l-14 -13q-5 -4 -11 -7q-10 -17 -9.5 -31.5t-1 -24t0.5 -18.5t4 -15.5t1.5 -17t2 -21t5 -18.5t3.5 -14.5t6.5 -18.5t7.5 -21.5t6 -17.5q8 -9 12 -20t10 -21t12.5 -17t9.5 -16q9 -6 16 -6q0 -10 3 -22
q3 -6 7.5 -12t7.5 -12.5l6 -13.5t6.5 -13.5t8 -13t7.5 -12.5q7 -8 6.5 -10t3.5 -8t13 -31.5t19 -35.5q-2 -8 -0.5 -15t1.5 -15t2 -23.5t-1 -28t-2.5 -16t-3.5 -10t-7 -12.5t-5.5 -10.5l-4.5 -8t-3 -7.5t-2 -6q-9 -6 -9 -7q0 -2 -13 -11l-6 -9q-9 -16 -15 -19
q-11 -3 -11.5 -5t-2.5 1q-5 -8 -6.5 -7.5t-3 -1t-3 -4t-5 -5t-9 -4t-9.5 -3t-7 -2.5l-12 -4q-20 -7 -27 -14q-3 1 -5 3t-9 1.5t-8 -6.5q-6 4 -13 1.5t-13 -2.5l-14 2q-15 -2 -20 0.5t-16 6.5t-16.5 5.5t-6.5 11.5q-8 0 -16.5 4.5t-10.5 7.5t-8 9t-8 10t-2.5 10.5t-2.5 13.5
q-6 9 -5.5 14.5t-7.5 7.5q1 6 -1 9t-2 10t-5 8t-5 8t2 13q8 24 3 37l18.5 26l17.5 24q17 1 27 15q7 -5 13 1t12 5t9.5 1.5t19.5 -0.5q16 0 26.5 -3.5t10.5 -6.5q17 -8 21 -14.5l9 -14.5q2 0 4 -4t4 -7q12 -14 9 -50q0 -9 -3.5 -17.5t-4.5 -17.5q-2 -20 -26 -17
q-6 0 -10.5 7.5t-11.5 8.5q-2 10 -4.5 19l-5.5 20q-9 45 -19 48q-5 2 -16 0.5t-15.5 -7t-7 -5t-6.5 -2.5t-8.5 -8.5t-9.5 -8.5q-16 -48 8 -66q0 -10 3 -13q1 -8 2 -9.5t1 -11.5q6 -5 11.5 -9t8.5 -12q12 0 18 -6t14 -11q8 3 13.5 1l13.5 -5q32 3 59 22q4 5 8 5.5t17 16.5
q11 8 13 11.5t14 17.5t10 24t0 22q-2 12 -1.5 18t-2 12t-4 12t-6 17t-15 26t-12.5 38q-6 10 -12.5 17.5t-11.5 17.5l-13.5 16t-9.5 21q-9 9 -15 21t-12.5 20.5t-6.5 11.5q0 6 -8 12.5t-8 29.5q-5 3 -7 8q-6 12 -16 20q-15 14 -10 40q-2 6 -5.5 8t-5 7.5t-2 12t-2 12.5
l-3 11.5t-0.5 10.5l-1 15q0 1 -4 13l-2 17l4 15l-2 19q0 30 4 38t5.5 15t2 13.5t5.5 12.5q8 6 7.5 8t3 7.5t7.5 8.5t7.5 6.5t5.5 7t5.5 5.5t6 2.5t14.5 6t21 12.5t15.5 8.5t9.5 0t9 -1.5z" />
    <glyph glyph-name="T" unicode="T" horiz-adv-x="546" 
d="M528 635l-4 -11q0 -6 2.5 -12t1 -13.5t-7.5 -14.5t-12 -15q-4 -1 -6.5 1.5t-6.5 1.5q-4 6 -11 12t-8 20t-6.5 24.5t-7.5 15.5q-6 -1 -40 4q-10 -3 -16 -2t-8 1q-10 0 -20 -5t-17 -2t-15.5 2.5t-10.5 0t-4 -0.5q-7 -9 -3 -25t3 -20t2.5 -15t1 -20t-0.5 -14.5t0 -10
t-2 -9.5l3 -16q1 -8 0.5 -14.5t2.5 -16t2 -13t-1 -20.5t5 -57l-3 -15l7 -70l-2 -23l2 -21l5 -22l2 -16q0 -5 -1.5 -11t-2.5 -14t0.5 -18.5t1.5 -18t-1 -11.5t0 -12t-0.5 -12t-1.5 -8l3 -33v-26q0 -7 2 -17q9 -11 12.5 -9.5t8.5 1.5l9 -8q4 1 15 -2q29 -8 22 -23
q-4 -11 -12 -20q-5 -2 -9.5 0.5t-8.5 2.5q-10 -8 -22.5 -7t-23 -0.5t-16.5 -2.5t-14 -1.5t-15 0.5t-16 -0.5t-17.5 -5t-18.5 -3t-18 2.5t-18 1.5t-20 -4t-14 -2.5t-7.5 5t-7.5 6q2 16 4 23q8 5 18 6t16.5 3t11.5 4t11 4t12 3t11.5 6t6 6t6 10t4 13.5t-1.5 10.5l2 12
q-2 12 -2 29t-1.5 21.5l-3 9t0.5 8t2 8.5q-9 20 -9 63t-2 71l2 15l-2 15q2 14 -2 21q9 23 -7 49q5 5 4 10.5t1 17t0 17.5t-3 12t-0.5 10t0.5 9l-4 11l2 13q0 15 1 16q-5 10 -5 27v36l-1 43q0 2 1 7.5t0 8t-4 4.5t-1 7q-7 2 -9.5 -1.5t-8.5 -3.5l-47 2l-14 3l-39 -1
q-6 -3 -10.5 -7.5t-13.5 -3.5q-5 -5 -13 -8.5t-10 -8.5q2 -15 -4.5 -21.5t-9 -12.5t-3 -13.5t-8.5 -6t-15.5 2t-6.5 8.5q-5 3 -5 4.5t3 12.5t0 25q2 12 0.5 18.5t-1.5 11.5l3 23q0 5 -2.5 8.5t2.5 5.5q-6 6 -5 14.5t-4 16.5q8 12 3 29q11 14 38 7q6 -10 9 -23t7 -27
q10 -7 25 -7l16 3q15 -3 27.5 -0.5t22.5 3.5t22 0t17 -2t10 1q9 -1 11 0.5t5 2.5l19 -1l19 1q6 0 48 3q16 -1 31 2q17 1 36 -0.5t36 -1.5q11 3 12 2t5 -1q12 6 17.5 6t9 2l10 5.5t10.5 7.5v6l6 16q-1 2 2.5 7t3.5 8t5.5 14.5t13 12t12 -6t11.5 -11.5q1 -11 0.5 -17.5
t-0.5 -16.5l2 -11q-4 -9 -2.5 -11.5t2.5 -7.5q-5 -2 -4 -6.5t-1 -15.5t-2 -24z" />
    <glyph glyph-name="U" unicode="U" horiz-adv-x="592" 
d="M456 460q-3 25 8 42q-2 5 -2.5 9.5t-3.5 18.5t-0.5 31t5 37t-3.5 40q5 3 3 6.5t-1.5 10t-2.5 11t1 25.5v18t-2.5 15.5t-6 9.5t-5.5 8q-13 0 -24.5 1.5t-23.5 2.5q-2 8 -5 11t-2.5 9t5.5 11.5t12 8t33 -3.5q14 -5 26 -5t17 -2q4 1 5.5 3.5t5.5 2.5q10 -5 20.5 -5t32 3
t39.5 0q18 -23 7 -37q-11 -10 -33 0q-6 -1 -8 -4t-10 -3q-5 -4 -3.5 -8t-4.5 -6q1 -4 -1.5 -8.5t-3.5 -8t0.5 -5.5t1 -6.5t-3.5 -9t-3 -10.5q3 -7 3 -23q2 -8 0 -13l-5 -26q0 -8 2.5 -21.5t-5.5 -20.5q2 -5 0 -10l-4 -10q4 -19 1.5 -30.5t1.5 -30.5q-1 -4 -1 -11t-2 -12.5
t-2.5 -17.5t-5.5 -19q6 -4 5.5 -16t-5.5 -17q-1 -8 -0.5 -15.5t-1 -14t-5.5 -9.5t-5 -8.5t1.5 -14t0.5 -16.5l-3 -11q-2 -8 -4.5 -15.5t-4 -15t-7.5 -15.5t-7.5 -17.5t-0.5 -13t-0.5 -6.5t-4.5 -6.5t-1 -7.5q-13 -10 -13 -18.5t-2 -13.5t-14 -14q1 -6 -4 -16
q-21 -17 -35 -16q-3 -1 -4.5 -5t-4.5 -6q-16 -7 -21.5 -11t-12 -7t-14 -3t-15.5 5q-3 -1 -6 -2.5t-5.5 -2.5t-6 -0.5t-6.5 0.5l-17 -4q-7 0 -19 5t-23.5 2t-19.5 2.5t-9.5 7.5t-9.5 8t-15 6.5t-10 3t-4.5 13t-5 13t-10.5 5.5t-9 14q-5 26 -20 44q1 4 -0.5 7t-3 6.5t-1.5 7
t-2 6.5l-6 11q-14 24 -12 29t1 12l-6 34q0 6 -6 8q-1 14 -0.5 21.5t-1.5 20.5l-3 11q-1 7 -0.5 14.5t-2.5 14.5t-4.5 15t-0.5 19.5t-4 22.5q0 8 3 11q-6 16 -5 31t2 34l2 14q-1 4 -5 14q-1 10 1 20.5t2 25t-3 30.5t3 30v51q-1 4 -5 5.5t-3 7.5q-5 2 -12 0.5t-9 6.5
q-6 -3 -14 -2q-11 3 -15 14.5t5 22.5q24 0 31 -4q10 6 23.5 4.5t22.5 6.5q5 2 7 -1.5t5 -0.5q22 0 41 4.5t40 1.5q1 -4 4 -6.5t7 -10t3 -10t-9 -11.5q-11 -1 -18.5 -1.5t-12.5 -9.5q2 -11 1.5 -23t3 -21t3.5 -15v-22l4 -20l-2 -15l2 -11l-2 -12l4 -19q-2 -13 -0.5 -17.5
t1.5 -7.5v-20q4 -12 4 -13v-20l3 -17q1 -3 -0.5 -5.5t-1 -6t1.5 -6.5t2.5 -9t0.5 -13q-1 -9 2.5 -20t3 -28t1.5 -24t2 -13l7 -30q0 -6 -4 -16t6 -30q-2 -25 5 -36l-4 -15q4 -7 6.5 -14.5t7.5 -10.5q0 -14 8 -23.5t10 -15.5q4 -2 6 -5t5.5 -5t6 -5t6 -5.5t6.5 -2.5t11.5 -5
t16 -4.5t14.5 -4.5q8 3 15 3q12 -1 24 7q20 9 21.5 14t11.5 7q1 4 3.5 7t1.5 9q11 3 12.5 10t7.5 15q-2 13 3 18t3 16q8 0 14 15q5 10 4 15.5t-1 10.5l6 15q-2 23 0 29t2 11t1 11t2.5 9t1.5 6v6t-2 8q3 12 4 23.5t4.5 20t3 13t-0.5 10.5z" />
    <glyph glyph-name="V" unicode="V" horiz-adv-x="543" 
d="M509 775l38 -2q2 -5 7.5 -9.5t5.5 -17t-20 -24.5q-8 4 -12.5 3.5t-14.5 0.5l-16 -8q-2 -6 -4.5 -10.5t-0.5 -12.5q-5 -4 -6 -9t-3 -12q-6 -2 -7 -6q-2 -21 -6 -23q-5 -52 -19 -67v-18q-4 -2 -4 -6.5t-3 -6.5v-28q-7 -8 -7 -18.5t-3 -18t-7.5 -12t-6.5 -9.5
q1 -12 -4.5 -23.5t-9.5 -24.5l-8 -25t-4.5 -17t-4.5 -10q3 -10 -0.5 -15.5t-1.5 -16.5q-4 -2 -10 -12q-5 -25 -8.5 -50.5t-14.5 -44.5q5 -13 0 -20t-7 -12q2 -10 -2.5 -14t-3.5 -14q-3 -2 -4 -5.5t-6 -3.5q0 -11 -5 -24t-4 -26q-4 -5 -6 -10l-6 -11q-9 -9 -9.5 -14.5
t-5.5 -10.5t-5.5 -5t-3 -2.5t-13 -5t-22.5 7.5q-17 13 -19 20.5t-10 15.5q3 13 -5.5 30.5t-7.5 27.5q-1 5 -3 7q-12 12 -11 30q-8 15 -10.5 34t-7.5 28t-6.5 12t-4.5 4q-4 26 -11.5 51t-9 28t-4 9.5t-4.5 15.5t-5 15.5t-3 10.5t-6 5q3 2 1.5 5.5t-1.5 7.5q0 36 -12 46
q0 24 -9 33q1 16 -4 24t-7 20.5t-6 20t-6 13t-3 12t-2.5 12.5t-3.5 11.5t-3 9t-0.5 7t0.5 6.5q-4 8 -3 11.5t1 7.5q0 9 -2.5 12.5t-6.5 12.5q-8 1 -14.5 2t-12 -0.5t-9.5 -5.5t-10.5 -5t-12 7.5t-11.5 15.5q0 3 7 26q13 0 24 3.5t21 1.5q6 2 11.5 5.5t11.5 -1.5q10 12 28 15
t31 12q12 -8 32 1.5t29 6t12.5 -7t1.5 -12.5q4 -16 -3 -18q-21 -9 -32 -34q-7 -12 11 -33q1 -5 2.5 -8t0.5 -9q5 -5 6.5 -14.5t7.5 -13.5q-2 -5 0.5 -11t6 -15.5t9.5 -17.5q-2 -8 1 -16.5t7 -21t9 -36t8 -30.5t6 -17.5t5.5 -23.5t6.5 -24l3 -12q2 -6 3.5 -17.5t3.5 -17t4 -8
t3 -6.5t0.5 -10.5t1 -15t5.5 -20.5t6 -24.5t2 -26t9 -22.5v-5q0 -17 5 -17q5 -1 7 8t0 17q8 14 6 26q2 5 4 8t3.5 7.5t0.5 10t1 10.5q6 8 6 10.5t2.5 5t5 6.5t4 8t0.5 9t0 12.5t4.5 16.5t0.5 19q5 1 5 7t4 8q1 9 4 15.5t3 17.5l9 11q-3 21 4 37.5t7.5 20t6 12t5 13t1.5 10
t3.5 17t3.5 21.5t16 37v13q15 23 15 46q7 8 10 25t10 24q2 5 2 6.5t2 7.5t-1 18q-8 8 -9 9.5t-8 2.5t-7 3.5t-5.5 4t-7.5 -2t-7 -2.5q-17 15 -10 47q3 -2 6.5 1.5t6.5 3.5t7 -2t10 -4.5t12.5 -4t12 -3t8.5 -3.5t10.5 -3.5t19 -0.5t22.5 1z" />
    <glyph glyph-name="W" unicode="W" horiz-adv-x="754" 
d="M488 394l7 -29q0 -9 4 -22t3 -21t6 -44q6 -13 4.5 -17.5t-0.5 -9.5l6 -24l-2 -12q1 -6 3 -11l4 -10q5 -1 5.5 4.5t3 8t3 4.5t3 10.5t3.5 10.5t1.5 9t3.5 9t3 14q2 5 6 13.5t3 14.5t0 10l5 10q3 7 4.5 14.5t3.5 12.5t1.5 8t0.5 11.5t5 15.5t4.5 11t2.5 6.5t0.5 5.5t1 11.5
t4.5 20.5t4 20.5t2.5 12.5t4.5 7q-1 10 2 28l4 20q0 3 2 10t4.5 23t6.5 24v15q4 9 7 21l4 16q1 4 0.5 8t1 8.5t5 12t1.5 18.5q4 2 5 6t3 6l2 17q2 7 -0.5 9t-0.5 9q0 7 4.5 10t0.5 11q-6 6 -13 4t-14 -1.5t-9 0t-4.5 -1.5t-5.5 -2.5t-6 -0.5q-2 5 -10 13t-7 18.5t7 10.5
t14.5 2t14 4.5t12.5 2.5l12 -5q10 2 12.5 0t4.5 -2l20 2q16 -2 22 0.5t12 4.5l11 -3l11 3q3 0 6.5 -2t6.5 -1t7 4.5t9 4.5q9 -4 9.5 -3t2.5 1q4 -2 7 -8t7 -11q-1 -6 -4 -13l-5 -12q-13 -9 -20.5 -4t-13.5 5q-5 -5 -8 -3.5t-7 -0.5t-10.5 -6t-12.5 -6q-3 -3 -1.5 -5.5
t-0.5 -7.5t-4.5 -4.5t-4.5 -4.5q3 -20 -2 -38q-14 -45 -21 -52q3 -26 -2 -40.5t-5 -22.5t-2 -15t-5.5 -15t-1.5 -16l-7 -15q5 -25 -12 -75q-1 -5 -4.5 -11t-2 -10.5t0.5 -9.5t-4.5 -13.5t-0.5 -17.5q-13 -21 -13 -34.5t-3.5 -22t-6.5 -31.5q-7 -5 -7.5 -14t-5.5 -17
q-4 -33 -13 -51q-12 -28 -12 -36v-14l-6.5 -10.5t-6 -13.5t-1 -19.5t-0.5 -19.5t-4.5 -12t-4.5 -8.5t-2 -8.5t-1.5 -7.5t-3 -6.5t-3 -7t-1.5 -10t-3 -11q-9 -7 -10 -8.5t-3.5 -3t-7.5 -2.5t-8 -5q-4 2 -7 3t-6.5 2.5t-8 2t-7.5 2.5t-7 7t-9 6q-3 15 -3.5 30t-8.5 28
q0 7 0.5 14t-3.5 17.5t-4 17t-3 15t-5 10.5t-3 5.5t-0.5 9.5t-2.5 15t-4 18.5t-3 18t-3 9.5t-1 2v15q-8 25 -10 36l-4 21q-5 12 -5 15t-1 6l-3 11q-2 11 -2.5 21t-7.5 20q2 16 -3 28t-5.5 14.5t0 6t-2 11t-0.5 15t-3 17.5q-4 10 -2 19q-8 21 -15 26q-5 -7 -6 -15t-3 -16
q-6 -10 -5.5 -13t-1 -6t-4 -6t-4 -6.5t-1 -7.5t-1 -7.5t-2 -7t-2.5 -11t-6.5 -20t-6 -21t-1.5 -11.5q0 -16 -11 -32q-3 -11 -5 -14.5t0 -11.5q-4 -2 -4.5 -5.5t-3.5 -11t-2 -10.5t-0.5 -6.5t-5 -6.5t-5.5 -7q0 -14 -2.5 -22.5t0.5 -19.5q-2 -2 -2.5 -5.5t-2 -8t-3 -7.5
t-2.5 -6.5t0 -7t0 -9t-5 -14.5t0 -17q-5 -8 -7 -20.5t-6 -22.5q-4 -3 -9.5 -3.5t-11.5 -2t-6 -4t-8 -2t-12.5 6.5t-8 8t-7.5 5q-5 20 -11 26q5 13 0 31.5t-5 26.5l-4 11q0 6 1 11t-2.5 17.5t-2.5 23t-0.5 17t-3.5 11t-3.5 10t-2 10t-2 12t-0.5 8.5t1 3l-5 18q0 3 -1 7.5
t-1.5 11t-1.5 13.5q-6 11 -6.5 16.5t-5.5 10.5q-1 5 0.5 7.5t0.5 7t-1.5 11t-4.5 14.5t-2 13q0 6 -3.5 7.5t-4.5 6.5q3 10 0 25t-3 18.5t-1 7t-2.5 6t-3 8t-1.5 14t-5 13.5q5 17 -4 38.5t-13 26.5v8q0 4 2 6q-20 25 -46 23q-3 6 -9 7t-9 6q-2 6 0 13l4 14q5 3 20.5 4.5
t20 4.5t9.5 3l38 5q8 0 17 9q6 4 10 3.5t11.5 2t13.5 0t12.5 -2t11 3t9.5 4.5q15 1 21 -1t15 -1q7 -11 7 -19t-4.5 -13.5t-6.5 -10.5q-33 -9 -52 -34q0 -11 4 -19t4 -15.5t1.5 -13.5t3.5 -11.5t3.5 -11t0.5 -10t1 -10t5.5 -10.5t1.5 -16q6 -9 7.5 -22t3.5 -25.5t4 -23.5
l4 -22q2 -3 2 -6t3 -10.5t2.5 -13t1 -12.5t5 -13.5t3.5 -27.5v-34q1 -7 5 -16.5t6 -9.5q6 0 10 17.5t5.5 22t1.5 8t1 7.5t5 12.5t3.5 12.5t3.5 6l2 17q6 9 8 20t6.5 23t4.5 16.5t3 7.5t2.5 8t4.5 15t5 21q4 5 12 34l4 11q0 3 -0.5 6t0.5 5.5t4 9.5t5 15t6 15q-3 14 2 26
t0 21q6 8 7 17q4 18 23 18.5t27 -3.5l12 -6q10 -11 11 -11t4.5 -7.5t4.5 -15.5t4.5 -19.5t3.5 -17.5q6 -18 6.5 -26.5t2.5 -15t5 -21.5q6 -16 7 -24t6 -13q0 -22 13 -51q-3 -17 1 -31q10 -31 10 -36z" />
    <glyph glyph-name="X" unicode="X" horiz-adv-x="622" 
d="M357 305q-1 -14 12 -41q-2 -7 1 -11t4.5 -8.5t1.5 -8.5t2 -9t6.5 -11.5t8 -13.5t5.5 -11.5t15.5 -23.5t16.5 -29q8 -26 18 -34q2 -13 8.5 -21t7.5 -22q9 -9 15 -10q1 -11 7.5 -17t9.5 -17q16 -9 24 -22q6 0 9 -2t8.5 -4.5t13.5 -1.5t9.5 2.5t6.5 4.5q1 4 6 3.5t7 2.5
q0 7 5 10t3 9q5 4 4.5 5.5t3.5 5.5q0 6 -1.5 12.5t-0.5 11t1 8t-3 8.5q-12 6 -15.5 7.5t-12.5 -1.5q-10 -7 -10.5 -6t-5.5 -10q-12 -26 -34 -6q-7 35 23 60q8 6 15 12q8 -2 14 2.5t14 2t9.5 -5t7.5 -5.5t11 -3q5 -4 7.5 -8.5t10.5 -5.5q-2 -8 1 -11q13 -6 11 -19t-1.5 -28.5
t0.5 -27.5t-3.5 -18.5t-6.5 -10t-8.5 -10.5t-6.5 -12.5t-4.5 -10t-8 -7.5t-9.5 -9q-19 2 -34 -5q-12 5 -23 1q-10 7 -13 6t-9 2.5t-8.5 3.5t-7.5 3t-7 4.5t-4 2.5t-5.5 0t-10 2.5t-6.5 5t-5.5 5.5t-7.5 8t-5 6q-11 0 -21 15q-5 0 -8.5 4t-11 9t-7.5 8q-2 10 -10 15.5
t-7.5 10t-4.5 4.5q0 7 -7 19l-7.5 5.5t-6 5t-5.5 6t-8 2.5q-2 4 -3 7.5t-3 8t-5.5 8t-6 9t-4.5 11.5t-4 10l-17 30q-2 3 -4 6.5t-6 5.5q-1 5 -3 10l-4 10q-8 10 -7.5 11.5t-3 8.5t-6 10t-10.5 5q-21 -5 -22.5 -12t-8.5 -22.5t-12 -29t-7 -14.5t-5.5 -7t-7 -10t-3.5 -12
q-7 -3 -8.5 -10.5t-6 -17t-11.5 -20t-12 -23.5q4 -9 9 -9t9.5 1.5t7 3t9.5 3t26 -4.5q3 -15 -3.5 -22t-10.5 -7.5t-8.5 -3t-8 -6t-7.5 -6.5q-8 6 -17 1.5t-19 1.5q-4 0 -7 -2t-8 -3.5t-9.5 -0.5t-11 -0.5t-13 -5t-12.5 -3.5t-10 1t-9.5 0t-13 -4t-19.5 -0.5t-17 13.5
q-2 12 3 15t8 11q9 0 17 4.5t17 6.5l23 6q4 2 6 5t6 5q1 9 5.5 10t5 8t4 7.5t6.5 2.5q0 9 10.5 26.5t9.5 22.5q3 0 4 3.5t3 6t6 7t4 8.5t5 12t8.5 16.5t10.5 13.5q4 20 12.5 34t13.5 24t1 10.5t-2 5.5q8 2 11 8.5t9 11.5q6 10 8.5 13.5t3 8.5t-2 10.5t-1.5 14.5
q-14 10 -15 12q1 13 -5.5 19t-5.5 19q-6 4 -10 9l-8 10l-1 13l-12 28.5t-18 22.5v7q0 4 2 9q-6 15 -10.5 30t-14.5 26q-2 14 -9 23q1 13 -3.5 24.5t-8.5 15.5q-4 10 -3 21t-1 22q-8 12 -11.5 27t-2.5 19q-3 5 -14 7.5t-15 7.5l-30 -4l-11 -2q-5 -1 -9 0.5t-9 2.5q-8 8 2 34
q2 5 6.5 6t6.5 5q19 -4 34.5 -0.5t23 5t13.5 6.5q10 -2 13 -2t8.5 1.5t9.5 4.5t23.5 8t29 4t17.5 5q12 -4 33.5 0t35.5 0q9 -23 4 -35q-9 -6 -20 -2q-6 -8 -15 -8t-14 -8q-5 -23 -5.5 -38t14.5 -29q1 -11 0 -18.5t4 -12.5q3 -21 14.5 -44t16 -36t8.5 -18.5t6 -10.5t7 -13.5
t6 -12.5l4 -11q2 -6 2.5 -11t4.5 -13.5t7.5 -20t14.5 -19.5q14 5 14 29q13 2 18 11.5t8 23.5q17 12 24 40q6 5 6.5 7.5t4.5 4.5q3 9 7.5 15.5t6.5 17.5q6 1 7.5 5.5t3.5 8.5q5 2 5.5 7t5.5 5q2 12 10.5 24.5t7 15t2.5 7.5q-2 4 4 4.5t7 2.5q1 4 3.5 6t0.5 10q2 2 7.5 7
t7.5 10t6.5 10t4 10t3.5 9t-4 8h-26q-6 8 -23 15q-1 10 -3 16t-1 14q3 6 12 6t14 5q20 -9 39 -10.5t25 -4.5q31 4 87 -4q2 -6 6.5 -9.5t5 -8.5t-2 -8t-4.5 -7q-8 -17 -23 -12q-6 1 -12 1l-26 -4q-4 -2 -4.5 -7t-2.5 -9q-5 -3 -7 -9.5t-5.5 -12t-12.5 -11.5q-14 -8 -14 -26
q-4 -5 -9 -10t-10 -11q-6 -14 -9.5 -17t-6 -7t-4 -8t-6.5 -5q1 -5 -3.5 -10t-7.5 -14.5t-7 -12.5t-6.5 -6t-4 -5t-3.5 -3q0 -9 -5.5 -16t-5.5 -17q-7 -2 -9.5 -8t-8 -15t-7.5 -9.5t-4.5 -4.5t-4.5 -11t-5.5 -13.5t-9 -13.5t-6.5 -15q-5 -2 -14.5 -20.5t-11.5 -20.5
q0 -16 4.5 -26t7.5 -21.5t10 -18.5z" />
    <glyph glyph-name="Y" unicode="Y" horiz-adv-x="578" 
d="M344 388v-6q0 -2 -4 -6q0 -14 -1 -16.5t-2 -14t1 -29t1 -29t-2 -17.5t-1 -11v-20l-3 -23l1 -15v-11q0 -7 -1.5 -14.5t-1 -18.5t0.5 -24l-3 -11q1 -15 1 -19t-1 -8l1 -25q0 -20 2 -30.5t4 -30.5q10 -9 22 -9l17 -5h10q7 0 14 -5t3.5 -14.5t-11.5 -17.5q-6 -2 -8.5 -0.5
t-7.5 1.5q-11 -7 -31 -5.5t-35 1.5l-32 -2q-8 0 -15.5 1.5t-17 0.5t-15.5 -4t-16 -2t-17 3.5t-17.5 2.5t-14 -3t-8 -1.5t-7.5 5.5t-6 6q0 11 5 23q8 5 11.5 5.5t11 2t12.5 3t11.5 3l11 2.5t11 5t6.5 5t5 8l-2 27q3 6 3 11v30q2 15 0 20.5t-2 9.5t3 16q-6 17 -4 61.5t2 72.5
l3 16q0 1 -1 5t1 13.5t-2 16.5q10 21 1 39q-3 5 -5 11q5 4 5 12q-2 8 -2.5 16.5t-5.5 12.5q-3 11 -11 15q-2 3 -2 6t-4.5 6.5t-5.5 9t-9 10.5q-2 13 -10 23t-8 25q-2 5 -9 14t-9.5 14t-4.5 11t-6 11q-9 18 -11.5 22.5t-3.5 18.5q-5 4 -6.5 8.5t-3.5 9.5q-5 6 -10 10t-8 13
t-3 13q-6 11 -4 24q-19 28 -20 35.5t-8 10.5q-6 10 -8 13t-1 7q-10 5 -15 9.5t-12 3.5t-19 3t-15 12q2 13 9.5 15.5t12.5 3.5t8 5q8 -3 14.5 -1.5t13 2.5t15.5 1t15 7q7 0 15 -4q5 3 12.5 1.5t11.5 3.5l11 -2q5 5 12 5.5t13 4.5q14 -4 16 -10q5 -19 2.5 -25t-6 -4.5
t-6.5 -3.5l-1 -17q1 -10 7 -18t7 -19q7 -11 8.5 -17t5.5 -11.5t4.5 -7t2.5 -4.5t3 -8.5t6 -7.5q-1 -6 4 -19q7 -11 6.5 -13t1.5 -9t10 -12q-2 -17 11 -24q-2 -5 5 -16q5 -16 12 -24q0 -11 7 -25.5t10 -22.5t9 -13q19 -4 21 8q4 21 10 24q3 0 6 8t8 10q1 8 6.5 18t7.5 19
q6 20 15.5 28t17 27t11 24.5t6.5 8t5 6.5q2 11 3.5 11.5t3 3.5t2.5 7t7.5 11.5t9.5 16.5l5 15q7 16 7.5 20t2.5 10t4.5 9t4.5 7q2 13 -1 15t-4.5 9t-5.5 8.5t-9 3t-7 5t-10 5t-8 12.5q-8 2 -8 11q3 8 18 16l20 -10q32 0 44 -4t24 -4t18.5 -2.5t12.5 1.5q2 -5 14 -11
q12 2 27 -3t23.5 -5.5t16.5 -6.5t13 -9q-4 -12 -6 -18.5t-17 -6.5q-4 2 -17.5 -1t-17.5 -2q-11 -2 -15 -8t-12 -11q-3 -7 -9 -17l-12 -20.5t-12.5 -19.5l-10.5 -15q2 -8 -3 -16.5t-7 -15t-2.5 -11.5t-2.5 -10q-5 -6 -5 -10t-7 -7t-11 -8q-3 -11 -5 -24t-13 -18
q0 -8 -2.5 -12.5t-4 -9t-2 -9t-2 -7.5t-5 -4.5t-6.5 -4.5q-6 -10 -8 -10.5t-3 -1.5q-1 -8 -3 -9q-4 0 -4 -9l-3 -15q0 -10 -7 -14t-9 -9q1 -10 -7 -13t-13 -11q-3 -6 -7 -11q-10 -14 -10 -24z" />
    <glyph glyph-name="Z" unicode="Z" horiz-adv-x="535" 
d="M330 714l11 3q3 1 7 0t14.5 1.5t20.5 1t17 4t14 6.5t11 5q15 -4 17 -2.5t7 3.5q8 -4 13.5 -0.5t13.5 0.5q21 10 29 8t12.5 -4.5t9.5 -4.5q0 -8 -2 -10.5t0 -10.5q-6 -3 -8 -14q-6 -4 -13 -3q-3 -17 -15 -24v-14q-8 -5 -9 -15.5t-9 -14.5q-3 -15 -11.5 -28.5t-10.5 -20.5
q-6 -8 -5 -11t-2.5 -7t-3.5 -9t-5 -9q0 -5 1 -7t-1 -7q-10 -11 -13 -16t-8 -8q-3 -13 -13 -31t-11 -20q0 -8 -2 -13t-1 -15q-9 -9 -6.5 -11.5t0.5 -6.5q-3 -1 -2.5 -5.5t0.5 -8.5q16 -3 28 -1.5t21 -4.5t15 -8q20 3 35 -12q1 -14 -5 -31q-3 -3 -7 -2t-8 0.5t-7.5 -2
t-10 -0.5t-14.5 5t-16.5 5t-17.5 -2q-15 -5 -42 8q-14 -14 -15.5 -19.5t-5 -7t-6 -8t-6 -9t-5.5 -6.5t-1.5 -8.5t-1.5 -8.5q-7 -8 -7 -11l-4 -14q0 -10 -4 -18t-9 -9q-2 -11 -9 -17t-7 -20q-19 -33 -20 -48.5t-16 -23.5q-2 -13 -8.5 -19.5t-12.5 -13.5q-1 -10 -6 -15t-5 -16
q2 -5 8.5 -6.5t16.5 -4.5t14 -2t11 -1t22 1.5t23 8.5q9 -4 29.5 -1.5t38 4t36.5 14.5q0 9 8 20t8 21q7 9 16 16q27 -11 26 -48q-1 -11 3 -21q-2 -2 -2 -5.5t-2 -5.5q2 -8 1.5 -21t1.5 -24.5t4 -21t-7 -17.5q-3 -5 -7.5 -1t-6.5 0q-7 -5 -12 -2.5t-13 1.5q-5 3 -7.5 8t-7.5 7
q0 12 -3 21q-1 12 -3.5 13t-2.5 4q-8 -1 -21 0.5t-20.5 -0.5t-14.5 -5.5t-15.5 -5t-23.5 0t-21.5 -0.5t-9 -3.5t-5.5 -2.5l-16 1q-7 0 -14 -3t-14 1q-4 -3 -9.5 -4t-9.5 -4q-45 -2 -62 -18q-16 0 -23 -4.5t-12.5 -5t-10 5t-11.5 4.5q-1 5 -5.5 7.5t-6.5 6.5q0 11 -1.5 12
t-1.5 4.5t2 8.5t4 11.5t3.5 12t3.5 10t4.5 8.5l5.5 9q2 5 5 9t5 9t2 12.5t2 13t4.5 9.5t5.5 11t8 15q3 12 9 18q3 6 7.5 22t11.5 22q1 11 6.5 20t10.5 19t8 23t12 20q7 24 27 59q10 14 13 21t8 12q-32 6 -44 13q-7 2 -14 -0.5t-18 -1t-24 12t-10 22t11.5 13t16.5 8.5
q10 -2 14 -2t8.5 -1.5t7.5 -3.5q10 -7 70 -17q2 3 4 5.5t6 9.5t7 13.5t8 15t6 19.5q7 3 9.5 11.5t5.5 14t6 8t5 7t2.5 11t1 12t6 6t7.5 3.5q-1 7 2.5 12.5t10 24.5t13.5 24.5t9 7.5q1 9 10 21.5t9 26.5q-3 3 -8.5 0t-6.5 -1l-79 -2q-32 0 -41 -7q-5 0 -8 2t-9.5 3t-14 -3.5
t-23 0.5t-27 0.5t-18 -6l-15 -3.5l-15 -3.5t-14 -4t-9 -7t-6.5 -5.5q-1 -18 -6.5 -28.5t-5.5 -21.5q-6 -8 -8 -18t-9 -17q-13 -1 -29 -4q-13 9 -8 32q6 15 6 26q-1 13 2.5 29.5t1.5 38.5t0.5 37t3.5 29q14 3 29 2q20 -12 21 -28q8 -4 24 -4t20 -4q7 -1 11 1.5t9 3.5h21
q45 6 65.5 3t32.5 3q16 -4 22 -4l24 4z" />
    <glyph glyph-name="bracketleft" unicode="[" horiz-adv-x="292" 
d="M130 755l64 9q11 0 15 -0.5t9 4.5q11 -5 19.5 -3t19.5 -1q3 -2 3 -4.5t1.5 -8.5t2.5 -9t-9.5 -12.5t-21.5 -11t-13.5 0.5t-6.5 2l-14 -2q-18 6 -22 7t-5 -3.5t-6 -4.5q-8 -3 -16.5 -4t-11.5 -9l9 -57q-1 -12 0.5 -15.5t1.5 -6.5l-2 -19l9 -52q0 -4 1 -7t2 -7t0.5 -7.5
t0.5 -7.5t3.5 -9t2.5 -11l-1 -19q0 -6 1 -12.5t2 -14t2.5 -14.5l2.5 -12t0.5 -8.5t-0.5 -7.5l6 -24v-17q0 -4 2 -9t4 -11.5t1.5 -17.5t0 -20t0.5 -15l5 -30l-2 -20q1 -8 3.5 -18t-3.5 -20l4 -11q0 -3 -1.5 -5.5t-0.5 -7t4 -10.5q4 -12 2 -24q-7 -18 -3.5 -47t4.5 -40l2 -16
q-2 -10 -6 -17.5t-1 -23.5q8 -6 11.5 -9.5t8 -1t9.5 3.5q9 -2 18 1t14.5 2.5t10 -2.5t10.5 -3q3 -8 5.5 -16t-3.5 -16q-12 -2 -17 -0.5t-10.5 0.5t-9.5 -4t-8 -5q-8 2 -15 -1t-12 -3t-8.5 1.5t-8 0.5t-9.5 -3l-10 -4q-20 5 -34 -4q-14 8 -17 13q-9 17 -13 23.5t-4.5 10.5
t-2.5 14t-0.5 11t0 4.5t-4.5 7t-5 8.5q0 5 5 6.5t5 7.5q-3 8 -2 16t-0.5 16t0.5 21t2 26l-4 50q0 6 2 12t0 13q-4 6 -3 9t-1 16t-2 14l2 22l-2 34l2 16q-4 12 -3.5 15t-0.5 7t-2.5 8.5t-2.5 9.5q0 5 0.5 8.5t-0.5 7.5t-3 8.5t-4 9.5l2 19l-4 13v18q0 4 -2 10.5t-1 11t0 9.5
t-2.5 10.5t-0.5 17.5t-1 15t-3.5 9.5t-1 14t-0.5 15t0.5 14t-3.5 8.5q4 8 4 19t-6 18q1 7 0.5 20.5t1 22t3 13.5t2.5 10l-2 12q1 11 4.5 20t4.5 18q6 3 9 9l19 3q3 0 12 4.5t18 4.5z" />
    <glyph glyph-name="backslash" unicode="\" horiz-adv-x="340" 
d="M297 57q-20 -14 -40 1q-7 6 -19 14q-3 7 -6.5 13.5t-6.5 14.5t-3 12t-3.5 10.5t-2.5 9.5t-2 10t-2.5 10.5t-3.5 13t-6.5 12.5t-4.5 7q2 11 -2 15t-2 15q-3 5 -5 10t-5 10l-5.5 9t-4.5 8.5t-2 8.5t-2.5 9.5t-5.5 11t-6.5 16t-8 18.5t-4.5 19q-15 18 -14 26q2 12 -3 18
t-5 11q1 8 -4 18t-6.5 16.5t-4 14t-6 17l-6 16t-3 9.5t-4.5 4q2 10 -2 16.5t-6 13t-3 13t-3 13.5t-3.5 10.5t-4.5 13.5t-6 25.5t-16 23.5q-2 16 -4.5 30t3.5 29q5 3 9.5 6t9 5.5t9.5 -1.5t10 -7t15 -13.5t13 -15.5t3 -9.5t2 -9t3.5 -9t8 -17.5t8.5 -40q12 -24 19.5 -51.5
t14.5 -46t10.5 -27t5.5 -18.5q19 -32 18.5 -40.5t1 -13.5t3.5 -8t7 -13l10 -20t10 -17q1 -5 -0.5 -7t2.5 -7.5t6.5 -14.5t5.5 -18q6 -6 7 -13.5t4.5 -18.5t9 -19t7.5 -15.5t2 -13.5q-2 -15 17 -46q-2 -9 1 -16q11 -23 1 -61z" />
    <glyph glyph-name="bracketright" unicode="]" horiz-adv-x="309" 
d="M169 727q10 -1 15 2.5t13 1.5q5 -3 7.5 -8t7.5 -8q1 -9 4 -18.5t4 -18t2.5 -14.5l3 -12t6 -14t0.5 -12.5t-5 -11.5q6 -32 4 -40.5t1 -10t3 -14.5t-1.5 -35.5t4.5 -42t5 -23.5t1 -11t0.5 -10.5t-1.5 -7.5l3 -11l-2 -14q-3 -20 -3 -39q3 -12 3 -15l-1 -25l2 -15l-9 -52
q0 -14 2.5 -28.5t-2.5 -30.5q1 -6 4.5 -8.5t3.5 -10.5t-6 -15.5t-4.5 -13.5t1.5 -11l-3 -16l3 -18q0 -10 -3 -19.5t2 -19.5q-4 -12 -2 -15q2 -4 -5 -15.5t-3.5 -21t1.5 -19.5l-5 -18q0 -3 -1 -5q-7 -5 -6.5 -6t-1.5 -2q-7 -4 -7 -5.5t-2 -3.5q-10 -5 -11.5 -7t-4 -4.5
t-3.5 -7.5t-8 -9.5t-26 -4t-28.5 3t-12.5 2t-10.5 1t-15.5 -0.5t-16.5 -1.5t-12 2t-19.5 -3.5t-24 -5q-13 18 -7 35q7 6 17.5 7.5t17.5 7.5q5 -2 10 -1t14.5 -1t18.5 2.5t18 4.5l16 15q0 13 8 29q2 49 2 93t3 69t5.5 33t3.5 16l-3 16q-1 11 0 21.5t1 21.5q-3 15 -3 17l3 11
q-2 12 -0.5 15.5t0 10.5t1.5 13t0 12.5t-2 11t-1.5 12t-2.5 27.5t-3 27t0 23q6 14 3.5 25.5t-1 15.5t0.5 9l-4 19q2 7 -1 20v22q-3 15 -3 22.5t1.5 15.5t2.5 19t0 24.5t-1 26.5q-5 3 -13.5 2.5t-13.5 -3.5q-5 5 -23.5 5t-23.5 5q-6 18 -3 26q5 1 10 4t12.5 1.5t12 0t11 3
t24.5 -0.5q43 -3 51 5z" />
    <glyph glyph-name="asciicircum" unicode="^" horiz-adv-x="383" 
d="M58 417l7 17q0 4 4 11t2.5 12t0 9.5t6.5 10t7 10.5t1 9q-1 7 4.5 14.5t5.5 21.5q3 2 3 5.5t4.5 11t4.5 11.5q-1 6 3.5 13t3.5 12q-2 8 8.5 29t13.5 40q-1 6 3 6.5t4 6.5q2 5 0.5 10t0.5 9q7 6 6.5 7t8.5 7.5t15 6.5t12 1q19 -14 28 -29.5t10.5 -21t4 -10.5t6 -8.5t5.5 -7
t1.5 -7.5t1 -7.5t3.5 -6t4 -6t2 -7.5t5 -5q-2 -7 2 -14q5 -9 8 -23t8 -24.5t7.5 -17t3.5 -15t3.5 -14.5t4.5 -9.5t4 -8t3 -10.5q2 -14 5.5 -19.5t3.5 -10t2 -9.5t1 -6t1 -11t12 -24q2 -7 1 -14t0.5 -14t4.5 -12.5t4 -9.5t-0.5 -7.5t-1.5 -8.5t1.5 -10t-4.5 -10q2 -5 3 -6.5
t-1 -8.5q-5 -3 -7.5 -7t-11.5 -3q-8 -11 -20.5 -10.5t-20.5 6t-10.5 8.5t-5.5 7t-3 7t-4.5 10t-6 10.5t-5 9.5t-7 19t-8.5 22q1 16 -3 29q-6 13 -6.5 21t-6.5 13q1 13 -7 23q0 14 -8 22q-2 6 -3 15t-3 17.5t-8.5 22.5t-14.5 14t-10 -6.5t-9 -11.5v-12q0 -5 -2.5 -6t-4.5 -6
t-1.5 -11.5t-1 -10.5t-4 -7t-4 -6t-1.5 -7q0 -5 -4.5 -12.5t-3.5 -12.5q2 -13 -12 -29q0 -21 -6.5 -32t-10 -20.5t-2.5 -19.5q-8 -13 -11 -29.5t-8 -30.5q-6 -2 -9.5 -5t-9.5 -5q-15 -1 -18 5.5t-11 8.5q3 4 -0.5 7t-4.5 8q3 17 6.5 20.5t4.5 6.5t1 6.5t3.5 13.5t4 15.5
t2 9.5t3 6.5t5 12t3.5 15.5q-1 9 4.5 18t5.5 13z" />
    <glyph glyph-name="underscore" unicode="_" horiz-adv-x="475" 
d="M244 43q20 -7 44 -7t40 1t23 3t13.5 1.5t12 -2.5t11.5 0.5t16.5 0.5t20.5 0q4 -5 9 -10t7 -12q0 -17 -6.5 -17.5t-11.5 -7.5l-26 -5l-12 3q-4 1 -7 -0.5t-8 0t-10.5 6t-13 5.5t-16 -3t-18.5 1q-8 -6 -23 -5.5t-26 -4.5q-9 3 -21 3h-32q-21 0 -30 5q-11 -5 -25.5 -2.5
t-28.5 1.5t-22 -1.5t-19 5t-18.5 5t-13.5 1.5q-11 7 -13.5 7t-4.5 2q0 25 6 31q4 2 8.5 1t9.5 0t9 3t8 2.5t8.5 -2.5t9 -4t8 -0.5t8.5 0.5l25 -4l20 2q10 0 20.5 -3t18 -4t12 -0.5t17 0.5t21.5 5z" />
    <glyph glyph-name="grave" unicode="`" 
d="M278 756l-16 18q-5 -1 -7 2t-8 4.5t-10 5.5q2 5 -0.5 8t0 9t3.5 11q6 18 29 15q4 -4 7 -5q6 0 20.5 -14.5t24.5 -18.5q21 -17 31 -19q4 -7 11 -12t12 -10.5l10 -11t12 -9.5q6 -10 1 -29q-25 -17 -40 -8q-6 3 -12 5q-6 16 -17 20q-5 12 -11.5 16.5t-16 9t-13 9t-10.5 4.5z
" />
    <glyph glyph-name="a" unicode="a" horiz-adv-x="395" 
d="M324 -19l-43 2q-4 0 -12 7t-11 6l-13 19q-4 12 -4 23v21q-5 3 -8 9q-19 -4 -23.5 -9t-7.5 -7q-15 0 -28 -13q-5 4 -11 1.5t-12.5 -1.5t-9.5 2.5t-8 3.5q-6 -2 -11 -1t-13 0q-6 7 -27 15q-14 9 -31 13q-20 30 -32 51q3 9 1 19q-3 17 7 32q7 18 18.5 28.5l16.5 15t11 8
t11.5 11t14 9.5t15.5 2.5t16 2.5t12 3q11 4 34 -5q13 2 23.5 0.5t24.5 -0.5q8 5 7.5 11t-0.5 14t-1 12l-4 13q2 27 -3 39q2 9 1 10t-1 4.5t-1 10.5t-2.5 16t-4 26.5t-5.5 27l-4.5 14.5t-3.5 10t-2.5 9.5t-4 10.5l-5.5 9.5t-6 6.5q-2 3 -2.5 8t-3.5 7q-11 2 -21.5 2t-15.5 -7
q-19 0 -27 -5q-5 -7 -3 -14t1 -12.5t-2.5 -9.5t-2.5 -8q3 -10 2.5 -16t5 -16t8.5 -13t8.5 -5t9 -2t10.5 -5t9 -24q-6 -10 -23 -10t-27 7q-4 0 -6 -1.5t-7.5 0t-9 5.5t-11.5 4q-2 7 -6.5 11.5t-8.5 9.5q-3 10 -4.5 10t-1.5 1q-13 19 -9 39q0 4 2 8.5t4 10t2 11t2 10t5.5 7.5
l7.5 6.5t7.5 7t8.5 5.5q2 5 4.5 9.5t4.5 10.5q4 2 7 3t5 4q9 -1 18 2.5t17.5 3.5t14.5 2h14q7 0 13 -2t14 0q5 -1 10.5 -3t11.5 1q5 -6 18.5 -11.5t21 -17.5t11.5 -16.5t7 -11t6.5 -12t6.5 -11t7 -11.5t6.5 -12t7.5 -10q-3 -11 7 -26q1 -4 1.5 -7t2.5 -9.5t3 -18t2.5 -19
t3 -10.5t2.5 -9t0.5 -15.5t0.5 -16t0 -9.5t-1 -7l3 -14q0 -6 -1 -12t0 -13t4 -17.5t4.5 -20t1.5 -16.5v-13q0 -6 -3 -36l3 -13q-2 -11 -2 -38l-2 -12q2 -4 0.5 -8t-1.5 -10t4.5 -11t0.5 -13q14 -6 22 -3q17 5 28.5 2t16 -4t6.5 -3q5 -12 6.5 -16.5t-5.5 -8.5t-8 -9
q-27 -5 -47 -5t-40 -11zM149 203l-11 4q-17 -13 -34 -18q-5 -5 -6 -13t-3.5 -19t-1.5 -14q6 -11 6 -14t3.5 -10t4.5 -11q8 -4 12.5 -10t11 -8t11.5 0t9 -2q4 1 11.5 0.5t14.5 0.5q6 6 14 5.5t14 3.5q14 13 16.5 17t10.5 8q3 25 3 43q-6 7 -11.5 11t-7.5 14q-4 3 -8 4.5
t-6 5.5q-5 0 -5.5 -0.5t-7.5 2.5t-40 0z" />
    <glyph glyph-name="b" unicode="b" horiz-adv-x="490" 
d="M152 855l26 3q20 2 28 -3q10 -14 2.5 -25.5t-24 -17t-19 -16.5t-2 -26t0.5 -29l-1 -48l3 -17q1 -20 -1 -34.5t5 -27.5q-2 -11 -2 -20t8 -14q-5 -12 -5 -18t2.5 -10t3.5 -9q-2 -20 1.5 -38t5.5 -37l-1 -37l4 -28q2 -14 2 -30l-4 -14q2 -14 2.5 -20t5.5 -13q8 -2 9 -1.5
t7 2.5q10 9 12.5 9t6 1.5t7.5 4.5t9 6t10.5 7t13.5 4l37 -4q3 0 11 1.5t12 0t12 -3t11 -1t5.5 -0.5t4.5 -3t5.5 -4t7 -2t6.5 -1q5 -6 6 -6t3 -1.5t6 -2.5t7.5 -5.5t4.5 -4.5t3.5 -3t4.5 -7q7 -14 9.5 -17.5t4 -7.5t1 -6.5t3 -10.5t6 -15t4 -13.5t5.5 -20t3.5 -22t0 -16
t1.5 -14t0 -11.5t-2 -7t-2 -6t-1 -7t-1.5 -5.5t-2.5 -4.5q-11 -28 -27 -37q1 -8 -2 -16q-3 -2 -5.5 -4.5t-7.5 -2.5q1 -7 -1 -10t-3 -8q-15 -8 -21 -18q-11 2 -15.5 -3.5t-16.5 -3.5q-5 -2 -6 -7.5t-8.5 -9t-18.5 -6.5t-17.5 -6.5t-8.5 -1.5t-6 2t-6.5 -2.5t-9.5 -3.5t-8 0
l-15 5q-8 1 -16.5 -0.5t-10.5 1.5q-8 -2 -13 -1q-2 4 -5 9.5t-10 4.5q-8 -5 -8 -5.5t-2 -5t-1 -7t2 -9.5q-15 -1 -19.5 -6t-13 -7t-15.5 -1t-15 1l-16 -2l-16.5 -2t-15.5 -8q-14 0 -26.5 -3t-21.5 8q-1 13 4 25l16 4t12 10q13 -3 19.5 0.5t12.5 7.5q4 20 -1 46t-6.5 37
t-3.5 21.5t-1.5 16.5t0 16t-0.5 24v27l4 48q2 8 -0.5 22t-4.5 50l-1 18q-2 9 -1.5 19.5t0.5 21.5l2 11l-6 49q-3 25 -1 45.5t-3 30.5q2 5 2 33q3 9 -0.5 18t-3.5 29q2 9 0.5 14.5t-1.5 12t1.5 14t-2.5 15.5q7 12 2.5 25t-4.5 22.5t2 14.5t3.5 13.5t-3.5 21t-3.5 23t4.5 20.5
t-4 19q-24 -2 -38 -1q-9 6 -13.5 13t-4.5 24q13 7 27.5 7.5t27.5 1.5t24.5 1.5t28 2t34.5 1.5zM365 209l-1 17q1 14 3.5 25.5t0.5 18.5q-2 8 -11.5 20.5t-20.5 16.5t-15.5 3t-13 -1.5t-14.5 0.5t-11 0t-10 -3.5t-13 -1.5q-5 -8 -19 -11q-6 -12 -18 -19q3 -5 2 -7.5t-2 -7.5
q-5 -2 -7 -6t-6.5 -12t-11.5 -8q-1 -6 1 -9q2 -4 -4.5 -12t-6 -14t-3.5 -8q2 -20 -0.5 -37t-4.5 -37q2 -4 5.5 -5.5t6.5 -4.5q3 -8 6.5 -15t4.5 -17q9 -7 10 -16q8 -1 10 -6t16 -11q23 -10 61 14q20 8 33 36q27 55 23 60t3 24t7 34z" />
    <glyph glyph-name="c" unicode="c" horiz-adv-x="379" 
d="M229 135l26 5l34 11l16 13q2 0 6 -1.5t11.5 0t14 -5t4 -11t-0.5 -10.5q-8 -15 -23 -22q-2 -4 -6.5 -5t-10 -4t-13 -9t-20.5 -9t-24 -9q-2 3 -5.5 1.5t-6.5 -1.5h-15l-15 -4q-19 4 -28.5 1.5t-19 2t-9 6t-0.5 2.5q-8 3 -10.5 7.5t-4.5 7.5q-7 4 -14 4.5t-9 10.5
q-13 2 -18 7q-8 5 -10 17t-12 17q-9 14 -11 23.5t-10 16.5q1 12 -8.5 38t-0.5 43q0 5 -2 13q5 10 5.5 21.5t2 19.5t2.5 11q5 9 8 22.5t7 22t5 14.5q4 2 7.5 9.5t10.5 16t9 17.5q5 1 7.5 5t5.5 8q5 1 7.5 4.5t10.5 7t12.5 8.5t12.5 8.5t9.5 5.5t3.5 2l11 3q3 0 6 -1
q13 -2 32 14q13 -1 23 -2.5t17 8.5q5 -2 6.5 -5.5t6.5 -5.5q14 2 22 -4.5t15 -15.5q3 3 6 8t9 13.5t14 12t13 -0.5t8.5 -8.5t1 -6.5t-0.5 -7l2 -12q-1 -2 -2.5 -12t-2.5 -14t0 -7t-2.5 -20.5t-1.5 -38.5t1 -26t-2 -11.5t-3 -9.5q-5 -4 -5.5 -6t-2.5 -4l-13 -8q-15 -4 -21 8
t-9 24q7 20 1 50v7q0 6 -7 15t-6.5 10.5t-0.5 3.5q-10 3 -18 7l-16 8q-5 -2 -9 -1t-8.5 -0.5t-5.5 -4.5t-4 -4l-13 -3q-14 -6 -14.5 -12t-5.5 -11q-1 -4 -5 -4t-5 -4q-5 -5 -6.5 -10t-4.5 -11.5t-4 -9t-1.5 -7.5t-2 -7t-2.5 -6.5t-2.5 -9t-1.5 -8t-3 -6.5t-5.5 -11.5t-2 -22
t-2.5 -23.5t-0.5 -13t4.5 -7q-6 -28 8 -57q3 -5 9 -7q-2 -13 3 -18q11 -12 12 -18q8 -4 14.5 -9t12.5 -9q15 -1 19.5 -6t13.5 -5z" />
    <glyph glyph-name="d" unicode="d" horiz-adv-x="460" 
d="M393 236l-3 -14q-1 -2 0.5 -4.5t1 -10.5t-3 -24.5t4.5 -28.5q-4 -11 -2.5 -24t-0.5 -29l-4 -13q0 -18 6 -36q6 -1 13.5 0.5t19 3t14.5 -12.5q3 -17 -12 -27q-3 -2 -10 -3t-13 -3.5t-17 -1t-26 -2t-27 0.5t-28 4l-11 32q-9 13 -15 8t-17 -2l-18 -8q-11 3 -18 0.5t-12 -1.5
l-14 -7h-12q-4 1 -8 3t-8 3t-7.5 0.5t-11 2.5t-23.5 3l-10 9q-9 0 -17 9t-16.5 13.5t-21.5 17.5q0 5 -2.5 8t-1.5 11q-11 9 -13.5 25t-4.5 34q-5 6 -4.5 16t-4.5 16q0 6 1.5 13.5t-3.5 14.5q3 2 2.5 5.5t0.5 6.5q8 12 6.5 18t-0.5 11q9 18 12.5 28t5 13t3.5 7.5t3 9t3 7.5
t7 6.5t12.5 11t11.5 10t13.5 12.5t13.5 18q5 1 8 4t8.5 5.5t10.5 7.5q12 11 21 10t16.5 4.5t13.5 6.5t14.5 -2t15.5 -4h14q20 1 28.5 -2t16.5 0q2 19 5 72q-2 11 0 19t1 15.5t-1 11.5t2 47q-2 10 -2 15t2 14.5t0.5 13.5t-0.5 10t3.5 13t3.5 14l-2 11l5 36q0 3 1 6.5
t-1.5 6.5t-3.5 9.5t1 12t5 25t-10 32.5q-7 2 -12 -0.5t-11.5 -3t-7.5 1t-10.5 -1.5t-27.5 1q-11 8 -11.5 24.5t9.5 26.5q7 -2 18.5 -2t15.5 5q15 -5 24 -5l12 3q8 2 19.5 1.5t15.5 1t10 2t7 -1t7 2.5l27 -3h6q7 0 11.5 -8t4.5 -12l-5 -67q-1 -4 -2.5 -7t-1.5 -7l2 -29
l-4 -16l2 -11l-2 -16q2 -8 2 -16l-5 -45l2 -14l-5 -55q0 -38 3 -75l-3 -20l3 -18l-4 -20q-1 -3 0 -5t1 -6v-28q0 -4 -2 -7q-5 -6 -0.5 -19t2.5 -15t-3 -4q7 -11 4 -23t-4 -25v-11q-1 -12 1 -24t2 -23zM294 265l-2 34l-2 15q0 15 3 29.5t1 30.5q-12 15 -23 14.5t-18.5 -5.5
t-14 2t-15.5 6q-4 -2 -6.5 -5.5t-6.5 -5.5t-8.5 -3t-9.5 -3q-4 -7 -9 -13t-9 -12q1 -5 -1.5 -8.5t1.5 -7.5q-13 -3 -16 -29q0 -5 2 -8q-7 -7 -8.5 -17t-2.5 -15t-2.5 -8.5t-1.5 -6.5l-3 -30q0 -5 -1 -9.5t1 -7.5q1 -14 3.5 -21.5t1.5 -13t4.5 -10.5t3.5 -10q3 -3 2.5 -7.5
t1.5 -11.5q5 -15 23 -20q2 -2 4.5 -7t5.5 -6q2 -5 4 -5.5t7 -3.5t12 -2.5t13.5 0.5t10 -1t13.5 0.5t22.5 11.5t17.5 18q-3 8 1.5 18t1.5 59t-1 75z" />
    <glyph glyph-name="e" unicode="e" horiz-adv-x="352" 
d="M317 367q-6 -22 -3 -35q-1 -14 -4.5 -17t-8.5 -8q0 -4 0.5 -8.5t-2.5 -6.5q-19 1 -37.5 1.5t-31.5 -6.5q-5 -1 -7 0.5t-5 2.5q-5 -2 -12.5 -7t-14.5 -2t-15 1q-29 -10 -37 -20q1 -11 0 -21.5t1 -19.5l2 -13q1 -4 -0.5 -7t-1.5 -7.5t2.5 -10t-1.5 -10.5l4 -10t0 -13
q1 -5 3 -7.5t3.5 -7.5t1 -12.5t1 -12.5t3 -11.5t9.5 -16.5t5 -16q5 -5 8.5 -10t8.5 -9q9 -1 16.5 -5t19 -4t27 9.5t20.5 11.5q3 2 3.5 7.5t3.5 8t5.5 3t7 3t8.5 6t11 7.5t19 -5q3 -12 0 -17l-6 -10t-1 -6.5t1 -6.5q-6 -6 -6 -13q-6 -2 -9 -7.5t-9 -9t-11.5 -4t-12 -4
t-10.5 -9t-13 -10.5q-5 1 -14 1q-17 -10 -35.5 -7.5t-39.5 4.5q-16 16 -36 23q-8 20 -32 26q0 6 -4.5 8t-4.5 10q-5 1 -6.5 5t-6.5 6q-1 3 -2.5 4.5t-0.5 6.5q-5 2 -7.5 6.5t-6.5 9.5q-7 14 -8.5 19t-6.5 17t-4 27l-8 17q2 5 0.5 10.5t-1.5 11.5l2 15q1 11 0 23.5t1 22.5
l3 12q1 4 0.5 7.5t2 11t6.5 17.5t4.5 14t2.5 10t5 11t5.5 10.5t2.5 10t4.5 9t6.5 7.5t4.5 6t4.5 6q2 9 8.5 14.5t5.5 13.5q5 0 6 4t8 8.5t9 6.5t11.5 8t14.5 18q5 -4 6.5 -2.5t6.5 4.5t8 3t8.5 3.5t10 2.5t8.5 2q14 4 25 2.5t22 1.5q5 -2 7.5 -7t6 -8t6.5 -4t8 -5l7 -5.5
t4 -5t5.5 -7t7 -9.5t6.5 -16t9 -19q-2 -8 1 -12q1 -5 3.5 -8t4.5 -7zM206 324l13 3q8 2 16.5 2.5t16.5 3.5q2 23 -5 37q3 7 -2 13.5t-4 15.5q-11 11 -13 12q0 6 -2 9t-4 7q-5 2 -10 2.5t-8 3.5q-19 -19 -43 -21q1 -13 -7 -24q-1 -4 -1 -8v-6q-5 -4 -4.5 -12.5t-4.5 -18
t-3 -18.5q14 -2 26 -0.5t23 1.5z" />
    <glyph glyph-name="f" unicode="f" horiz-adv-x="341" 
d="M209 821q26 22 52 22q9 -2 11 -1t8 1t10 -1.5t12.5 0.5t24.5 -10.5t21 -13.5q0 -3 10.5 -8t12.5 -8q1 -3 0.5 -6t4 -9t4 -7t2.5 -7.5t6 -9t5 -4.5t-0.5 -9t1.5 -17t4 -25l-9 -24q-3 -8 -5 -14q-5 -4 -5 -11t-9 -11q-14 -7 -26 -19q-11 -4 -11 -5.5t-5.5 -0.5t-10.5 -0.5
t-13 -0.5q-2 2 -5 3t-2 6q-5 1 -8 -1t-8 0q-2 9 -10 12.5t-10 12.5l15 13q3 -2 8 -1t10.5 -1t11.5 -5q17 -8 29 9t13.5 30t3.5 24q-5 7 -4 14.5t-7 15.5q-3 13 -6 15t-5 7q-7 2 -13.5 5.5l-13.5 7t-15.5 3.5t-15.5 6q-16 -2 -24 -13t-19 -16q-5 -11 -10.5 -18.5t-7 -22
t-2 -25t-4 -18.5t-2.5 -16t3 -27q3 -30 3 -49l-2 -11l5 -19v-22q-1 -10 3 -21l-2 -14l4 -45q2 0 4 -3q6 -7 15 -2.5t15.5 3t8.5 2.5q8 -5 13.5 -2t12.5 4.5t15 0.5t16 -1t14 1t10 -4t5.5 -16.5t0.5 -16.5q-7 -5 -15 -5t-15 5q-6 -1 -8 -4.5t-7 -3.5h-16q-10 -1 -11.5 0.5
t-5 0.5t-7.5 -3q-16 -8 -29 -6q-4 -4 -9.5 -6.5t-8 -8t0 -10t2.5 -32.5l-1 -28q0 -21 1 -38t0 -28.5t1 -19.5t3 -16q3 -26 3 -38v-15l3 -12q0 -6 -1.5 -13t0 -13t2.5 -9.5t0 -5.5l-4 -14l7 -56q0 -8 1 -11l4 -15l2 -35q0 -14 -0.5 -38.5t0.5 -39.5q3 -5 10 -7t12 -6
q8 1 15.5 5t14 2.5t9.5 -6t10 -6.5q8 -20 5 -30q-5 -2 -9.5 -5.5t-16 -3t-18.5 -5.5t-13 -6t-10.5 -1.5t-7.5 -3.5t-8 -4q-8 0 -10 2.5t-7 -0.5q-10 4 -16.5 4t-16.5 -3t-11 -4t-4 -2.5t-6 -0.5t-6.5 -0.5t-6.5 -3.5t-6 -3q-14 5 -37 -6t-30 -8.5l-13 4.5q-2 5 -2 17t1 17
q11 4 13 6t6 3l14 6q10 5 17.5 7.5t16.5 9.5q2 5 3 17.5t12 17.5q-2 5 -5 6q-4 3 -4 27q-8 31 -8.5 51t-2.5 30l-4 22l-2 34l-7 64q0 11 3 20q-6 13 -6 28q-7 60 -7 87v44q1 4 -1 12q-5 18 -2 38q-4 23 -10 31q-30 7 -35.5 2.5t-10.5 -5.5t-12 1t-12 -3q-10 1 -14 7
q-4 1 -8 0.5t-5 3.5q-3 14 18 26q9 2 9.5 4t5 5t14 1.5t24.5 0.5l26 4q4 0 7 1l2 13l-2 15q0 12 2.5 24t0.5 23l-3 40q1 6 5 13q2 13 1 26t0.5 24.5t3 15t2 7t1.5 7t1 7.5t2 7q5 9 10 26t7 23t2 12q4 2 5.5 7t5 11t11.5 15t13 20q13 7 26 27q7 -1 9.5 2.5t9.5 1.5z" />
    <glyph glyph-name="g" unicode="g" horiz-adv-x="450" 
d="M91 90l39 12l17 -2l19 1q10 0 20 -2.5t19 2.5q10 -5 16.5 -5t22.5 -2q8 4 8 15.5t-3.5 17t-1.5 9t2 5.5q-4 12 -3.5 14.5t-0.5 5.5t-2.5 7t-3 10.5t1.5 12.5t0 14q-3 4 -8 5.5t-4 8.5q-17 -3 -34 -0.5t-26 2.5t-18 -3q-13 7 -19 6.5t-8 7.5q-10 0 -16.5 9.5t-12.5 14.5
q-19 11 -26 18q2 8 -2 17.5t-6 15t-3 11.5t-6 11l-5 41q0 17 5 32.5t7 32.5q6 3 7.5 9.5t4 10t4.5 5t4 4t3 5.5t3.5 5.5t7 5.5t9.5 7.5t9 8.5t10 7t14.5 5.5t17.5 7.5q29 16 59 7q14 -4 18 -6.5t12 -5.5t19 -4.5t19.5 -5t12 -8.5t9.5 -10q0 -12 14 -20q1 -5 4.5 -7t4.5 -7
q6 -3 7 -7.5t7 -5.5t9.5 2t11 3t16 4t19.5 2q26 17 43 12q7 -2 14 0q0 -8 5.5 -10t7.5 -9q0 -21 -16 -43h-20q-4 0 -5.5 -2.5t-5.5 -3.5q-8 3 -16.5 -2t-14.5 -6t-9.5 0t-8 0t-7.5 -7q-1 -8 -7 -9l-1 -7q1 1 0 -8l-8 -17q-17 -30 -20 -41q-14 -2 -20 -13.5t-15 -18.5
q2 -30 9 -39q-1 -8 -1 -11l3 -19q4 -10 11 -21q-4 -7 -1 -11t4.5 -11.5t0.5 -16t1 -15t6 -15t4 -13t1.5 -12t3 -18t3.5 -17t5.5 -8.5t5.5 -5.5t2 -7t4.5 -8.5t7 -7.5t4.5 -5t3 -6t2.5 -6t6.5 -5.5q11 -6 17 -22q2 -14 5.5 -20t6 -11.5t5 -7.5t2.5 -6l-4 -25l5 -28
q1 -11 -1 -23t-1 -20.5t-2 -14.5t-4.5 -11t-6.5 -10t-7 -9t-2.5 -7.5t-2.5 -8t-4 -5.5t-3.5 -5t-4 -7t-6 -8.5t-12.5 -14t-14 -16.5q-16 -3 -22 -16q-10 -2 -12.5 -2t-7.5 -6.5t-13.5 -8.5t-15.5 -7q-39 -4 -50 -11q-11 2 -22 -1.5t-39.5 -5.5t-39 6.5t-19 7.5t-12 0
t-13.5 4.5t-17.5 1.5t-12.5 5t-8 16h-13q-5 5 -11 9t-11 8l-10 8t-10 6q-2 3 -1 10t-2 9q-11 7 -13 12t-8 9q-3 19 -20 39q1 5 1 10t-5 7q2 7 -1 10t-1 10q-1 4 -3 7t-3 7.5t0 10.5t1 12l-4 14l1 19q2 17 3.5 22.5t8 11.5t5 15.5t3.5 10t5 5.5q6 11 13 18.5t12 18.5
q11 7 12 7q4 0 10 9q5 13 26.5 31t33.5 30q8 -3 14 1q10 6 19 6zM156 362l1 -16q2 -14 11 -23.5t10 -21.5q6 -4 13 -9.5t14.5 -6.5t13.5 1l12 4q5 7 11.5 10.5t11.5 9.5q5 -2 6 0.5t6 0.5q5 13 11 19.5t8 12t7 7.5l7 49q-4 6 -7 15q-16 36 -35 36q-4 5 -8.5 4.5t-13.5 -0.5
q-2 5 -6 7.5t-6 6.5q-11 2 -20.5 -0.5t-23.5 -3.5q-13 -9 -16.5 -18.5t-6 -23.5t-4 -17t-1.5 -6zM360 -134l-1 12q0 8 -1 14.5t2 12.5q-2 7 -7.5 14.5t-1.5 15.5q-5 5 -6 12t-3 15q-6 2 -8.5 1.5t-5.5 2.5q-4 7 -7 14q-8 3 -8.5 9.5t-10.5 5.5q-1 5 -7.5 6.5t-8.5 5t-3 8.5
t-4 9q-15 6 -22 5q-6 12 -12 18q-14 9 -27 6t-16.5 -1t-8.5 2l-40 -5q-10 -3 -20 -4t-19 -4q1 -16 -7 -19.5t-13 -6t-6 -10.5q-11 -11 -15 -28.5t-10.5 -28t-8.5 -21.5l2 -16l-2 -12l2 -13l-5 -22q0 -13 2.5 -17.5t3.5 -9.5v-14q5 -9 8.5 -20.5t10.5 -19.5q-2 -5 2 -9.5
t5.5 -13t5 -14.5t10 -12t11.5 -15q7 0 11.5 -4.5t12.5 -7.5t9 -4.5t5 -2.5t8.5 -0.5t9 -3t12 -2t12.5 1.5t8 -2t12 3t18 3t13.5 -1t9.5 3.5l13.5 6.5t12.5 4.5t7.5 3t6.5 9.5t9 10q3 1 4.5 3t6.5 1q2 6 7 10q16 10 26 26q2 2 3.5 7.5t6.5 13t5 14.5l5 16q-1 0 0.5 8.5
t-1 15.5t-3.5 15z" />
    <glyph glyph-name="h" unicode="h" horiz-adv-x="488" 
d="M238 488l24 8q10 0 19 4.5t12 5.5l12 2l17 -2q11 -1 18 -1.5t13 -2.5t8 -5.5t5.5 -6l5 -3.5t3.5 -5t3 -7.5t4.5 -10.5t5 -7t4.5 -9.5t7.5 -19.5t7.5 -18.5t4 -14.5t3 -10t4 -7.5t2 -5.5v-18l4 -11l-2 -18l3 -15v-13q2 -13 3 -27.5t2.5 -29.5t3 -25.5t-2.5 -21.5
q3 -10 2 -19t0.5 -16t3.5 -12t2 -9l-1 -17l3 -20q0 -9 -1 -19.5t1 -22.5q9 -5 20.5 -6.5t22.5 -4.5q2 -7 5.5 -14.5t0.5 -14.5q0 -5 -5 -5t-9.5 -0.5t-7 -2.5t-5.5 -3h-14q-8 -6 -16 -6t-14.5 -1.5t-10.5 -3.5q-23 -10 -27 -10h-11q-13 0 -15.5 -1.5t-6 -2t-7 0t-8.5 -1
t-11 -4t-15.5 -3t-15 -2t-10.5 5.5q-2 20 10 24q4 1 2 7q14 0 22.5 7t22.5 9q5 18 2.5 29t-1.5 14.5t1 5.5l-4 17q0 17 2.5 35t-5.5 32q5 12 1 26t-5.5 24t0 28t-0.5 29.5t-3.5 16t-0.5 11.5t-1.5 20t-1 15t0.5 4l-3 13q-1 8 -1 15.5t1.5 13.5t-1 7.5t-0.5 10.5t-4 23.5
l-11 26.5q-19 6 -30.5 4t-20.5 -2q-3 -2 -4.5 -6t-4.5 -6q-8 -4 -13 -7t-9 -13q-9 -4 -15 -11.5t-14 -13.5q-9 -32 -13.5 -36.5t-5.5 -9t1 -10.5t3 -15t0 -19t0 -27.5t3.5 -27t-1 -11.5t-2 -9t1.5 -14v-18q0 -5 3 -53v-34q0 -15 6 -18.5t9.5 -10t5.5 -9t3.5 -12t-3.5 -18
t-3 -21.5l-11.5 -9.5t-16.5 -3.5q-5 -3 -16 -17q-5 2 -8.5 -0.5t-9.5 -2.5t-10.5 3.5t-10.5 5t-10 -0.5t-15.5 -4t-30.5 -1t-32 -3q-9 9 -8.5 21.5t11.5 17.5q2 2 5 0.5t12 2.5t17 5t13 6q3 7 3 16l-1 32q-5 11 -5 17.5t-1 11.5q2 11 0.5 17.5t-1.5 11.5l1 20l-3 24
q0 9 0.5 17t-1 19t-0.5 12.5t1 7.5v15q0 9 -2 17l-3 14v48q-2 10 -2 17l2 16q-6 44 -5 69.5t-1 47.5v11q-5 15 -3 22t2 15l-5 33v93l-2 40l-3 16q-2 10 -1.5 24t-1 17.5t-1.5 12t4.5 23t-0.5 28.5q-8 1 -20.5 0t-22.5 4q0 8 -2 13.5t0 11.5q5 5 12 4.5t24 4t21 3t11 0
t16.5 4t20.5 3.5q14 -2 23 -1.5t16 -0.5t11 -1t8 -3q9 -15 4 -23t-16 -7.5t-17 -6.5q-1 -4 -0.5 -8t1 -8.5t0.5 -9.5t1.5 -10.5t4 -10.5t3.5 -10.5t0 -12t0 -15.5t3.5 -21t4 -23.5t2 -27.5t4.5 -29q-5 -15 -2 -31t4 -35l-2 -11l2 -11q-2 -10 -2 -18l3 -15q1 -5 1 -9l5 -40
q0 -9 8 -12q6 2 10 3t8 4t6.5 7t8 7l9.5 5q9 6 16 6z" />
    <glyph glyph-name="i" unicode="i" horiz-adv-x="261" 
d="M60 708q11 11 14 23q4 0 6 3t10 6t15.5 4t19 6t23.5 -1q9 -8 11 -11t6.5 -5.5t12 -3t9.5 -7.5q-1 -8 -6 -11.5t-9 -9.5q0 -8 0.5 -18.5t-6.5 -14.5q-2 -3 0.5 -6.5t-1.5 -4.5q-2 -6 -9 -8.5t-10.5 -6t-10.5 -3.5q-37 0 -51 21q-5 7 -13 8q-2 5 -5.5 7.5l-7.5 5.5
q0 8 2 13.5t0 13.5zM160 504q8 5 21 5t21 0.5t13 -9.5t0 -19q-2 -8 -7 -9q-14 -3 -30 -19q1 -8 1 -17t1 -15t1.5 -10t1.5 -8.5t2.5 -7.5t1.5 -6l-1 -14q2 -11 2 -52q4 -17 3 -24.5t-1 -15.5l6 -38q0 -16 -3 -38t-2.5 -28t-0.5 -15l-2 -18t1 -18q1 -4 5 -3t8 -2t9 -0.5
t14 0.5q11 -11 8 -29q-12 -11 -16.5 -13t-11 -1t-11.5 -2q-13 8 -19.5 8.5t-15.5 -4.5t-12 -8.5t-11 -5.5t-19 1t-21 2.5t-55 -13.5q-11 3 -22 9q-3 7 0 20q26 14 41.5 14t18.5 6.5t8 7.5q1 4 -2.5 6.5t-0.5 4.5q6 14 3 27.5t2 39.5q0 13 -3 24t0.5 26t-1.5 27q2 9 4.5 19
t1 19t-0.5 23l6 15q0 2 -1 5t0.5 11t0.5 10t-1 5l3 21q1 4 -0.5 8t-1.5 9q3 8 1 16.5t-1.5 14.5t-7.5 9q-8 0 -15 -1q-14 -3 -29 12q2 16 12 26q12 2 20.5 -0.5t18.5 -2.5q11 5 13.5 4.5t9 4t8 4t7 1.5t16 2t11.5 -1z" />
    <glyph glyph-name="j" unicode="j" horiz-adv-x="247" 
d="M87 635q-23 16 -32 48q3 6 3 16t3 17q5 5 12 7.5t12 9.5q6 -1 10 1.5t9 3.5q10 -2 16.5 -1t14 -2.5t8 -5.5t3.5 -3.5t6.5 -0.5t6.5 -1q5 -7 10 -13t7 -14q-2 -8 -0.5 -10t-0.5 -9.5t-12.5 -18t-12 -13.5t-3.5 -4.5t-5 -1.5q-4 0 -18 -7q-10 -2 -18.5 1t-18.5 1zM90 236
l-4 31q0 14 1 26.5t-0.5 25t-2.5 19t1 15.5q0 14 1 14.5t-4 4.5q6 12 3.5 19t-0.5 13.5t-3 11.5q-18 3 -58 -8q-9 -3 -18 2q-2 6 0 16t2 17q3 -1 4.5 2.5t4.5 5.5l12 4q4 1 8 0t16.5 2t25.5 4.5t19 5t8 5.5t10.5 5t21.5 2.5t25 -0.5q3 -14 4.5 -29.5t4.5 -24t4.5 -11.5
t3 -10t1.5 -17t2 -19t4.5 -17t4 -15t1.5 -14v-14l2 -13l-2 -13l4 -13v-20l3 -22q0 -5 -2 -13l2 -28q1 -15 -0.5 -29t0.5 -28q4 -10 3.5 -13.5t0.5 -7t3.5 -10t2.5 -14t0.5 -16t6.5 -8.5q-6 -22 -6 -30.5t6 -18.5q-3 -12 0 -23t2 -25q-3 -9 0 -20q0 -7 1 -11.5t0 -14.5
t0 -14.5t0.5 -9t-1.5 -7t-2.5 -9t-0.5 -15.5t-1 -17q-5 -6 -4.5 -7.5t0.5 -3.5q-8 -9 -10.5 -14t-7.5 -7q0 -15 -5 -24l-8 -15q-3 -5 -4 -13q-7 -4 -13 -11.5t-10 -10.5t-4 -10q-8 -2 -13 -8t-9.5 -8t-7.5 -4.5t-5.5 -5t-5 -3.5t-6 -0.5t-7.5 0.5q-8 -4 -16.5 -7.5
t-15.5 -8.5q-6 -2 -11 0t-10 2l-24 -7l-14 3l-13 -3l-24.5 13t-18.5 7q-3 7 -8.5 12.5t-7 8t-5.5 4.5q-2 2 -3 5.5t-7 6t-7 6.5t-6 4q2 8 -0.5 14t-3.5 13q2 14 0.5 17t0.5 6t1.5 8.5t4.5 12.5t9 8.5t2 6.5q15 -1 20.5 7.5t14.5 13.5l17 -8q24 11 41.5 -4.5t11.5 -45.5
q-5 -9 -7 -13.5t-7 -6.5q-11 -1 -17 2t-15 4q-3 13 -12 24q-27 0 -27 -11q0 -4 -3.5 -8t-3 -9.5t3.5 -10.5l6.5 -10.5t4.5 -9.5q11 -1 15 -7t14 -14t15 -9.5t7 -1.5t12.5 -1.5t19.5 2l16 6t11 3.5t8.5 3t7 4.5t7.5 3.5q3 4 6 8.5t8 6.5q5 15 11 21q10 81 2 119q-1 4 -2 12
t-2 8q-3 2 -3 19v15q1 12 -2.5 23t-3 15.5t-0.5 11.5l-1 17v61q-4 52 -3 61.5t-0.5 13.5t-2.5 9l2 13l-3 15z" />
    <glyph glyph-name="k" unicode="k" horiz-adv-x="497" 
d="M58 369l-3 105v11l-4 12l3 14q1 4 2.5 7.5t1.5 7.5l-1 14l2 30l-1 14l2 11l-3 20l2 19l-3 11q0 8 4.5 22.5t3.5 27.5l-3 17q0 5 1.5 8.5t3 12.5t1.5 24.5t-1 28t0.5 15.5t1.5 5l-1 22l2 19q3 6 1.5 15t-0.5 17q-5 4 -10.5 2t-13 1.5t-9.5 13t7.5 16t14.5 5.5t10 0.5
t9 4.5q10 6 24 3.5t31 7.5q5 1 7 -0.5t5 -1t7 4t9.5 6t13 2t22 0.5t22.5 2.5t14 -6.5q6 -25 -17 -48q-15 -4 -24 -10q-32 -22 -24 -34q2 -3 3 -7q-3 -10 -1.5 -13.5t-2.5 -7.5q9 -22 6.5 -36.5t-3.5 -24.5l1 -31q1 -4 4 -13l-1 -16q5 -15 5 -19t-3 -12t-5 -16.5t-2 -20.5
t-1 -26l-2 -20l6 -67q-3 -46 -5 -54q3 -8 3 -17t-1.5 -25t3.5 -27q-5 -12 0 -45q1 -7 8 -11q4 -1 5.5 -4t7.5 -1q6 -1 5.5 5t4.5 7q3 2 4.5 3.5t6.5 0.5q5 2 8.5 7t12.5 5q6 9 6 10q9 6 11.5 9.5t5.5 6t7 5t8 5.5q7 10 8.5 10t5.5 3.5t8.5 10t9.5 11.5q5 3 11.5 6t11.5 9
t10.5 10l13.5 10t12 15q-3 8 -11 6t-14 0.5t-10 7t-9 8.5q3 7 1 10t0 6q4 11 28 17q5 -2 8 -7t7 -9q15 -6 42 -6q7 -2 14 -2q6 -6 12 -6l22 -4l16 1q11 1 17.5 0t11.5 -11t4 -18q-3 -6 -9.5 -9t-9 -2.5t-11 -1.5t-13.5 1t-10 3q-3 2 -6.5 -0.5t-8.5 -3t-6 2t-11 0.5
q-19 -3 -30 -30q-6 -1 -10.5 -3.5t-9.5 -4.5q-7 -10 -17 -11q-5 -6 -12 -11t-9 -15q-18 -9 -30 -24q0 -7 5.5 -11t10 -15.5t12.5 -25.5q2 -8 6 -13t4 -14q5 -8 8 -17.5t7.5 -17t3.5 -14.5q2 -8 6.5 -13.5t4.5 -15.5q6 -3 8 -10.5t7 -12.5q3 -12 6.5 -16.5t8 -14.5t4 -11.5
t1 -4t3.5 -4.5t3.5 -5t0.5 -6t0.5 -6.5t4 -8t6 -14t5.5 -12.5q8 -11 9 -19t7 -14t10.5 -16.5t5.5 -10.5q2 0 3.5 -9.5t23.5 -31.5q8 -12 13 -16.5t5.5 -6.5t4.5 -4q12 -2 16 -4t8 -2q12 5 16 6t8.5 5.5t9.5 7.5q7 6 12.5 17t8.5 15t3 7q4 11 -4.5 22t-12 12.5t-10 2.5
t-11.5 5q-11 -2 -16.5 -10.5t-10.5 -19.5q-6 2 -8.5 -1t-6.5 -2t-5.5 4t-7.5 9t-4 22t12.5 24.5t11.5 16.5q12 -3 18.5 1t10.5 4q32 0 38 -10t14.5 -19l13 -14t11.5 -9q6 -14 7 -28.5t-0.5 -19.5t-4.5 -13t-4 -14t-5 -10.5t-10 -10.5t-9.5 -10.5t-4 -7t-2.5 -4.5
q-5 -2 -10 -3.5t-12 -5t-14 -9.5t-12 -7.5t-9.5 -0.5t-9 0.5t-8.5 -1.5t-8 0t-8.5 5.5t-10.5 7.5q-16 0 -23.5 7.5t-20.5 9.5q-2 5 -4 8.5t-4 7.5q-5 2 -7 6t-6 7q-8 3 -8.5 5.5t-2.5 3.5q-7 12 -13 14q-11 14 -16 22t-12 10q-5 20 -16 25q1 11 -11 18q-2 14 -9 29
q-8 9 -8 10t-3.5 6t-6 15t-10.5 21q-4 8 -4 10t-1 4q-5 4 -5 6t-3 7l-7 17q-5 11 -4.5 15t-5.5 6q-3 15 -2.5 19t-1.5 10q-5 6 -4 8t-2.5 8.5t-5 9.5t-1.5 6t-1.5 7.5t-5 9t-3.5 9.5q-16 16 -30 8t-14 -16.5t-2.5 -14.5t-2 -7.5t-3.5 -7.5t-4 -8q2 -6 -9 -17q1 -8 -3 -13.5
t-6 -13.5l2 -18q0 -11 -1 -23t1 -21.5t5 -15.5t1 -18q-7 -19 -6 -27.5l2 -17.5q12 -7 22 0q4 -3 7.5 -4t6.5 -3.5t7 -4.5t6 -5q-1 -9 -1.5 -15t-7.5 -11q-8 -2 -9 -3.5t-4 -2.5t-8.5 0.5t-14 0.5t-17 -5t-15.5 -1q-4 0 -5.5 -2t-4.5 -4q-4 0 -6 1t-7.5 -1.5t-7.5 -1.5t-6 1
t-11 -2t-15 1q-5 -2 -10 -6t-22 -7t-37 9q2 14 4 22q5 3 10 5t9 6q6 0 7.5 1t6.5 -1q7 5 16 5.5t14 8.5q-2 11 -6 22.5t-2 27.5q-4 32 -5 67.5t-4 46.5q4 12 3 16.5t-1 16.5v11l-4 20q-1 3 0.5 7t1.5 9.5t-2.5 14.5t-1.5 11t-3.5 20t-4.5 38z" />
    <glyph glyph-name="l" unicode="l" horiz-adv-x="244" 
d="M59 662v12q-2 14 0 18.5t3 9.5q-2 15 1 22t1 15q-2 3 -4.5 4.5t-4.5 4.5q-11 1 -18 -2.5t-16 -5.5q-5 2 -6 -1t-5 -5q-11 -7 -22 4t-6.5 18t12.5 9.5t17.5 5t20 4t17 3.5t13 3t11 3t7.5 4t7.5 4t8 2.5t23.5 7.5q23 9 43 6q1 -6 4 -11q8 -11 2.5 -20.5t-6 -16t-4.5 -8.5
q2 -19 -5 -22l7 -61q-2 -4 2 -23.5t4 -35.5q-1 -31 5 -48l-2 -20q0 -5 1 -9t3 -14t0.5 -26t-1.5 -32q5 -27 5 -37t-5 -17q3 -8 1.5 -9t-1.5 -6t1 -13.5t-1 -19.5l5 -26l-2 -11l4 -33q-1 -8 -2.5 -17t3.5 -17q-3 -7 -2 -15.5t-2 -16t0.5 -15.5t3.5 -19l-3 -19q-1 -10 2 -20.5
t-2 -19.5q9 -24 2 -40q5 -15 2 -31t5 -30q-5 -8 -5 -20t1 -20q4 -23 26 -13q5 3 8 6.5t9 1.5q10 -2 10 -17q7 -7 6 -19q-4 -9 -19.5 -11t-23.5 -4t-11 -9q-3 0 -5 1.5t-7 0.5q-11 -7 -14 -6q-8 4 -22 -8q-5 2 -11 0.5t-14 2t-20.5 0t-20.5 -11.5q-11 0 -18 -4t-18 -3
q-9 11 -9 17t4.5 10.5t10 7.5t7.5 8q20 4 41 14q3 24 -3.5 42t-6 21t-0.5 12t-2.5 20t-2.5 21t0 18t-1 27t-2 32l-6 50v29l-3 23q-1 5 -0.5 11t0 12.5l-1 13.5t-5.5 11q5 12 5 18l-3 19q-1 4 0 8.5t1 8.5l-1 51q0 11 2.5 22.5t1 24.5t0 15.5t1.5 6.5l-4 38l2 21l-3 22
q-1 3 0 6.5t1 7.5l-1 24q1 11 -0.5 14t-0.5 10t0 9.5t0 17.5t1 22z" />
    <glyph glyph-name="m" unicode="m" horiz-adv-x="770" 
d="M461 324l-3 -20q-6 -6 -8.5 -16t-6.5 -20q5 -8 0.5 -18t-5 -22t-1 -16t-7.5 -14q4 -15 1.5 -38t-2.5 -39q-1 -5 -5 -6t-6.5 -3.5t-6.5 -9.5q-6 -10 -34 -13l-10 22q-2 3 -3.5 12t-2.5 14.5t-3.5 12.5t-2.5 17t1.5 30t-0.5 28t-3.5 16t-3.5 12l2 18q-5 14 -3 24.5t2 20
t-6 21.5t-6 16v18q-2 7 -5.5 5.5t-1.5 5t-1.5 7t-3.5 5.5q-13 7 -16.5 5t-5.5 -4q-14 -2 -19.5 -7.5t-9 -9.5t-8 -7.5t-8 -7.5t-8 -6t-5.5 -6.5t-3 -7.5q-7 -3 -14.5 -10t-10 -12t-6 -8.5t-6 -5t-5.5 -10t-14 -22.5l-6 -35v-29q-1 -5 -1 -17v-17l6 -46q4 -30 2 -53
q3 -5 4.5 -12t7 -9.5t14.5 -1.5t16 -1q11 -19 7 -29.5t-11.5 -13t-22 -4.5t-35 -7.5t-32 -7.5t-15 -1.5t-5.5 0.5q-9 -6 -14 -6q-21 0 -28 -7q-16 -4 -20.5 -7.5t-8.5 -3.5t-8.5 5t-5 11t2 8t2.5 7q2 3 6 2.5t7 1t4.5 3.5t9.5 7.5t11.5 6.5t7 3.5t11.5 15.5q-3 5 1 15
t1.5 18t-3 15t-2.5 23l-4 41q-1 8 -1 24.5t-0.5 26.5t-5 24t-4.5 28l2 27l-3 13q0 4 1 7.5t-0.5 14t-5.5 34t-5 40.5l1 27q0 19 -5 26q-4 3 -13 5q-28 6 -29 19q-1 5 4 15q17 8 41 1q4 0 7.5 2.5t8 4t10.5 1t20 2.5t21.5 2.5t14 -4t11.5 -2.5q7 -20 5 -28q-3 -13 -2 -30
t5 -21v-24q0 -15 3 -20q6 -4 12 -3l14 4q4 4 7.5 8t7.5 7.5t9 10t10 11.5q6 9 11 13.5t10 9.5q15 9 18.5 14.5t8 8.5t8.5 4.5t14.5 6.5t14.5 3.5t10 -1.5q36 4 43 -6q8 -8 14.5 -16.5t10.5 -12.5t9 -14t8 -17t14 -8q4 1 6 4.5t8.5 8.5t5 6t6 8.5t9.5 15.5q4 0 6.5 3.5
t5.5 6.5t5.5 3.5t6 4t7 9.5t10.5 8q7 16 15.5 25t13 9t8.5 2q7 8 15 11l21 -3q10 0 16.5 1t13 -0.5t11 -4.5t9.5 -2q3 -7 11 -9t13 -7q6 -14 13.5 -19.5t9.5 -12t3 -12l2 -11t3 -10.5l3.5 -9t1.5 -7.5t1.5 -10.5t1 -8.5t-0.5 -3.5q6 -8 4 -14t0 -12t3.5 -8t2 -10t0.5 -11
q-2 -10 6 -22q2 -16 0.5 -32.5t1 -29.5t1.5 -14t1.5 -6t2.5 -8l-1 -13q0 -15 3 -21q0 -3 -1 -6t0.5 -10.5t0 -10.5t-1.5 -5.5t1.5 -10.5t0 -16.5t0 -11.5t3.5 -5t3 -6q4 0 7.5 2t7 3.5t6.5 0t7 -1.5t5.5 1.5t10.5 -0.5t13.5 -6.5t7.5 -17.5q-5 -5 -8.5 -10.5t-13.5 -2.5
q-4 -2 -8.5 -5.5t-9 -5t-8 -0.5t-14.5 1t-23 -6t-40 -4q-14 -8 -26 -7q-9 -7 -18.5 -9.5t-20 -7.5t-27.5 -5q-11 6 -16 16.5t9 19.5q10 3 18 7t16 6.5t10.5 12t-5.5 19.5q5 10 3.5 26t-0.5 27q0 11 2 32q4 42 -4 58l1 18q0 8 0.5 16t-4.5 15q8 16 5 67l-2 11q0 3 1.5 6
t-0.5 11.5t-2 12t-2 18t3 23.5q-10 11 -9.5 12.5t-2.5 3.5q-12 3 -17.5 0.5t-12.5 -3.5q-5 1 -4.5 -4.5t-5.5 -4.5q-2 -2 -6 -6.5t-7 -6.5t-5.5 -7.5t-7.5 -10.5t-10.5 -9.5t-6.5 -15.5q-11 -7 -15.5 -26t-9 -28t-13.5 -12z" />
    <glyph glyph-name="n" unicode="n" horiz-adv-x="518" 
d="M67 -34l-27 -10q-15 0 -18 24q3 2 5 10q2 12 12.5 10.5t16.5 4.5t10 8q18 5 29 16q-3 12 -2.5 16t-1.5 15.5t-2.5 17.5t-0.5 19t-2 28t-3 21.5t0 10.5t0.5 10t-1.5 23.5t-2 33t-0.5 41.5t-0.5 37.5t-2 16t-1 8.5l2 42l-2 43l1 12l-4 23q-2 21 -1 33.5t-1 29.5
q-16 1 -29 -3.5t-27 2.5q0 23 5 36q17 5 32.5 6t25 4t10.5 5.5t4 4.5q17 0 26 3.5t22 -7.5q9 -5 12 -10q5 -10 4 -13t0 -8t2 -13t3 -15t1.5 -14t3.5 -12q23 -10 39 14q5 9 6 9q3 0 6.5 4.5t7 8t11 8.5t13.5 11q9 -2 16 3.5t17.5 8t23 1.5t23.5 4l13 -5q6 1 18.5 1t18.5 -4
q2 -4 6.5 -8t8 -10t5.5 -7t4 -4t4.5 -8.5t6.5 -12.5q7 -7 7.5 -10.5t3 -11t6.5 -17.5t4 -15t1 -9t2 -7t2.5 -9.5t1.5 -16t1.5 -15t2.5 -8.5t4 -15t2 -33.5t0.5 -36.5t1 -24.5t1 -16t2.5 -12l2 -10.5t-1 -15l7 -15q2 -9 1.5 -19t8.5 -12q6 2 13.5 2.5t13.5 4.5
q9 -1 12.5 -8.5t7.5 -12.5q-4 -12 -13 -19t-17 -15q-11 0 -15.5 -1.5t-11.5 4.5q-7 -3 -16 -5t-14 -7q-3 1 -5 3t-6 1q-5 -4 -11 -6t-12 -4.5t-9 -4.5t-7.5 -3.5t-8 -3t-12.5 -4.5t-16 -7t-11.5 -4t-9.5 3q-3 6 0 10.5t0 9.5q2 0 1.5 5.5t1.5 7.5q10 7 13.5 12.5t12 10
t16.5 5t13 9.5q-2 7 -4 11t-4 10t-0.5 11t0.5 12l-4 24q0 22 -2.5 35.5t-3.5 24.5t-2 18.5t-1 14.5l1 13q-3 24 -3 28l1 11q0 3 -1.5 6.5t-2.5 8t0 5t1 7.5q-6 11 -5 14t1 5l-5 26q-1 13 -5.5 21.5t-6.5 17.5q-9 13 -25.5 18.5t-24.5 -6.5q-8 -2 -14.5 -4.5t-14.5 -4.5
q-3 -5 -8.5 -9t-4.5 -13q-3 -1 -4.5 -3t-5.5 -2q-2 -8 -7.5 -13t-10 -10.5t-9 -9.5t-9.5 -9q1 -6 -2 -8.5t-1 -9.5q-6 -6 -9 -13.5t-7 -15.5q-8 -22 -4.5 -47.5t3.5 -44.5l6 -74q0 -11 1 -23t0 -29q-2 -73 11 -92q1 -5 4.5 -5t7.5 -9.5t-4 -27.5q-6 -2 -12.5 -5.5
t-12.5 -4.5t-8.5 1t-6.5 2l-34 -8q-8 0 -15.5 -4.5t-10.5 -3.5t-4 -4q-13 0 -14 1q-7 -5 -8 -5z" />
    <glyph glyph-name="o" unicode="o" horiz-adv-x="430" 
d="M273 546q11 -5 11 -6.5t4.5 -2t5.5 -3t4 -4.5t8 -4t10 -7t15 -12t29 -27t23 -34t5.5 -17t1 -9.5t3 -27.5t-2.5 -37l-8 -25q-1 -3 -1 -7t-4 -9t-3.5 -7t-3 -7.5t-5.5 -5.5q-3 -1 -10.5 -17t-15.5 -18.5t-13 -4.5q-11 -8 -19 -18.5t-17 -16t-17.5 -8.5t-14.5 -9
q-6 2 -10.5 -1t-8.5 -4.5t-6.5 -1.5t-7.5 -2q-27 -12 -47 -4q-4 2 -10.5 3.5t-20 6t-21 13t-14.5 10.5q-4 11 -12.5 16.5t-16.5 13.5q-7 10 -7 11.5t-2 4t-6.5 7.5t-9 12t-12 14.5t-6 18t-0.5 20.5t-4 18t-0.5 16t1.5 11t3.5 13t5.5 13t4.5 11.5t4 9t1.5 2.5q1 2 2 6.5
t12.5 19t17 18.5t5.5 10q11 7 11 9t4 5.5t12.5 7.5t13.5 13q8 1 13.5 5.5t19 12.5t35 8t34 -1t21 -2.5t16.5 0.5zM315 418v16q-8 8 -16 24q-4 2 -6.5 4t-5.5 4q-2 2 -3.5 5t-3.5 5q-4 1 -11 3t-12 1q-6 0 -15.5 5.5t-25 2.5t-21 -6t-15.5 -2q-6 -6 -12 -14t-8.5 -10t-6 -9
t-7.5 -11q-5 -5 -4 -10.5t-2 -11.5q-16 -36 1 -84q4 -11 4 -23q6 -7 9 -14.5t7 -15.5t9 -13t10 -12q14 -6 22 -5.5t22 5.5q12 7 15 6.5t5 1t6.5 5.5t7.5 4t8 3.5t10.5 10.5t12.5 9q2 3 2.5 6.5t1.5 6.5q9 5 13.5 14t12.5 17q0 5 -1.5 11t1 13.5t2 9t0 10t3 12.5t1 9.5
t-5 8.5t-4.5 8z" />
    <glyph glyph-name="p" unicode="p" horiz-adv-x="500" 
d="M294 205q-31 -6 -36 -4q-5 0 -8 3t-7 4t-9.5 4t-15.5 1q-9 7 -18 8q-3 3 -4 7t-6.5 5t-6.5 -3t-6 -5l4 -57q0 -8 -0.5 -13.5t3 -17t2.5 -28t1 -23.5t2.5 -15t0.5 -15v-14l-2 -34q1 -7 -0.5 -9t-1.5 -5l6 -20l3 -26v-11l-1 -11l5 -12l2 -46q-2 -1 -1.5 -8t1 -15.5
t1.5 -15.5t-0.5 -10.5t0 -15t-0.5 -19t-1 -20t0 -20.5q14 -5 26 -4q6 5 8.5 1.5t5.5 -2t5.5 3.5t9 -1t9.5 -9q7 -5 3.5 -20t-13.5 -17q-4 -1 -11 -3t-13 -1.5t-16 -3.5q-4 2 -8.5 2.5t-4.5 5.5l-16 -7l-25 1q-10 -4 -10 -4.5t-5.5 -0.5t-11.5 -6q-20 4 -29 -5q-9 4 -17 3.5
t-17 3.5q-6 -3 -13.5 -9t-16 -4.5t-17.5 7.5q-3 14 6 24t18 13q14 3 32.5 10t25.5 5q-17 179 -16.5 207t-2.5 40.5t-3 23.5q4 8 3.5 14.5t-1 14.5t-2 15t-3 13t-2.5 15.5t-0.5 21t0 21.5t-2 17t-2.5 16t-0.5 18t-0.5 20l-2 22t-2.5 23t-0.5 14t1 3l-5 28l2 13q0 5 -2 9
t-3 11t-0.5 17t-1.5 20q-1 2 -1 5.5t-1 6.5l-5 17q2 10 1 13.5t-6 31.5t-2.5 33t1 10t-0.5 14t1 18l-3 19q3 19 1.5 28t-1.5 17.5t1.5 14t-1.5 11.5q-6 2 -14 -1t-24 -8q-9 14 -9 20.5t5 14.5q13 5 16 7q7 6 16.5 7t18.5 5l14 7q33 16 44 10q9 -9 13 -18l8 -15q5 -10 8 -24
t2.5 -18.5t0.5 -10t1.5 -9t3.5 -15.5t3 -21.5t9 -10.5t17.5 10.5t14.5 11.5q2 4 4.5 8t4.5 8q5 1 7 4.5t12 7.5t16 8t12 7q9 -3 16 4t15 8q9 -2 15 -1t12 1l26 -1q10 0 17.5 -2t14 -2.5t12 -3.5t11 -10t12.5 -7q9 -14 20 -20q0 -10 3.5 -14t8 -14t11 -20.5t8.5 -17t7 -11.5
q1 -12 3.5 -25t5 -35t-7.5 -39l2 -18q-4 -2 -3.5 -6.5t-4.5 -6.5q2 -6 -2.5 -9.5t-6.5 -6.5t0 -7.5t-3 -9.5t-7 -14t-8 -11q-5 -5 -5 -12q-9 -1 -16 -9q-15 -17 -24 -17q-10 -9 -15 -7t-9 -0.5t-11 -2.5q1 -6 -4 -6t-7 -3q-12 -4 -16 -3.5t-5.5 -2.5t-4.5 -3zM175 378
l-1 -31q2 -4 6 -7t6.5 -10l4.5 -13t4 -11q4 -2 7.5 -4.5l6.5 -4.5q4 -9 10 -14t11 -13q13 -1 24 -3l22 -4q6 2 13.5 5t17.5 -1q2 4 6.5 4.5t7.5 2.5l9 11q7 6 8 10.5t4.5 12t4.5 9.5t1.5 5.5t4 8.5t5 16.5t2.5 27t2.5 28t0 22t-0.5 14t-3 6.5q3 2 0 8t0 7q-11 18 -18 38
q-9 13 -15 15.5t-11 8.5q-4 -2 -8 -0.5t-10.5 -1t-9 -1.5t-12.5 -2t-16 0q-2 -3 -11 -7t-14.5 -7.5t-11.5 -5.5q-2 -2 -3 -6t-2 -7q-4 -4 -12 -6q-1 -9 -10 -14l-2 -13q-5 -5 -7 -12t-7 -12q1 -11 -3 -20t-4 -16t3 -13z" />
    <glyph glyph-name="q" unicode="q" horiz-adv-x="499" 
d="M323 172l-2 22q6 16 4.5 27.5t-0.5 22t3 21.5t-3 19q-3 -1 -6.5 -1.5t-5.5 -3.5q-2 -8 -5 -9.5t-4 -6.5q-8 1 -11 -5t-8 -8q-3 0 -5 -2t-6 0q-10 -12 -34 -25q-6 -1 -8.5 1.5t-5.5 4.5q-6 -5 -12 -5h-14q-12 -1 -14.5 0.5t-8.5 3t-15 0.5q-19 0 -27 8t-20.5 12t-17 7.5
t-8.5 8.5t-10 6q-3 9 -12 16q-5 11 -11 19.5t-8 18t-1.5 13.5t-2.5 9q-10 18 -6.5 47t10 44t9.5 22.5t7 13.5t7 11t7 9.5t7.5 9.5t5.5 7.5t6 8t6.5 5.5t7.5 4.5t9.5 7.5t6.5 10q6 -1 10 2t13.5 6.5t12.5 9.5q13 1 27 5t27 7q33 7 51 -8q7 1 12.5 -2.5t14 -6.5t13.5 -8
q11 -3 10.5 -5t0.5 -3q19 -12 26 -23q4 6 3.5 15t4 23.5t9 21.5t9 20t9 16.5t13.5 5.5t14 3.5t9 -1t8 -0.5q3 -7 7.5 -13t6 -11t1 -8.5t1.5 -10.5t3 -22q2 -32 0.5 -38.5t1.5 -14t4 -12.5l-3 -15l2 -13q-2 -4 -2 -10v-14l-1 -26q-1 -16 -1.5 -30.5t-5.5 -25.5
q3 -11 -0.5 -31.5t-1.5 -37.5t-7 -33q2 -10 -1.5 -24.5t-0.5 -25.5q-4 -5 -5 -14t-3 -19.5t-3 -18.5t-1 -17t2 -14q-4 -8 -3.5 -18t-0.5 -16.5t-2.5 -10t-2.5 -7.5t0 -9q3 -8 -1.5 -15.5t-4.5 -17.5v-13q1 -10 -6 -21q4 -15 0 -31.5t-2 -28.5q5 -5 7 -1.5t15.5 12t19.5 23.5
q13 19 17 19q1 0 4 5.5t3 6.5t6.5 5.5t12.5 3.5t8.5 -12t-2.5 -22q-14 -18 -21 -21q-2 -6 -5.5 -10t-5.5 -14.5t-6.5 -12t-6.5 -5t-4 -8.5t-5 -10q-4 0 -6.5 -4t-6 -6.5t-7 -9.5t-7 -13t-10 -11t-10.5 -10l-7 -11q-1 -2 -1 -5.5t-1.5 -8t-5 -12.5t-5.5 -16l-10 -10
q-8 -4 -8 -5.5t-5 -4t-9.5 -9t-13.5 -8.5t-19 7q-2 3 -2 8t-2.5 11t-1.5 7.5t-0.5 6t-4.5 10t-2 16.5l4 42q4 16 4 20l6 50l-2 13q1 6 7 31v12q2 12 1 13q-2 2 7 63v20l4 16q1 3 0 7.5t-0.5 9t1 15t3 22t2.5 20.5zM335 385l-1 15v9q0 4 2 8q-4 3 -2.5 9.5t-3 11t-4 9.5
t-2.5 8t-1 8q-8 5 -8 12q-9 1 -11 7t-10 7q1 5 -0.5 7t-2.5 4q-5 2 -9.5 7.5t-9.5 8t-12.5 3.5t-15.5 2.5t-13.5 0t-12 -2.5t-12.5 -1t-11 -2q-10 -8 -14 -12q-10 -4 -12 -7.5t-7 -3.5q-2 -9 -7 -16t-7 -13v-13q-2 -10 -6 -16.5t0 -13.5q0 -15 -1 -25.5t4 -18.5
q-3 -1 -2 -5.5t0 -7.5q10 -18 12 -25.5t5.5 -12t1.5 -11.5q6 -3 11 -10.5t11 -9.5q24 -22 48 -9q5 2 16.5 5.5t16 6l11 6t7 4t7 3.5t11.5 9.5t8 8.5t5 4q5 13 7 14.5t4 3.5q-1 6 1.5 11t4.5 10q1 10 2.5 11t1.5 2z" />
    <glyph glyph-name="r" unicode="r" horiz-adv-x="422" 
d="M73 438l-2 13q-1 11 2 20t-7 17q-5 0 -13.5 -3.5t-14 -2t-10 2.5t-8.5 0.5t-7 7.5t3 19t15 13.5t24 3t21.5 4t9 6t5.5 4.5q15 4 19 3.5t7 4.5q18 1 25 -9t16 -19q-2 -8 2.5 -14t7 -14.5t1.5 -13.5t6 -12q16 -1 23.5 10t15.5 20l12 8t9.5 5t8.5 3q4 4 5.5 8.5t3.5 6
t12 5.5t9 10q16 -2 35.5 1t28.5 2.5t21 2.5q6 -2 11 -6.5t11.5 -8.5t7 -9.5t6 -12.5t11.5 -16l8.5 -23.5t3 -21t-3.5 -20.5t-6 -19q-10 -7 -11 -16q-13 -9 -18.5 -17t-10 -10t-12 -1t-14.5 1t-15 4t-19 6q-2 2 -3 4.5t-3 5t-5.5 4.5t-6.5 7q-12 19 -1 31q18 6 27 9.5
t14 -10.5q9 0 16 5q3 11 5.5 13t2.5 8.5t1 7.5l-5 17q-4 6 -4.5 6.5t-6 7.5t-9.5 8q-7 2 -17 -3.5t-22 -3.5q-6 -2 -10 -10t-12 -9q-27 -24 -39 -33q1 -4 -4 -6.5t-7.5 -7.5t-3 -8t-3.5 -7.5t-3.5 -7t-2.5 -5t-2 -9t-2 -11.5q-6 -8 -5.5 -11.5t-1.5 -6t-4.5 -4t-3.5 -5.5
q5 -7 1.5 -12t0.5 -14q4 -5 3.5 -11t0.5 -13t1 -14.5t1 -20.5q-2 -6 0.5 -9t2.5 -9v-14q0 -6 1.5 -14.5t1 -14.5t1 -15t0.5 -10t0 -4t2.5 -6.5t1.5 -6.5l-2 -11l2 -13q0 -14 3 -23.5t1 -23.5q1 -3 3.5 -9t4.5 -13t29 -7l34 2q4 -7 6 -18.5t-2 -18.5l-40 -6q-8 -2 -16 -2.5
t-15 -9.5q-29 -2 -36 -6t-13.5 -1.5t-11.5 1t-8 -3.5q-9 -6 -22 -3.5t-20.5 -3.5t-12.5 -8q-28 5 -32 1q-11 -11 -25 -1q-3 34 15 45q6 3 16.5 4t14.5 6q6 0 10 3t9 5q-3 30 -3 50t-1.5 30t-2.5 19.5t-1.5 29t-1.5 34t-3.5 25t-3.5 28.5t-4 41l-2 15q-1 5 0.5 9t1.5 6.5
t-2 39t-1 43t-1 14.5z" />
    <glyph glyph-name="s" unicode="s" horiz-adv-x="359" 
d="M83 323l-7 17q0 3 -2.5 6.5t-5 8t-5 8l-4.5 6.5q-3 12 -3 17.5t-4.5 31t-1.5 41t4.5 21.5t2 10.5t1.5 7.5t4 5.5t4.5 5t1 5.5t4 9t5.5 11.5t14.5 14t20.5 19.5q7 2 14.5 10l12.5 13q11 -1 20 5t17 3l12 9q4 -1 23.5 -1t29.5 -4q5 -5 8.5 -4.5t5.5 -4.5q6 2 13 -0.5
l13 -4.5l11 -12q3 -16 8 -24.5t10 -5.5q7 5 18 23l7 12q5 0 11 -1l12 -2q10 -12 4 -33.5t-19 -23.5q-2 -3 -1.5 -5t-1 -4.5l-4 -6.5t-7.5 -15t-11.5 -17.5t-17 -19t-18.5 -18.5q-8 -2 -16.5 3t-12.5 13q2 14 7 21l11 15l7 12q-1 0 -1.5 7.5t-3.5 13.5q-4 4 -4.5 6t-3.5 4
q-3 9 -6 12.5t-5 8.5q-4 1 -5 2t-2 1h-3q-1 0 -5 1l-13 2q-4 -1 -11 0t-9 -2q-12 1 -15 -4t-15 -5q-2 -8 -5.5 -13.5t-8 -14.5t-9.5 -15t-3 -14.5t2 -22.5q-1 -25 4 -33q3 -9 3 -13t2 -10t4 -15t9.5 -18t9.5 -16t5 -12.5t4.5 -10t4 -6.5t4.5 -4q1 -13 15 -35q1 -6 4 -11
q6 -6 5 -9q-2 -3 7 -12q5 -10 5 -14q2 -11 11 -26t12 -21.5t4.5 -9t3.5 -7t3.5 -10.5t5.5 -12q8 -10 7.5 -15t3.5 -14.5t5 -17.5t2.5 -12t2.5 -9.5t2 -13.5t2.5 -14.5t-1 -19.5t-1 -23.5t-4 -18t-12.5 -20.5q-2 -7 -5.5 -12.5t-5.5 -13.5q-5 0 -7.5 -4t-7.5 -5q0 -5 -2.5 -8
t-4.5 -6q-12 -9 -17 -20q-8 -1 -14 -7t-11.5 -8.5t-10 -9.5t-8.5 -12q-14 -6 -20 -6h-8q-3 0 -6 -2t-6 -1.5t-7.5 -0.5t-8 -3t-9.5 -3.5t-11.5 1.5t-14.5 3l-11 -1q-12 5 -17 10q-14 3 -27 11t-18.5 15.5t-13.5 9.5q-3 9 -15 19v29q-2 22 -3.5 32.5t0.5 17.5t3.5 8.5
t3.5 5.5t2.5 8t3 8l6.5 10t6 13q8 4 13 11t13 11q7 0 9.5 2.5t6.5 4.5q6 -3 12 -0.5t16.5 1t16.5 -1.5t11 -2q12 -8 14 -8.5t5.5 -4.5t8.5 -7.5t9 -7.5q1 -5 3 -9t2 -9q13 -16 -2 -48q-3 -7 -7 -10q-25 3 -34 5q-3 5 -8.5 11t-3.5 16q-4 7 -8.5 11t-8.5 9q-5 -2 -11.5 1.5
t-12.5 2.5q-4 -6 -8.5 -9.5t-8.5 -8.5l-3 -14q-8 -28 -5 -43q5 -12 5 -17t3 -7t5.5 -6t4.5 -6q5 -2 9 -6t11 -4q5 -10 13 -10h20q8 -1 12.5 -2t12 4t8.5 4t6 2t9 6l13 9.5t12 10t4 6t3 5t4 6.5t7 8.5t9.5 28t3 32t-2 15.5t-3.5 15.5t-2 10.5t0 4l-11 46q0 4 -1 6q-8 7 -8 11
t-4 13t-7.5 14.5t-5 11t-5 8.5t-7.5 7q1 10 -7 21t-8.5 18t-5 9t-3.5 10q-8 3 -12 10.5t-11 12.5q1 6 -2 8.5t-2 7.5q-10 7 -14 14.5t-3.5 9t-2.5 5t-3 6.5z" />
    <glyph glyph-name="t" unicode="t" horiz-adv-x="372" 
d="M255 564l14 1q7 0 14 -2t15 1q12 -7 15 -11.5t3 -15.5q-4 -20 -36 -15q-10 -4 -12 -5.5t-14.5 -1t-13.5 -0.5t-11 -1.5t-10.5 0.5t-5.5 -6t-4.5 -11.5t0.5 -14.5v-22q0 -11 -2 -23t-1 -15t0.5 -13t-3.5 -15.5t-5 -12t3 -9t3 -11.5l-3 -12q-1 -4 0 -7.5t0 -8.5l-4 -15
q3 -7 1.5 -11t0 -11.5t-0.5 -9.5t-1 -9.5t-1 -11.5t-2 -9l2 -22q0 -7 -5 -15q3 -10 2 -20.5t1 -20.5l3 -18q1 -3 2.5 -7t0.5 -8l-4 -12q0 -4 2 -14q7 -14 7 -24t2 -17t8 -15t7.5 -14.5t3.5 -9.5q9 -6 10 -5.5t3 0.5q8 -8 13 -9t10 -4t14 -1t13.5 8t15.5 5q4 3 5.5 7.5
t5.5 6.5q16 17 16 27v18q0 7 -2 10.5t-4 8.5q-9 3 -9 5.5t-5.5 2.5t-8.5 -2q-4 -6 -6.5 -11.5t-11.5 -5.5t-20 6q-10 13 -8.5 23.5t-0.5 17.5q13 17 42 31q8 2 12.5 0t14 -1.5t17.5 -6t18 -7.5q6 -11 8.5 -24t10.5 -23q-1 -5 0.5 -13t-1.5 -11q9 -10 4.5 -21.5t-7.5 -18.5
t-3 -14q-8 -4 -12 -10.5t-13 -9.5q0 -11 -6.5 -17t-10.5 -13q-17 0 -26 -7q-27 -5 -35 -12q-9 3 -21 -2q-27 15 -41 10q-5 5 -11.5 7t-9.5 7q-9 -2 -12.5 1.5t-10.5 5.5q-2 5 -7 10.5t-8.5 12t-13 19t-9.5 17t-5 18t-5 33.5q-2 4 -5 8t-5 9.5t-1 12t-4 8.5q4 10 -0.5 19
t-5.5 20.5t1.5 23.5t-3.5 23q5 10 1 32.5t-2.5 43.5t1 35t1.5 28q4 28 4 48v20l1 51q-5 8 -20.5 8t-30.5 -6.5t-26 0.5q-7 2 -9 -2.5t-7 -0.5q-17 20 -17 27.5t10 13t12 7.5q12 3 23 3q46 3 66 12q5 15 5.5 27.5t2 21t2.5 11t1.5 6t-0.5 6.5t2.5 10.5t3.5 12.5q4 9 2.5 11.5
t-0.5 7t4.5 11.5t1.5 17q11 18 23 27q19 2 28 8q10 -12 16 -16q23 -54 15 -120q0 -3 -1 -7t0.5 -9.5t7 -10.5t10.5 -6t8 1t7 2z" />
    <glyph glyph-name="u" unicode="u" horiz-adv-x="511" 
d="M167 222l-2 -13q6 -19 3 -32t5 -20q5 2 9 2t7.5 1.5t6.5 5t7 3.5q2 6 5.5 10.5t5.5 11.5q12 5 18.5 16t16.5 18q1 14 8.5 25.5t8.5 19t3 11t6 5.5t6 5l8.5 20t7.5 12q7 17 10 28.5t12 17.5q-1 6 1 10.5t4.5 11.5t2.5 9t6 9l11 31l8 16q2 4 2 10q1 11 7 26t5 34t14 36
q7 2 10.5 1.5t11.5 -1.5l8 -8q7 -15 5.5 -31.5t1 -27.5t3.5 -11.5t2 -7.5t0.5 -20.5t0.5 -22.5t3 -14q3 -13 2 -18.5t3 -18.5q-3 -9 3.5 -55.5t6 -50t1.5 -11t1 -10t1 -11t1 -13.5t0 -8t4 -18l-1 -17q1 -9 3.5 -16.5t1.5 -18.5l-1 -22q8 -5 19 -6t22 -4q2 -7 5.5 -12.5
t2.5 -16.5q-27 -15 -46 -8l-12 -5q-8 2 -16 -2t-14.5 -6t-11.5 -2t-11 -2.5t-14.5 -8t-19 -10t-14.5 -5t-15.5 -6t-17.5 4.5t-0.5 19t13.5 10q4 7 11 11q10 2 11 4t7 3.5t7 3t4 3t8 1.5q13 0 5.5 13t-6.5 14.5t-1.5 7.5t-2 12t-1 14t-3.5 15.5t0.5 15t-1.5 10t-4 5.5l-3 20
l2 14q1 10 -1 20.5t-3 18.5t0 13q3 15 -5 23q-5 -6 -8 -15.5t-10 -15.5q-8 -20 -13.5 -28.5t-8.5 -22.5q-10 -5 -12 -12t-9 -14q0 -6 -7 -16.5t-13.5 -21.5t-16.5 -20t-15 -18q-6 -7 -5.5 -8t-5.5 -7l-21 -15q-14 3 -23 -1l-16.5 -7.5t-10 -0.5t-7 3.5t-8 -1t-7.5 0t-7 5
t-7.5 6.5t-8.5 4.5t-8 3.5q-2 4 -4 7t-4 8q-5 6 -5 9t-7 17q0 8 -4.5 15t-3.5 10t-7.5 25t-8.5 31v14q-2 11 -1 23.5t-0.5 24.5t2 38.5t5.5 34.5l3 18q0 6 -1.5 12t1 13.5t1.5 10.5t0 6.5t2.5 8t2.5 9t0 8.5t-1 14t2.5 22t0.5 27q2 3 -0.5 6t-2.5 8q-3 7 -8.5 6t-12.5 -1
q-2 5 -7 9t-7 7t2.5 9.5t2.5 10.5q22 12 58 6q5 1 11 -2t11 -0.5t13 0t13 -2.5t9 -3t9 -4q5 -13 6.5 -18.5t6.5 -7.5q-3 -4 -1 -5t2 -6l2 -14l-1 -32q2 -21 1 -30l-2 -16q0 -7 2 -10q4 -7 -3 -18q5 -9 2.5 -18t-3.5 -19l1 -21l-4 -34l2 -16q-2 -10 -5 -17.5t-2 -13.5t0 -14
l-2 -18z" />
    <glyph glyph-name="v" unicode="v" horiz-adv-x="472" 
d="M442 499l-17 -22q0 -19 -7 -27t-10.5 -13.5t-5.5 -10t-6 -7.5q-3 -39 -27 -53q1 -14 -5 -25q-1 -7 -3 -13.5l-4 -13.5t-4.5 -13l-4.5 -11l-8 -11q-5 -8 -6 -15.5t-8 -14.5q1 -5 -1 -10t-4 -11.5t-7 -11.5l-6 -16q-2 -3 -2 -8.5t-2 -11t-5 -10t-2.5 -13t-3.5 -10.5t-3 -7
q0 -9 -8 -20q-8 -14 -6 -18.5t-1.5 -16t-5.5 -22.5q-2 -3 -7.5 -4.5t-9 -7t-11.5 -5.5l-18 -3q-5 1 -7.5 4t-7 6t-7 4t-7 7t-7 17.5t-10.5 16.5q-3 20 -10.5 38.5t-4.5 39.5q-6 10 -9.5 21.5t-7 19.5t-5.5 11t-3.5 7t-1 8.5t-1 10.5t-4.5 11.5t-4 11.5t-3.5 10l-4.5 7t0 10
q-5 6 -6 12.5t-4.5 14t-3 10t-3 9t-4.5 11t-4.5 11.5t-6.5 14t-6 18l-8 22q-4 12 -6.5 10t-4.5 1.5t-2 8t-2 8.5t-8.5 23t-16.5 31q-7 -2 -16 1t-13.5 8.5t-9.5 8.5q-1 6 4 12.5t7 9.5q5 4 10.5 2.5t13.5 -0.5t24.5 5t27 3t17 0.5t10.5 4.5q15 11 40 -1q7 -16 -2.5 -24.5
t-21.5 -10.5q2 -9 6.5 -14.5t5.5 -14.5q8 -11 21 -40q8 -12 9 -17q2 -11 8 -18t8.5 -17t5.5 -15.5t2.5 -7t1 -5t6.5 -11.5t4 -18q11 -15 15 -37.5t14 -38.5q0 -15 8 -31q6 -5 5 -8t0 -5q6 -13 16 -8.5t10 23.5q5 5 7.5 11.5t6 12t5.5 10.5t8 14t8 23q5 4 8 11t2.5 10.5
t1 7.5t4 7.5t4.5 9t4.5 10t5.5 12t8 16.5t6 12t6 13t9.5 21t3.5 20.5t4 17.5q-4 10 0 15q-5 9 -9 9q-7 9 -10.5 10t-11.5 3q-14 16 -5 35q19 6 28.5 3t20.5 -3l12 1q11 1 21.5 0t22.5 0t14 -0.5t4 -0.5l19 3q8 0 19.5 -2t16.5 -2.5t9 -4.5q3 -8 -2 -20.5t-9 -16.5
q-14 1 -21.5 1t-18.5 -3.5t-11.5 -2.5t-4.5 -0.5t-6.5 -4.5t-6.5 -3z" />
    <glyph glyph-name="w" unicode="w" horiz-adv-x="709" 
d="M247 110l-2 -14q0 -11 0.5 -18t-7.5 -12q-1 -5 -3 -7t-4 -5q-10 0 -17.5 -3t-15.5 -5q-3 2 -5.5 3.5t-4.5 4t-3.5 6t-6.5 9t-10 9.5t-7.5 15.5t-4.5 24l-4 24.5l-6 18q0 9 -1 10.5t-4.5 14.5l-6.5 24.5t-4.5 13.5t-2.5 6.5t-1 12t-2 15.5q-7 14 -7.5 20t-2.5 13l-4.5 15
l-4.5 15t-2.5 12.5t-4.5 10.5q1 10 -2 18t-5.5 16t-4 15.5t-5.5 18.5t-6.5 33.5t-7.5 39.5q-2 3 -5 5t-6 7q-20 20 -34 13.5t-21.5 5.5t-2.5 26q4 5 13.5 7.5t17.5 -1.5q11 7 12.5 4.5t5.5 -1t6.5 3t6.5 2.5q51 0 66 12l35 6t36 -1q2 6 7 3t7 -7q0 -22 -13 -27.5t-24 -9.5
t-19 -10q-5 -14 1 -28q14 -31 14.5 -41.5t5 -20.5t1.5 -15q11 -11 16 -37t9 -34v-13q14 -36 13.5 -41t1 -10t3 -8.5t1.5 -7.5q4 -2 4.5 -4t4.5 -2q6 1 11 13t10 12l10 34q-2 5 2 6.5t6.5 9.5t5.5 11q4 16 7.5 21.5t1.5 16.5q2 6 4.5 10.5t1.5 13.5q6 2 8 9t9 9q-2 10 1 16
t5 17t11.5 24t10.5 21t3.5 11.5t0.5 8.5q8 5 13 12.5t13 12.5q7 -2 13 -4l12 -4q3 -9 9 -16q12 -14 12 -23q0 -4 4 -13q7 -15 14 -44q12 -29 12.5 -38t2 -15t3 -9t4 -11.5l6 -21t7 -21.5t6.5 -15.5t3 -12t2 -10.5t4.5 -12.5l4.5 -13t2.5 -12t7.5 -10.5q3 2 6 1.5t5 0.5
q8 8 15 11t5.5 9.5t0.5 9.5q2 7 9 10q-2 9 6.5 16.5t7.5 22.5t7 20q0 5 -2.5 6.5t-1.5 6.5q5 5 8.5 12t8.5 12l2 15q5 2 5 6l7 27q0 7 2 14q5 9 5 10t2.5 5t0.5 5t1 9q4 8 3.5 13.5t-4 4t-4.5 4.5q-3 2 -7 1t-7.5 -1.5t-6.5 4.5t-10.5 6.5t-19.5 9.5q-6 8 -7 7.5t-2 1.5
q-2 7 2 18q6 3 13.5 3.5t12.5 4.5q8 -2 17 -2q12 -6 45 -6l11 2q7 0 14.5 -1.5t19.5 -2.5t29 -0.5t34 -1.5q1 -6 6.5 -11t3.5 -8q0 -12 -6.5 -17.5t-13.5 -10.5q-4 5 -9.5 -1t-10.5 -5t-8.5 2.5t-9.5 1.5t-7 -2t-7 0q-5 -5 -9 -8t-6.5 -9t-5.5 -5t-3 -4q-6 -14 -14 -19
q0 -15 -2 -18q0 -7 -3.5 -10t-5.5 -7q0 -7 -2.5 -10.5t-1 -10t-2.5 -7t-4 -6.5t-3.5 -10t-2.5 -12q-3 -6 -9 -15v-13q-4 -5 -5.5 -11.5t-5.5 -13t-3 -9t-2.5 -7t-4.5 -9.5t-5 -8v-11q-8 -10 -14 -20q2 -9 -1.5 -19t-1.5 -18q-4 -5 -3.5 -7.5t-2 -6.5t-4.5 -5.5t-3 -7.5
t-1 -9t-1.5 -12t-8.5 -14.5t-6 -18.5q5 -40 -9 -54q0 -15 -6 -17q3 -9 -5 -25q-4 -1 -10 -4.5t-12.5 -3.5t-12.5 4t-9.5 4.5t-3.5 5.5q-7 -1 -10 9.5t-7 11.5q1 5 -5 16t-8 15.5t-2 9.5t-5 7q0 10 -3.5 20t-6 20.5t-4.5 16t-4.5 15t-4.5 24t-5 25.5t-5 19.5t-4.5 14.5t-5 10
t-4 8.5t-1 9t-0.5 8t-3 6.5t-3.5 9.5t-3 18t-3 19t-3 10.5t-3 9.5t-0.5 14.5t-9 12q-9 -6 -9 -18.5t-4.5 -21t-6 -8.5t-3 -11t-13.5 -19q-5 -17 -14 -36t-8.5 -22t-2.5 -8t-3 -11t-6.5 -17.5t-5 -20t0 -13.5t-5 -10t-5 -12.5t-3 -16t-4 -14t-0.5 -8.5t3 -7z" />
    <glyph glyph-name="x" unicode="x" horiz-adv-x="503" 
d="M233 552l3 -11q1 -7 -4 -14t-7 -12q-9 3 -13.5 0t-12.5 -2q-5 -1 -4.5 -5.5t-2.5 -6.5q-10 1 -10 2l-2 -5l-3 -11q2 -4 1.5 -13.5t2 -13.5t10 -17.5t12.5 -25.5t9.5 -20.5l6.5 -12.5t3.5 -8t3.5 -8.5t3.5 -11.5t4 -13t6 -11t5.5 -9t1.5 -8t3 -10.5t5 -13.5t9.5 -11
q7 1 6.5 9t6.5 10q5 18 15.5 33t15.5 25.5t8 15t3 10.5q8 4 9.5 12.5t9.5 11.5q0 5 3.5 8t6 6.5t4 8.5t6.5 5q2 9 6.5 15.5t8.5 13.5q0 4 5 6.5t3 7.5q10 5 7 16q8 4 9 8l3 12q1 5 -4.5 7t-9.5 3t-6 5q-4 -1 -11.5 3t-12.5 6q-2 7 5 16.5t12 13.5h10q13 0 20.5 -6t11.5 -7.5
t7.5 -1t7.5 -0.5t6 -2.5t19.5 -7.5t42.5 -2l6.5 -17.5t-5.5 -17.5q-14 -6 -23.5 -2t-20.5 2.5t-13 -1t-8 -9.5t-10 -13.5t-8 -12t-8 -12.5q0 -7 -1 -11q-5 -4 -5 -5.5t-4.5 -7.5t-8.5 -13t-7 -11t-8 -12.5t-6.5 -9t-3 -2t-2.5 -6t-5 -6.5q0 -8 -3.5 -11.5t-4.5 -10.5
q-5 -2 -6.5 -6.5t-5.5 -6.5q2 -5 -1 -7.5t-4 -5t0 -6t-1.5 -7.5t-2.5 -5t-1 -3t-0.5 -5.5t-1 -6t-4.5 -4t0 -6.5l-11 -10q1 -3 -4.5 -5.5t-5.5 -5.5q-8 -5 -7 -7t0.5 -4t-3.5 -6.5t-4.5 -10t5 -16t8.5 -16.5t5.5 -14t5.5 -13t3.5 -7.5t3.5 -7.5q6 -26 19 -33q3 -10 9 -21
t10 -20t8 -15.5t4 -9.5t14 -22q0 -6 4 -8.5t9.5 -9.5t4.5 -8.5t2.5 -6.5t6 -7t7.5 -8q7 -5 7 -7q-1 -5 13 -12q5 -5 7.5 -4.5t13 -0.5t20.5 3q8 1 13 6q-2 12 1.5 12.5t4.5 8.5q-1 16 -6 20.5t-7.5 11t-14.5 7.5t-17 -4q-9 -9 -28 -2q-4 8 -2 16.5t1 18.5q3 3 9.5 6.5t9 6
t7 4t11 0.5t14.5 -2q2 -3 8 -1.5t7 -2.5q7 0 16.5 -9t14.5 -13t10 -10t4.5 -9t1.5 -6q2 -15 0.5 -30.5t2.5 -23.5q-9 -21 -16 -28q2 -4 -0.5 -6.5t-4.5 -5.5q-33 -33 -61 -22q-6 2 -14 0q-18 -10 -37 3q-10 0 -10 1t-4.5 2.5t-11.5 6.5l-9 6q2 0 -1 2q-5 8 -7 8
q-4 -2 -10 13q-2 2 -6.5 3t-6.5 3q-10 13 -20 21.5t-10 12t-2 6.5q-13 11 -20 16q-6 24 -12 37q-10 10 -13.5 21.5t-7 15t-6.5 12.5t-11 12q0 6 -3 11.5t-4 9.5t-5 5q-1 -6 -18.5 -33t-18.5 -34q-12 -7 -14 -19t-12 -20q0 -3 -3 -17q-2 -16 -12.5 -29t-9.5 -17q4 -2 7.5 1
t8.5 5q11 -2 16 -1.5t10 -4.5q2 -5 7 -13t3 -13q-11 -11 -24 -4q-12 -5 -14 -9q-21 6 -35 -2q-3 0 -4.5 3t-6.5 3q-7 -5 -17.5 -2t-18.5 -0.5t-11 -6t-8 -2.5l-31 3q-2 8 -6 14.5t0 15.5q5 6 13 5t16 4q13 -5 21.5 -1t17.5 9q3 7 10.5 16t10 13.5t5.5 9t5 12.5t7 13.5
t9 12.5t8.5 13t9.5 14q5 4 6.5 11.5t5.5 8.5q-1 8 1 7t0 7q2 4 4.5 6.5t4 7t6.5 9.5q19 19 26 36q-3 30 -16 46q-2 21 -15.5 43.5t-17.5 35.5q-9 10 -14 24.5t-16 22.5q-11 44 -28 66q0 6 -9 18l-12 17q-5 6 -6 14q-27 2 -45 1.5t-36 7.5q0 12 3 23q6 2 14 3t13 5
q28 -3 48 5q11 7 14 6t11 2.5t10.5 3t8.5 2.5t9 8t7 8q12 0 30 3.5t34 -0.5q5 0 6 4t7.5 5.5t16 4.5t17.5 0z" />
    <glyph glyph-name="y" unicode="y" horiz-adv-x="478" 
d="M57 -311l-17 -6q-4 0 -12 -4t-16 -3q-24 1 -26 15q-17 4 -26 14q-5 3 -7 8t-7 8t-7 7.5t-8 6.5q1 11 -6.5 20.5t-10 31t5 35.5t9 22.5t8 11t4.5 14.5q11 8 20 15.5t31.5 13.5t29.5 0t16 -6t14 -2q6 -7 13.5 -11.5t9.5 -6.5q3 -5 4 -11t3 -12t4.5 -11t2.5 -10q-2 -3 -5 -5
t-6 -4.5t-4.5 -5.5t-8 -4t-9.5 2t-11 3q-14 17 -23 42q-21 2 -28 -7t-10.5 -15t-10.5 -12q-2 -20 -9 -35q1 -8 5 -13t4.5 -12.5t5.5 -7t8 -3.5t2.5 -8t1.5 -9q15 3 19.5 0t7 -5.5t8.5 -4.5q8 0 14 2.5t16 4.5t15.5 -1t15 3t9.5 9q10 3 13.5 7.5t7 7.5t5.5 4t7 6t9 5
q11 15 13 17t2.5 3.5t0 3.5t1.5 7.5t5.5 10l8.5 11.5t12 13q2 10 5 17q4 5 8 7.5t6.5 10t3.5 12.5q3 14 8 22t12.5 30t12 30t4.5 15.5t-6 14.5q-22 23 -18 40q-6 8 -9 19t-11 18q1 7 -3 12t-8 15.5t-8 16t-5.5 12t-4 9t-4.5 5.5q1 6 -2 15q-5 6 -7.5 14.5t-6.5 18.5
q-8 7 -8 9q2 8 -10 16q-7 29 -16 42q1 10 -5 15t-4 16q-4 2 -9 11.5l-6 11.5q-5 6 -17 27q-5 5 -5.5 9t-9 11t-9.5 15q-12 2 -23.5 -2.5t-17 -4t-12.5 7.5q-1 7 0.5 11.5t2.5 9.5q21 11 28 12q12 0 44 11q12 -3 28 3.5t24 7t18.5 -1.5t20 2.5t16.5 4.5t14 -2q14 -18 2 -26.5
t-20.5 -8t-12.5 -3.5q-2 -5 1 -9.5t-3 -5.5q15 -24 18.5 -39t8.5 -18t8 -9q-3 -11 5.5 -19t10.5 -15t1.5 -13t0.5 -11q7 -16 11 -26t10 -18t5.5 -9t-0.5 -3q6 -5 7.5 -9t4.5 -9.5t6.5 -13t6 -14.5t8.5 -14q-2 -10 2 -15l8 -10q5 -1 6.5 2.5t5 10t5.5 20t9 21.5q-2 11 3 16.5
t4 16.5q5 2 6 5.5t4 5.5q-2 8 3 14t7 16.5t4 15.5l3.5 8.5l3.5 8t2.5 8.5t4.5 10t4.5 11.5t4 13t3 9t-0.5 2.5q6 7 7.5 13t7.5 10q2 5 2.5 11.5t2.5 11.5q11 15 11 16.5t5.5 11t12 19.5t11.5 21q5 1 9 5t11.5 10.5t17.5 1.5q9 -9 8 -11.5t-1 -5.5q5 -7 -4.5 -30.5
t-9.5 -27.5v-7q0 -16 -17 -33q-4 -14 -5 -24q-4 -22 -11 -32q-2 -8 -3.5 -9t-2 -3.5t0 -6.5t-3 -9t-4 -9.5t-2.5 -8.5t-2.5 -7.5t-2.5 -7.5q-5 -5 -6 -10.5t-4 -15t-5.5 -14t-1.5 -10.5q-15 -17 -15 -31t-2.5 -19l-5 -10.5t-4.5 -14.5t-6.5 -19t-4 -15.5t-0.5 -11.5
q-7 -12 -6.5 -15.5t-1 -8t-2.5 -10.5q0 -10 -7 -18.5t-10.5 -19t-6.5 -15.5q-12 -26 -14 -46q-4 -2 -5 -6t-6 -6q0 -8 -3.5 -13l-6.5 -9.5t-4 -8t-3 -6t-4 -4.5t-3.5 -5.5t-0.5 -8.5q1 -10 -22 -33q3 -4 -2 -11q-5 -19 -22 -26q-2 -14 -11 -21t-14 -19q-6 -4 -7.5 -9.5
t-6.5 -11.5q-5 0 -8.5 -2.5t-9.5 -1.5q-2 -7 -7 -9.5t-9 -7.5q-9 2 -14 -0.5t-13 -2.5q-7 -2 -15.5 -9.5t-21.5 -8.5z" />
    <glyph glyph-name="z" unicode="z" horiz-adv-x="400" 
d="M376 -35q-2 -3 -2 -7t-6 -28l3 -12q0 -5 -2.5 -11t-0.5 -13q-11 -2 -17.5 -9t-14.5 -7t-9 2t-4 4t-6 6.5t-5 6.5q-1 11 0 24t-8 21q-11 2 -25 4q-9 -5 -16 -5l-41 6q-5 -2 -8 1.5t-6 5.5l-12 -4q-10 3 -22 1t-20 5q-5 0 -6 -2.5t-6 -2.5q-4 2 -25 2l-28 -1q-20 -4 -29 -2
t-17 4q-2 5 -2.5 9t-1 7.5t0 9t2 11.5t2.5 11.5t6 14.5t7.5 17.5t5 15t6 10t5.5 9t3 10.5t4 10.5t8.5 12.5t10 16t6 10.5t3.5 6.5t4.5 13.5t6.5 16.5q10 10 13.5 24t1 15t-5.5 3l-19 -7q-9 0 -19 7.5t-8.5 19.5t6.5 14t9 10h16l11 -4q7 -2 15 -2t17 -1q7 6 10.5 11t8.5 11
l6 12q6 9 24 44q14 23 19.5 42t11 24t4.5 11q8 5 10.5 13t6.5 14.5t5 8t1 11.5q-2 6 -4.5 7.5t-6.5 4.5q-8 0 -15.5 -1.5t-13 -0.5t-10 1.5t-8 -0.5t-13 0.5t-13.5 -1t-9 -4.5q-16 2 -27.5 2t-20 -3t-15.5 -1q-6 -4 -10.5 -12t-14.5 -6q-2 -7 -5 -8t2 -16.5t1 -26.5
q-6 -6 -7 -7.5t-3.5 -3t-9 -1t-13.5 -1.5l-14 12q0 30 -12 94q-10 41 4 61q8 -2 13.5 -0.5t13.5 -0.5q2 -5 4.5 -9.5t4.5 -8.5t0.5 -7t0.5 -6q10 -9 11 -11q19 -4 37 -0.5t36 3.5l25 1l19 4q8 1 16.5 -0.5t14 -0.5t8 3.5t13.5 1.5t19.5 0.5t15 2.5t17 1t16 2t10.5 3.5t9 1.5
t10 0.5t10.5 -2t11.5 -3.5q23 -34 0 -72q-2 -5 -4.5 -9.5l-8 -14.5t-6 -15t-2.5 -9.5t-6.5 -8.5t-6 -7.5t-1 -6.5t0.5 -7q-5 -4 -5 -9t-2 -9t-4 -6t-4.5 -7.5t-4 -6t-2 -2.5t-0.5 -5.5t-8 -18.5l-20 -41q7 -15 18 -17q13 5 24 -7q2 -10 0 -29q-2 -3 -5 -2.5t-11.5 -3
t-14.5 -0.5t-12 2t-11 -5t-10 -5l-20 -18q-2 -2 -2 -5q-3 -15 -17 -29l-6 -12q-4 -8 -9 -13q-2 -5 -5 -9.5t-4 -7t-3 -6.5t-2.5 -9t-3.5 -12t-8 -13.5t-5 -9t-2.5 -7t-3.5 -7t-6 -9.5t-1.5 -9.5t7.5 -6.5q11 -6 12.5 -7t9.5 -1l15 2q15 -2 22.5 -1.5t12.5 -4.5l17 2
q11 -4 19.5 -0.5t19.5 2.5t23 -0.5t14 13.5q1 5 5.5 9.5t6.5 12t7 11.5q0 6 10.5 9t15.5 -9.5t5 -23.5l-4 -10v-44z" />
    <glyph glyph-name="braceleft" unicode="{" horiz-adv-x="305" 
d="M79 164l2 11l-2 19l3 19q0 5 -1.5 10t-2.5 11t0.5 11t-1.5 16.5t-1.5 18t0 12t-5.5 9.5t-2 9l-30 4q-7 0 -16 -3t-17 1l-4.5 26t5.5 27q32 -7 45 -1q5 -2 12.5 -5.5t21.5 7.5q19 14 19 24q0 4 4 13t7.5 18.5t2.5 11t-1 4.5l1 21q1 7 2.5 14t2.5 19.5t-1 28t-0.5 28
t2.5 16.5t1.5 11t-1.5 14.5t-2 13t2.5 18.5t3 27.5t2.5 23.5t3.5 12t2.5 7q-2 18 14 47q8 10 8 13t1 5q11 11 13.5 15.5t7 8.5t6 8.5t5 9.5t7 4.5t1.5 4.5q6 1 12 3.5t15 5.5t13 2t7 -1q21 7 25.5 6.5t15.5 -6.5q7 1 10 -1.5t8 -4.5q2 -6 4.5 -10.5t0.5 -15.5q-5 -3 -27 -3
t-27 11q-8 -3 -21 -13q1 -11 -4 -14.5t-4 -14.5q-11 -11 -10.5 -29.5t-1 -32t-3 -20t0.5 -13.5t1.5 -19t-0.5 -22l2 -43l-1 -17l1 -25l-2 -11q0 -3 1.5 -6.5t0.5 -17t-8 -36t-11 -45.5q-8 -6 -13 -22q-8 -11 -8.5 -14.5t-1.5 -6.5q-6 -2 -9.5 -7.5t-8 -8.5t-9 -3.5
t-5.5 -6.5q-9 3 -11.5 -2t-8.5 -6q2 -8 3.5 -16t5.5 -15t3 -11t4 -4q0 -8 2.5 -15.5t4.5 -15t4 -19.5t4 -21.5t4 -17t3 -14.5t0 -14t0 -15l3 -24q1 -7 0.5 -14t-0.5 -15l2 -23l-3 -12l3 -15q-3 -15 -3 -17v-12q1 -2 1 -5v-6q4 -15 3.5 -18.5t2.5 -14t5.5 -16t9.5 -8.5
q0 -7 3 -10.5t5 -8.5q6 1 10.5 -2.5t10 -3.5t9.5 4t10 4.5t11 -5.5t6 -13q5 -19 -13 -19q-2 -3 -11 -9q-22 5 -33 2q-13 8 -21 8q-5 2 -7.5 6.5t-12.5 2.5l-9 20q-8 0 -14 4q-8 13 -22 29q-7 10 -7 11t-4 7.5t-12.5 30t-3.5 28.5q1 1 1 3l-2 12q-1 5 -1 8v7l2 32t0.5 23.5
t-0.5 10.5t-2 6l2 11v6z" />
    <glyph glyph-name="bar" unicode="|" horiz-adv-x="220" 
d="M145 187q-1 -5 -6 -15q10 -56 6 -113q-6 -5 -9 -15q-36 -10 -44 -1t-8 28.5t-0.5 30.5t0.5 14.5t-0.5 10.5t-1.5 18t-0.5 20.5t-1.5 16t3 15.5q-4 12 -3 14.5t0 9t0 9.5t1 6q0 1 -4 13l2 13l-4 11l4 55l-4 11v17l2 39q-1 18 -3.5 34.5t1.5 39.5l3 13q1 8 -0.5 18t0 25.5
t-3.5 22.5q3 14 4.5 29.5l4 41.5t13.5 40q26 2 33 -8.5t7 -16.5t3 -23.5t1 -24.5t-2 -15l2 -19q-4 -16 -4 -16.5t4 -20.5l-2 -11q0 -5 1.5 -10t-3.5 -10l4 -15q-3 -8 -4.5 -22.5t2.5 -21.5q-4 -14 -0.5 -28t2.5 -22.5t-1 -15.5t2 -17l-2 -14q10 -35 3 -53q-2 -5 -1 -13
l2 -17q0 -15 -1 -29.5t3 -28.5z" />
    <glyph glyph-name="braceright" unicode="}" horiz-adv-x="331" 
d="M207 469l-1 -25v-14q-3 -36 5 -47l6 -9q2 -3 4 -7q4 -5 15 -12t17 -8q18 6 24 7.5t11 9.5q3 0 5.5 -2t7 -4.5t10.5 -5.5t10 -13.5t-10 -15.5q-1 -9 -9 -14q-8 2 -17.5 1t-13 0.5t-6.5 0.5t-5.5 -4t-7.5 -1q-12 -29 -7 -96l1 -15l-3 -19q-1 -5 0 -11t1.5 -13.5t0.5 -15.5
t2 -18l2 -23l-2 -30q-1 -13 -2 -23t0 -20q-5 -5 -5 -10.5t-5.5 -15.5t-6.5 -14.5t-3 -7.5t-6 -6.5t-2 -9.5q-24 -10 -34 -18q-6 -2 -9 -6t-8 -6h-14l-18 -8t-16 -10q-4 2 -7.5 1t-7.5 -1l-16 2q-7 0 -12.5 -2t-12.5 3q-4 7 1 26q6 6 10 2t9.5 -4t10 2t13 4t18 9.5t12.5 11
l5.5 6.5t6.5 5q-1 8 2 13t5 10q-2 19 0 38.5t3.5 45.5t-1.5 57.5t2.5 46.5t3.5 16t1 10t5 24t7 31q6 8 6 19q5 5 7.5 11t9.5 14t4 17q-1 7 -15 7q0 5 -8 7.5t-8 9.5q-15 3 -17 3.5t-2 5.5t-2 7q-5 2 -5.5 5t-2.5 5.5t-8 11.5q-2 8 -3.5 9t-2 3.5t0.5 5.5t-2.5 17t-2.5 27.5
t-0.5 25.5t-2.5 17t-1.5 13.5t1.5 21.5t2.5 24.5t-1 21.5t-0.5 16t2 8.5t2.5 10t-1 20t-2.5 23.5l2 19q-2 11 -1 12.5t1 4.5l-3 11q-1 5 -1 9q3 19 -20 51q-10 12 -18.5 7.5t-16.5 -2.5q-5 -2 -10.5 -4.5t-16.5 -0.5q-10 4 -12.5 2.5t-5.5 -0.5t-6.5 2.5t-8 3t-8.5 -2
t-8 0.5q-2 8 3.5 11.5t9 8.5t6 10t7.5 9q4 1 7.5 0.5t7 1t6 3.5t12.5 4t37 -1.5t33 -3.5t9 -1t6 -3q7 -5 13 -5q9 0 19 -20l20 -29q2 -6 4 -11t4 -12q6 -11 7 -16.5t4.5 -14.5t5 -21.5t0.5 -19.5q0 -10 5 -26l-2 -14l5 -39l-8 -51q0 -6 0.5 -12.5t-0.5 -14t-3 -15.5t-2 -16z
" />
    <glyph glyph-name="asciitilde" unicode="~" horiz-adv-x="569" 
d="M301 238l-11 2q-21 0 -25.5 6.5t-10.5 5.5q-10 6 -14 7.5t-9 7.5t-7 6t-8 5t-10 12q-5 -1 -7 0.5t-6 2.5q-4 5 -7.5 7t-7.5 6q-5 2 -7 -1t-11.5 -4t-16 -4t-20.5 -5q-6 -5 -10.5 -13.5t-12.5 -12.5q-5 -12 -14 -21q0 -12 -13 -17.5t-24 1.5q-2 9 0 20q6 12 8 18l4 12
q2 4 3.5 7.5t6.5 9t4.5 7.5t2.5 7t12 11.5t14 16.5q10 2 16.5 6.5t16 6t16.5 1t11.5 2.5t10.5 1.5t13 -2t8 -2t7 -0.5t7 0t6 -1h10q7 0 11 -1.5t7.5 -2.5t7 -3t10.5 -4.5t20.5 -9t21 -8t13.5 -9.5q2 -1 6 -1t5 -2q5 -1 9 -7q18 -6 26 -10t17.5 -4.5t26 3t21.5 9.5l12 11
q4 2 8 3q15 6 25.5 20t16.5 18q16 5 27 -2q16 -32 -27 -64q-4 -4 -6 -11q-11 -4 -12 -5.5t-4 -2.5t-8 -2.5t-10 -6.5q-13 -2 -35 -16q-10 0 -15 -3.5t-12 -6.5q-9 0 -10 5q-3 -1 -7.5 -4.5t-17.5 -1t-14.5 1.5t-3.5 -1l-20 5z" />
    <glyph glyph-name="uni00A0" unicode="&#xa0;" horiz-adv-x="225" 
 />
    <glyph glyph-name="exclamdown" unicode="&#xa1;" horiz-adv-x="215" 
d="M81 618q26 -5 36 -13q26 8 45 -9q1 -8 1 -16t2 -15q-7 -15 -12.5 -17.5t-10.5 -2.5q-8 -19 -40.5 -21t-44.5 15q-1 12 -2 20.5t2.5 19t13 17t10.5 22.5zM148 39l-7 -32l-37 -15q-28 13 -42 36q-2 21 -0.5 43t0.5 37t-2 22t-1 15l3 31q1 4 0 8t0 9l3 12l-2 14l5 42l-1 41
q0 6 1 12q3 19 2 31.5t6 36.5q2 13 3 22t9 17q21 13 39 -7q8 -9 12 -19q0 -12 1.5 -13t1.5 -3l-1 -23q0 -4 1.5 -6.5t2.5 -6.5t0.5 -8.5t0.5 -13.5l2.5 -23t3 -26t2.5 -19l2 -14l-3 -43l2 -16l-1 -30l4 -27l-3 -14q-2 -14 -3 -30.5t-2.5 -26.5t-1.5 -13z" />
    <glyph glyph-name="cent" unicode="&#xa2;" horiz-adv-x="447" 
d="M259 245l4 -36q-1 -18 2 -29.5t3.5 -16.5t2.5 -10t-4 -24q-20 -10 -45 -8q-3 2 -4.5 6t-3.5 6q-4 0 -5.5 3t-3.5 5q0 14 0.5 28t-4 31.5t-3.5 26.5t-1 20q-25 7 -39 2q-2 5 -7 6t-9 4.5t-15.5 11.5t-16.5 20q-7 4 -13 7t-9 10q-11 5 -19 14q-2 9 -6 15t-8 13v11
q-5 12 -7 27t-10 24q1 7 1 17v28t7 26q3 36 10.5 43.5t6.5 16.5q5 2 6.5 6l3.5 9q10 9 19 19q5 4 10 7.5t8 9.5q13 3 17 12q7 0 10.5 3.5t8.5 6.5q11 1 19 1.5t14.5 4t6 5.5t5.5 3t9.5 0t8 0.5t8.5 2.5t8 3q-5 11 -1 26.5t-1 30.5l-4 25q0 15 17 22q8 3 16.5 3t14.5 -4
q0 -5 5.5 -10t2 -11.5t-2.5 -11.5l4 -11q0 -2 -0.5 -5.5t0.5 -7t3.5 -7t3 -10t-1.5 -14t0 -13t8 -8.5q16 -10 27 -14.5t12.5 -9t6.5 -10.5t8.5 -6t7.5 -2q2 -7 6 -11t6 -12t10 -9q0 -5 4 -27q-5 -2 -9.5 -5t-10 -2.5t-11.5 7t-11 6.5q0 10 -8 16.5t-8 12.5q-33 15 -39 19.5
t-13.5 4.5t-15.5 4q-10 -5 -27 -2q-42 8 -49 -26q-8 -4 -13.5 -11.5l-11.5 -15.5q2 -10 -1 -18.5t-4.5 -14.5t-1 -9.5t0.5 -7.5l-6 -31l-2 -23q4 -12 3 -14.5t-0.5 -5t1.5 -5t3.5 -22.5t8 -33t5.5 -15t2.5 -6t7.5 -8.5t10 -9.5t10 -9t10 -9q5 -1 10.5 -0.5t14.5 -2.5
t14.5 -1t11 2.5t10.5 -2t13.5 -2t16.5 6.5t19 9q5 3 9 12q16 5 24.5 15.5t22.5 16.5q3 5 5 10.5t7 7.5q-1 12 4 16q11 5 29 2q3 -5 4.5 -11.5t4.5 -15.5t-5 -18.5t-20 -14.5q-9 -17 -26.5 -24t-27 -14t-13.5 -13.5t-10 -10.5t-11 -5.5t-11 -3.5t-10 -3.5t-8.5 -3t-8.5 -0.5
t-7 -3z" />
    <glyph glyph-name="sterling" unicode="&#xa3;" horiz-adv-x="546" 
d="M460 555q-4 -18 -2 -29q-7 -13 -12 -26.5t-15 -20.5q-11 4 -22.5 2t-17.5 3q-8 1 -6.5 8.5t-3.5 11.5q1 5 -2.5 10.5t1.5 9.5q-2 6 2.5 6t6.5 2q11 15 14 24q-1 4 0.5 9.5l3 11.5t1.5 11.5t-4.5 10t-7 11t-13.5 10.5q-5 5 -11 9.5t-10 9.5q-8 -1 -18.5 2.5t-13.5 3.5
l-18 6q-9 0 -13.5 -3.5t-9.5 -4.5q-3 -5 -7.5 -8.5t-5.5 -8.5t-7 -11q-9 -26 -7 -32t-3 -12.5t-3 -13.5q2 -10 -1 -29.5t-2 -28t7.5 -20t8.5 -20t5.5 -26.5t9.5 -26q7 -3 17.5 -2t17 -0.5t10.5 -1t10 0t12 -2t12.5 0t10 3.5t8.5 2.5t9.5 -2t9.5 3.5q4 -5 11.5 -4t12.5 -3
q5 -12 6 -25q-5 -5 -11 -13.5t-14 -9.5t-14.5 -3.5t-19.5 -0.5q-12 -2 -13 0.5t-4.5 1.5t-9.5 -1q-10 -5 -11.5 -3.5t-10.5 -2.5t-15.5 -4.5t-11.5 -1.5q-10 -2 -5 -20q1 -13 1 -21l1 -20q-1 -6 -3 -10t-3.5 -14.5t-0.5 -25.5q2 -36 -20 -58q2 -12 -2.5 -19t-9.5 -16
t-3.5 -11t-1.5 -5.5t-4.5 -6.5t-6 -8.5t-3.5 -7.5q0 -7 9 -8q11 -1 30 -11q5 -1 11 -0.5t11 -1.5q4 1 14.5 -4.5t15.5 -4.5q9 3 30.5 -2.5t38.5 0t23.5 14t15.5 10.5q17 15 24 31t11 45q5 2 15 2t16 2q12 -19 12.5 -29.5t-0.5 -25t1 -25.5q-5 -5 -7 -12q-10 -24 -32 -32.5
t-30.5 -16t-12 -7t-8 -2t-8 -7t-11.5 -4.5t-15 6q-4 -1 -7.5 -1t-8.5 -1l-21 -2q-3 0 -8.5 3t-13.5 1q-28 10 -48 12t-29 7t-16 2.5t-12 -2t-12.5 5.5t-15 6.5t-11.5 1t-10 0t-5.5 -0.5t-7 -4t-13 -5t-9.5 -5.5l-8.5 -7.5t-9.5 -5l-21 4l-10 -4t-9 -2t-7 2t-8 4l-12 -4
q-21 9 -25 24.5t7 27.5q2 3 8 5.5t8 10.5q3 3 7.5 2.5t11.5 2.5q19 19 26.5 14.5t12.5 -5.5l16 3q21 -4 30 2q13 12 14 25t4.5 30.5t3.5 25.5l-2 14l2 65q0 12 -1.5 25.5t0 17t-2.5 16.5q-5 4 -4 7t-4 5q-15 4 -27.5 1t-21.5 0t-17 -4q-2 2 -6 2t-8.5 0.5t-6.5 -2.5t-7 -2
q-2 -4 -12.5 2.5t-14.5 4.5q-3 14 2 22.5t8 16.5q5 -2 8 1t9 3l21 6q8 0 23.5 5.5t20.5 2.5t12 2q2 3 5 5.5t4 7.5q-3 15 -3 17t-2 9q-9 29 -9 49t6 62q2 6 8 15t4.5 18t0 14.5t5 11t4.5 12.5q13 10 25.5 25t23.5 26q9 5 9.5 7t6.5 4t8 4.5t4 3.5q9 -1 18 2q37 15 57 -1
q6 1 11 3t12.5 0t12.5 -8.5t16 -4.5q3 -8 9 -15q6 -1 12 -2.5t13 -2.5q7 -5 10.5 -11t8 -8.5t2.5 -8.5q13 -6 19 -41q2 -7 3 -9.5t1.5 -13t3.5 -12.5z" />
    <glyph glyph-name="currency" unicode="&#xa4;" horiz-adv-x="479" 
d="M78 174l8 9q1 0 3 4q3 5 8 7q6 6 24 30q-2 4 -2.5 8.5t-4.5 6.5q-1 8 -3.5 14t-4 16.5t-4 14.5t-4 8.5t-1 9t-3.5 6.5q2 15 0 17t-2 5l3 12q0 3 -1.5 5.5t2 15t-0.5 17.5q0 5 3 6q9 3 6.5 21t-2 23.5t-1.5 13.5q-1 8 4 15q-3 5 -7.5 6.5t-11 7.5t-7 8t-2.5 4
q-18 8 -26 18h-9q-4 0 -6 2q-4 14 5 19l18 10q22 -11 23 -13.5t5.5 -3t11 -6.5t14.5 -6q2 -5 12 -12q2 -3 8.5 -6t14 -9.5t19 -0.5t23.5 6l38 5q8 0 15.5 -2t15.5 0q2 -2 6.5 -3t5.5 -5q19 -3 25 -7.5t12 -4.5t12 4.5t8 7.5t7 8.5t10.5 9t7.5 14.5q12 8 15.5 14t6.5 10
q14 9 26.5 15t23.5 -1q7 -20 -15 -34q-6 -5 -9.5 -11.5t-11.5 -14t-10.5 -19t-4 -19.5t-4.5 -13t-3 -16q-4 -2 -4 -7.5t-5 -6.5q0 -5 3 -6.5t5.5 -7.5t4 -17.5t6.5 -19.5q-5 -14 -3 -28.5t-7 -26.5q0 -18 -8 -32t1.5 -21.5t17.5 -14.5l15.5 -13.5l12.5 -11t8.5 -8.5t8.5 -6
q0 -5 3.5 -8.5t5 -10.5t-0.5 -14.5l-4 -15.5q-8 -3 -13 -6t-11.5 -1t-8.5 6.5t-5 9t-7.5 8.5t-3.5 10q-15 12 -21 18q-12 8 -17 14q-10 12 -37 -4l-10 -10q-6 -3 -12 -3.5t-11 -5.5q-10 1 -14.5 1t-9.5 -4q-5 0 -7 2t-7 3q-10 -2 -20 -2l-27 8q-3 0 -13 2.5t-14 -2t-12 -6.5
q-2 -2 -3.5 -4.5t-7.5 -4.5t-9 -5q-5 -34 -30 -38q-8 0 -15.5 2.5t-11.5 3t-6 3.5q2 12 1.5 15t6 11t7.5 8zM271 422q-23 16 -45 23q-5 -1 -10 1t-6 -1h-4q-4 -6 -9.5 -11.5t-7 -16t-3 -13t-2.5 -9.5t-2 -9t-1 -4l-2 -24l1 -13l-3 -13q0 -7 2 -12q6 -8 5 -15t1.5 -10.5
t1.5 -7.5q5 -3 7.5 -8.5t8.5 -17.5q20 -39 50 -30q7 11 18 11q1 4 5 5.5t8 10.5t7 14t2 13q4 0 5 4t3 10.5t4 8t2 2.5q1 3 1 6l4 10q0 3 1.5 10.5t-0.5 30.5q-5 4 -7.5 9.5t-6.5 8.5q0 4 -1.5 5.5t-0.5 6.5q-5 -1 -7 1.5t-4 4.5q-5 11 -6.5 15.5t-8.5 3.5z" />
    <glyph glyph-name="yen" unicode="&#xa5;" horiz-adv-x="545" 
d="M105 322l4 13q3 4 8 3.5t9 0.5t7 2t11 2t21 0.5t22.5 2.5t19.5 3.5t16.5 1t9.5 8.5q-5 11 -13 18t-14 13.5t-8.5 14t-10.5 9.5q-1 11 -6 16t-7 15q-11 9 -18.5 22.5t-18.5 22.5q-2 3 -1.5 7.5t-3 9.5t-11.5 10t-12.5 9.5t-3.5 10t-3 7.5q-5 5 -3 13q-6 4 -7 10.5t-4 14
t-7.5 13t-6.5 13.5q-15 13 -21 37q-4 0 -4.5 3.5t-4.5 5.5q-1 9 -4.5 17t-9 22t-0.5 31q14 8 28 8h16q8 -1 13 -5t10 -5q13 -17 19 -26q4 -11 5 -11t3 -5t5 -9t4 -7t7 -10t10.5 -15t6 -8t2.5 -3.5t3 -5.5q11 -11 19 -43q19 -26 31.5 -56.5t33.5 -53.5q4 -22 25 -33
q8 0 11.5 5t7 9.5t8 9.5t3.5 12q5 0 7 3t5 5l9 15t9 13t7 10t8 13t9.5 17t7 15t6 13t8 16t8.5 19q4 2 5.5 5t5.5 5q5 23 18.5 37.5t21.5 33.5q16 6 19 21q9 2 16 11q2 1 3.5 3t5.5 4q26 6 39 -16q-3 -13 -9 -19q-2 -18 -15 -29q0 -4 -2.5 -6.5t-0.5 -8.5q-5 -1 -6 -5.5
t-5 -7.5t-6 -9.5l-3.5 -11.5t-8 -17t-8.5 -20q-3 -2 -5.5 -6t-6.5 -6q0 -7 -4 -11.5t-7 -9.5q-3 -10 -5.5 -12t-5 -6t-3.5 -8t-3 -9q-8 -10 -8 -16q-11 -11 -16.5 -20.5t-11.5 -16.5t-8.5 -11t-7.5 -6q-1 -8 -6 -11.5t-9 -8.5q0 -22 -15 -34q-5 -4 -7 -8q2 -5 0 -8t3.5 -8.5
t10 -6.5t10.5 1.5t13 2.5l17 -2q10 0 20 2.5t18 -0.5q2 -5 5.5 -8.5t4 -8t-3 -10t-2.5 -8.5q-7 -10 -27 -8t-25 -1.5t-13 -3.5q-4 -3 -5.5 -1t-5.5 -2t-11 -3t-12.5 -10.5t-0.5 -23.5q8 -20 30 -20q2 0 6 1.5t14 3t30.5 0t35.5 -2.5q1 -5 4.5 -11t3.5 -12t-5 -9.5t-10 -7.5
q-44 9 -90 -14q-2 -4 -3.5 -6t-3.5 -6q-11 -6 -10.5 -25t0 -35.5t-2 -18.5t-2.5 -7t-0.5 -13.5t-0.5 -16.5q-5 -12 -4.5 -13t-0.5 -5.5t-1.5 -9.5t-3.5 -7q2 -8 2 -15q-5 -5 -9.5 -12.5t-9.5 -10.5t-10 -3t-18.5 -3t-19.5 7.5t-12 17.5q-2 8 0 14.5t2 12.5l-2 32q0 5 1 9
q5 12 5 34v65q-3 7 -4.5 13t-12.5 8q-14 -3 -26 -1.5t-22 1.5t-22 -2t-19.5 11.5t-0.5 21t7 9.5q3 2 12.5 2t12.5 0.5t9.5 -2t10 -1.5t11 1.5t22.5 0t25 1.5q8 44 -11 57q-10 2 -33 -3t-28 -4.5t-8 0.5t-5 5q-8 -10 -25 -8.5t-23 10.5q-4 9 -2 15z" />
    <glyph glyph-name="brokenbar" unicode="&#xa6;" horiz-adv-x="226" 
d="M137 505q14 -25 4 -42q1 -5 4 -7.5t-2.5 -17.5t-14.5 -20q-15 0 -23.5 4.5l-17.5 9.5q-2 9 0 18.5t2.5 24.5t-3 36.5t-1.5 46.5t7 45.5t2 43.5q12 10 21.5 9t10.5 -2t7.5 -6.5t10.5 -15.5q-3 -17 -0.5 -26t2.5 -17l-7 -45l5 -16q0 -9 -7 -23zM144 144l2 -19
q0 -5 -0.5 -10.5t0.5 -11t3.5 -10.5t3 -10t-1.5 -11t1 -11q-5 -2 -6.5 -6l-3.5 -9q-7 -1 -13 -3.5t-18.5 -5.5t-28.5 13q-1 15 -2.5 31.5t-1.5 33.5l4 41l-2 12l5 46q0 6 2.5 12.5t4 15t1 17t6.5 16.5q5 1 11.5 4t11.5 1q7 -1 15.5 -18t8.5 -45l-4 -12l6 -28l-2 -11
q2 -12 0 -14.5t-2 -7.5z" />
    <glyph glyph-name="section" unicode="&#xa7;" horiz-adv-x="366" 
d="M33 439l2 11q2 6 2 8q0 4 17 40q14 11 16 18q8 2 12 7.5t11 8.5q1 10 3 18q6 14 -2 28t-9 24t-0.5 17.5t-4.5 14.5q4 5 4 16q6 5 9 13q4 12 14 19q9 4 12 10t5 8q2 1 5.5 2.5t8.5 4t9.5 4.5t7 4t9.5 4.5t19 0.5t25 0q3 -2 9 -7t9.5 -7.5t3.5 -9.5q5 -3 11.5 -5.5
t8.5 -11.5q11 -2 18 -9t6 -16.5t-13.5 -14.5t-23.5 -4q-5 5 -5 11t-4 14t-15 12t-19 10q-10 -1 -24.5 -12.5t-22.5 -11.5q-2 -3 -1.5 -8.5t-2.5 -7.5q-1 -7 3 -7.5t6 -13t7 -24.5t7 -17.5t4 -9.5q9 -7 10.5 -11t3.5 -7q16 -15 25 -27t21 -17q7 -16 26 -30q14 -16 21 -25.5
t11 -10.5q1 -10 7 -15t11 -14t6 -19.5t7 -19.5q-2 -11 -1.5 -23.5t-1 -20t0.5 -10t2 -7.5q-5 -8 -5.5 -17.5t-4.5 -17.5q-7 -8 -6 -10.5t-5.5 -6.5t-10 -8t-7 -7.5t-5.5 -8.5q2 -17 10 -29.5t11.5 -25.5t5.5 -27.5t8 -22.5q-2 -10 -5.5 -18.5t4.5 -19.5q-3 -3 -6 -11
q-5 -13 -14 -21t-12 -12.5t-12 -5.5q-3 -3 -2 -8t-3 -8q-8 -2 -13.5 -10t-12 -9.5t-12.5 0t-12 0.5l-15 -3q-26 0 -31 12q-3 5 -7 8q-13 0 -24 9q-5 -2 -6 2t-3 6q-4 2 -7.5 4t-7.5 4q-4 7 -8 17.5t-6 11.5t-3 6q-2 5 -1 10.5l2 11.5q8 6 19.5 5.5t18.5 -9.5q2 -12 6 -25
q6 -9 14 -8q0 -5 2 -7t3 -5q15 0 26 -11l16 2q9 1 19 0.5t16 5.5q4 9 4.5 9t2.5 2q15 15 11 35t-6.5 28t-4.5 12.5t-2.5 9t-2.5 8t-5.5 7t-7.5 8t-7 9.5t-8 4q0 10 -8 10q-1 8 -6.5 12.5t-9 8.5t-4.5 7.5t-4 5.5q-7 16 -20 19q-3 7 -7.5 12t-11 13.5t-10 10t-4.5 6.5
q-4 2 -14 4q-4 13 -13 20.5t-14 18.5q-10 9 -9 10.5t-4 5.5t-10.5 10.5t-4.5 8.5t-3.5 7.5t-6 11t-6 17t-4.5 32.5zM115 383q11 -14 18 -19.5t16 -13.5t10.5 -7.5t5 -2t8 -8t9 -9.5t7.5 -6q7 -5 10.5 -10t7 -7t7.5 -5q12 -9 18.5 -15.5t9.5 -6.5t6.5 2.5t5.5 0.5q3 3 3 7
t1 7l7 10q3 13 -6 26q5 5 3 7.5t-3 8.5q-2 3 -4.5 3.5t-3.5 5.5q4 5 1.5 14t-3.5 20q-8 7 -12 13t-9 11q-5 12 -13.5 18.5t-14.5 17.5q-8 -1 -18 14q-11 13 -21 18q-3 6 -8.5 9t-10.5 9q-12 2 -17.5 -1.5t-16.5 -5.5l-9 -10q-5 -4 -12 -8q0 -12 -3.5 -30.5t7.5 -23.5
q4 -1 8 -12.5t16 -20.5z" />
    <glyph glyph-name="dieresis" unicode="&#xa8;" 
d="M287 752q-11 -2 -20 -11q-5 -3 -7 -7t-7 -6.5t-10 -3.5t-12 -4q-17 6 -29 15q-3 17 -1 25t1 25q5 -1 7.5 4t6 6.5t9.5 0.5t14 0t13 2.5t13.5 -1t9.5 -4.5t5.5 -5t4 -5.5t2.5 -3.5q2 -8 0 -15t0 -12zM429 784q0 -9 3 -15t5 -13q-7 -20 -37 -29q-10 -3 -16.5 -0.5
t-9.5 -3.5q-10 7 -24 8q-1 6 -4 10.5t-5 10.5q2 7 3.5 14t3.5 14q2 2 7.5 5t9.5 6.5t6.5 4.5t5.5 0t14.5 2t20.5 -2.5t17 -11.5z" />
    <glyph glyph-name="copyright" unicode="&#xa9;" horiz-adv-x="639" 
d="M257 714q19 -1 26.5 2t21.5 3q9 2 10 1t5 0t9.5 3t9 0.5t7 -1t10.5 -4t11 -4t13 -2.5q2 -5 6 -8.5t6 -8.5q7 -3 15 -5.5t13 -7.5q5 -2 6.5 0t4.5 2q2 -6 7 -7t10 -3q8 -7 10.5 -6.5t4.5 -1.5q2 -3 5 -5.5t5 -6.5q35 -12 43 -38q6 -6 11.5 -13.5t11.5 -13.5q28 -42 29 -53
t7 -15q1 -17 5.5 -36t5.5 -39l-2 -12q0 -7 1 -17t-1 -21t-18 -40q2 -7 -2 -18.5t0 -20.5q-5 -8 -7 -16t-6 -14t-8 -11l-9 -11.5t-9.5 -13.5t-9.5 -14q-11 -5 -22.5 -8t-17.5 -11h-14q-7 -4 -12 -8.5t-15 -8.5l-18.5 -7.5t-19 -3t-20.5 -4.5q-7 6 -15 4t-19 -2l-11 2
q-17 -1 -31.5 -5t-23.5 2t-12.5 3t-7 -2.5t-5 3t-6.5 2.5t-11 -1t-11 0.5t-8.5 4.5t-12 7t-9.5 5.5t-5.5 3.5t-9.5 2t-10.5 5.5t-8 7.5t-7.5 5t-7 6.5t-7 2.5q-1 8 -6 11.5t-9.5 8.5t-8.5 9l-9 9q-3 8 -9.5 16.5t-6 11.5t-2.5 9t-4.5 6t-2.5 5t-3 8.5t0 8.5q-7 10 -6.5 14
t-3 10l-5.5 9.5t-1.5 6.5t-1 8t-4.5 12t-4 14t-1 18v21q0 10 2 20l3 15q1 11 5 15t5.5 7.5t0.5 6.5t5 15t13.5 32t15.5 30.5t12 14.5t8 12t4.5 8t2.5 3t7 7.5l10 9t7 9t5 7t7 4.5t7.5 5.5t6 4t10 6t12 6t7.5 5.5q12 0 51 13zM344 237l19 -5q3 -1 4.5 1t8.5 4t8 1t15 0
q44 3 70 24q2 5 4 9t4 11q17 10 32 51q5 13 5 19q-2 13 7 34q7 23 7 33.5t-1.5 14t-3 11.5t-1 15.5t0 15t-0.5 14.5t-1 14t-2.5 12.5t-4 10t-4 8.5t-1 8t-0.5 8q-5 8 -5 10t-3.5 8t-5 6t-6.5 8t-9 16t-15 11q1 5 -2.5 7t-3.5 6q-9 -3 -9 7q-6 -1 -8 2t-7 2q-5 13 -16 15
t-21.5 5t-14.5 5.5t-8 4.5t-9 2t-16.5 7t-35.5 -3q-5 2 -5.5 6.5t-5.5 5.5q-32 3 -61 -18q-35 -11 -41 -28q-1 -5 -3 -8q-9 -7 -14.5 -16t-8.5 -11.5t-5 -5.5v-16q-8 -9 -8 -11.5t-2 -6t-5 -6.5t-4 -8q-5 -8 -3.5 -19.5t-0.5 -18.5t-4.5 -10.5t-4.5 -10.5t-1 -12.5t1 -13.5
l-2 -20l4 -12l-2 -17q1 -5 3 -9.5t3 -10.5t1 -12.5t2 -12t4.5 -8.5t4.5 -9t6 -12q14 -24 18 -40q10 -3 14.5 -11.5t11.5 -16.5q10 -6 10.5 -8t7.5 -5t7.5 -4t2.5 -2l15 -8q4 -2 8 -4.5t8 -2.5h10q8 -2 12.5 -1.5t12.5 -3t21 -0.5zM398 582q10 1 15.5 -1.5t12.5 -3.5
q3 -4 4.5 -8.5t7.5 -10.5t-6 -23q-21 -3 -32 10q-5 -2 -9.5 1.5t-7.5 -1.5q-11 11 -38.5 5.5t-39.5 -3.5q-6 -3 -8.5 -11t-6.5 -16q-7 -9 -6 -13t0 -7.5t-2.5 -5.5t-1.5 -6t1.5 -9t2.5 -11.5t0 -13.5t4 -15q1 -7 -4 -15q4 -11 11 -18t10 -18q6 -3 13 -9t14 -10t9 -4.5t5 -2
t8 -4.5t12.5 -2t13.5 7t14 11q2 5 4 8.5t2 9.5q11 -1 22 6t16.5 8.5t13.5 -3.5q8 -14 1 -23t-11 -20q-9 -1 -11.5 -7.5t-11.5 -6.5q-6 -7 -11 -14.5t-19 -6.5q-2 -2 -6.5 -3t-3.5 -6q-6 5 -9.5 1.5t-9 -5.5t-5.5 2t-4 4q-11 -4 -11 -3l-14 -3q-11 3 -17 5.5t-10 4t-10.5 5
t-7.5 5t-4.5 3.5t-7.5 3t-7 2q-3 6 -8.5 9.5t-14.5 10t-11 20.5q-8 6 -14 14q1 17 -4 32t-4 25.5t3 13.5t3 7.5t0 8t0 5.5t3.5 5t0.5 8q11 9 12 21q6 3 15 14t10.5 15t9.5 9.5t11 5.5t10 3.5t8.5 2.5t3 -0.5t4.5 4.5t7.5 5.5t13.5 0.5t13 1.5t7.5 1.5t9 1t11.5 5t14.5 3
t21.5 -10z" />
    <glyph glyph-name="ordfeminine" unicode="&#xaa;" horiz-adv-x="412" 
d="M222 549l2 23q0 4 -2.5 8.5t-2 8.5t0.5 7q-1 3 -4 9.5t-4.5 15t-1.5 11.5t-1.5 5.5t-5 4.5t-4.5 6q-18 5 -27 -4q-5 4 -11.5 2t-12 -1.5t-7 -3.5t-5.5 -6q-11 0 -16 -4t-14 -6q-5 -8 -9.5 -14.5t-13.5 -9.5q-18 9 -14 36q9 5 18 11t21 8q34 22 54 28.5t22.5 4.5t7.5 -3
t10.5 -0.5t10 0t6.5 -1.5t6 -2.5t7 -2t10 -4.5t11.5 -8.5t13.5 -6.5q7 -9 9.5 -9.5t4.5 -2.5q7 -12 9 -15t4 -10q2 -2 2.5 -5.5t2.5 -7.5t5 -8.5t6 -11t5.5 -15t5 -15.5t2.5 -10.5t1.5 -10t3.5 -10t3.5 -8.5t1 -11.5t-0.5 -13.5t5 -7.5t4 -5.5q-8 -17 -7 -29t0 -19.5
t-2 -9.5q-8 -10 -1 -37q5 -2 16 -1t13 6h22q2 -5 6 -9.5t3 -10t-7 -9.5t-10 -8q-28 6 -59 -15q-36 -5 -52 4q-6 9 -14 16t-15 15q-8 -2 -14.5 -4t-14.5 -4q-4 -5 -9 -8t-9 -8q-6 3 -20 -3t-26 -3t-16.5 1.5t-10.5 -0.5t-12.5 5t-14.5 4q-4 7 -10.5 10.5t-11.5 8t-10 9.5
t-13 7q2 8 -2 11t-6 9.5t-1 14t1 16.5l-2 11q3 22 21 36q9 11 14 15q12 2 13 3t7.5 4t19 7.5t22.5 10.5q15 -5 29 -3t25 -5q10 3 19 1t20 1q1 3 2.5 5.5t1.5 6.5zM144 482l-19 1q-10 0 -15 -5q-4 -28 16 -64q3 -5 1 -11q5 -5 9.5 -8.5t5.5 -10.5q27 -8 45 7q14 1 22 7.5
l17 13.5q0 7 2.5 14.5t5 17.5t-9.5 18q-6 21 -35 20q-13 11 -26 5.5t-19 -5.5z" />
    <glyph glyph-name="guillemotleft" unicode="&#xab;" horiz-adv-x="441" 
d="M107 203q8 -16 19 -19q2 -6 9.5 -9t12.5 -8q4 -7 9.5 -11.5t9 -8t4.5 -6.5t5 -5q4 -4 16.5 -19.5t10 -26.5t-6.5 -21q-3 -5 -10 -5t-11 -5q-4 0 -5.5 1t-9.5 3t-9 3.5t-4.5 3.5t-9.5 5t-11 7q-1 3 -2.5 5.5t-0.5 6.5q-3 3 -6.5 4t-6.5 2.5t-5.5 4t-9.5 6.5t-7 6t-1 3
q-6 4 -8.5 8l-4.5 7q-13 8 -25 20t-15.5 14.5t-6.5 9.5t9 32q8 2 11.5 6.5t11.5 6.5q7 13 18 22t21.5 19.5t22.5 20.5q5 5 9.5 10.5t12.5 7.5q4 11 22 24q11 11 16.5 10t8 -0.5t6.5 2.5t6 0q9 -3 11 -11t-1 -13.5t-4 -7.5t-4 -4t-5 -3.5t-6 -1.5q-5 -12 -12.5 -17t-7.5 -11
q-8 -5 -18 -16q-5 -8 -7 -9t-8.5 -6.5t-9 -9t-7.5 -4.5q-1 -8 -6 -13zM201 193l-1 23q5 3 8 9.5t11.5 10.5t12 6.5t6 5.5t8 8t16 11.5t13.5 10t8 3.5q11 15 28 26l34 22q15 7 24 13q10 0 10 -5t5 -5q12 -10 2.5 -23t-25.5 -15q-3 -4 -4.5 -8.5t-3.5 -7.5q-7 -2 -11 -4.5
t-9 -4.5q-2 -8 -9.5 -12t-9.5 -12q-9 -5 -18 -8t-14 -10q5 -10 5.5 -19t5.5 -13t5.5 -6.5t2.5 -5.5q9 -5 9.5 -6.5t3 -3t8 -4.5t6.5 -8l11 -2q8 -12 15 -15q2 -2 3.5 -4t4.5 -4.5t5.5 -6t8.5 -5.5q-2 -4 1 -7t4 -7l-2 -11q0 -6 1 -8t-3 -10.5t-13.5 -9t-16.5 5t-13 9.5
q-12 1 -13 2.5t-2.5 2t-4.5 -1t-7 0.5q-4 5 -7.5 8.5t-5.5 10.5q-5 7 -12.5 10t-9.5 12q-4 -1 -6 2t-5 4q-21 6 -26 17t-14 13q-2 9 -8.5 14t-11.5 12z" />
    <glyph glyph-name="logicalnot" unicode="&#xac;" horiz-adv-x="534" 
d="M480 118q-5 -2 -9.5 -3t-12 -4.5t-15 -11.5t-15.5 -8q-7 3 -15 3q-12 12 -15 14q3 6 -1 16t1 18q-5 8 -5 19t-7 39l2 19q-4 14 -4 29q0 49 -8 61q-8 1 -9.5 -3.5t-8.5 -4.5q-5 -2 -5.5 1t-5.5 2q-33 3 -45 -13l-61 -2q-11 0 -20.5 1.5t-20 0.5t-16.5 -2t-11 3
q-9 -6 -28 -1q-5 -4 -12.5 -5t-12.5 -6q-8 5 -28 2t-25 0t-11 5q-5 20 -1 31q15 7 31.5 4t27 -0.5t14.5 4t8 1.5l17 -1q1 0 41 4h60l13 -1q4 0 8.5 1.5t8 2.5t7 0t10 2.5t10.5 2.5t8 0t7 2.5t9.5 2t15.5 -1t17 6.5q8 -5 15 -1t13 0q12 1 22.5 2.5t17.5 -2.5q8 -5 23 -39
q8 -13 7.5 -19.5t2.5 -14.5t2.5 -15t0.5 -8t0 -4.5t1.5 -10t3 -22.5t-0.5 -23.5t0.5 -15.5t0.5 -9t0 -7.5t0.5 -10.5t1.5 -9.5t1.5 -10.5t-0.5 -10z" />
    <glyph glyph-name="sfthyphen" unicode="&#xad;" horiz-adv-x="400" 
d="M194 244q-7 2 -11.5 0t-10.5 -4q-11 2 -23 6t-20 -4q-5 -1 -12.5 -0.5t-12.5 -1.5q-9 -4 -18.5 1t-15.5 5t-8 5q0 12 8 25q17 3 34.5 5t32.5 5q7 0 12 -3q12 8 26 5t26.5 -1t23 6.5t22.5 6.5t23 1t24 2t21.5 0.5t18.5 -0.5q7 -13 5 -31q-9 -11 -18 -16q-30 8 -50 -2
t-35 -5.5t-19.5 3.5t-22.5 -8z" />
    <glyph glyph-name="registered" unicode="&#xae;" horiz-adv-x="652" 
d="M50 431l2 21q0 5 -0.5 10t1 11t5.5 16.5t6 20t6 20.5t4 13t6 18.5t26.5 41l31.5 38.5q15 8 27 20.5t26 21t27.5 13l26.5 8.5t20 6.5t14 1.5t24 2.5t39 -12.5q37 2 65 -6q89 -25 85 -38q0 -2 1 -3q16 -9 26.5 -19.5t22.5 -19.5l16.5 -22t16.5 -23q-1 -6 3 -13t6.5 -14.5
l7.5 -23.5t3 -28.5t4 -23.5q-3 -9 0 -23q-7 -9 -5.5 -18t-0.5 -18q-5 -10 -5 -12.5t-4 -7.5t-4 -7q2 -5 -7 -10t-12 -13.5t-6 -14t-9 -5.5q-2 -4 -2 -9t-4.5 -9.5t-7.5 -12.5q-9 -11 -9 -14t-2.5 -7t-8 -10t-9.5 -13q-6 -2 -10.5 -6t-12.5 -6q-5 -5 -8.5 -13.5t-17.5 -10.5
q-23 -2 -57 -21q-10 0 -12 2q-5 0 -6.5 -2.5t-5.5 -3.5q-21 1 -31 -6q-8 4 -16 2.5t-17 -0.5l-18 4q-8 0 -14 -0.5t-12.5 1.5t-10 4t-7 3t-6.5 -0.5t-7 0.5q-6 0 -8.5 4t-13.5 6.5t-18.5 7t-12 4.5t-6.5 7q-3 4 -6.5 0.5t-5.5 1.5q-8 2 -11.5 7.5t-13.5 6.5q-8 14 -26 25
q-5 14 -17 17q2 8 -1.5 10t-2.5 8q-5 7 -8 14t-6.5 12.5t-6.5 9t-5 8.5t-2 12.5t-4 17t-4 14.5zM534 511q0 10 -2 11t-3.5 6.5t-2.5 12.5t-3 15q-5 2 -6 6.5t-3.5 9t-7.5 8t-3 10.5q-8 4 -12 11.5t-9 11.5l-9 7t-7 5.5t-5 4t-5 4t-6 7t-6 6.5q-5 -2 -8.5 0t-8 4t-8.5 4t-9 2
q-4 2 -5 5.5t-11 5t-23.5 0.5t-23 1.5t-13.5 7t-12 5.5l-7 -2q-37 0 -69 -18q-4 1 -7 -0.5t-7 -2.5t-9 -0.5t-13.5 -6t-12 -14t-14.5 -7.5q-2 -11 -14 -18.5t-12 -16.5q-8 -11 -13 -25.5t-16 -22.5q-4 -9 -4 -17t-2 -14.5t-4 -9.5t-4 -9.5t-2 -13t-2 -10.5l4 -12
q-2 -10 -0.5 -12t2.5 -6t0.5 -10t4 -17t6 -17.5t4 -14t9 -28.5t19.5 -39q9 -6 9 -7.5t5.5 -7l11 -11t9.5 -8.5t6.5 -4.5t8 -7.5t9 -5.5t3.5 -4.5q33 0 51 -14q9 -6 31 -6q14 -2 16 -1t5 1q6 -4 24 -4.5t39.5 9.5l46.5 21q8 13 21 20q0 8 4 13t6 11q7 1 11.5 4t9.5 5
q1 11 8.5 18.5t12 15t6.5 15t4 12.5q8 12 10 19.5t7 15.5q-2 17 2 38q6 32 -2 56zM206 531q6 28 2 54q11 8 14 10.5t8.5 3.5t12.5 1t48.5 4.5t55 0.5t18 -6t11 -4.5t12 -3.5t10 -4.5t15.5 -5.5q2 -10 11 -20t10.5 -14t0.5 -8.5t-1 -6.5v-12q0 -9 -8 -11q5 -10 0.5 -15
t-3.5 -16q-3 -4 -6.5 -5t-6 -4.5t-3.5 -7.5t-5 -7q-8 -4 -11.5 -6.5t-8.5 -2.5q-7 -6 -14 -11t-13 -13q0 -5 5 -6t4 -8q11 -4 20 -10.5t23 -8.5q5 -7 13 -11t16 -9q3 -11 8 -16.5t0 -13t-6.5 -9.5t-9.5 -6t-12 -2q-27 12 -32 25q-11 -2 -10 6q-5 1 -7.5 -1t-7.5 -1
q-4 6 -10 10t-10 10l-12 2q-5 0 -5.5 3t-2.5 5q-42 8 -58 -4q-2 -12 -1 -21.5t-3 -20.5l-19.5 -8t-18.5 -0.5t-13 10.5t-2.5 19.5t3 15.5t2.5 10t0.5 18t0.5 18t3.5 14.5t2.5 15.5l-2 15q1 10 3 27t-11 42zM288 454q6 -5 8 -5t5.5 -2t5.5 -4t11 -2t14 4t5 6.5t2.5 5.5t6.5 5
t11 7t9 9q4 9 16 17q1 13 4 20t0 19q-8 6 -12 10q-10 6 -11 10t-5.5 3t-7.5 1t-4.5 5t-6.5 1q-5 -6 -17.5 -2t-22 -2.5t-17.5 -1.5q-4 -6 -11 -9.5t-10 -10.5q2 -12 5 -23t3 -22t-3.5 -22t3.5 -19q7 -2 10.5 0.5t8.5 1.5z" />
    <glyph glyph-name="macron" unicode="&#xaf;" 
d="M402 775l20 -5q15 5 27 -4q4 -11 2 -26q-2 -3 -5.5 -2.5t-13.5 -3t-16 -1.5t-12.5 1t-11.5 -4q-14 -9 -26 -3t-36 1h-14q-8 0 -15 1t-8.5 0t-9.5 0.5t-11 0.5t-12.5 -1t-20.5 4q-6 0 -11 -3t-12.5 -4t-19 5.5t-11 16.5t6 12.5t10.5 9.5l17 1l12 -3q31 -2 55.5 1t27.5 1.5
t11.5 -2t27 1.5t21.5 1t5 -1z" />
    <glyph glyph-name="degree" unicode="&#xb0;" horiz-adv-x="243" 
d="M124 519l-25 -9q-10 9 -26 15q-6 10 -26 32q-1 8 -4 14t-6 13q0 40 10 47q4 3 10.5 11.5t12.5 12t11.5 4.5t10.5 3q57 4 70 -18q12 2 18 -4t15 -9q-1 -4 2 -7t5 -7q0 -10 1.5 -11t1.5 -2l-2 -11l4 -16q-7 -12 -11 -29q-10 -6 -18.5 -12t-13.5 -17q-8 3 -20 -1.5
t-13.5 -1.5t-6.5 3zM173 574q3 14 1 13.5t-3 3.5q0 10 -2.5 11.5t-2.5 5.5q-9 1 -14.5 4.5t-14.5 4.5q-17 12 -24.5 9t-16.5 -6q-1 -17 1 -30l4 -27q3 -3 5.5 -1t12.5 0.5t15.5 -1.5t9 -1.5t7.5 -0.5t12 6t10 9z" />
    <glyph glyph-name="plusminus" unicode="&#xb1;" horiz-adv-x="504" 
d="M255 349q9 23 0 40q5 1 3 4.5t-1 6.5t3 7t3 10t0.5 14t4.5 13.5t9.5 3.5t9.5 3q5 -3 7 -8.5t7 -7.5q-2 -6 0.5 -11.5t4 -19.5t0.5 -38q-3 -42 7 -50l8 -9q20 2 39 -1.5t29 -1t13.5 4.5t8.5 4q7 -1 9.5 -2.5t9.5 0.5q14 -14 11 -30q-5 -7 -12.5 -7t-13.5 -1t-10 -2.5
t-9 -1.5l-25 4q-9 0 -16 -2l-14 -4q-29 12 -34 -9l-3.5 -13.5t-2 -9.5t-3.5 -14.5t3 -33.5q1 -4 -4 -13.5t-8 -11t-7 -4t-5.5 -5t-4.5 -2.5q-7 0 -17 13q-14 15 -13 26t2 17.5t1.5 16t1.5 18t2.5 12t0.5 7.5q-2 5 -9 4t-12 0q-4 6 -12.5 6.5t-15.5 2.5t-10.5 4.5t-6.5 2.5
l-11 -2q-14 1 -17.5 -2t-8.5 -4q-13 1 -26 -2t-25.5 -4t-21.5 -1t-16 3t-9 12t1.5 13.5t5.5 12.5q8 2 16 0.5t16 -2.5l24 2q36 2 71.5 1.5t64.5 2.5q7 4 9 17.5t-2 20.5zM403 109l11 -3q28 6 42 0q2 -5 7 -14t-1.5 -14t-8.5 -10h-20q-6 -2 -12 1q-13 1 -16.5 3t-8 2
t-19.5 -3q-23 0 -38 5q-8 -1 -16.5 -6.5t-17 -7t-15.5 1t-17 2.5l-15 -3q-8 -1 -16 0.5t-16 1.5q-32 -8 -47.5 -4t-23.5 2l-15 -4q-7 -1 -14.5 0.5t-12.5 -3.5q-7 -1 -9 2.5t-6.5 2.5t-14.5 1q-6 6 -8 5t-5.5 0.5t-7 7t-2.5 11t10 8t21.5 4t27 2t26.5 1.5l14 -1l24 2l28 -4
q8 -1 20.5 1t26.5 3t25 2l35 -3l36 1l16 8q6 3 11 -0.5t10 -3.5z" />
    <glyph glyph-name="twosuperior" unicode="&#xb2;" horiz-adv-x="294" 
d="M39 310l-3 15q0 21 12 31q4 8 5.5 10t8.5 12.5t13 11.5q2 10 8.5 16t9.5 16q5 0 7.5 2.5t6.5 4.5q3 10 11 15q0 5 2 6.5t1 6.5q8 5 12 13.5t12 13.5q0 10 4.5 16.5t2.5 14.5q8 4 11 7q-2 6 1 10q9 12 9 46q-5 15 -4.5 21.5t-3.5 10.5q-8 2 -10.5 -2t-6.5 -7
q-10 3 -13 -0.5t-7.5 -5t-8.5 -3.5q-2 -6 -3.5 -12.5t-5.5 -11.5q-1 -6 4.5 -7t5 -6.5t-4.5 -5.5t-7 -2q1 -6 -1.5 -7.5t-4.5 -4.5q-6 1 -9.5 -1.5t-8.5 -1.5q-11 12 -14 17t-1.5 12t4 9.5t5.5 8t6 12.5q4 9 22 40q5 2 13 8q9 3 10.5 5t3 2.5t6 -0.5t10.5 1t8 1t12 1.5
t35 -5.5q30 -21 43 -64q3 -14 0 -29.5t-1 -31.5q-4 -4 -7 -8t-8 -6q-2 -5 -4 -11t-6.5 -17.5t-11.5 -18.5t-8 -15q-4 -5 -9 -8q-10 -6 -10 -15t-11 -18q-5 -6 -6.5 -5.5t-6 -4.5t-4 -6t-4 -5.5t-6.5 -4.5q-6 -11 -10.5 -13t-5.5 -6q-16 -5 -7 -23q9 -6 21 -9.5t19 -6
t13 -3.5t8.5 0.5t6 1.5t9.5 -2.5t10.5 -3.5t8 -0.5t8.5 0.5q11 -19 8 -32q-5 -3 -10.5 -2t-11.5 1l-11 -3q-9 4 -10.5 2.5t-7 0t-17 3t-17 3t-8.5 3.5t-8 3l-14 -2q-10 -2 -15 -2t-9 2t-11 -0.5t-11 -7.5t-11 -4.5t-12.5 6.5t-10.5 10z" />
    <glyph glyph-name="threesuperior" unicode="&#xb3;" horiz-adv-x="296" 
d="M156 615l11 2q17 2 32 1.5t25 2t15.5 4t10 0.5t11 -8.5t5 -14.5t-6 -7t-8.5 -5q-15 -6 -18.5 -9.5t-11.5 -1.5q-4 -6 -10 -9.5t-7 -11.5q-7 -1 -10 -6t-9 -7q9 -12 21.5 -17.5t14 -8.5t4.5 -6q7 -3 7.5 -5.5t3.5 -5t6 -12t9 -19.5q5 -14 8.5 -19.5t4.5 -8.5q-2 -11 2 -19
q4 -25 -5 -35.5t-9 -22.5q-7 -7 -7 -16q-8 -3 -13 -16q-5 -2 -14.5 -11.5t-16.5 -15.5t-21 -9q-9 -7 -15 -20q-11 -2 -20.5 -6.5t-20.5 0.5l-25 -11q-5 6 -13 11l-12 8q-4 3 -9 4q0 4 -3 6.5t-6.5 7.5t-7.5 6.5t-8 4.5q-7 13 -8.5 29.5t1 25.5t9.5 14.5t9 12.5q7 1 11 4.5
t12 2.5q3 -5 5 -10.5t5 -9.5q1 -7 -3 -14q7 -13 20 -21l10 -22t13 -19q14 5 20.5 16.5t15.5 20.5q2 16 8.5 20t9.5 12q0 8 2 9q7 3 3 34q0 33 -8 46q0 13 -2 18q-6 6 -7.5 9t-4.5 5l-12 2q-11 -6 -14 -5t-8.5 -0.5t-13.5 -5t-15 -1.5q-9 8 -13 9.5t-6 5.5q-2 16 12 25
q6 4 12 7.5t9.5 7t4.5 8t3 6.5q4 2 9.5 3t7.5 6q3 3 8.5 3.5t3.5 8.5q-16 11 -32 10q-7 8 -11.5 8t-6.5 3q-3 0 -18 -3q-10 4 -19 12v15q29 15 41 5q4 3 8 0.5t9 -3.5t10 0.5t10 0t8 -3t8 -1.5z" />
    <glyph glyph-name="acute" unicode="&#xb4;" 
d="M388 791l-2 -13q-6 -5 -10.5 -10t-13 -11.5t-16.5 -20.5q-8 -3 -12 -10t-9.5 -11l-7.5 -5.5t-5 -3t-14 -15t-26 -19t-20 -6t-8 2.5t-8 5q-2 6 0 9.5t0 7.5q4 3 6 11t6.5 13.5t6 8t11.5 10.5q8 4 10.5 7.5t6.5 7.5q7 4 9.5 6l11 8.5t9.5 11.5t4 8.5t7 7.5t5 9
q15 16 29 25.5t37 7.5q9 -18 5 -36q-4 -1 -6 -6t-6 0z" />
    <glyph glyph-name="mu" unicode="&#xb5;" horiz-adv-x="518" 
d="M162 210l-1 15q5 7 5 16.5t2 17.5q8 13 8 21.5t1.5 15l2.5 10.5q5 10 5 14v5q2 9 5 14.5t5.5 12.5t3.5 13q2 12 9 17t20 26q18 5 32 2q5 -5 7.5 -11t7.5 -10q4 -14 2.5 -26.5t1.5 -24.5q-2 -3 -4.5 -6t-4 -6t-1 -6.5t-1 -7t-3.5 -9.5t-4 -15.5t-1 -22t-1 -19t-4 -9
t-6.5 -14t-10.5 -17.5q-1 -7 -0.5 -15.5t-5 -17.5t-6 -19.5t2.5 -12t3.5 -7t-2 -8t-3.5 -7.5q4 -10 3.5 -19.5t3.5 -17.5q11 -27 22 -29q24 0 30 4q10 8 18 17q25 15 33.5 32l16.5 34q-1 5 2 6t5 7.5t5 13.5l8 15q1 5 -1 6.5t-2 5.5q5 5 6.5 22.5t18.5 40.5q2 3 1.5 10
t0.5 14l5 14q0 4 -1 7q-3 13 11 40q-2 9 1.5 20t6.5 22q11 39 49 22q4 -3 3.5 -7.5t1 -8.5t4 -6t2.5 -6l-1 -30q-3 -11 -2 -17q2 -11 -2.5 -22.5t-4 -21.5t-4 -22t-8 -31.5t-5.5 -27t-4 -17t-3 -10.5t-3.5 -11.5t-9.5 -19.5l2 -19q-5 -7 -7 -17t-9 -15q2 -11 -1.5 -19
t-5.5 -14.5t-2 -11t-4 -6.5q2 -11 -0.5 -17l-5.5 -13q3 -24 -11 -35q-8 -3 -17.5 0t-17.5 0q-3 6 -10.5 7.5t-9.5 7.5q0 13 1.5 24.5t0.5 25.5q-6 3 -11 -1.5t-10 -6.5t-9.5 -5t-11.5 -5q-6 -11 -18 -11.5t-29 1.5q-4 2 -12 8q-13 1 -23 5.5t-21 6.5q-5 -1 -11 -10
q-4 -10 -6 -10.5t-4 -3t-3 -5.5t-4 -9t-6 -13.5t-10 -14.5q-2 -10 -5 -19t-6 -20q-4 -8 -3 -10t0 -5t-4 -6.5t-5 -8t-3 -8.5t-3 -8t-5 -11t-6 -10.5t-4.5 -7t-0.5 -8t0 -7.5t-2.5 -5.5t-4 -8t-4.5 -9.5t2 -11q-11 2 -15 -4q-9 -13 -24 -4q-8 -6 -12 -2q-7 1 -10 5.5t-9 6.5
q-2 25 22 72q9 19 9.5 25t3.5 17t4.5 17.5t4 11.5t5 11.5t3.5 13.5t5.5 11.5t4 7t1.5 6t4 6.5t5.5 13t4.5 14t3.5 10t7.5 27q7 17 9 37q6 4 7.5 10.5t5.5 10t6 15.5t6.5 19t7 13.5t3 15.5t5.5 15z" />
    <glyph glyph-name="paragraph" unicode="&#xb6;" horiz-adv-x="548" 
d="M285 239l2 -24q-2 -10 -1 -15.5t0.5 -13.5t1 -13.5t1.5 -11t-1.5 -11.5t-3 -19t-5.5 -24.5t-5 -24.5q-5 -3 -9.5 -7.5t-15 -9t-21 0.5t-14 8.5t-2.5 5.5t-2.5 7t-2 10.5t1.5 13.5t3.5 12.5t5.5 13t1 19.5t-1 22v37q0 29 8 44q-4 9 -0.5 18t-1.5 21q7 10 2 20.5t-8 18.5
q-13 0 -16 1.5t-8 0.5t-10 -5t-15.5 -3.5t-13.5 3.5l-7 7q-10 -1 -12.5 1.5t-13.5 2.5q-8 12 -25 22q-13 16 -25 19q-13 22 -31 34q-1 3 -1.5 7t-2.5 6t-2.5 11.5t-1.5 21.5q-7 54 6 82q4 9 5 19l17 17q9 9 13 22q5 0 7 4t9 4q-2 3 2 6q5 3 8.5 10.5t14.5 12.5q3 2 6 5
t10 5.5t11 8.5q12 6 17 11l11 4q8 3 11.5 3.5t12 3.5t12 3t5.5 1t5.5 2l10 3t15.5 3.5t16 10.5h16q6 2 11.5 4.5t14 4.5t16.5 2q12 -1 26 2t21 2t13.5 0t17 3t19.5 3q2 -5 7.5 -4t13.5 0t19.5 -3.5t23 -2.5t24 1.5t18.5 -9.5q-1 -10 -6 -15l-10 -10q-32 8 -66 3q-2 -3 -2 -7
v-7q0 -3 1.5 -6.5t0.5 -7.5t-3 -8t-3 -9l2 -21q3 -24 0 -80l2 -30q0 -7 -0.5 -15.5t0.5 -19t2.5 -19t0.5 -19t0 -12t1 -3.5l-4 -16q2 -13 0.5 -27t0 -31t-0.5 -22t0.5 -18t1.5 -22l-4 -14q3 -17 -2 -33l-2 -18q-1 -5 -2.5 -8t-1.5 -7l4 -26l-2 -34q0 -17 4 -34t4 -22.5
t-3 -13.5t-10.5 -13t-15.5 -13q-17 -2 -25.5 2t-19.5 11q0 9 -5 17t-6 14.5t1 9.5t3 8q-2 8 -1 9.5t1 3.5l-4 17q-1 6 2.5 29.5t-0.5 51.5q0 5 3.5 6.5t2 8.5t0 10t1.5 5l-2 11l4 15q1 8 0 16.5t0 19.5l2 11q-1 17 -1 28q0 18 3 31t2.5 19t0.5 14.5t0 10.5t-1 4l4 30
q0 4 -1.5 7.5t-3 13.5t-1.5 25.5t1 15.5t1 2l-4 11l6 34l-2 32q0 21 2 39l4 20v20h-36q-19 0 -30 -12q-2 -12 -2 -26t-2 -22.5t-0.5 -17t0.5 -18.5l-4 -17q-1 -5 0.5 -9.5t0.5 -12t0 -8t0 -2.5l-3 -15l2 -17q-4 -16 -4 -22t4 -18.5t3 -22t-2.5 -19.5t0 -12.5t1 -10.5
t-0.5 -29t-1 -33q-3 -6 -1.5 -15t1 -16t-0.5 -14.5t-1 -12t-3 -8t-3 -7t0 -7t0 -7.5t-3 -7t-3 -8zM229 659q-8 -11 -16.5 -12.5t-12.5 -8.5q-11 0 -16 -5.5t-13 -8.5q-8 -11 -14.5 -21t-16.5 -18q-1 -5 -4 -17q-6 -9 -8 -21q-6 -9 -4.5 -16.5t-3.5 -12.5q8 -19 7 -29.5
t1 -15.5q12 -20 15 -31.5t7 -13.5q4 -4 9 -26l9.5 -7.5t6.5 -10.5q8 -2 14.5 -5t18.5 -1q5 7 12 13q11 9 11 25v11q1 19 -2 47q-1 28 4.5 53.5t1.5 46.5q0 6 3 8t2 9t0 16l2 18t1 17.5t-4 16.5h-10z" />
    <glyph glyph-name="periodcentered" unicode="&#xb7;" horiz-adv-x="208" 
d="M67 314q-7 5 -9.5 13t-1 11.5t1.5 7.5t-1.5 7.5t0.5 9.5t13 17.5t19 13.5t18.5 1t18 3t17 -4.5t11.5 -15t-0.5 -21t-4.5 -18.5l-8 -7q-1 -2 -5.5 -5t-6.5 -5t-7.5 -4.5t-6 -4.5t-1.5 -2l-11 -6q-7 -1 -11.5 -2t-8.5 -1.5t-7.5 0.5t-8.5 12z" />
    <glyph glyph-name="cedilla" unicode="&#xb8;" 
d="M360 48q7 -7 5 -15.5t1 -16.5q-5 -8 -9 -17t-12 -13q-1 -8 -5 -11t-6 -9q5 -11 14.5 -11t17.5 -2.5t9.5 -2t10.5 -5.5t12 -6.5t13 -10.5t12 -38q-1 -9 -0.5 -16.5t-1 -12.5t-2.5 -10.5t-4.5 -10.5t-3.5 -8t-3.5 -6.5t-4 -6.5t-4 -8t-7.5 -6t-6 -7q-10 1 -13 -7
q-7 1 -12.5 -3.5t-10.5 1.5q-5 -2 -14.5 -8.5t-21.5 -6t-21.5 3t-29.5 0.5t-25 0q-5 5 -8.5 5t-6 7.5t-0.5 8.5q-12 8 -9 28q14 14 24 5q10 -19 23 -26q7 1 12 3.5t18 2.5q16 -1 32.5 10t24.5 19q5 22 8.5 36t3.5 28q-8 12 -26.5 12.5t-26.5 -13.5q-8 -2 -13.5 -5.5
t-12.5 -1t-12 4t-8 5.5q-6 14 -1 25t8.5 14.5t4.5 7.5t7 10t6.5 10t5 9.5l11.5 14.5q7 6 6 8t4 10.5t11 14.5t8 15q19 7 28 2z" />
    <glyph glyph-name="onesuperior" unicode="&#xb9;" horiz-adv-x="232" 
d="M103 485l3 12q-2 8 -0.5 12.5t-2.5 8.5q-17 2 -26 -12q-3 -1 -7 -1t-9 -2.5t-8 -5.5t-10.5 -2t-11 6l-8 12t-2 19t13 12t12.5 -3.5t9 -4.5t12.5 4.5t12 9.5t6.5 5.5t4 2.5t5.5 4t6.5 3q5 10 4 14.5t4 17t9 33.5q5 5 16 8.5t22 -1.5q21 -31 18 -58q-2 -12 4 -22
q-4 -2 -3 -7.5t-2 -7.5q4 -8 4 -21.5t-6 -37.5q0 -10 2.5 -18t-0.5 -20l-3 -11q-1 -5 0.5 -10.5t0.5 -10.5l-3 -16l2 -12l-2 -13v-18q0 -25 -3.5 -28.5t-1.5 -8.5q-3 -2 -5 -5t-7 -1q0 -5 -3.5 -6.5t-5.5 -3.5q-11 3 -19.5 1t-14 0t-10.5 10.5t-5 13.5t1 16l-2 14q2 12 1 15
t-1 5l3 19l-1 16q-2 14 1 31t5 21.5t2 9.5z" />
    <glyph glyph-name="ordmasculine" unicode="&#xba;" horiz-adv-x="341" 
d="M209 682q8 -2 12.5 -6.5t12.5 -4.5q9 -15 32 -21q3 -8 8.5 -12.5t6.5 -13.5q6 -6 10 -13.5t9 -13.5q2 -6 -1 -8.5t-2 -7.5q5 -8 5 -16.5t1.5 -14.5t3.5 -9t1.5 -11t-7 -20.5t-4.5 -27.5q-18 -18 -20 -29q-8 -5 -12 -12.5t-11 -14.5q-9 0 -23.5 -9t-21.5 -6.5t-6.5 -2.5
t-4.5 -5q-6 3 -12 0.5t-14 -2.5t-16.5 3.5t-19.5 1.5q-4 3 -7.5 6.5t-11.5 2.5q-18 27 -42 41q-3 7 -16 15q-3 9 -16 27.5t-13 29.5t4 15q-4 11 1.5 21.5t3.5 25.5q7 8 9 19t6 17.5t12 12.5l12 10l9.5 7.5t10.5 9t8 4.5t5.5 0.5t8.5 5t19.5 7t27 -0.5t23 -6.5t19.5 6.5z
M264 541q-11 25 -8 36q-5 0 -4.5 4.5t-1.5 6.5q-11 7 -11 9t-2 4q-14 4 -28.5 7.5t-19 11.5t-5.5 13.5t-3 10.5l-9 2q-4 -8 -12.5 -9.5t-16.5 -3.5q-4 -8 -8.5 -15.5t-5.5 -14.5t2 -13t-5 -9q5 -8 1 -14.5t-5 -14.5q2 -12 1 -13.5t-0.5 -12.5t15.5 -26q2 -12 2 -18
q7 -3 10 -9t8 -11q17 1 27 -2t24 2q3 3 4 6t6 4q8 2 12.5 8t11.5 6q3 11 6.5 20t12.5 14q-2 6 2 21z" />
    <glyph glyph-name="guillemotright" unicode="&#xbb;" horiz-adv-x="424" 
d="M231 90q-8 12 4 30q1 2 6 3t7.5 5.5t6.5 7t10 8l11.5 10.5t7.5 13q12 6 19 15.5t17 17.5q-8 19 -37 31q-5 12 -13 15q-3 11 -11 14q1 6 -7 16t-10 15t-7 9q-1 18 10 30t34 8q5 -6 5 -7.5t7 -8.5q24 -21 26 -31q9 -9 16 -20q5 -4 11 -6.5t8 -8.5q10 -4 20 -12
q17 -10 19 -14t4.5 -12.5t-1.5 -11.5t-4 -10l-10 -7q-11 -7 -18 -10.5t-9 -8.5q-14 -6 -17.5 -9.5t-7 -6.5t-6 -4t-4.5 -4q-11 -8 -9.5 -11t-7 -8t-18.5 -8q-4 -5 -7 -10.5t-11 -7.5q-1 -4 -2.5 -6t-2.5 -6q-18 -1 -29 1zM118 110q-11 -4 -17 -11.5t-14 -12.5
q-5 3 -13.5 3.5t-13.5 2.5q-3 12 -2 26q22 12 36 26t19.5 18.5l10.5 9t11 8t8 11.5q15 11 24 22q-3 10 -28 12q-10 5 -19 11t-21 9q-5 7 -8.5 14t-13.5 10q0 5 -3.5 8t-5.5 6.5t-7.5 15.5t-1.5 36q9 1 15.5 6t15 4t13.5 -7.5t16 -8.5q-2 -5 0 -8.5t3 -6.5q8 -7 12 -15
t12 -15q10 -4 10 -5t5 -4l9.5 -5.5t7.5 -4t6 -3.5t6 -2.5t9.5 -6t9.5 -5t5 -1.5q3 -8 8 -10t3 -8q10 -7 14 -15q-2 -4 -1.5 -7t-1.5 -5q-11 -8 -18 -16q-5 1 -11 -1q-11 -9 -23 -15.5t-19 -18.5q-8 1 -9 -2.5t-8 -1.5q-5 -8 -10 -14.5t-15 -8.5q-1 -5 -3 -7t-2 -7z" />
    <glyph glyph-name="onequarter" unicode="&#xbc;" horiz-adv-x="569" 
d="M213 496q-7 -21 -7 -32v-19q-2 -15 -3 -39t-4.5 -35t-13 -21.5t-16.5 -12t-14 2.5t-14 2q-4 11 -9 17.5t-5 12.5v12q0 5 1 10l7 72v14q0 8 -4 14q3 5 2 9.5t-2 9.5q-12 -2 -34 -16q-21 2 -24 -3t-9 -5t-9.5 2t-7.5 4q-8 8 -12.5 10t-6 4.5t0 6t-0.5 8.5q18 8 21 6l18 -5
q20 0 32 12q8 5 17 16q11 2 18 9.5t15 14.5q-2 4 0 7t3.5 6.5t1.5 8t2 7.5l7 10q5 8 8 11q9 2 15.5 5.5t11.5 1.5q11 -8 11 -10t5.5 -13.5t5.5 -28t-2 -18.5t-2 -20l-3 -28q0 -3 -1 -8zM241 206q3 -23 -19 -37q0 -8 -4 -10.5t-7 -7.5q0 -13 -6.5 -17.5t-6.5 -17.5
q-5 -2 -8.5 -9t-9.5 -12q-16 -15 -31 -6q-4 0 -7.5 14t1 20.5t11 17.5t9.5 19t8.5 15t6 11t4.5 11t8 11t5.5 9.5t4 9t6 6t7 6.5t7 10t8.5 13q4 9 5.5 9t6.5 10t13.5 23t12.5 27q5 2 6.5 6t4 8t4.5 6.5t4.5 8t3.5 10t6.5 13t7.5 13.5t7 7q-1 8 2 10t2 10q9 7 8 11.5t2 4.5
q2 6 7 9.5t7 7t2.5 6.5t2.5 7t5.5 10t4.5 15q11 9 14 22t9 21q15 21 17 31.5t14 27.5q4 8 7 12t5 8t3 6.5t3 6t4 9t11.5 17t18.5 10.5q19 -4 14 -30q-2 -11 -3 -11l1 -3q0 -2 -6 -14q-5 -21 -14.5 -34.5t-13.5 -25.5q-8 -9 -11.5 -12.5t-5 -10.5t-3 -9t-3.5 -6t-3.5 -10
t-19.5 -40.5t-22.5 -37.5t-7 -9.5t-4.5 -14.5t-10 -13v-11q-2 -3 -5 -5t-4.5 -7t-2.5 -6.5t-7 -13l-17 -31.5l-20.5 -36t-12 -19.5t-6.5 -12t-5 -8t-3 -1.5q-4 -7 -5.5 -8t-3.5 -3q0 -3 -1.5 -4.5t-0.5 -6.5q-4 0 -6 -2t-6 -3zM475 215l-2 -38q0 -15 5 -23q12 -9 15.5 -6
t8 4.5t8.5 3.5t8 0q8 -2 10 -11l4 -18q-2 -4 -5.5 -4.5t-11 -5t-13.5 -3.5t-10 1q-14 -5 -17 -4t-6 -2q-9 -39 -11 -45.5t-0.5 -9t1.5 -5.5t-1.5 -5t-3 -5.5t0.5 -9t-3 -10.5q-12 -11 -18 -17t-13.5 -9t-23.5 10q-1 12 -2.5 14t-1.5 12t5.5 27.5t-1.5 34.5q-4 3 -11 3
q-6 2 -12 2l-19 -5q-8 -1 -17 1.5t-17 -3.5q-8 2 -13 2h-17q-4 2 -7 5t-8 4q-3 14 10 32q7 14 12.5 18.5t8 9t3.5 8.5q4 10 10 16q8 6 10 13.5t5 14t7.5 15t5.5 19.5q8 7 12 17.5t12 18.5v11q6 2 8.5 6.5t6.5 10.5t6 12q8 11 10.5 18t10.5 10l3 17q8 4 19 16t28 12
q4 -9 6 -11.5t3 -7.5t4.5 -8t5.5 -9q-4 -13 4 -23q-11 -50 -4 -81q2 -6 -3.5 -8.5t0.5 -20.5q-5 -5 -5 -11zM414 188l3 19q-2 17 -1.5 23.5t-4.5 10.5l-5 2q-2 -8 -5.5 -10t-5.5 -6.5t-1 -7t-4 -9.5t-6 -11.5t-6 -7.5q-3 -13 -9 -22.5t-10 -22.5q-16 -6 -11 -15q6 -4 13 -4
l41 7q2 5 6 12.5t5.5 14t0 13.5t0.5 14z" />
    <glyph glyph-name="onehalf" unicode="&#xbd;" horiz-adv-x="583" 
d="M266 400l9 18q0 2 4.5 7t5.5 11t8 18.5t13 15.5q0 5 3.5 8.5t4.5 7.5t11 14q4 10 10 17.5t9.5 14.5t8.5 12.5t8 13.5t9 19.5t9 16t5 6.5q6 12 11 20t7 12t5.5 8.5t5 4t3 1t2 5t2.5 5.5q9 5 10 6.5t10.5 3t14.5 -1.5l5 -15q1 -5 -1 -7t-4 -5.5t-2 -7.5t-2.5 -7.5t-6 -6
t-6.5 -6.5v-16q-2 -2 -3 -5.5t-5 -7.5t-2.5 -9t-14.5 -21q-1 -4 -2 -7t-1 -8q-3 -1 -5 -3.5t-7 -1.5q0 -16 -16 -23l-7 -19q0 -7 -9 -16t-9 -20q-8 -5 -11 -14t-9 -15l-2 -17q-5 -2 -4 -5.5t-7 -13.5t-15 -14q-6 -23 -17 -34q-1 -10 -6 -15t-5 -16q-10 -5 -13 -21
q-10 -8 -15.5 -19t-13.5 -20q2 -6 0 -8.5t-1 -8.5q-5 -5 -11.5 -8.5t-10 -7.5t-5 -8.5t-6.5 -3.5q-1 -13 -10 -24t-9 -13t-4.5 -5.5t-6.5 -6t-1.5 -6.5t-1.5 -7q-9 -9 -20 -12q-4 -4 -7 -8t-6.5 -7.5t-6.5 -5.5t-9 2.5t-6.5 6.5t-2.5 9q-3 7 -3 13.5t4 12t3 11.5l16 13
q-2 4 2.5 6.5t7 12t8 13.5t8 8.5t3.5 10t3 10.5q11 12 16 17t9 11q3 6 7 12.5t7 16t5 10.5q5 4 16 31q10 8 15 19.5t7 13t4 3.5q4 12 9 19.5t5 9.5zM112 485l3 12q-2 8 -0.5 12.5t-2.5 8.5q-17 2 -26 -12q-3 -1 -7 -1t-9 -2.5t-8 -5.5t-10.5 -2t-11 6l-8 12t-2 19t13 12
t12.5 -3.5t9 -4.5t12.5 4.5t12 9.5t6.5 5.5t4 2.5t5.5 4t6.5 3q5 10 4 14.5t4 17t9 33.5q5 5 16 8.5t22 -1.5q21 -31 17 -58q-1 -12 5 -22q-4 -2 -3 -7.5t-2 -7.5q4 -8 4 -21.5t-6 -37.5q0 -10 2.5 -18t-0.5 -20l-3 -11q-1 -5 0.5 -10.5t0.5 -10.5l-3 -16l2 -12l-2 -13v-18
q0 -25 -3.5 -28.5t-1.5 -8.5q-3 -2 -5 -5t-7 -1q0 -5 -3.5 -6.5t-5.5 -3.5q-11 3 -19.5 1t-14 0t-10.5 10.5t-5 13.5t1 16l-2 14q2 12 1 15t-1 5l3 19l-1 16q-2 14 1 31t5 21.5t2 9.5zM316 97l-2 15q1 4 2 9.5t4 11.5t7.5 12t6.5 8t9.5 12.5t15.5 11.5q3 10 9.5 16t10.5 16
q5 0 7.5 2.5t6.5 4.5q4 10 14 15q0 5 2 6.5t1 6.5q8 5 13 13.5t13 13.5q1 10 6.5 16.5t3.5 14.5q8 3 12 7q-2 6 2 10q13 13 13 46q-3 15 -2 21.5t-3 10.5q-8 2 -11 -2t-7 -7q-11 3 -14 -0.5t-7.5 -5t-8.5 -3.5l-4 -12.5t-6 -11.5q-2 -6 3.5 -7t4.5 -6.5t-5 -5.5t-8 -2
q1 -6 -2.5 -7.5t-5.5 -4.5q-6 1 -9 -1.5t-8 -1.5q-9 12 -11.5 17t-1 12t4.5 9.5t7 6.5q6 14 14 28q10 12 18 26q5 2 13 8q10 3 11.5 5t3 2.5t6 -0.5t11 1t8 1t11.5 1.5t35 -5.5q29 -22 37 -64q2 -14 -2.5 -29.5t-3.5 -31.5q-4 -4 -7.5 -8t-10.5 -6l-4 -10.5t-6 -13.5l-7 -14
q-4 -6 -9.5 -11t-6.5 -13q-5 -5 -13 -9t-10.5 -16t-10.5 -16q-6 -6 -7.5 -5.5t-6.5 -4.5t-4.5 -6t-4 -5t-4.5 -4.5t-1 -0.5q-4 -2 -4.5 -4.5t-3 -4.5t-6 -3.5t-5.5 -6.5q-8 -2 -10.5 -8.5t1.5 -14.5q8 -6 19.5 -9.5t19 -6t12.5 -3.5t8 0.5t6.5 1.5t9.5 -2.5t10.5 -3.5
t7.5 -0.5t8 0.5q9 -16 5 -32q-5 -3 -10.5 -2t-10.5 1l-12 -3q-9 4 -10.5 2.5t-7 0t-16.5 3t-16.5 3t-8.5 3.5t-7 3l-15 -2q-10 -2 -15 -2t-9 2t-11 -0.5t-11.5 -7.5t-11.5 -4.5t-11 6.5t-9 10z" />
    <glyph glyph-name="threequarters" unicode="&#xbe;" horiz-adv-x="659" 
d="M167 70q-2 7 -4 11t-0.5 11t7.5 14.5t6 16.5q14 10 25 24q5 12 6.5 13.5t3 4.5t3.5 7.5t7.5 12.5t7.5 11.5l4.5 8t7 10.5t6.5 10.5t3 9.5t3 10q7 8 8 12t4.5 10t12 18.5t15 25t15.5 25.5q5 14 7.5 22t7.5 13q-2 9 2 14t8 11q5 15 12.5 24t12 17.5t10 16t5.5 12.5t10 12.5
t14 26.5q4 2 6 6t6 9.5t8.5 17t8.5 20.5q9 18 20 32q8 14 10 18t4 7t5 8.5t6 8.5t7 9.5t6 11t7.5 6t9 1t6.5 -0.5q6 8 11 0q13 -20 6 -29q-2 -3 -5 -6q-10 -32 -21 -42q-2 -14 -11 -29.5t-11.5 -22.5t-5.5 -14q-6 -8 -6 -9t-5 -6t-12.5 -16.5t-16.5 -20.5
q-4 -17 -11.5 -27.5t-13.5 -23.5q0 -5 -4 -6.5t-7 -5.5v-8t-2 -8q-8 -5 -9.5 -15.5t-8.5 -15.5q-1 -4 -2 -7.5t-2 -7.5q-3 -2 -4.5 -4.5t-7 -9.5t-5.5 -14t-2 -11.5t-5.5 -6t-1.5 -6.5q-9 -5 -14.5 -14.5t-10.5 -17t-9 -12t-6 -8.5t-2 -9t-3 -11t-8.5 -10.5t-9.5 -13.5
l-6 -10q-8 -12 -12 -17.5t-6 -15.5q-12 -6 -14 -11t-8 -7q-1 -14 -9.5 -23.5t-12.5 -23.5q-5 -2 -6.5 -6t-7.5 -6t-13 -1.5t-19 0.5zM164 615l11 2q17 2 32 1.5t25 2t15.5 4t10 0.5t11 -8.5t5 -14.5t-6 -7t-8.5 -5q-15 -6 -18.5 -9.5t-11.5 -1.5q-4 -6 -10 -9.5t-7 -11.5
q-7 -1 -10 -6t-9 -7q9 -12 21.5 -17.5t14 -8.5t4.5 -6q7 -3 7.5 -5.5t3 -5t6 -12t9.5 -21.5t9 -17.5t4 -8.5q-2 -11 2 -19q4 -25 -5 -35.5t-9 -22.5q-7 -7 -7 -16q-8 -3 -13 -16q-5 -2 -8 -6l-8 -7q-8 -8 -15 -14t-21 -9q-9 -7 -15 -20q-11 -2 -20.5 -6.5t-20.5 0.5l-25 -11
q-5 6 -13 11l-12 8q-4 3 -9 4q0 4 -3 6.5t-6.5 7.5t-7.5 6.5t-8 4.5q-7 13 -8.5 29.5t1 25.5t9.5 14.5t9 12.5q7 1 11 4.5t12 2.5q3 -5 5 -10.5t5 -9.5q1 -7 -3 -14q10 -15 20 -21l10 -22t13 -19q14 5 20.5 16.5t15.5 20.5q2 16 8.5 20t9.5 12q0 8 2 9q7 3 3 34q0 33 -8 46
q0 13 -2 18q-6 6 -7.5 9t-4.5 5l-12 2q-11 -6 -14 -5t-8.5 -0.5t-13.5 -5t-15 -1.5q-9 8 -13 9.5t-6 5.5q-2 16 13 25q5 4 11 7.5t9.5 7t4.5 8t3 6.5q4 2 9.5 3t7.5 6q3 3 8.5 3.5t3.5 8.5q-12 9 -17 10t-15 0q-7 8 -11.5 8t-6.5 3q-3 0 -18 -3q-11 4 -19 12v15q29 15 41 5
q4 3 8 0.5t9 -3.5t10 0.5t10 0t8 -3t8 -1.5zM399 167l-20 -3q-14 5 -17 4.5t-6 1.5q-9 27 8 55l6 10.5t6 10t5.5 7.5t6.5 11t11 18l12 17.5l7.5 11t5 7.5t5.5 8t5 7.5t2.5 6.5t2.5 6.5t4.5 6t7 12t10.5 12.5q-1 7 2 9.5t2 7.5q8 5 14 15q9 7 18 15q19 18 40 15q2 -2 4.5 -3
t4 -5t5 -8t4.5 -13t5 -18t2.5 -15t4.5 -11q-4 -5 -2 -9t1 -8l-5 -14q0 -4 1.5 -8.5t0.5 -9.5t-2.5 -9.5t-3.5 -17t-2.5 -32.5t-3.5 -41q13 -12 17 -12t13.5 1t10.5 0t4.5 -1t7.5 2t7 1q17 -6 17 -16q0 -6 2 -14q-8 -6 -16.5 -5t-24.5 -2t-25.5 -2.5t-13 -5.5t-5 -12.5
t-3.5 -13.5t-3.5 -16.5t-6.5 -17.5v-10t-2 -9q0 -5 -4 -5.5t-8 -2.5q-2 -8 -7.5 -12t-10.5 -9q-8 1 -12 1t-9 -2q-6 5 -13.5 7.5t-9.5 10.5q2 20 5 43.5t2 43.5q-16 6 -23 3l-15 5q-3 1 -4.5 -2t-6 -2t-7.5 2t-8 2zM475 233q-1 7 2 13q-1 18 0.5 27.5t-0.5 18.5
q-13 -7 -18.5 -19.5t-11.5 -23.5q-6 -2 -8.5 -9t-8.5 -11q-3 -13 -6 -14t-2 -6q2 -7 9.5 -5.5t12.5 1t7.5 -2t6.5 -0.5t6.5 4t5.5 4q-2 7 1 13.5t4 9.5z" />
    <glyph glyph-name="questiondown" unicode="&#xbf;" horiz-adv-x="346" 
d="M249 549q7 -8 9 -20t-1.5 -19t-7.5 -11t-7 -9q-8 -1 -15.5 -6t-18.5 -7q-6 1 -10 0t-7 0.5t-8 1.5t-7 1l-11 10q-5 10 -5 13.5t1 6.5t3 10q7 19 25 27q17 -3 30 1.5t30 0.5zM102 232q3 -28 13 -35q-2 -11 5 -23q9 -18 11 -33.5t16 -36.5q9 -8 15 -15q20 -24 37 -17
q2 -5 5.5 -6.5t7.5 -3.5q5 3 9.5 6t5.5 9q4 2 5 0t6 0q14 12 32 35q-3 8 1 11t7 8q-2 7 0 10t0 8q-1 6 -9 14.5t-4 17.5q-12 7 -23 5t-16.5 2t-11 -1t-2.5 -13q4 -14 -4 -27l-5 -11q-22 -4 -34 10.5t-11 24.5t1 19q5 3 8 9.5t8 11.5q7 1 10 4.5t5 5.5q38 14 64 4
q3 -2 7 -3.5t6 -5.5q9 2 13 0q5 -6 8 -13.5t11 -23.5t2 -88q-18 -15 -30 -37q-9 0 -13 -6q-11 -17 -38 -17q-12 3 -16 1.5t-9.5 -2.5t-12 0t-13.5 -1q-5 6 -13 6q-13 0 -22 7t-17 8t-14 4t-12 9.5t-14 7.5q-1 5 -5 9.5t-7.5 9t-5.5 10.5t-7 9q-2 16 -8.5 28.5t-8.5 25t0 31
t5.5 25l5.5 10.5q6 17 14 25q18 25 31.5 32.5t19.5 11.5t14.5 6t16 0t15.5 3q5 1 7.5 -1t7.5 -3q8 3 16 16q17 15 19 53q2 5 -2.5 7t-5.5 6t0.5 7t-0.5 7q8 5 14 11t20 6q8 -2 12 -8.5t10 -9.5q1 -5 -1 -7.5t-1.5 -7t3.5 -8.5t2.5 -11.5t-5.5 -14.5t-4 -17q-7 -2 -8.5 -7.5
t-3.5 -11.5q-10 -4 -18 -14.5t-14.5 -14t-15.5 -10.5q-33 -5 -41 4q-5 -7 -13.5 -8.5t-13.5 -5t-6 -5.5t-5 -3q0 -7 -3 -12t-5 -12z" />
    <glyph glyph-name="Agrave" unicode="&#xc0;" horiz-adv-x="612" 
d="M491 268l10 -21l-2 -11q6 -12 6 -16q4 -9 3.5 -11.5t1 -5.5t3 -7l4 -10.5t5.5 -13t5.5 -12.5t3 -10.5t2.5 -9t4.5 -8t5 -8.5t4 -10.5t5 -15.5t8 -17t7.5 -13q-2 -6 1 -12t5 -13.5l4.5 -17t6 -15t3 -7t1.5 -6.5l10.5 -11t12 -7.5t11 0.5t10.5 -1q21 15 33 5
q18 -7 18.5 -22t-8.5 -19q-14 -4 -17 -7q-4 0 -9 1t-10.5 -0.5t-11.5 -5l-15.5 -9t-20.5 -0.5q-8 -3 -17 -10q-5 2 -8.5 -1t-8 -4t-9 -0.5t-10.5 0.5q-13 -5 -16 -5l-25 -6q-6 1 -11 5t-10 7v21q4 1 5.5 4.5t5 5.5t7.5 2q14 0 20 9q2 8 -2 13t0 11q-5 4 -3.5 12t-3 13.5
t-6.5 11t-1.5 13t-2 14.5t-7 14t-5.5 19l-20 4.5t-19 -2.5q-5 1 -8.5 3.5t-14 4.5t-26 -0.5t-28.5 4.5q-6 -2 -11 -2l-12 4q-5 0 -11.5 -3t-14.5 -4.5t-18 -0.5q-22 4 -38 2q-22 -5 -31 -3.5t-18 -2t-13 -2.5t-8 -0.5t-8 -7t-9 -7.5q-1 -9 -7 -17q-1 -4 -0.5 -8t-2 -12
t-1.5 -11t-0.5 -6.5t-5 -7.5t-5.5 -9.5t-3 -11t-4 -10.5q2 -8 6.5 -11.5t13 -7.5t21 -4t20.5 -6q2 -5 2.5 -14t-4.5 -12q-4 -1 -6.5 -2.5t-6.5 -0.5l-11 3q-6 1 -12.5 -0.5t-12 0.5t-8.5 4.5t-6 4.5q-5 -2 -10.5 0t-11.5 0.5t-8.5 -2.5t-5.5 -2l-15 2l-72 -2q-13 9 -18 6
t-10 -2q0 5 -4 5.5t-2 6.5v19q12 3 25 2t22 0.5t12.5 3.5t8.5 0q3 5 2 10t2 12.5t1 11.5t1 10.5t4.5 13.5t1 16t5.5 16q1 4 -1 5.5t3 14t8.5 35t10.5 41.5q-1 2 0 6.5t-2 4.5q11 27 12 42q4 4 7.5 12.5t1.5 14.5q4 1 4.5 4t2.5 5q4 23 5 42.5t11 34.5v19q11 16 9 26
q-2 16 7 34q1 8 3 10.5t4 5.5q0 5 2 15q6 16 5.5 21.5t1.5 17t8 25.5t7 28q4 8 7 18.5t6.5 20t6 18.5t10.5 17q2 7 3.5 13.5t3.5 12.5q7 10 6.5 13t3.5 12.5t4 17.5q8 5 8 12.5t3 14.5q7 7 6.5 8.5t2.5 5t9 9.5t9 13l2 16q16 21 34 17q12 -4 12 -16q0 -3 2 -6q7 -6 9 -13.5
t8.5 -17t10.5 -12t7 -9.5t6.5 -13.5t6.5 -13t3 -17t10 -14.5q3 -9 4 -9t3 -5q3 -7 8 -21t-1 -20q5 -3 5.5 -9.5t1.5 -13.5q5 -8 4 -11q2 -5 13 -18v-12q5 -12 9.5 -21.5t3.5 -14.5t1 -11.5t5.5 -12.5t1.5 -13q3 -6 6 -10.5t3.5 -8t4 -10.5t3.5 -10.5t4 -9.5t3.5 -11
t2.5 -14.5t0 -18.5q7 -9 7 -12t3 -9.5t6 -8.5t3 -12zM403 366l-8 24l-5 25q0 6 -3 10.5t-2.5 8t-0.5 8l-2 9t-0.5 9t-1.5 9t-6 9.5t-5 10.5t-0.5 9t0.5 8.5q-13 15 -13 38q-6 2 -8.5 8.5t-10.5 8.5q1 8 1 11t-2 11q-12 4 -17 2q-5 -9 -8.5 -19t-6.5 -16t-3 -9.5t-1 -10.5
q-5 -5 -5 -7t-4.5 -11.5t-5.5 -24.5q-2 -3 -5 -5.5t-3.5 -10t-2 -9.5t-2.5 -6t-0.5 -10.5t-3.5 -18.5t-8.5 -22t-4.5 -22q-9 -7 -11 -33q-3 -2 0.5 -4.5t1 -6t-5.5 -6t-3 -7.5q-3 -4 -2.5 -11.5t-3 -16t-5.5 -10.5t-1 -6t0.5 -4.5t-2 -5.5t-5.5 -10.5t-4.5 -13.5t-2 -17
t-1.5 -20q-5 -5 -5.5 -11t-3.5 -14.5t-3 -11.5l-10 -30q0 -3 -1 -7q6 -10 7.5 -9.5t4.5 -3t7.5 -3.5t8 -1.5t5.5 -3.5q5 -3 14 -1t15.5 -1t10.5 -4q20 5 41 4.5t40 5.5q4 -1 5.5 -2.5t8 -3t16 0.5t20.5 2q24 -4 27 -4l19 2l16 -4q16 3 16 13q1 5 -3 8t-4.5 8.5t-3 9.5
t-4 9.5t-1.5 19t-13 32.5q3 5 0 13t0 14q-10 13 -12 48q-5 6 -7.5 13l-7.5 20.5t-5 23t-5 14.5v9zM262 889l-16 18q-5 -1 -7 2t-8 4.5t-10 5.5q2 5 -0.5 8t0 9t3.5 11q6 18 29 15q4 -4 7 -5q6 0 20.5 -14.5t24.5 -18.5q21 -17 31 -19q4 -7 11 -12t12 -10.5l10 -11t12 -9.5
q6 -10 1 -29q-25 -17 -40 -8q-6 3 -12 5q-6 16 -17 20q-5 12 -11.5 16.5t-16 9t-13 9t-10.5 4.5z" />
    <glyph glyph-name="Aacute" unicode="&#xc1;" horiz-adv-x="612" 
d="M491 268l10 -21l-2 -11q6 -12 6 -16q4 -9 3.5 -11.5t1 -5.5t3 -7l4 -10.5t5.5 -13t5.5 -12.5t3 -10.5t2.5 -9t4.5 -8t5 -8.5t4 -10.5t5 -15.5t8 -17t7.5 -13q-2 -6 1 -12t5 -13.5l4.5 -17t6 -15t3 -7t1.5 -6.5l10.5 -11t12 -7.5t11 0.5t10.5 -1q21 15 33 5
q18 -7 18.5 -22t-8.5 -19q-14 -4 -17 -7q-4 0 -9 1t-10.5 -0.5t-11.5 -5l-15.5 -9t-20.5 -0.5q-8 -3 -17 -10q-5 2 -8.5 -1t-8 -4t-9 -0.5t-10.5 0.5q-13 -5 -16 -5l-25 -6q-6 1 -11 5t-10 7v21q4 1 5.5 4.5t5 5.5t7.5 2q14 0 20 9q2 8 -2 13t0 11q-5 4 -3.5 12t-3 13.5
t-6.5 11t-1.5 13t-2 14.5t-7 14t-5.5 19l-20 4.5t-19 -2.5q-5 1 -8.5 3.5t-14 4.5t-26 -0.5t-28.5 4.5q-6 -2 -11 -2l-12 4q-5 0 -11.5 -3t-14.5 -4.5t-18 -0.5q-22 4 -38 2q-22 -5 -31 -3.5t-18 -2t-13 -2.5t-8 -0.5t-8 -7t-9 -7.5q-1 -9 -7 -17q-1 -4 -0.5 -8t-2 -12
t-1.5 -11t-0.5 -6.5t-5 -7.5t-5.5 -9.5t-3 -11t-4 -10.5q2 -8 6.5 -11.5t13 -7.5t21 -4t20.5 -6q2 -5 2.5 -14t-4.5 -12q-4 -1 -6.5 -2.5t-6.5 -0.5l-11 3q-6 1 -12.5 -0.5t-12 0.5t-8.5 4.5t-6 4.5q-5 -2 -10.5 0t-11.5 0.5t-8.5 -2.5t-5.5 -2l-15 2l-72 -2q-13 9 -18 6
t-10 -2q0 5 -4 5.5t-2 6.5v19q12 3 25 2t22 0.5t12.5 3.5t8.5 0q3 5 2 10t2 12.5t1 11.5t1 10.5t4.5 13.5t1 16t5.5 16q1 4 -1 5.5t3 14t8.5 35t10.5 41.5q-1 2 0 6.5t-2 4.5q11 27 12 42q4 4 7.5 12.5t1.5 14.5q4 1 4.5 4t2.5 5q4 23 5 42.5t11 34.5v19q11 16 9 26
q-2 16 7 34q1 8 3 10.5t4 5.5q0 5 2 15q6 16 5.5 21.5t1.5 17t8 25.5t7 28q4 8 7 18.5t6.5 20t6 18.5t10.5 17q2 7 3.5 13.5t3.5 12.5q7 10 6.5 13t3.5 12.5t4 17.5q8 5 8 12.5t3 14.5q7 7 6.5 8.5t2.5 5t9 9.5t9 13l2 16q16 21 34 17q12 -4 12 -16q0 -3 2 -6q7 -6 9 -13.5
t8.5 -17t10.5 -12t7 -9.5t6.5 -13.5t6.5 -13t3 -17t10 -14.5q3 -9 4 -9t3 -5q3 -7 8 -21t-1 -20q5 -3 5.5 -9.5t1.5 -13.5q5 -8 4 -11q2 -5 13 -18v-12q5 -12 9.5 -21.5t3.5 -14.5t1 -11.5t5.5 -12.5t1.5 -13q3 -6 6 -10.5t3.5 -8t4 -10.5t3.5 -10.5t4 -9.5t3.5 -11
t2.5 -14.5t0 -18.5q7 -9 7 -12t3 -9.5t6 -8.5t3 -12zM403 366l-8 24l-5 25q0 6 -3 10.5t-2.5 8t-0.5 8l-2 9t-0.5 9t-1.5 9t-6 9.5t-5 10.5t-0.5 9t0.5 8.5q-13 15 -13 38q-6 2 -8.5 8.5t-10.5 8.5q1 8 1 11t-2 11q-12 4 -17 2q-5 -9 -8.5 -19t-6.5 -16t-3 -9.5t-1 -10.5
q-5 -5 -5 -7t-4.5 -11.5t-5.5 -24.5q-2 -3 -5 -5.5t-3.5 -10t-2 -9.5t-2.5 -6t-0.5 -10.5t-3.5 -18.5t-8.5 -22t-4.5 -22q-9 -7 -11 -33q-3 -2 0.5 -4.5t1 -6t-5.5 -6t-3 -7.5q-3 -4 -2.5 -11.5t-3 -16t-5.5 -10.5t-1 -6t0.5 -4.5t-2 -5.5t-5.5 -10.5t-4.5 -13.5t-2 -17
t-1.5 -20q-5 -5 -5.5 -11t-3.5 -14.5t-3 -11.5l-10 -30q0 -3 -1 -7q6 -10 7.5 -9.5t4.5 -3t7.5 -3.5t8 -1.5t5.5 -3.5q5 -3 14 -1t15.5 -1t10.5 -4q20 5 41 4.5t40 5.5q4 -1 5.5 -2.5t8 -3t16 0.5t20.5 2q24 -4 27 -4l19 2l16 -4q16 3 16 13q1 5 -3 8t-4.5 8.5t-3 9.5
t-4 9.5t-1.5 19t-13 32.5q3 5 0 13t0 14q-10 13 -12 48q-5 6 -7.5 13l-7.5 20.5t-5 23t-5 14.5v9zM383 955l-2 -13q-6 -5 -10.5 -10t-13 -11.5t-16.5 -20.5q-8 -3 -12 -10t-9.5 -11l-7.5 -5.5t-5 -3t-14 -15t-26 -19t-20 -6t-8 2.5t-8 5q-2 6 0 9.5t0 7.5q4 3 6 11t6.5 13.5
t6 8t11.5 10.5q8 4 10.5 7.5t6.5 7.5q7 4 9.5 6l11 8.5t9.5 11.5t4 8.5t7 7.5t5 9q15 16 29 25.5t37 7.5q9 -18 5 -36q-4 -1 -6 -6t-6 0z" />
    <glyph glyph-name="Acircumflex" unicode="&#xc2;" horiz-adv-x="612" 
d="M491 268l10 -21l-2 -11q6 -12 6 -16q4 -9 3.5 -11.5t1 -5.5t3 -7l4 -10.5t5.5 -13t5.5 -12.5t3 -10.5t2.5 -9t4.5 -8t5 -8.5t4 -10.5t5 -15.5t8 -17t7.5 -13q-2 -6 1 -12t5 -13.5l4.5 -17t6 -15t3 -7t1.5 -6.5l10.5 -11t12 -7.5t11 0.5t10.5 -1q21 15 33 5
q18 -7 18.5 -22t-8.5 -19q-14 -4 -17 -7q-4 0 -9 1t-10.5 -0.5t-11.5 -5l-15.5 -9t-20.5 -0.5q-8 -3 -17 -10q-5 2 -8.5 -1t-8 -4t-9 -0.5t-10.5 0.5q-13 -5 -16 -5l-25 -6q-6 1 -11 5t-10 7v21q4 1 5.5 4.5t5 5.5t7.5 2q14 0 20 9q2 8 -2 13t0 11q-5 4 -3.5 12t-3 13.5
t-6.5 11t-1.5 13t-2 14.5t-7 14t-5.5 19l-20 4.5t-19 -2.5q-5 1 -8.5 3.5t-14 4.5t-26 -0.5t-28.5 4.5q-6 -2 -11 -2l-12 4q-5 0 -11.5 -3t-14.5 -4.5t-18 -0.5q-22 4 -38 2q-22 -5 -31 -3.5t-18 -2t-13 -2.5t-8 -0.5t-8 -7t-9 -7.5q-1 -9 -7 -17q-1 -4 -0.5 -8t-2 -12
t-1.5 -11t-0.5 -6.5t-5 -7.5t-5.5 -9.5t-3 -11t-4 -10.5q2 -8 6.5 -11.5t13 -7.5t21 -4t20.5 -6q2 -5 2.5 -14t-4.5 -12q-4 -1 -6.5 -2.5t-6.5 -0.5l-11 3q-6 1 -12.5 -0.5t-12 0.5t-8.5 4.5t-6 4.5q-5 -2 -10.5 0t-11.5 0.5t-8.5 -2.5t-5.5 -2l-15 2l-72 -2q-13 9 -18 6
t-10 -2q0 5 -4 5.5t-2 6.5v19q12 3 25 2t22 0.5t12.5 3.5t8.5 0q3 5 2 10t2 12.5t1 11.5t1 10.5t4.5 13.5t1 16t5.5 16q1 4 -1 5.5t3 14t8.5 35t10.5 41.5q-1 2 0 6.5t-2 4.5q11 27 12 42q4 4 7.5 12.5t1.5 14.5q4 1 4.5 4t2.5 5q4 23 5 42.5t11 34.5v19q11 16 9 26
q-2 16 7 34q1 8 3 10.5t4 5.5q0 5 2 15q6 16 5.5 21.5t1.5 17t8 25.5t7 28q4 8 7 18.5t6.5 20t6 18.5t10.5 17q2 7 3.5 13.5t3.5 12.5q7 10 6.5 13t3.5 12.5t4 17.5q8 5 8 12.5t3 14.5q7 7 6.5 8.5t2.5 5t9 9.5t9 13l2 16q16 21 34 17q12 -4 12 -16q0 -3 2 -6q7 -6 9 -13.5
t8.5 -17t10.5 -12t7 -9.5t6.5 -13.5t6.5 -13t3 -17t10 -14.5q3 -9 4 -9t3 -5q3 -7 8 -21t-1 -20q5 -3 5.5 -9.5t1.5 -13.5q5 -8 4 -11q2 -5 13 -18v-12q5 -12 9.5 -21.5t3.5 -14.5t1 -11.5t5.5 -12.5t1.5 -13q3 -6 6 -10.5t3.5 -8t4 -10.5t3.5 -10.5t4 -9.5t3.5 -11
t2.5 -14.5t0 -18.5q7 -9 7 -12t3 -9.5t6 -8.5t3 -12zM403 366l-8 24l-5 25q0 6 -3 10.5t-2.5 8t-0.5 8l-2 9t-0.5 9t-1.5 9t-6 9.5t-5 10.5t-0.5 9t0.5 8.5q-13 15 -13 38q-6 2 -8.5 8.5t-10.5 8.5q1 8 1 11t-2 11q-12 4 -17 2q-5 -9 -8.5 -19t-6.5 -16t-3 -9.5t-1 -10.5
q-5 -5 -5 -7t-4.5 -11.5t-5.5 -24.5q-2 -3 -5 -5.5t-3.5 -10t-2 -9.5t-2.5 -6t-0.5 -10.5t-3.5 -18.5t-8.5 -22t-4.5 -22q-9 -7 -11 -33q-3 -2 0.5 -4.5t1 -6t-5.5 -6t-3 -7.5q-3 -4 -2.5 -11.5t-3 -16t-5.5 -10.5t-1 -6t0.5 -4.5t-2 -5.5t-5.5 -10.5t-4.5 -13.5t-2 -17
t-1.5 -20q-5 -5 -5.5 -11t-3.5 -14.5t-3 -11.5l-10 -30q0 -3 -1 -7q6 -10 7.5 -9.5t4.5 -3t7.5 -3.5t8 -1.5t5.5 -3.5q5 -3 14 -1t15.5 -1t10.5 -4q20 5 41 4.5t40 5.5q4 -1 5.5 -2.5t8 -3t16 0.5t20.5 2q24 -4 27 -4l19 2l16 -4q16 3 16 13q1 5 -3 8t-4.5 8.5t-3 9.5
t-4 9.5t-1.5 19t-13 32.5q3 5 0 13t0 14q-10 13 -12 48q-5 6 -7.5 13l-7.5 20.5t-5 23t-5 14.5v9zM315 949q0 -3 1.5 -5.5t0.5 -7.5q2 -5 10 -11q9 -27 29 -47q0 -5 3 -8.5t5.5 -7.5t6 -10.5t8.5 -11.5q-1 -8 1 -14.5t0 -13.5t-9 -12.5t-13 -5.5q-8 0 -17 11.5t-19 11.5
q0 6 -4 11q-9 8 -9 15q-9 8 -17 16.5t-19 16.5q-11 0 -28 -32q-4 -8 -5.5 -13.5t-8.5 -8.5v-13q-5 -6 -8 -13.5t-7 -14.5q-23 -6 -38 9q-2 7 -2 11q5 13 4 16t0.5 7.5t5 11t6.5 15t7 13.5t3 10q4 0 4 3.5t4 4.5q0 9 7 19t10.5 18.5t3.5 13t2 9.5q10 9 13 11t8 6q11 5 17 8
q6 -2 8 -0.5t7 0.5q9 -8 11.5 -8t1.5 -4q6 1 9 -1.5t7 -4.5z" />
    </font>
</defs>
</svg>
